<svg width="23" height="18" viewBox="0 0 23 18" fill="none" xmlns="http://www.w3.org/2000/svg">
<path d="M22.917 2.13282C22.073 2.49955 21.18 2.74116 20.2662 2.85001C21.2265 2.28769 21.9487 1.39434 22.2973 0.337508C21.3894 0.86841 20.3977 1.24092 19.3648 1.43907C18.9298 0.983225 18.4067 0.620588 17.8273 0.373201C17.2478 0.125814 16.6241 -0.00115656 15.994 7.93801e-06C13.4431 7.93801e-06 11.3787 2.03438 11.3787 4.5422C11.3769 4.89102 11.4169 5.23881 11.4978 5.57813C9.66856 5.49238 7.8774 5.02575 6.23886 4.2081C4.60032 3.39044 3.1505 2.23977 1.98215 0.829695C1.57226 1.52069 1.35549 2.30909 1.35449 3.11251C1.35449 4.68751 2.17621 6.0797 3.41699 6.89532C2.68186 6.87787 1.9618 6.68331 1.31793 6.32813V6.38438C1.31793 8.58751 2.91168 10.4203 5.02105 10.8375C4.62439 10.9432 4.21563 10.9968 3.80512 10.9969C3.51383 10.9974 3.2232 10.9691 2.93746 10.9125C3.52387 12.7172 5.23059 14.0297 7.25231 14.0672C5.60951 15.3333 3.59259 16.0175 1.51855 16.0125C1.15041 16.012 0.782601 15.99 0.416992 15.9469C2.52692 17.2942 4.97954 18.0068 7.48293 18C15.9842 18 20.6286 11.0766 20.6286 5.07188C20.6286 4.87501 20.6234 4.67813 20.614 4.48595C21.5155 3.84472 22.2953 3.04787 22.917 2.13282Z" fill="#4B5563"/>
</svg>
