<svg width="688" height="467" viewBox="0 0 688 467" fill="none" xmlns="http://www.w3.org/2000/svg">
<g clip-path="url(#clip0_28_578)">
<path d="M561.25 143.141C585.791 132.2 596.803 103.466 585.846 78.9614C574.889 54.4568 546.112 43.4612 521.572 54.4021C497.031 65.343 486.019 94.0773 496.976 118.582C507.933 143.087 536.71 154.082 561.25 143.141Z" fill="#4A739D"/>
<path d="M562.641 113.922H556.582V111.924H562.65C562.781 111.931 562.912 111.911 563.035 111.865C563.158 111.82 563.27 111.75 563.365 111.659C563.46 111.569 563.535 111.461 563.587 111.34C563.638 111.22 563.665 111.09 563.665 110.96V87.6674C563.665 87.5365 563.638 87.407 563.587 87.2867C563.535 87.1663 563.46 87.0578 563.365 86.9675C563.27 86.8772 563.158 86.8072 563.035 86.7616C562.912 86.7161 562.781 86.696 562.65 86.7025H520.182C520.051 86.696 519.92 86.7161 519.797 86.7616C519.674 86.8072 519.562 86.8772 519.467 86.9675C519.372 87.0578 519.296 87.1663 519.245 87.2867C519.193 87.407 519.167 87.5365 519.167 87.6674V110.892C519.167 111.023 519.193 111.152 519.245 111.273C519.296 111.393 519.372 111.502 519.467 111.592C519.562 111.682 519.674 111.752 519.797 111.798C519.92 111.843 520.051 111.863 520.182 111.857H526.24V113.873H520.182C519.377 113.873 518.605 113.554 518.036 112.986C517.467 112.418 517.147 111.647 517.147 110.844V87.6674C517.147 86.8639 517.467 86.0933 518.036 85.5251C518.605 84.9569 519.377 84.6377 520.182 84.6377H562.641C563.444 84.6402 564.215 84.9603 564.783 85.5279C565.352 86.0955 565.672 86.8647 565.675 87.6674V110.892C565.672 111.695 565.352 112.464 564.783 113.031C564.215 113.599 563.444 113.919 562.641 113.922Z" fill="white"/>
<path d="M557.553 123.011H525.24V105.846H557.553V123.011ZM527.221 120.985H555.62V107.863H527.308L527.221 120.985Z" fill="white"/>
<path d="M557.553 86.663H525.24V74.5442H557.553V86.663ZM527.221 84.6368H555.62V76.5608H527.308L527.221 84.6368Z" fill="white"/>
<path d="M559.61 105.846H523.209V107.863H559.61V105.846Z" fill="white"/>
<path d="M554.553 89.6919H551.519V91.7085H554.553V89.6919Z" fill="white"/>
<path d="M560.622 89.6919H557.588V91.7085H560.622V89.6919Z" fill="white"/>
<path d="M552.535 110.893H530.291V112.909H552.535V110.893Z" fill="white"/>
<path d="M552.535 116.95H530.291V118.966H552.535V116.95Z" fill="white"/>
<path d="M602.086 98.5703C617.589 98.5703 630.157 86.021 630.157 70.5406C630.157 55.0603 617.589 42.511 602.086 42.511C586.583 42.511 574.015 55.0603 574.015 70.5406C574.015 86.021 586.583 98.5703 602.086 98.5703Z" fill="#3D79FD"/>
<path d="M603.119 81.819C600.682 81.8189 598.3 81.0978 596.273 79.7467C594.246 78.3955 592.666 76.475 591.732 74.2275C590.797 71.9801 590.551 69.5066 591.024 67.1194C591.496 64.7322 592.667 62.5384 594.387 60.815C596.108 59.0916 598.301 57.916 600.69 57.4366C603.08 56.9572 605.557 57.1955 607.811 58.1215C610.065 59.0474 611.993 60.6194 613.353 62.639C614.712 64.6586 615.442 67.0352 615.449 69.4685C615.452 71.0879 615.135 72.6919 614.517 74.1889C613.898 75.686 612.991 77.0468 611.846 78.1936C610.701 79.3405 609.341 80.2509 607.844 80.8729C606.346 81.495 604.741 81.8164 603.119 81.819V81.819ZM603.119 58.6619C600.96 58.6601 598.849 59.2988 597.053 60.497C595.258 61.6952 593.859 63.3989 593.035 65.392C592.211 67.3851 591.998 69.5777 592.424 71.6917C592.85 73.8057 593.895 75.7457 595.427 77.2657C596.958 78.7857 598.908 79.8171 601.027 80.229C603.147 80.641 605.342 80.415 607.332 79.5797C609.323 78.7443 611.021 77.3373 612.21 75.5371C613.398 73.737 614.025 71.6248 614.009 69.4685C613.997 66.5911 612.844 63.8356 610.804 61.8037C608.764 59.7717 606.001 58.6284 603.119 58.6233V58.6619Z" fill="#FDFFFF"/>
<path d="M603.123 85.2829C602.933 85.2829 602.751 85.2077 602.617 85.0738C602.483 84.9399 602.408 84.7583 602.408 84.5689V54.4455C602.408 54.2561 602.483 54.0745 602.617 53.9406C602.751 53.8067 602.933 53.7314 603.123 53.7314C603.312 53.7314 603.494 53.8067 603.628 53.9406C603.763 54.0745 603.838 54.2561 603.838 54.4455V84.5689C603.838 84.7583 603.763 84.9399 603.628 85.0738C603.494 85.2077 603.312 85.2829 603.123 85.2829V85.2829Z" fill="#FDFFFF"/>
<path d="M618.207 70.2205H588.04C587.85 70.2205 587.668 70.1453 587.534 70.0114C587.4 69.8775 587.324 69.6959 587.324 69.5065C587.324 69.3171 587.4 69.1355 587.534 69.0016C587.668 68.8677 587.85 68.7925 588.04 68.7925H618.207C618.397 68.7925 618.579 68.8677 618.713 69.0016C618.847 69.1355 618.922 69.3171 618.922 69.5065C618.922 69.6959 618.847 69.8775 618.713 70.0114C618.579 70.1453 618.397 70.2205 618.207 70.2205Z" fill="#FDFFFF"/>
<path d="M454.354 119.12H365.069C364.63 119.122 364.196 119.037 363.79 118.87C363.384 118.703 363.016 118.458 362.705 118.149C362.395 117.84 362.148 117.472 361.98 117.068C361.812 116.663 361.725 116.23 361.725 115.792V115.792C361.725 114.906 362.078 114.057 362.705 113.431C363.332 112.805 364.182 112.453 365.069 112.453H454.354C454.793 112.453 455.227 112.54 455.632 112.707C456.037 112.875 456.405 113.121 456.715 113.432C457.025 113.742 457.27 114.11 457.437 114.515C457.604 114.92 457.689 115.354 457.688 115.792V115.792C457.689 116.229 457.604 116.663 457.437 117.067C457.27 117.471 457.024 117.839 456.714 118.148C456.404 118.458 456.036 118.703 455.631 118.87C455.226 119.036 454.792 119.122 454.354 119.12V119.12Z" fill="#F23B3B"/>
<path d="M675.645 196.024H632.307C631.869 196.026 631.435 195.94 631.03 195.773C630.625 195.607 630.257 195.361 629.947 195.052C629.637 194.743 629.391 194.375 629.224 193.971C629.057 193.566 628.972 193.133 628.973 192.695V192.695C628.972 192.257 629.057 191.824 629.224 191.419C629.391 191.014 629.636 190.645 629.946 190.335C630.256 190.025 630.624 189.779 631.029 189.611C631.434 189.443 631.868 189.357 632.307 189.357H675.645C676.084 189.357 676.518 189.443 676.923 189.611C677.328 189.779 677.696 190.025 678.006 190.335C678.316 190.645 678.561 191.014 678.728 191.419C678.895 191.824 678.98 192.257 678.979 192.695C678.98 193.133 678.895 193.566 678.728 193.971C678.561 194.375 678.315 194.743 678.005 195.052C677.695 195.361 677.327 195.607 676.922 195.773C676.517 195.94 676.083 196.026 675.645 196.024V196.024Z" fill="#F23B3B"/>
<path d="M77.4685 316.903H43.6483C43.2105 316.904 42.7768 316.819 42.3718 316.653C41.9669 316.487 41.5986 316.243 41.2882 315.935C40.9777 315.627 40.7311 315.26 40.5624 314.857C40.3937 314.454 40.3062 314.021 40.3049 313.584C40.3049 312.698 40.6572 311.849 41.2842 311.223C41.9112 310.597 42.7616 310.245 43.6483 310.245H77.4685C78.3552 310.245 79.2056 310.597 79.8327 311.223C80.4597 311.849 80.8119 312.698 80.8119 313.584V313.584C80.8106 314.021 80.7231 314.454 80.5544 314.857C80.3857 315.26 80.1391 315.627 79.8286 315.935C79.5182 316.243 79.15 316.487 78.745 316.653C78.3401 316.819 77.9063 316.904 77.4685 316.903Z" fill="#F23B3B"/>
<path d="M663.233 233.605H657.947C656.555 233.605 655.425 234.733 655.425 236.124V241.083C655.425 242.474 656.555 243.602 657.947 243.602H663.233C664.626 243.602 665.755 242.474 665.755 241.083V236.124C665.755 234.733 664.626 233.605 663.233 233.605Z" fill="#3D79FD"/>
<path d="M413.945 74.7666H408.659C407.266 74.7666 406.137 75.8941 406.137 77.2849V82.2444C406.137 83.6352 407.266 84.7627 408.659 84.7627H413.945C415.338 84.7627 416.467 83.6352 416.467 82.2444V77.2849C416.467 75.8941 415.338 74.7666 413.945 74.7666Z" fill="#3D79FD"/>
<path d="M81.2005 252.959H75.9149C74.522 252.959 73.3929 254.087 73.3929 255.478V260.437C73.3929 261.828 74.522 262.956 75.9149 262.956H81.2005C82.5934 262.956 83.7225 261.828 83.7225 260.437V255.478C83.7225 254.087 82.5934 252.959 81.2005 252.959Z" fill="#3D79FD"/>
<path d="M61.3508 124.371H104.805V80.633H61.3508L61.3508 124.371Z" fill="#DE6666"/>
<path d="M104.802 117.319V132.564L91.8053 117.319H104.802Z" fill="#DE6666"/>
<path d="M86.5876 112.01C86.5895 112.706 86.3841 113.387 85.9974 113.967C85.6108 114.546 85.0604 114.998 84.4162 115.264C83.772 115.53 83.063 115.6 82.3793 115.463C81.6956 115.326 81.068 114.99 80.5763 114.496C80.0846 114.002 79.751 113.374 79.6178 112.69C79.4845 112.007 79.5578 111.299 79.8282 110.657C80.0986 110.016 80.5539 109.468 81.1363 109.086C81.7187 108.703 82.402 108.501 83.0993 108.507C84.0254 108.515 84.9112 108.887 85.5643 109.543C86.2173 110.198 86.5851 111.085 86.5876 112.01V112.01Z" fill="white"/>
<path d="M83.1005 123.966C80.7326 123.966 78.4179 123.265 76.4491 121.952C74.4802 120.638 72.9457 118.771 72.0395 116.586C71.1334 114.402 70.8963 111.998 71.3582 109.679C71.8202 107.36 72.9604 105.23 74.6348 103.558C76.3092 101.886 78.4424 100.748 80.7649 100.286C83.0873 99.8251 85.4945 100.062 87.6822 100.967C89.8698 101.871 91.7397 103.404 93.0552 105.37C94.3707 107.336 95.0729 109.647 95.0729 112.011C95.0703 115.181 93.8081 118.221 91.5634 120.462C89.3187 122.703 86.275 123.964 83.1005 123.966V123.966ZM83.1005 103.395C81.3916 103.395 79.721 103.901 78.3002 104.85C76.8793 105.798 75.7721 107.146 75.1185 108.722C74.465 110.299 74.2945 112.034 74.6286 113.708C74.9627 115.381 75.7864 116.918 76.9955 118.124C78.2046 119.33 79.7448 120.151 81.4212 120.483C83.0975 120.814 84.8348 120.642 86.4131 119.988C87.9914 119.333 89.34 118.226 90.288 116.806C91.2361 115.387 91.7411 113.718 91.7392 112.011C91.7341 109.726 90.822 107.536 89.2028 105.921C87.5835 104.306 85.3892 103.398 83.1005 103.395V103.395Z" fill="white"/>
<path d="M83.0987 131.848C79.1694 131.848 75.3283 130.684 72.0612 128.504C68.7941 126.324 66.2477 123.226 64.744 119.601C63.2404 115.976 62.8469 111.988 63.6135 108.14C64.3801 104.291 66.2722 100.757 69.0507 97.9823C71.8291 95.2079 75.3691 93.3185 79.2229 92.5531C83.0767 91.7876 87.0713 92.1805 90.7015 93.682C94.3317 95.1834 97.4345 97.7261 99.6175 100.988C101.801 104.251 102.966 108.086 102.966 112.01C102.961 117.269 100.866 122.312 97.1411 126.032C93.4165 129.751 88.3662 131.842 83.0987 131.848V131.848ZM83.0987 95.52C79.8283 95.52 76.6314 96.4885 73.9123 98.303C71.1932 100.117 69.0741 102.696 67.8231 105.714C66.572 108.731 66.2451 112.051 66.8839 115.253C67.5226 118.456 69.0982 121.398 71.4114 123.706C73.7246 126.015 76.6714 127.586 79.8792 128.222C83.0869 128.858 86.4115 128.53 89.4324 127.279C92.4533 126.028 95.0348 123.91 96.8503 121.194C98.6659 118.478 99.6339 115.285 99.632 112.019C99.6243 107.644 97.8797 103.45 94.7805 100.358C91.6812 97.2648 87.4804 95.5251 83.0987 95.52V95.52Z" fill="white"/>
<path d="M241.123 113.748C263.201 113.748 281.098 95.8762 281.098 73.8307C281.098 51.7852 263.201 33.9138 241.123 33.9138C219.045 33.9138 201.147 51.7852 201.147 73.8307C201.147 95.8762 219.045 113.748 241.123 113.748Z" fill="#FDFFFF"/>
<path d="M257.255 67.5394C258.68 71.3301 258.723 75.5007 257.376 79.3197C256.029 83.1386 253.378 86.362 249.889 88.4245C246.4 90.4869 242.294 91.2566 238.293 90.5986C234.292 89.9406 230.651 87.897 228.009 84.8261C225.366 81.7552 223.891 77.8532 223.841 73.8046C223.792 69.7561 225.172 65.8194 227.739 62.6852C230.306 59.5511 233.896 57.4195 237.88 56.6646C241.864 55.9096 245.986 56.5794 249.525 58.5564" stroke="#0C253F" stroke-width="2.76" stroke-linecap="round" stroke-linejoin="round"/>
<path d="M238.5 66.4126L244.733 72.7808L256.928 58.5295" stroke="#0C253F" stroke-width="2.76" stroke-linecap="round" stroke-linejoin="round"/>
<path d="M87.4796 416.595C87.4796 416.595 93.0358 191.373 371.376 191.373C649.717 191.373 652.036 417.627 652.036 417.627L87.4796 416.595Z" fill="#203C58"/>
<path d="M563.185 281.781H536.67V417.626H563.185V281.781Z" fill="#7A98C5"/>
<path d="M529.035 403.318H571.552C574.945 403.318 578.199 404.664 580.599 407.06C582.998 409.456 584.346 412.705 584.346 416.093V417.608H516.242V416.093C516.242 412.705 517.59 409.456 519.989 407.06C522.388 404.664 525.642 403.318 529.035 403.318Z" fill="#7A98C5"/>
<path d="M555.628 281.781H529.113V417.626H555.628V281.781Z" fill="#506A93"/>
<path d="M521.479 403.318H563.995C567.388 403.318 570.643 404.664 573.042 407.06C575.441 409.456 576.789 412.705 576.789 416.093V417.608H508.685V416.093C508.685 412.705 510.033 409.456 512.432 407.06C514.831 404.664 518.085 403.318 521.479 403.318Z" fill="#2F3052"/>
<g style="mix-blend-mode:multiply">
<path d="M529.113 281.781V299.362L563.184 287.899V281.781H529.113Z" fill="#ACACAC"/>
</g>
<path d="M283.994 281.781H257.479V417.626H283.994V281.781Z" fill="#7A98C5"/>
<path d="M249.845 403.318H292.362C295.755 403.318 299.009 404.664 301.408 407.06C303.807 409.456 305.155 412.705 305.155 416.093V417.608H237.051V416.093C237.051 412.705 238.399 409.456 240.798 407.06C243.198 404.664 246.452 403.318 249.845 403.318V403.318Z" fill="#7A98C5"/>
<path d="M276.437 281.781H249.922V417.626H276.437V281.781Z" fill="#506A93"/>
<path d="M242.286 403.318H284.803C288.196 403.318 291.45 404.664 293.849 407.06C296.249 409.456 297.597 412.705 297.597 416.093V417.608H229.502V416.093C229.502 412.707 230.848 409.459 233.246 407.063C235.643 404.668 238.895 403.321 242.286 403.318V403.318Z" fill="#506A93"/>
<g style="mix-blend-mode:multiply">
<path d="M249.922 281.781V299.362L283.994 287.899V281.781H249.922Z" fill="#ACACAC"/>
</g>
<path d="M510.104 173.504H579.242C581.996 173.507 584.699 174.24 587.076 175.629C589.453 177.017 591.418 179.011 592.77 181.406L613.062 217.734C613.633 218.745 613.928 219.888 613.918 221.049C613.909 222.209 613.596 223.347 613.009 224.349C612.423 225.351 611.584 226.182 610.577 226.76C609.569 227.338 608.427 227.643 607.265 227.643H533.633L510.104 173.504Z" fill="#506A93"/>
<g style="mix-blend-mode:multiply">
<path d="M543.877 173.493L574.325 227.642H549.926L520.348 173.493H543.877Z" fill="#ACACAC"/>
</g>
<path d="M559.098 186.749L562.538 192.789H580.772L577.245 186.749H559.098Z" fill="#A3C4F5"/>
<path d="M563.62 194.777L564.635 196.581H582.878L581.767 194.777H563.62Z" fill="#FCFCFC"/>
<path d="M565.462 198.03L566.477 199.834H584.72L583.609 198.03H565.462Z" fill="#FCFCFC"/>
<path d="M566.979 201.263L567.994 203.077H586.238L585.126 201.263H566.979Z" fill="#F23B3B"/>
<path d="M571.569 209.088L572.584 210.892H590.818L589.707 209.088H571.569Z" fill="#FCFCFC"/>
<path d="M573.419 212.329L574.433 214.143H592.667L591.556 212.329H573.419Z" fill="#FCFCFC"/>
<path d="M568.776 204.561L570.351 207.359H598.528L596.808 204.561H568.776Z" fill="#A3C4F5"/>
<path d="M580.772 186.749L590.019 202.727H596.31L586.975 186.749H580.772Z" fill="#A3C4F5"/>
<path d="M592.669 209.088L595.713 214.144H602.004L598.863 209.088H592.669Z" fill="#A3C4F5"/>
<path d="M250.27 281.744H576.596V261.24C576.595 253.629 574.703 246.136 571.088 239.434L540.611 182.902C539.079 180.06 536.805 177.686 534.03 176.032C531.255 174.377 528.083 173.504 524.851 173.504H250.27V281.744Z" fill="#7A98C5"/>
<path d="M225.395 281.744H304.583V261.24C304.582 253.629 302.689 246.136 299.075 239.434L268.443 182.613C266.959 179.858 264.755 177.556 262.065 175.952C259.375 174.348 256.299 173.502 253.166 173.504H225.395V281.744Z" fill="#506A93"/>
<path d="M339.688 224.302L321.405 191.863H495.638L518.829 230.873" fill="#506A93"/>
<path d="M339.688 224.302L321.405 191.863H495.638L518.829 230.873" stroke="#506A93" stroke-width="1.06" stroke-miterlimit="10"/>
<path d="M328 207L507 207" stroke="#7A98C5" stroke-width="2.12" stroke-miterlimit="10"/>
<path d="M335 219H513.685L521 231L338.224 224.524L335 219Z" fill="#7A98C5"/>
<path d="M327.649 135.188H319.261V173.494H327.649V135.188Z" fill="#7A98C5"/>
<path d="M319.264 135.188H298.305V173.494H319.264V135.188Z" fill="#506A93"/>
<path d="M313.17 135.188H304.782V173.494H313.17V135.188Z" fill="#7A98C5"/>
<path d="M304.777 135.188H283.818V173.494H304.777V135.188Z" fill="#506A93"/>
<path d="M298.501 135.188H290.114V173.494H298.501V135.188Z" fill="#7A98C5"/>
<path d="M290.109 135.188H269.15V173.494H290.109V135.188Z" fill="#506A93"/>
<path d="M282.867 135.188H274.48V173.494H282.867V135.188Z" fill="#7A98C5"/>
<path d="M274.475 135.188H253.516V173.494H274.475V135.188Z" fill="#506A93"/>
<path d="M280.844 141.141C280.846 141.571 280.72 141.992 280.482 142.35C280.244 142.708 279.905 142.988 279.508 143.154C279.111 143.319 278.674 143.364 278.251 143.281C277.829 143.198 277.441 142.992 277.136 142.689C276.831 142.386 276.623 141.999 276.538 141.578C276.453 141.156 276.496 140.719 276.66 140.322C276.824 139.925 277.103 139.585 277.461 139.346C277.818 139.107 278.239 138.98 278.67 138.98C279.245 138.98 279.796 139.207 280.204 139.612C280.611 140.017 280.841 140.567 280.844 141.141V141.141Z" fill="#FDFFFF"/>
<path d="M296.478 141.141C296.48 141.571 296.354 141.992 296.116 142.35C295.879 142.708 295.54 142.988 295.143 143.154C294.745 143.319 294.308 143.364 293.886 143.281C293.463 143.198 293.075 142.992 292.77 142.689C292.465 142.386 292.257 141.999 292.172 141.578C292.088 141.156 292.13 140.719 292.294 140.322C292.459 139.925 292.737 139.585 293.095 139.346C293.453 139.107 293.873 138.98 294.304 138.98C294.879 138.98 295.43 139.207 295.838 139.612C296.245 140.017 296.475 140.567 296.478 141.141V141.141Z" fill="#FDFFFF"/>
<path d="M311.146 141.141C311.148 141.571 311.022 141.992 310.784 142.35C310.547 142.708 310.208 142.988 309.811 143.154C309.413 143.319 308.976 143.364 308.554 143.281C308.131 143.198 307.743 142.992 307.438 142.689C307.133 142.386 306.925 141.999 306.84 141.578C306.756 141.156 306.798 140.719 306.962 140.322C307.127 139.925 307.405 139.585 307.763 139.346C308.121 139.107 308.541 138.98 308.972 138.98C309.547 138.98 310.098 139.207 310.506 139.612C310.913 140.017 311.143 140.567 311.146 141.141V141.141Z" fill="#FDFFFF"/>
<path d="M323.398 143.31C324.599 143.31 325.572 142.338 325.572 141.139C325.572 139.94 324.599 138.969 323.398 138.969C322.198 138.969 321.224 139.94 321.224 141.139C321.224 142.338 322.198 143.31 323.398 143.31Z" fill="#FDFFFF"/>
<g style="mix-blend-mode:multiply">
<path d="M327.65 167.934H253.516V173.491H327.65V167.934Z" fill="#ACACAC"/>
</g>
<path d="M355.429 360.234C355.429 368.886 358.871 377.184 364.998 383.302C371.125 389.42 379.435 392.857 388.1 392.857H459.76V360.234H355.429Z" fill="#F2F8FF"/>
<path d="M339.689 224.303H505.892C505.892 224.303 529.083 226.156 529.083 255.749V360.235H355.43V257.254C355.435 247.543 351.893 238.164 345.468 230.874L339.689 224.303Z" fill="#F2F8FF"/>
<g style="mix-blend-mode:multiply">
<path d="M447.088 311.17C462.442 311.17 474.888 298.741 474.888 283.41C474.888 268.079 462.442 255.651 447.088 255.651C431.734 255.651 419.288 268.079 419.288 283.41C419.288 298.741 431.734 311.17 447.088 311.17Z" fill="#61ABEB"/>
</g>
<g style="mix-blend-mode:multiply">
<path d="M428.736 342.306C444.09 342.306 456.536 329.877 456.536 314.546C456.536 299.215 444.09 286.787 428.736 286.787C413.382 286.787 400.936 299.215 400.936 314.546C400.936 329.877 413.382 342.306 428.736 342.306Z" fill="#C80788"/>
</g>
<g style="mix-blend-mode:multiply">
<path d="M468.248 342.306C483.602 342.306 496.048 329.877 496.048 314.546C496.048 299.215 483.602 286.787 468.248 286.787C452.895 286.787 440.448 299.215 440.448 314.546C440.448 329.877 452.895 342.306 468.248 342.306Z" fill="#F8F039"/>
</g>
<path d="M447.54 360.235C447.54 360.235 432.176 358.884 432.176 375.104C432.176 391.324 418.986 392.858 418.986 392.858H459.763V360.235H447.54Z" fill="#7092BB"/>
<path d="M447.537 360.234H622.291C622.291 360.234 638.582 361.083 638.582 378.982V400.132H459.818V377.843C459.818 377.843 459.664 360.234 447.537 360.234Z" fill="#9ABDE7"/>
<path d="M678.339 400.131C678.339 400.131 680.485 413.292 659.014 417.45H489.487L510.108 400.131V382.223H678.339V400.131Z" fill="#CEE3FD"/>
<path d="M459.766 400.133C459.779 404.723 461.611 409.121 464.861 412.366C468.111 415.611 472.515 417.44 477.111 417.453H492.756C497.36 417.453 501.777 415.63 505.037 412.383C508.298 409.136 510.136 404.731 510.149 400.133H459.766Z" fill="#9ABDE7"/>
<path d="M112.273 398.377H126.999L151.349 411.383L109.47 410.882L112.273 398.377Z" fill="#101010"/>
<path d="M109.327 416.392L109.472 410.883L151.351 411.384L151.206 416.884L109.327 416.392Z" fill="white"/>
<path d="M137.174 403.164L132.352 404.485" stroke="white" stroke-width="0.96" stroke-linecap="round" stroke-linejoin="round"/>
<path d="M132.457 400.751L127.626 402.064" stroke="white" stroke-width="0.96" stroke-linecap="round" stroke-linejoin="round"/>
<path d="M130.698 377.64H115.682L112.271 398.375H127.278L130.698 377.64Z" fill="#FDFFFF"/>
<path d="M157.784 398.829H172.511L196.871 411.836L154.992 411.334L157.784 398.829Z" fill="#101010"/>
<path d="M154.848 416.835L154.993 411.335L196.872 411.837L196.727 417.336L154.848 416.835Z" fill="white"/>
<path d="M182.697 403.616L177.866 404.928" stroke="white" stroke-width="0.96" stroke-linecap="round" stroke-linejoin="round"/>
<path d="M177.979 401.204L173.147 402.516" stroke="white" stroke-width="0.96" stroke-linecap="round" stroke-linejoin="round"/>
<path d="M172.55 378.096H157.543L157.785 398.831H172.801L172.55 378.096Z" fill="#FDFFFF"/>
<path d="M170.475 221.921C170.475 221.921 171.712 224.575 173.992 248.938C174.456 253.955 174.746 260.941 174.698 265.978L175.867 391.19L154.386 390.958L150.299 258.674L132.722 392.27L110.323 391.46L124.325 225.684L134.432 223.938L170.475 221.921Z" fill="#6F7290"/>
<path d="M150.289 258.672L159.478 254.456" stroke="#4F5270" stroke-width="1.11" stroke-linecap="round" stroke-linejoin="round"/>
<path d="M169.21 156.638C169.21 156.638 181.83 164.144 184.284 184.484L166.263 194.364L169.21 156.638Z" fill="#3D79FD"/>
<path d="M145.098 150.279C138.884 150.781 132.778 152.199 126.98 154.486C125.559 155.055 124.158 155.672 122.883 156.338C118.863 158.442 120.061 162.986 120.573 167.618L122.931 230.335L173.594 229.051L175.604 169.702C175.845 166.606 175.066 163.517 173.386 160.904C171.706 158.291 169.217 156.298 166.298 155.229C159.66 152.894 151.562 150.279 148.035 150.057L145.098 150.279Z" fill="#3D79FD"/>
<path d="M174.129 191.218L175.385 172.856" stroke="#FDFFFF" stroke-width="0.98" stroke-miterlimit="10"/>
<path d="M163.308 154.166C163.308 154.166 153.983 150.519 148.031 150.027C148.031 150.027 139.894 150.374 134.299 152.101C134.299 152.101 137.401 158.701 151.693 159.82C165.984 160.94 163.308 154.166 163.308 154.166Z" fill="#E3A299"/>
<path d="M206.441 184.541L195.86 233.653C195.691 234.48 195.239 235.221 194.581 235.75C193.923 236.278 193.1 236.561 192.256 236.548L152.889 235.853C152.352 235.847 151.822 235.72 151.34 235.483C150.858 235.245 150.435 234.903 150.102 234.481C149.77 234.059 149.536 233.568 149.418 233.044C149.3 232.521 149.301 231.977 149.42 231.454L160.475 182.341C160.659 181.531 161.117 180.809 161.771 180.296C162.426 179.782 163.237 179.51 164.069 179.524L202.963 180.209C203.493 180.22 204.014 180.347 204.49 180.581C204.966 180.815 205.384 181.15 205.716 181.563C206.048 181.976 206.285 182.457 206.41 182.972C206.535 183.486 206.546 184.022 206.441 184.541Z" fill="#131314"/>
<path d="M205.355 181.114L207.684 183.517L152.548 236.951L150.055 234.375L205.355 181.114Z" fill="#131314"/>
<path d="M208.538 186.694L197.909 235.806C197.743 236.634 197.292 237.377 196.633 237.906C195.974 238.436 195.15 238.717 194.304 238.7L154.938 238.015C154.401 238.004 153.873 237.873 153.393 237.634C152.912 237.394 152.491 237.051 152.159 236.629C151.828 236.208 151.594 235.718 151.474 235.195C151.355 234.672 151.353 234.129 151.469 233.606L162.533 184.503C162.713 183.69 163.17 182.965 163.825 182.449C164.48 181.934 165.294 181.661 166.127 181.676L205.021 182.361C205.554 182.366 206.08 182.489 206.561 182.721C207.041 182.952 207.464 183.287 207.8 183.701C208.136 184.115 208.377 184.597 208.504 185.115C208.632 185.632 208.643 186.171 208.538 186.694Z" fill="#404366"/>
<path d="M186.883 204.641C186.97 205.466 186.81 206.298 186.424 207.033C186.037 207.767 185.441 208.371 184.711 208.767C183.981 209.164 183.15 209.335 182.322 209.26C181.495 209.185 180.708 208.866 180.062 208.345C179.415 207.823 178.938 207.122 178.691 206.33C178.443 205.538 178.436 204.69 178.671 203.894C178.906 203.098 179.371 202.39 180.009 201.858C180.647 201.326 181.429 200.995 182.255 200.907C182.805 200.848 183.36 200.898 183.89 201.053C184.421 201.209 184.915 201.468 185.345 201.815C185.775 202.162 186.132 202.59 186.396 203.075C186.66 203.56 186.826 204.092 186.883 204.641V204.641Z" fill="#9297B7"/>
<path d="M209.243 201.242L206.286 213.236C206.109 213.945 205.697 214.574 205.116 215.019C204.535 215.464 203.82 215.7 203.088 215.687V215.687C202.044 215.669 201.017 215.423 200.079 214.967C199.14 214.511 198.313 213.855 197.655 213.047C196.996 212.238 196.523 211.295 196.268 210.284C196.013 209.273 195.983 208.219 196.179 207.196L196.942 203.201C197.239 201.647 198.044 200.234 199.232 199.186C200.419 198.139 201.922 197.514 203.503 197.412L205.9 197.248C206.406 197.217 206.913 197.305 207.379 197.505C207.845 197.706 208.257 198.012 208.583 198.401C208.908 198.79 209.137 199.25 209.252 199.743C209.367 200.237 209.364 200.75 209.243 201.242V201.242Z" fill="#E3A299"/>
<path d="M94.6407 185.844L118.46 222.172L112.044 229.437L85.7509 202.749L94.6407 185.844Z" fill="#E3A299"/>
<path d="M140.354 223.851L130.16 218.486L131.126 216.17C131.302 215.76 131.343 215.305 131.244 214.87C131.145 214.435 130.911 214.042 130.575 213.748C130.228 213.462 129.793 213.305 129.343 213.305C128.893 213.305 128.458 213.462 128.111 213.748L118.071 221.911L112.09 229.437C117.598 234.32 121.192 234.262 123.27 233.297L123.995 233.548L132.469 236.056C132.848 236.224 133.277 236.238 133.665 236.093C134.054 235.949 134.37 235.659 134.546 235.284C134.827 234.706 134.923 233.789 133.29 232.93L134.923 233.789C135.122 233.877 135.336 233.925 135.553 233.929C135.77 233.934 135.986 233.896 136.188 233.817C136.39 233.738 136.574 233.62 136.731 233.469C136.887 233.319 137.011 233.139 137.097 232.94C137.235 232.486 137.207 231.998 137.018 231.563C136.828 231.128 136.49 230.775 136.064 230.566L137.31 231.068C137.528 231.163 137.764 231.211 138.002 231.209C138.24 231.207 138.475 231.156 138.692 231.057C138.909 230.959 139.102 230.817 139.261 230.639C139.419 230.461 139.538 230.252 139.61 230.026C139.74 229.602 139.714 229.145 139.537 228.738C139.36 228.331 139.043 228.001 138.644 227.807L136.846 226.842L138.982 227.372C139.221 227.457 139.476 227.492 139.729 227.475C139.982 227.457 140.23 227.388 140.455 227.271C140.681 227.155 140.88 226.993 141.04 226.796C141.201 226.599 141.319 226.372 141.388 226.128C141.492 225.687 141.447 225.225 141.26 224.813C141.073 224.401 140.754 224.063 140.354 223.851V223.851Z" fill="#E3A299"/>
<path d="M137.377 227.141L131.348 224.198" stroke="#171717" stroke-width="0.41" stroke-linecap="round" stroke-linejoin="round"/>
<path d="M135.759 230.47L129.951 227.971" stroke="#171717" stroke-width="0.41" stroke-linecap="round" stroke-linejoin="round"/>
<path d="M133.782 233.17L128.864 231.163" stroke="#171717" stroke-width="0.41" stroke-linecap="round" stroke-linejoin="round"/>
<path d="M128.053 175.827L97.7598 202.892C96.418 204.324 94.6021 205.223 92.648 205.421C90.6939 205.62 88.7339 205.105 87.1306 203.972V203.972C86.1394 203.254 85.3079 202.338 84.6886 201.283C84.0692 200.228 83.6755 199.056 83.532 197.841C83.3886 196.627 83.4986 195.396 83.8552 194.226C84.2118 193.056 84.8071 191.972 85.6038 191.043L114.1 162.212C115.698 160.329 117.978 159.155 120.441 158.948C122.904 158.74 125.349 159.515 127.241 161.103C128.29 161.999 129.146 163.098 129.758 164.333C130.369 165.569 130.724 166.915 130.799 168.292C130.875 169.668 130.671 171.045 130.199 172.34C129.727 173.635 128.997 174.821 128.053 175.827V175.827Z" fill="#E3A299"/>
<path d="M128.72 153.819C128.72 153.819 116.554 156.308 101.461 174.988L114.39 192.356L134.102 177.738L128.72 153.819Z" fill="#3D79FD"/>
<path d="M121.081 187.356L132.512 178.875" stroke="#FDFFFF" stroke-width="0.98" stroke-miterlimit="10"/>
<path d="M165.614 122.538C165.828 123.485 166.319 124.347 167.025 125.016C167.73 125.684 168.618 126.129 169.576 126.294C170.534 126.458 171.52 126.336 172.408 125.942C173.297 125.547 174.049 124.899 174.568 124.078C175.088 123.257 175.352 122.301 175.328 121.331C175.303 120.36 174.991 119.418 174.431 118.625C173.871 117.831 173.088 117.221 172.181 116.871C171.273 116.522 170.283 116.449 169.334 116.662C168.703 116.803 168.106 117.067 167.578 117.439C167.049 117.811 166.599 118.284 166.254 118.829C165.908 119.375 165.674 119.984 165.564 120.62C165.454 121.256 165.471 121.908 165.614 122.538V122.538Z" fill="#1E0B02"/>
<path d="M158.064 134.628L157.62 153.945L143.087 152.681L146.672 121.303L158.064 134.628Z" fill="#E3A299"/>
<path d="M157.809 145.934L147.45 132.165L158.002 135.668L157.809 145.934Z" fill="#1E0B02"/>
<path d="M164.882 101.648C169.849 102.304 172.274 107.562 172.767 112.261C173.327 117.693 173.83 126.107 172.139 130.237C169.53 136.615 163.974 140.349 155.586 138.072C155.586 138.072 145.759 136.875 144.329 122.084C142.648 104.59 154.311 100.229 164.882 101.648Z" fill="#E3A299"/>
<path d="M169.867 119.258C169.907 119.478 170.012 119.681 170.169 119.842C170.325 120.002 170.525 120.113 170.744 120.159C170.963 120.205 171.191 120.186 171.399 120.103C171.607 120.02 171.786 119.877 171.912 119.692C172.039 119.507 172.107 119.289 172.11 119.066C172.112 118.842 172.047 118.623 171.924 118.436C171.802 118.249 171.626 118.102 171.42 118.015C171.213 117.928 170.986 117.904 170.766 117.946C170.473 118.002 170.214 118.172 170.046 118.417C169.877 118.663 169.813 118.965 169.867 119.258Z" fill="#1E0B02"/>
<path d="M160.408 119.258C160.448 119.478 160.553 119.681 160.709 119.842C160.866 120.002 161.066 120.113 161.285 120.159C161.504 120.205 161.732 120.186 161.94 120.103C162.148 120.02 162.327 119.877 162.453 119.692C162.58 119.507 162.648 119.289 162.65 119.066C162.653 118.842 162.588 118.623 162.465 118.436C162.343 118.249 162.167 118.102 161.96 118.015C161.754 117.928 161.527 117.904 161.307 117.946C161.014 118.002 160.755 118.172 160.587 118.417C160.418 118.663 160.354 118.965 160.408 119.258Z" fill="#1E0B02"/>
<path d="M167.778 120.5L168.812 124.234C168.831 124.317 168.832 124.402 168.818 124.485C168.803 124.568 168.771 124.647 168.725 124.718C168.68 124.789 168.62 124.85 168.55 124.898C168.481 124.946 168.402 124.979 168.319 124.997L167.131 125.218" stroke="#1E0B02" stroke-width="0.6" stroke-linecap="round" stroke-linejoin="round"/>
<path d="M168.883 111.144C168.883 111.144 168.439 112.475 170.101 112.746C171.047 112.846 171.977 113.056 172.874 113.373C173.069 113.456 173.286 113.468 173.489 113.409C173.692 113.349 173.867 113.22 173.985 113.045V113.045C174.077 112.901 174.126 112.733 174.126 112.562C174.126 112.391 174.077 112.224 173.985 112.08C173.674 111.609 173.269 111.207 172.795 110.9C172.321 110.593 171.789 110.387 171.231 110.295C169.26 109.928 168.883 111.144 168.883 111.144Z" fill="#1F1E2D"/>
<path d="M163.054 111.199C163.054 111.199 163.566 112.54 161.421 112.771C159.895 112.999 158.391 113.361 156.928 113.852C156.685 113.937 156.423 113.949 156.173 113.885C155.924 113.822 155.699 113.686 155.527 113.495V113.495C155.406 113.363 155.339 113.191 155.339 113.013C155.339 112.834 155.406 112.662 155.527 112.53C156.785 111.355 158.361 110.573 160.059 110.282C162.629 109.992 163.054 111.199 163.054 111.199Z" fill="#1F1E2D"/>
<path d="M161.824 127.364C162.675 127.958 163.646 128.362 164.668 128.545C165.691 128.728 166.742 128.687 167.747 128.425" stroke="#1E0B02" stroke-width="0.6" stroke-linecap="round" stroke-linejoin="round"/>
<path d="M148.417 124.729L150.582 113.923C151.075 111.414 150.273 109.349 149.731 106.3C159.24 106.3 170.42 106.175 170.42 105.335C170.42 105.335 167.714 94.5383 150.128 97.6162C123.69 102.142 135.807 126.765 145.431 132.188L148.417 124.729Z" fill="#1F1E2D"/>
<path d="M138.918 123.501C139.154 124.537 139.692 125.48 140.464 126.21C141.237 126.941 142.208 127.427 143.257 127.606C144.306 127.786 145.384 127.651 146.356 127.218C147.328 126.786 148.15 126.076 148.717 125.178C149.285 124.279 149.574 123.233 149.546 122.171C149.519 121.109 149.177 120.079 148.564 119.211C147.951 118.343 147.093 117.676 146.101 117.294C145.108 116.912 144.024 116.832 142.986 117.065C142.295 117.22 141.642 117.51 141.063 117.917C140.485 118.325 139.992 118.843 139.615 119.44C139.237 120.038 138.981 120.705 138.861 121.401C138.741 122.098 138.761 122.812 138.918 123.501V123.501Z" fill="#E3A299"/>
<path d="M141.864 120.532C142.414 120.416 142.983 120.419 143.532 120.541C144.082 120.662 144.599 120.899 145.049 121.237C145.499 121.574 145.871 122.003 146.142 122.495C146.413 122.988 146.575 123.532 146.618 124.092" stroke="#1E0B02" stroke-width="0.55" stroke-linecap="round" stroke-linejoin="round"/>
<path d="M149.775 106.281C149.775 106.281 175.44 109.426 175.073 101.273C174.706 93.1196 159.458 89.6943 152.771 97.6545L149.775 106.281Z" fill="#1F1E2D"/>
<path d="M46.4802 417.625H692.359" stroke="#7A98C5" stroke-width="1.48" stroke-miterlimit="10"/>
</g>
<defs>
<clipPath id="clip0_28_578">
<rect width="688" height="467" fill="white"/>
</clipPath>
</defs>
</svg>
