<svg width="688" height="368" viewBox="0 0 688 368" fill="none" xmlns="http://www.w3.org/2000/svg">
<path d="M344 0.5V171.5H0.5V0.5H344Z" fill="white"/>
<path d="M344 0.5V171.5H0.5V0.5H344Z" stroke="#D4D4D4"/>
<rect x="32" y="62" width="1" height="48" fill="#A12D35"/>
<path d="M70.6179 88.044L52.6974 96.7344V92.6051L65.9219 86.5866L65.7869 86.8161V86.2358L65.9219 86.4787L52.6974 80.4467V76.331L70.6179 85.0213V88.044ZM96.6451 100.378C94.7918 100.378 93.1365 100.058 91.6792 99.4197C90.2308 98.781 89.0837 97.8949 88.2381 96.7614C87.4015 95.6188 86.9516 94.2964 86.8887 92.794H91.1259C91.1799 93.6127 91.4542 94.3234 91.949 94.9261C92.4528 95.5199 93.1096 95.9787 93.9192 96.3026C94.7289 96.6264 95.6285 96.7884 96.6181 96.7884C97.7066 96.7884 98.6692 96.5994 99.5059 96.2216C100.352 95.8437 101.013 95.3175 101.49 94.6428C101.966 93.959 102.205 93.1719 102.205 92.2812C102.205 91.3546 101.966 90.5405 101.49 89.8388C101.022 89.1281 100.334 88.5703 99.4249 88.1655C98.5253 87.7607 97.4367 87.5582 96.1593 87.5582H93.8248V84.1577H96.1593C97.1848 84.1577 98.0845 83.9732 98.8581 83.6044C99.6408 83.2356 100.253 82.7228 100.693 82.0661C101.134 81.4003 101.355 80.6222 101.355 79.7315C101.355 78.8769 101.161 78.1347 100.774 77.505C100.396 76.8662 99.8567 76.367 99.155 76.0071C98.4623 75.6473 97.6436 75.4673 96.699 75.4673C95.7994 75.4673 94.9583 75.6338 94.1756 75.9666C93.4019 76.2905 92.7722 76.7583 92.2864 77.37C91.8006 77.9728 91.5397 78.697 91.5037 79.5426H87.4689C87.5139 78.0492 87.9547 76.7358 88.7914 75.6023C89.637 74.4687 90.7525 73.5826 92.138 72.9439C93.5234 72.3052 95.0617 71.9858 96.753 71.9858C98.5253 71.9858 100.055 72.3321 101.341 73.0249C102.637 73.7086 103.635 74.6217 104.337 75.7642C105.048 76.9067 105.398 78.1572 105.389 79.5156C105.398 81.063 104.967 82.3764 104.094 83.456C103.23 84.5355 102.079 85.2597 100.639 85.6286V85.8445C102.475 86.1233 103.896 86.852 104.904 88.0305C105.92 89.209 106.424 90.6709 106.415 92.4162C106.424 93.9366 106.001 95.2995 105.146 96.505C104.301 97.7105 103.145 98.6596 101.678 99.3523C100.212 100.036 98.5343 100.378 96.6451 100.378ZM121.137 100.459C119.005 100.45 117.183 99.8875 115.672 98.772C114.161 97.6565 113.005 96.0327 112.204 93.9006C111.403 91.7685 111.003 89.2 111.003 86.1953C111.003 83.1996 111.403 80.6402 112.204 78.517C113.014 76.3939 114.174 74.7746 115.686 73.6591C117.206 72.5436 119.023 71.9858 121.137 71.9858C123.251 71.9858 125.064 72.5481 126.575 73.6726C128.087 74.7881 129.243 76.4074 130.044 78.5305C130.853 80.6446 131.258 83.1996 131.258 86.1953C131.258 89.209 130.858 91.782 130.057 93.9141C129.256 96.0372 128.1 97.661 126.589 98.7855C125.078 99.901 123.26 100.459 121.137 100.459ZM121.137 96.8558C123.008 96.8558 124.47 95.9427 125.523 94.1165C126.584 92.2902 127.115 89.6499 127.115 86.1953C127.115 83.9013 126.872 81.9626 126.387 80.3793C125.91 78.7869 125.222 77.5814 124.322 76.7628C123.431 75.9351 122.37 75.5213 121.137 75.5213C119.275 75.5213 117.813 76.4389 116.752 78.2741C115.69 80.1094 115.155 82.7498 115.146 86.1953C115.146 88.4983 115.384 90.446 115.861 92.0384C116.347 93.6217 117.035 94.8227 117.926 95.6413C118.816 96.451 119.887 96.8558 121.137 96.8558ZM140.346 96.2216L140.144 97.6925C140.009 98.772 139.78 99.8965 139.456 101.066C139.141 102.245 138.813 103.338 138.471 104.345C138.138 105.353 137.863 106.153 137.648 106.747H134.787C134.904 106.189 135.066 105.434 135.273 104.48C135.479 103.536 135.682 102.478 135.88 101.309C136.078 100.139 136.226 98.9474 136.325 97.733L136.46 96.2216H140.346ZM154.61 100.459C152.478 100.45 150.656 99.8875 149.145 98.772C147.633 97.6565 146.477 96.0327 145.677 93.9006C144.876 91.7685 144.476 89.2 144.476 86.1953C144.476 83.1996 144.876 80.6402 145.677 78.517C146.486 76.3939 147.647 74.7746 149.158 73.6591C150.679 72.5436 152.496 71.9858 154.61 71.9858C156.724 71.9858 158.537 72.5481 160.048 73.6726C161.559 74.7881 162.715 76.4074 163.516 78.5305C164.326 80.6446 164.731 83.1996 164.731 86.1953C164.731 89.209 164.33 91.782 163.53 93.9141C162.729 96.0372 161.573 97.661 160.062 98.7855C158.55 99.901 156.733 100.459 154.61 100.459ZM154.61 96.8558C156.481 96.8558 157.943 95.9427 158.996 94.1165C160.057 92.2902 160.588 89.6499 160.588 86.1953C160.588 83.9013 160.345 81.9626 159.859 80.3793C159.382 78.7869 158.694 77.5814 157.795 76.7628C156.904 75.9351 155.842 75.5213 154.61 75.5213C152.748 75.5213 151.286 76.4389 150.224 78.2741C149.163 80.1094 148.627 82.7498 148.618 86.1953C148.618 88.4983 148.857 90.446 149.334 92.0384C149.819 93.6217 150.508 94.8227 151.398 95.6413C152.289 96.451 153.359 96.8558 154.61 96.8558ZM179.139 100.459C177.007 100.45 175.185 99.8875 173.674 98.772C172.163 97.6565 171.007 96.0327 170.206 93.9006C169.405 91.7685 169.005 89.2 169.005 86.1953C169.005 83.1996 169.405 80.6402 170.206 78.517C171.016 76.3939 172.176 74.7746 173.688 73.6591C175.208 72.5436 177.025 71.9858 179.139 71.9858C181.253 71.9858 183.066 72.5481 184.577 73.6726C186.089 74.7881 187.245 76.4074 188.045 78.5305C188.855 80.6446 189.26 83.1996 189.26 86.1953C189.26 89.209 188.86 91.782 188.059 93.9141C187.258 96.0372 186.102 97.661 184.591 98.7855C183.08 99.901 181.262 100.459 179.139 100.459ZM179.139 96.8558C181.01 96.8558 182.472 95.9427 183.525 94.1165C184.586 92.2902 185.117 89.6499 185.117 86.1953C185.117 83.9013 184.874 81.9626 184.388 80.3793C183.912 78.7869 183.223 77.5814 182.324 76.7628C181.433 75.9351 180.372 75.5213 179.139 75.5213C177.277 75.5213 175.815 76.4389 174.754 78.2741C173.692 80.1094 173.157 82.7498 173.148 86.1953C173.148 88.4983 173.386 90.446 173.863 92.0384C174.349 93.6217 175.037 94.8227 175.928 95.6413C176.818 96.451 177.889 96.8558 179.139 96.8558ZM203.669 100.459C201.536 100.45 199.715 99.8875 198.203 98.772C196.692 97.6565 195.536 96.0327 194.735 93.9006C193.935 91.7685 193.534 89.2 193.534 86.1953C193.534 83.1996 193.935 80.6402 194.735 78.517C195.545 76.3939 196.705 74.7746 198.217 73.6591C199.737 72.5436 201.554 71.9858 203.669 71.9858C205.783 71.9858 207.595 72.5481 209.107 73.6726C210.618 74.7881 211.774 76.4074 212.575 78.5305C213.384 80.6446 213.789 83.1996 213.789 86.1953C213.789 89.209 213.389 91.782 212.588 93.9141C211.788 96.0372 210.632 97.661 209.12 98.7855C207.609 99.901 205.792 100.459 203.669 100.459ZM203.669 96.8558C205.54 96.8558 207.002 95.9427 208.054 94.1165C209.116 92.2902 209.646 89.6499 209.646 86.1953C209.646 83.9013 209.404 81.9626 208.918 80.3793C208.441 78.7869 207.753 77.5814 206.853 76.7628C205.963 75.9351 204.901 75.5213 203.669 75.5213C201.806 75.5213 200.344 76.4389 199.283 78.2741C198.221 80.1094 197.686 82.7498 197.677 86.1953C197.677 88.4983 197.915 90.446 198.392 92.0384C198.878 93.6217 199.566 94.8227 200.457 95.6413C201.347 96.451 202.418 96.8558 203.669 96.8558Z" fill="#111827"/>
<path d="M233.278 80V68.3636H240.574V69.875H235.034V73.4205H240.193V74.9261H235.034V78.4886H240.642V80H233.278ZM242.783 80V71.2727H244.482V80H242.783ZM243.641 69.9261C243.345 69.9261 243.091 69.8277 242.879 69.6307C242.671 69.4299 242.567 69.1913 242.567 68.9148C242.567 68.6345 242.671 68.3958 242.879 68.1989C243.091 67.9981 243.345 67.8977 243.641 67.8977C243.936 67.8977 244.188 67.9981 244.396 68.1989C244.608 68.3958 244.714 68.6345 244.714 68.9148C244.714 69.1913 244.608 69.4299 244.396 69.6307C244.188 69.8277 243.936 69.9261 243.641 69.9261ZM248.466 74.8182V80H246.767V71.2727H248.398V72.6932H248.506C248.706 72.2311 249.021 71.8598 249.449 71.5795C249.881 71.2992 250.424 71.1591 251.08 71.1591C251.674 71.1591 252.195 71.2841 252.642 71.5341C253.089 71.7803 253.436 72.1477 253.682 72.6364C253.928 73.125 254.051 73.7292 254.051 74.4489V80H252.352V74.6534C252.352 74.0208 252.188 73.5265 251.858 73.1705C251.528 72.8106 251.076 72.6307 250.5 72.6307C250.106 72.6307 249.756 72.7159 249.449 72.8864C249.146 73.0568 248.905 73.3068 248.727 73.6364C248.553 73.9621 248.466 74.3561 248.466 74.8182ZM260.091 80.1761C259.231 80.1761 258.491 79.9924 257.869 79.625C257.252 79.2538 256.775 78.733 256.438 78.0625C256.104 77.3883 255.938 76.5985 255.938 75.6932C255.938 74.7992 256.104 74.0114 256.438 73.3295C256.775 72.6477 257.244 72.1155 257.847 71.733C258.453 71.3504 259.161 71.1591 259.972 71.1591C260.464 71.1591 260.941 71.2405 261.403 71.4034C261.866 71.5663 262.28 71.822 262.648 72.1705C263.015 72.5189 263.305 72.9716 263.517 73.5284C263.729 74.0814 263.835 74.7538 263.835 75.5455V76.1477H256.898V74.875H262.17C262.17 74.428 262.08 74.0322 261.898 73.6875C261.716 73.339 261.46 73.0644 261.131 72.8636C260.805 72.6629 260.422 72.5625 259.983 72.5625C259.506 72.5625 259.089 72.6799 258.733 72.9148C258.381 73.1458 258.108 73.4489 257.915 73.8239C257.725 74.1951 257.631 74.5985 257.631 75.0341V76.0284C257.631 76.6117 257.733 77.108 257.938 77.517C258.146 77.9261 258.436 78.2386 258.807 78.4545C259.178 78.6667 259.612 78.7727 260.108 78.7727C260.43 78.7727 260.723 78.7273 260.989 78.6364C261.254 78.5417 261.483 78.4015 261.676 78.2159C261.869 78.0303 262.017 77.8011 262.119 77.5284L263.727 77.8182C263.598 78.2917 263.367 78.7064 263.034 79.0625C262.705 79.4148 262.29 79.6894 261.79 79.8864C261.294 80.0795 260.727 80.1761 260.091 80.1761ZM238.67 100.381V95.2727H240.375V104H238.705V102.489H238.614C238.413 102.955 238.091 103.343 237.648 103.653C237.208 103.96 236.661 104.114 236.006 104.114C235.445 104.114 234.949 103.991 234.517 103.744C234.089 103.494 233.752 103.125 233.506 102.636C233.263 102.148 233.142 101.544 233.142 100.824V95.2727H234.841V100.619C234.841 101.214 235.006 101.687 235.335 102.04C235.665 102.392 236.093 102.568 236.619 102.568C236.938 102.568 237.254 102.489 237.568 102.33C237.886 102.17 238.15 101.93 238.358 101.608C238.57 101.286 238.674 100.877 238.67 100.381ZM235.102 93.9034C234.833 93.9034 234.598 93.8049 234.398 93.608C234.197 93.4072 234.097 93.1761 234.097 92.9148C234.097 92.6307 234.197 92.3939 234.398 92.2045C234.598 92.0152 234.833 91.9205 235.102 91.9205C235.386 91.9205 235.623 92.0152 235.812 92.2045C236.006 92.3939 236.102 92.6307 236.102 92.9148C236.102 93.1761 236.006 93.4072 235.812 93.608C235.623 93.8049 235.386 93.9034 235.102 93.9034ZM238.443 93.9034C238.174 93.9034 237.939 93.8049 237.739 93.608C237.538 93.4072 237.438 93.1761 237.438 92.9148C237.438 92.6307 237.538 92.3939 237.739 92.2045C237.939 92.0152 238.174 91.9205 238.443 91.9205C238.727 91.9205 238.964 92.0152 239.153 92.2045C239.347 92.3939 239.443 92.6307 239.443 92.9148C239.443 93.1761 239.347 93.4072 239.153 93.608C238.964 93.8049 238.727 93.9034 238.443 93.9034ZM242.794 104V92.3636H244.493V96.6875H244.595C244.694 96.5057 244.836 96.2955 245.021 96.0568C245.207 95.8182 245.464 95.6098 245.794 95.4318C246.124 95.25 246.559 95.1591 247.101 95.1591C247.805 95.1591 248.434 95.3371 248.987 95.6932C249.54 96.0492 249.974 96.5625 250.288 97.233C250.607 97.9034 250.766 98.7102 250.766 99.6534C250.766 100.597 250.608 101.405 250.294 102.08C249.98 102.75 249.548 103.267 248.999 103.631C248.449 103.991 247.822 104.17 247.118 104.17C246.588 104.17 246.154 104.081 245.817 103.903C245.483 103.725 245.222 103.517 245.033 103.278C244.843 103.04 244.697 102.828 244.595 102.642H244.453V104H242.794ZM244.459 99.6364C244.459 100.25 244.548 100.788 244.726 101.25C244.904 101.712 245.161 102.074 245.499 102.335C245.836 102.593 246.249 102.722 246.737 102.722C247.245 102.722 247.669 102.587 248.01 102.318C248.351 102.045 248.608 101.676 248.783 101.21C248.961 100.744 249.05 100.22 249.05 99.6364C249.05 99.0606 248.963 98.5436 248.788 98.0852C248.618 97.6269 248.36 97.2652 248.016 97C247.675 96.7348 247.249 96.6023 246.737 96.6023C246.245 96.6023 245.828 96.7292 245.487 96.983C245.15 97.2367 244.894 97.5909 244.72 98.0455C244.546 98.5 244.459 99.0303 244.459 99.6364ZM256.435 104.176C255.575 104.176 254.834 103.992 254.213 103.625C253.596 103.254 253.118 102.733 252.781 102.062C252.448 101.388 252.281 100.598 252.281 99.6932C252.281 98.7992 252.448 98.0114 252.781 97.3295C253.118 96.6477 253.588 96.1155 254.19 95.733C254.796 95.3504 255.505 95.1591 256.315 95.1591C256.808 95.1591 257.285 95.2405 257.747 95.4034C258.209 95.5663 258.624 95.822 258.991 96.1705C259.359 96.5189 259.649 96.9716 259.861 97.5284C260.073 98.0814 260.179 98.7538 260.179 99.5455V100.148H253.241V98.875H258.514C258.514 98.428 258.423 98.0322 258.241 97.6875C258.06 97.339 257.804 97.0644 257.474 96.8636C257.149 96.6629 256.766 96.5625 256.327 96.5625C255.849 96.5625 255.433 96.6799 255.077 96.9148C254.724 97.1458 254.452 97.4489 254.259 97.8239C254.069 98.1951 253.974 98.5985 253.974 99.0341V100.028C253.974 100.612 254.077 101.108 254.281 101.517C254.49 101.926 254.779 102.239 255.151 102.455C255.522 102.667 255.955 102.773 256.452 102.773C256.774 102.773 257.067 102.727 257.332 102.636C257.598 102.542 257.827 102.402 258.02 102.216C258.213 102.03 258.361 101.801 258.463 101.528L260.071 101.818C259.942 102.292 259.711 102.706 259.378 103.062C259.048 103.415 258.634 103.689 258.134 103.886C257.637 104.08 257.071 104.176 256.435 104.176ZM262.064 104V95.2727H263.706V96.6591H263.797C263.956 96.1894 264.236 95.8201 264.638 95.5511C265.043 95.2784 265.501 95.142 266.013 95.142C266.119 95.142 266.244 95.1458 266.388 95.1534C266.536 95.161 266.651 95.1705 266.734 95.1818V96.8068C266.666 96.7879 266.545 96.767 266.371 96.7443C266.196 96.7178 266.022 96.7045 265.848 96.7045C265.446 96.7045 265.089 96.7898 264.774 96.9602C264.464 97.1269 264.217 97.3598 264.036 97.6591C263.854 97.9545 263.763 98.2917 263.763 98.6705V104H262.064ZM274.744 97.4034L273.205 97.6761C273.14 97.4792 273.038 97.2917 272.898 97.1136C272.761 96.9356 272.576 96.7898 272.341 96.6761C272.106 96.5625 271.813 96.5057 271.46 96.5057C270.979 96.5057 270.578 96.6136 270.256 96.8295C269.934 97.0417 269.773 97.3163 269.773 97.6534C269.773 97.9451 269.881 98.1799 270.097 98.358C270.313 98.536 270.661 98.6818 271.142 98.7955L272.528 99.1136C273.331 99.2992 273.93 99.5852 274.324 99.9716C274.718 100.358 274.915 100.86 274.915 101.477C274.915 102 274.763 102.466 274.46 102.875C274.161 103.28 273.742 103.598 273.205 103.83C272.67 104.061 272.051 104.176 271.347 104.176C270.369 104.176 269.572 103.968 268.955 103.551C268.337 103.131 267.958 102.534 267.818 101.761L269.46 101.511C269.563 101.939 269.773 102.263 270.091 102.483C270.409 102.699 270.824 102.807 271.335 102.807C271.892 102.807 272.337 102.691 272.67 102.46C273.004 102.225 273.17 101.939 273.17 101.602C273.17 101.33 273.068 101.1 272.864 100.915C272.663 100.729 272.354 100.589 271.938 100.494L270.46 100.17C269.646 99.9848 269.044 99.6894 268.653 99.2841C268.267 98.8788 268.074 98.3655 268.074 97.7443C268.074 97.2292 268.218 96.7784 268.506 96.392C268.794 96.0057 269.191 95.7045 269.699 95.4886C270.206 95.2689 270.788 95.1591 271.443 95.1591C272.386 95.1591 273.129 95.3636 273.67 95.7727C274.212 96.178 274.57 96.7216 274.744 97.4034ZM280.459 104.176C279.614 104.176 278.887 103.985 278.277 103.602C277.671 103.216 277.205 102.684 276.879 102.006C276.554 101.328 276.391 100.551 276.391 99.6761C276.391 98.7898 276.557 98.0076 276.891 97.3295C277.224 96.6477 277.694 96.1155 278.3 95.733C278.906 95.3504 279.62 95.1591 280.442 95.1591C281.105 95.1591 281.696 95.2822 282.214 95.5284C282.733 95.7708 283.152 96.1117 283.47 96.5511C283.792 96.9905 283.983 97.5038 284.044 98.0909H282.391C282.3 97.6818 282.091 97.3295 281.766 97.0341C281.444 96.7386 281.012 96.5909 280.47 96.5909C279.997 96.5909 279.582 96.7159 279.226 96.9659C278.874 97.2121 278.599 97.5644 278.402 98.0227C278.205 98.4773 278.107 99.0152 278.107 99.6364C278.107 100.273 278.203 100.822 278.396 101.284C278.589 101.746 278.862 102.104 279.214 102.358C279.571 102.612 279.989 102.739 280.47 102.739C280.792 102.739 281.084 102.68 281.345 102.562C281.61 102.441 281.832 102.269 282.01 102.045C282.192 101.822 282.319 101.553 282.391 101.239H284.044C283.983 101.803 283.8 102.307 283.493 102.75C283.186 103.193 282.775 103.542 282.26 103.795C281.749 104.049 281.148 104.176 280.459 104.176ZM287.56 98.8182V104H285.861V92.3636H287.537V96.6932H287.645C287.849 96.2235 288.162 95.8504 288.582 95.5739C289.003 95.2973 289.552 95.1591 290.23 95.1591C290.829 95.1591 291.351 95.2822 291.798 95.5284C292.249 95.7746 292.598 96.142 292.844 96.6307C293.094 97.1155 293.219 97.7216 293.219 98.4489V104H291.52V98.6534C291.52 98.0133 291.355 97.517 291.026 97.1648C290.696 96.8087 290.238 96.6307 289.651 96.6307C289.249 96.6307 288.889 96.7159 288.571 96.8864C288.257 97.0568 288.009 97.3068 287.827 97.6364C287.649 97.9621 287.56 98.3561 287.56 98.8182ZM295.486 104V95.2727H297.128V96.6591H297.219C297.378 96.1894 297.658 95.8201 298.06 95.5511C298.465 95.2784 298.923 95.142 299.435 95.142C299.541 95.142 299.666 95.1458 299.81 95.1534C299.957 95.161 300.073 95.1705 300.156 95.1818V96.8068C300.088 96.7879 299.967 96.767 299.793 96.7443C299.618 96.7178 299.444 96.7045 299.27 96.7045C298.868 96.7045 298.51 96.7898 298.196 96.9602C297.885 97.1269 297.639 97.3598 297.457 97.6591C297.276 97.9545 297.185 98.2917 297.185 98.6705V104H295.486ZM301.626 104V95.2727H303.325V104H301.626ZM302.484 93.9261C302.189 93.9261 301.935 93.8277 301.723 93.6307C301.515 93.4299 301.411 93.1913 301.411 92.9148C301.411 92.6345 301.515 92.3958 301.723 92.1989C301.935 91.9981 302.189 91.8977 302.484 91.8977C302.78 91.8977 303.032 91.9981 303.24 92.1989C303.452 92.3958 303.558 92.6345 303.558 92.9148C303.558 93.1913 303.452 93.4299 303.24 93.6307C303.032 93.8277 302.78 93.9261 302.484 93.9261ZM309.764 95.2727V96.6364H304.832V95.2727H309.764ZM306.185 104V94.2614C306.185 93.7159 306.304 93.2633 306.543 92.9034C306.781 92.5398 307.098 92.2689 307.491 92.0909C307.885 91.9091 308.313 91.8182 308.776 91.8182C309.116 91.8182 309.408 91.8466 309.651 91.9034C309.893 91.9564 310.073 92.0057 310.19 92.0511L309.793 93.4261C309.713 93.4034 309.611 93.3769 309.486 93.3466C309.361 93.3125 309.209 93.2955 309.031 93.2955C308.618 93.2955 308.323 93.3977 308.145 93.6023C307.971 93.8068 307.884 94.1023 307.884 94.4886V104H306.185ZM315.591 95.2727V96.6364H310.824V95.2727H315.591ZM312.102 93.1818H313.801V101.438C313.801 101.767 313.85 102.015 313.949 102.182C314.047 102.345 314.174 102.456 314.33 102.517C314.489 102.574 314.661 102.602 314.847 102.602C314.983 102.602 315.102 102.593 315.205 102.574C315.307 102.555 315.386 102.54 315.443 102.528L315.75 103.932C315.652 103.97 315.511 104.008 315.33 104.045C315.148 104.087 314.92 104.11 314.648 104.114C314.201 104.121 313.784 104.042 313.398 103.875C313.011 103.708 312.699 103.451 312.46 103.102C312.222 102.754 312.102 102.316 312.102 101.79V93.1818Z" fill="#A12D35"/>
<path d="M687.5 0.5V171.5H344V0.5H687.5Z" fill="white"/>
<path d="M687.5 0.5V171.5H344V0.5H687.5Z" stroke="#D4D4D4"/>
<rect x="375.5" y="62" width="1" height="48" fill="#A12D35"/>
<path d="M405.643 72.3636V100H401.46V76.5469H401.298L394.686 80.8651V76.8707L401.582 72.3636H405.643ZM422.309 71.9858C423.541 71.9948 424.756 72.2197 425.952 72.6605C427.149 73.1013 428.228 73.821 429.191 74.8196C430.163 75.8182 430.936 77.1676 431.512 78.8679C432.097 80.5592 432.394 82.6643 432.403 85.1832C432.403 87.6032 432.16 89.7578 431.674 91.647C431.188 93.5272 430.491 95.1151 429.582 96.4105C428.683 97.706 427.59 98.6911 426.303 99.3658C425.017 100.04 423.568 100.378 421.958 100.378C420.312 100.378 418.85 100.054 417.572 99.4062C416.295 98.7585 415.256 97.8634 414.455 96.7209C413.655 95.5694 413.155 94.2469 412.957 92.7536H417.073C417.343 93.9411 417.892 94.9036 418.719 95.6413C419.556 96.37 420.636 96.7344 421.958 96.7344C423.982 96.7344 425.561 95.8527 426.695 94.0895C427.828 92.3172 428.399 89.8433 428.408 86.6676H428.192C427.725 87.4413 427.14 88.107 426.438 88.6648C425.746 89.2225 424.967 89.6544 424.104 89.9602C423.24 90.2661 422.318 90.419 421.337 90.419C419.745 90.419 418.297 90.0277 416.992 89.245C415.688 88.4624 414.649 87.3873 413.875 86.0199C413.101 84.6525 412.714 83.0916 412.714 81.3374C412.714 79.5921 413.11 78.0088 413.902 76.5874C414.703 75.166 415.818 74.0414 417.249 73.2138C418.688 72.3771 420.375 71.9678 422.309 71.9858ZM422.322 75.4943C421.27 75.4943 420.321 75.7552 419.475 76.277C418.638 76.7898 417.977 77.487 417.491 78.3686C417.006 79.2412 416.763 80.2128 416.763 81.2834C416.763 82.3539 416.997 83.3255 417.464 84.1982C417.941 85.0618 418.589 85.75 419.408 86.2628C420.235 86.7666 421.18 87.0185 422.241 87.0185C423.033 87.0185 423.771 86.8655 424.455 86.5597C425.138 86.2538 425.737 85.831 426.249 85.2912C426.762 84.7424 427.162 84.1217 427.45 83.429C427.738 82.7363 427.882 82.0076 427.882 81.2429C427.882 80.2263 427.639 79.2817 427.153 78.4091C426.677 77.5365 426.02 76.8348 425.183 76.304C424.347 75.7642 423.393 75.4943 422.322 75.4943ZM446.467 71.9858C447.7 71.9948 448.914 72.2197 450.111 72.6605C451.307 73.1013 452.387 73.821 453.349 74.8196C454.321 75.8182 455.095 77.1676 455.67 78.8679C456.255 80.5592 456.552 82.6643 456.561 85.1832C456.561 87.6032 456.318 89.7578 455.832 91.647C455.346 93.5272 454.649 95.1151 453.741 96.4105C452.841 97.706 451.748 98.6911 450.461 99.3658C449.175 100.04 447.727 100.378 446.116 100.378C444.47 100.378 443.008 100.054 441.731 99.4062C440.453 98.7585 439.414 97.8634 438.613 96.7209C437.813 95.5694 437.314 94.2469 437.116 92.7536H441.231C441.501 93.9411 442.05 94.9036 442.878 95.6413C443.714 96.37 444.794 96.7344 446.116 96.7344C448.14 96.7344 449.719 95.8527 450.853 94.0895C451.986 92.3172 452.558 89.8433 452.567 86.6676H452.351C451.883 87.4413 451.298 88.107 450.596 88.6648C449.904 89.2225 449.126 89.6544 448.262 89.9602C447.398 90.2661 446.476 90.419 445.496 90.419C443.903 90.419 442.455 90.0277 441.15 89.245C439.846 88.4624 438.807 87.3873 438.033 86.0199C437.26 84.6525 436.873 83.0916 436.873 81.3374C436.873 79.5921 437.269 78.0088 438.06 76.5874C438.861 75.166 439.976 74.0414 441.407 73.2138C442.846 72.3771 444.533 71.9678 446.467 71.9858ZM446.481 75.4943C445.428 75.4943 444.479 75.7552 443.633 76.277C442.797 76.7898 442.135 77.487 441.65 78.3686C441.164 79.2412 440.921 80.2128 440.921 81.2834C440.921 82.3539 441.155 83.3255 441.623 84.1982C442.099 85.0618 442.747 85.75 443.566 86.2628C444.394 86.7666 445.338 87.0185 446.4 87.0185C447.191 87.0185 447.929 86.8655 448.613 86.5597C449.296 86.2538 449.895 85.831 450.407 85.2912C450.92 84.7424 451.321 84.1217 451.608 83.429C451.896 82.7363 452.04 82.0076 452.04 81.2429C452.04 80.2263 451.797 79.2817 451.312 78.4091C450.835 77.5365 450.178 76.8348 449.341 76.304C448.505 75.7642 447.551 75.4943 446.481 75.4943ZM471.921 72.3636V100H467.738V76.5469H467.576L460.963 80.8651V76.8707L467.859 72.3636H471.921Z" fill="#111827"/>
<path d="M494.778 80V68.3636H502.074V69.875H496.534V73.4205H501.693V74.9261H496.534V78.4886H502.142V80H494.778ZM504.283 80V71.2727H505.982V80H504.283ZM505.141 69.9261C504.845 69.9261 504.591 69.8277 504.379 69.6307C504.171 69.4299 504.067 69.1913 504.067 68.9148C504.067 68.6345 504.171 68.3958 504.379 68.1989C504.591 67.9981 504.845 67.8977 505.141 67.8977C505.436 67.8977 505.688 67.9981 505.896 68.1989C506.108 68.3958 506.214 68.6345 506.214 68.9148C506.214 69.1913 506.108 69.4299 505.896 69.6307C505.688 69.8277 505.436 69.9261 505.141 69.9261ZM509.966 74.8182V80H508.267V71.2727H509.898V72.6932H510.006C510.206 72.2311 510.521 71.8598 510.949 71.5795C511.381 71.2992 511.924 71.1591 512.58 71.1591C513.174 71.1591 513.695 71.2841 514.142 71.5341C514.589 71.7803 514.936 72.1477 515.182 72.6364C515.428 73.125 515.551 73.7292 515.551 74.4489V80H513.852V74.6534C513.852 74.0208 513.688 73.5265 513.358 73.1705C513.028 72.8106 512.576 72.6307 512 72.6307C511.606 72.6307 511.256 72.7159 510.949 72.8864C510.646 73.0568 510.405 73.3068 510.227 73.6364C510.053 73.9621 509.966 74.3561 509.966 74.8182ZM521.591 80.1761C520.731 80.1761 519.991 79.9924 519.369 79.625C518.752 79.2538 518.275 78.733 517.938 78.0625C517.604 77.3883 517.438 76.5985 517.438 75.6932C517.438 74.7992 517.604 74.0114 517.938 73.3295C518.275 72.6477 518.744 72.1155 519.347 71.733C519.953 71.3504 520.661 71.1591 521.472 71.1591C521.964 71.1591 522.441 71.2405 522.903 71.4034C523.366 71.5663 523.78 71.822 524.148 72.1705C524.515 72.5189 524.805 72.9716 525.017 73.5284C525.229 74.0814 525.335 74.7538 525.335 75.5455V76.1477H518.398V74.875H523.67C523.67 74.428 523.58 74.0322 523.398 73.6875C523.216 73.339 522.96 73.0644 522.631 72.8636C522.305 72.6629 521.922 72.5625 521.483 72.5625C521.006 72.5625 520.589 72.6799 520.233 72.9148C519.881 73.1458 519.608 73.4489 519.415 73.8239C519.225 74.1951 519.131 74.5985 519.131 75.0341V76.0284C519.131 76.6117 519.233 77.108 519.438 77.517C519.646 77.9261 519.936 78.2386 520.307 78.4545C520.678 78.6667 521.112 78.7727 521.608 78.7727C521.93 78.7727 522.223 78.7273 522.489 78.6364C522.754 78.5417 522.983 78.4015 523.176 78.2159C523.369 78.0303 523.517 77.8011 523.619 77.5284L525.227 77.8182C525.098 78.2917 524.867 78.7064 524.534 79.0625C524.205 79.4148 523.79 79.6894 523.29 79.8864C522.794 80.0795 522.227 80.1761 521.591 80.1761ZM500.17 100.381V95.2727H501.875V104H500.205V102.489H500.114C499.913 102.955 499.591 103.343 499.148 103.653C498.708 103.96 498.161 104.114 497.506 104.114C496.945 104.114 496.449 103.991 496.017 103.744C495.589 103.494 495.252 103.125 495.006 102.636C494.763 102.148 494.642 101.544 494.642 100.824V95.2727H496.341V100.619C496.341 101.214 496.506 101.687 496.835 102.04C497.165 102.392 497.593 102.568 498.119 102.568C498.438 102.568 498.754 102.489 499.068 102.33C499.386 102.17 499.65 101.93 499.858 101.608C500.07 101.286 500.174 100.877 500.17 100.381ZM496.602 93.9034C496.333 93.9034 496.098 93.8049 495.898 93.608C495.697 93.4072 495.597 93.1761 495.597 92.9148C495.597 92.6307 495.697 92.3939 495.898 92.2045C496.098 92.0152 496.333 91.9205 496.602 91.9205C496.886 91.9205 497.123 92.0152 497.312 92.2045C497.506 92.3939 497.602 92.6307 497.602 92.9148C497.602 93.1761 497.506 93.4072 497.312 93.608C497.123 93.8049 496.886 93.9034 496.602 93.9034ZM499.943 93.9034C499.674 93.9034 499.439 93.8049 499.239 93.608C499.038 93.4072 498.938 93.1761 498.938 92.9148C498.938 92.6307 499.038 92.3939 499.239 92.2045C499.439 92.0152 499.674 91.9205 499.943 91.9205C500.227 91.9205 500.464 92.0152 500.653 92.2045C500.847 92.3939 500.943 92.6307 500.943 92.9148C500.943 93.1761 500.847 93.4072 500.653 93.608C500.464 93.8049 500.227 93.9034 499.943 93.9034ZM504.294 104V92.3636H505.993V96.6875H506.095C506.194 96.5057 506.336 96.2955 506.521 96.0568C506.707 95.8182 506.964 95.6098 507.294 95.4318C507.624 95.25 508.059 95.1591 508.601 95.1591C509.305 95.1591 509.934 95.3371 510.487 95.6932C511.04 96.0492 511.474 96.5625 511.788 97.233C512.107 97.9034 512.266 98.7102 512.266 99.6534C512.266 100.597 512.108 101.405 511.794 102.08C511.48 102.75 511.048 103.267 510.499 103.631C509.949 103.991 509.322 104.17 508.618 104.17C508.088 104.17 507.654 104.081 507.317 103.903C506.983 103.725 506.722 103.517 506.533 103.278C506.343 103.04 506.197 102.828 506.095 102.642H505.953V104H504.294ZM505.959 99.6364C505.959 100.25 506.048 100.788 506.226 101.25C506.404 101.712 506.661 102.074 506.999 102.335C507.336 102.593 507.749 102.722 508.237 102.722C508.745 102.722 509.169 102.587 509.51 102.318C509.851 102.045 510.108 101.676 510.283 101.21C510.461 100.744 510.55 100.22 510.55 99.6364C510.55 99.0606 510.463 98.5436 510.288 98.0852C510.118 97.6269 509.86 97.2652 509.516 97C509.175 96.7348 508.749 96.6023 508.237 96.6023C507.745 96.6023 507.328 96.7292 506.987 96.983C506.65 97.2367 506.394 97.5909 506.22 98.0455C506.046 98.5 505.959 99.0303 505.959 99.6364ZM517.935 104.176C517.075 104.176 516.334 103.992 515.713 103.625C515.096 103.254 514.618 102.733 514.281 102.062C513.948 101.388 513.781 100.598 513.781 99.6932C513.781 98.7992 513.948 98.0114 514.281 97.3295C514.618 96.6477 515.088 96.1155 515.69 95.733C516.296 95.3504 517.005 95.1591 517.815 95.1591C518.308 95.1591 518.785 95.2405 519.247 95.4034C519.709 95.5663 520.124 95.822 520.491 96.1705C520.859 96.5189 521.149 96.9716 521.361 97.5284C521.573 98.0814 521.679 98.7538 521.679 99.5455V100.148H514.741V98.875H520.014C520.014 98.428 519.923 98.0322 519.741 97.6875C519.56 97.339 519.304 97.0644 518.974 96.8636C518.649 96.6629 518.266 96.5625 517.827 96.5625C517.349 96.5625 516.933 96.6799 516.577 96.9148C516.224 97.1458 515.952 97.4489 515.759 97.8239C515.569 98.1951 515.474 98.5985 515.474 99.0341V100.028C515.474 100.612 515.577 101.108 515.781 101.517C515.99 101.926 516.279 102.239 516.651 102.455C517.022 102.667 517.455 102.773 517.952 102.773C518.274 102.773 518.567 102.727 518.832 102.636C519.098 102.542 519.327 102.402 519.52 102.216C519.713 102.03 519.861 101.801 519.963 101.528L521.571 101.818C521.442 102.292 521.211 102.706 520.878 103.062C520.548 103.415 520.134 103.689 519.634 103.886C519.137 104.08 518.571 104.176 517.935 104.176ZM523.564 104V95.2727H525.206V96.6591H525.297C525.456 96.1894 525.736 95.8201 526.138 95.5511C526.543 95.2784 527.001 95.142 527.513 95.142C527.619 95.142 527.744 95.1458 527.888 95.1534C528.036 95.161 528.151 95.1705 528.234 95.1818V96.8068C528.166 96.7879 528.045 96.767 527.871 96.7443C527.696 96.7178 527.522 96.7045 527.348 96.7045C526.946 96.7045 526.589 96.7898 526.274 96.9602C525.964 97.1269 525.717 97.3598 525.536 97.6591C525.354 97.9545 525.263 98.2917 525.263 98.6705V104H523.564ZM536.244 97.4034L534.705 97.6761C534.64 97.4792 534.538 97.2917 534.398 97.1136C534.261 96.9356 534.076 96.7898 533.841 96.6761C533.606 96.5625 533.313 96.5057 532.96 96.5057C532.479 96.5057 532.078 96.6136 531.756 96.8295C531.434 97.0417 531.273 97.3163 531.273 97.6534C531.273 97.9451 531.381 98.1799 531.597 98.358C531.813 98.536 532.161 98.6818 532.642 98.7955L534.028 99.1136C534.831 99.2992 535.43 99.5852 535.824 99.9716C536.218 100.358 536.415 100.86 536.415 101.477C536.415 102 536.263 102.466 535.96 102.875C535.661 103.28 535.242 103.598 534.705 103.83C534.17 104.061 533.551 104.176 532.847 104.176C531.869 104.176 531.072 103.968 530.455 103.551C529.837 103.131 529.458 102.534 529.318 101.761L530.96 101.511C531.063 101.939 531.273 102.263 531.591 102.483C531.909 102.699 532.324 102.807 532.835 102.807C533.392 102.807 533.837 102.691 534.17 102.46C534.504 102.225 534.67 101.939 534.67 101.602C534.67 101.33 534.568 101.1 534.364 100.915C534.163 100.729 533.854 100.589 533.438 100.494L531.96 100.17C531.146 99.9848 530.544 99.6894 530.153 99.2841C529.767 98.8788 529.574 98.3655 529.574 97.7443C529.574 97.2292 529.718 96.7784 530.006 96.392C530.294 96.0057 530.691 95.7045 531.199 95.4886C531.706 95.2689 532.288 95.1591 532.943 95.1591C533.886 95.1591 534.629 95.3636 535.17 95.7727C535.712 96.178 536.07 96.7216 536.244 97.4034ZM541.959 104.176C541.114 104.176 540.387 103.985 539.777 103.602C539.171 103.216 538.705 102.684 538.379 102.006C538.054 101.328 537.891 100.551 537.891 99.6761C537.891 98.7898 538.057 98.0076 538.391 97.3295C538.724 96.6477 539.194 96.1155 539.8 95.733C540.406 95.3504 541.12 95.1591 541.942 95.1591C542.605 95.1591 543.196 95.2822 543.714 95.5284C544.233 95.7708 544.652 96.1117 544.97 96.5511C545.292 96.9905 545.483 97.5038 545.544 98.0909H543.891C543.8 97.6818 543.591 97.3295 543.266 97.0341C542.944 96.7386 542.512 96.5909 541.97 96.5909C541.497 96.5909 541.082 96.7159 540.726 96.9659C540.374 97.2121 540.099 97.5644 539.902 98.0227C539.705 98.4773 539.607 99.0152 539.607 99.6364C539.607 100.273 539.703 100.822 539.896 101.284C540.089 101.746 540.362 102.104 540.714 102.358C541.071 102.612 541.489 102.739 541.97 102.739C542.292 102.739 542.584 102.68 542.845 102.562C543.11 102.441 543.332 102.269 543.51 102.045C543.692 101.822 543.819 101.553 543.891 101.239H545.544C545.483 101.803 545.3 102.307 544.993 102.75C544.686 103.193 544.275 103.542 543.76 103.795C543.249 104.049 542.648 104.176 541.959 104.176ZM549.06 98.8182V104H547.361V92.3636H549.037V96.6932H549.145C549.349 96.2235 549.662 95.8504 550.082 95.5739C550.503 95.2973 551.052 95.1591 551.73 95.1591C552.329 95.1591 552.851 95.2822 553.298 95.5284C553.749 95.7746 554.098 96.142 554.344 96.6307C554.594 97.1155 554.719 97.7216 554.719 98.4489V104H553.02V98.6534C553.02 98.0133 552.855 97.517 552.526 97.1648C552.196 96.8087 551.738 96.6307 551.151 96.6307C550.749 96.6307 550.389 96.7159 550.071 96.8864C549.757 97.0568 549.509 97.3068 549.327 97.6364C549.149 97.9621 549.06 98.3561 549.06 98.8182ZM556.986 104V95.2727H558.628V96.6591H558.719C558.878 96.1894 559.158 95.8201 559.56 95.5511C559.965 95.2784 560.423 95.142 560.935 95.142C561.041 95.142 561.166 95.1458 561.31 95.1534C561.457 95.161 561.573 95.1705 561.656 95.1818V96.8068C561.588 96.7879 561.467 96.767 561.293 96.7443C561.118 96.7178 560.944 96.7045 560.77 96.7045C560.368 96.7045 560.01 96.7898 559.696 96.9602C559.385 97.1269 559.139 97.3598 558.957 97.6591C558.776 97.9545 558.685 98.2917 558.685 98.6705V104H556.986ZM563.126 104V95.2727H564.825V104H563.126ZM563.984 93.9261C563.689 93.9261 563.435 93.8277 563.223 93.6307C563.015 93.4299 562.911 93.1913 562.911 92.9148C562.911 92.6345 563.015 92.3958 563.223 92.1989C563.435 91.9981 563.689 91.8977 563.984 91.8977C564.28 91.8977 564.532 91.9981 564.74 92.1989C564.952 92.3958 565.058 92.6345 565.058 92.9148C565.058 93.1913 564.952 93.4299 564.74 93.6307C564.532 93.8277 564.28 93.9261 563.984 93.9261ZM571.264 95.2727V96.6364H566.332V95.2727H571.264ZM567.685 104V94.2614C567.685 93.7159 567.804 93.2633 568.043 92.9034C568.281 92.5398 568.598 92.2689 568.991 92.0909C569.385 91.9091 569.813 91.8182 570.276 91.8182C570.616 91.8182 570.908 91.8466 571.151 91.9034C571.393 91.9564 571.573 92.0057 571.69 92.0511L571.293 93.4261C571.213 93.4034 571.111 93.3769 570.986 93.3466C570.861 93.3125 570.709 93.2955 570.531 93.2955C570.118 93.2955 569.823 93.3977 569.645 93.6023C569.471 93.8068 569.384 94.1023 569.384 94.4886V104H567.685ZM577.091 95.2727V96.6364H572.324V95.2727H577.091ZM573.602 93.1818H575.301V101.438C575.301 101.767 575.35 102.015 575.449 102.182C575.547 102.345 575.674 102.456 575.83 102.517C575.989 102.574 576.161 102.602 576.347 102.602C576.483 102.602 576.602 102.593 576.705 102.574C576.807 102.555 576.886 102.54 576.943 102.528L577.25 103.932C577.152 103.97 577.011 104.008 576.83 104.045C576.648 104.087 576.42 104.11 576.148 104.114C575.701 104.121 575.284 104.042 574.898 103.875C574.511 103.708 574.199 103.451 573.96 103.102C573.722 102.754 573.602 102.316 573.602 101.79V93.1818Z" fill="#A12D35"/>
<path d="M344 196.5V367.5H0.5V196.5H344Z" fill="white"/>
<path d="M344 196.5V367.5H0.5V196.5H344Z" stroke="#D4D4D4"/>
<rect x="32" y="259" width="1" height="46" fill="#A12D35"/>
<path d="M61.2798 296.378C59.4266 296.378 57.7713 296.058 56.3139 295.42C54.8655 294.781 53.7185 293.895 52.8729 292.761C52.0362 291.619 51.5864 290.296 51.5234 288.794H55.7607C55.8146 289.613 56.089 290.323 56.5838 290.926C57.0876 291.52 57.7443 291.979 58.554 292.303C59.3636 292.626 60.2633 292.788 61.2528 292.788C62.3414 292.788 63.304 292.599 64.1406 292.222C64.9863 291.844 65.6475 291.317 66.1243 290.643C66.6011 289.959 66.8395 289.172 66.8395 288.281C66.8395 287.355 66.6011 286.54 66.1243 285.839C65.6565 285.128 64.9683 284.57 64.0597 284.165C63.16 283.761 62.0715 283.558 60.794 283.558H58.4595V280.158H60.794C61.8196 280.158 62.7192 279.973 63.4929 279.604C64.2756 279.236 64.8873 278.723 65.3281 278.066C65.7689 277.4 65.9893 276.622 65.9893 275.732C65.9893 274.877 65.7959 274.135 65.4091 273.505C65.0313 272.866 64.4915 272.367 63.7898 272.007C63.0971 271.647 62.2784 271.467 61.3338 271.467C60.4342 271.467 59.593 271.634 58.8104 271.967C58.0367 272.29 57.407 272.758 56.9212 273.37C56.4354 273.973 56.1745 274.697 56.1385 275.543H52.1037C52.1487 274.049 52.5895 272.736 53.4261 271.602C54.2718 270.469 55.3873 269.583 56.7727 268.944C58.1581 268.305 59.6965 267.986 61.3878 267.986C63.16 267.986 64.6894 268.332 65.9759 269.025C67.2713 269.709 68.2699 270.622 68.9716 271.764C69.6823 272.907 70.0331 274.157 70.0241 275.516C70.0331 277.063 69.6013 278.376 68.7287 279.456C67.8651 280.536 66.7135 281.26 65.2741 281.629V281.844C67.1094 282.123 68.5308 282.852 69.5384 284.031C70.5549 285.209 71.0587 286.671 71.0497 288.416C71.0587 289.937 70.6359 291.299 69.7812 292.505C68.9356 293.71 67.7796 294.66 66.3132 295.352C64.8468 296.036 63.169 296.378 61.2798 296.378ZM86.6357 268.364V296H82.4524V272.547H82.2905L75.6783 276.865V272.871L82.5739 268.364H86.6357Z" fill="#111827"/>
<path d="M109.278 288V276.364H116.574V277.875H111.034V281.42H116.193V282.926H111.034V286.489H116.642V288H109.278ZM118.783 288V279.273H120.482V288H118.783ZM119.641 277.926C119.345 277.926 119.091 277.828 118.879 277.631C118.671 277.43 118.567 277.191 118.567 276.915C118.567 276.634 118.671 276.396 118.879 276.199C119.091 275.998 119.345 275.898 119.641 275.898C119.936 275.898 120.188 275.998 120.396 276.199C120.608 276.396 120.714 276.634 120.714 276.915C120.714 277.191 120.608 277.43 120.396 277.631C120.188 277.828 119.936 277.926 119.641 277.926ZM124.466 282.818V288H122.767V279.273H124.398V280.693H124.506C124.706 280.231 125.021 279.86 125.449 279.58C125.881 279.299 126.424 279.159 127.08 279.159C127.674 279.159 128.195 279.284 128.642 279.534C129.089 279.78 129.436 280.148 129.682 280.636C129.928 281.125 130.051 281.729 130.051 282.449V288H128.352V282.653C128.352 282.021 128.188 281.527 127.858 281.17C127.528 280.811 127.076 280.631 126.5 280.631C126.106 280.631 125.756 280.716 125.449 280.886C125.146 281.057 124.905 281.307 124.727 281.636C124.553 281.962 124.466 282.356 124.466 282.818ZM136.091 288.176C135.231 288.176 134.491 287.992 133.869 287.625C133.252 287.254 132.775 286.733 132.438 286.062C132.104 285.388 131.938 284.598 131.938 283.693C131.938 282.799 132.104 282.011 132.438 281.33C132.775 280.648 133.244 280.116 133.847 279.733C134.453 279.35 135.161 279.159 135.972 279.159C136.464 279.159 136.941 279.241 137.403 279.403C137.866 279.566 138.28 279.822 138.648 280.17C139.015 280.519 139.305 280.972 139.517 281.528C139.729 282.081 139.835 282.754 139.835 283.545V284.148H132.898V282.875H138.17C138.17 282.428 138.08 282.032 137.898 281.688C137.716 281.339 137.46 281.064 137.131 280.864C136.805 280.663 136.422 280.562 135.983 280.562C135.506 280.562 135.089 280.68 134.733 280.915C134.381 281.146 134.108 281.449 133.915 281.824C133.725 282.195 133.631 282.598 133.631 283.034V284.028C133.631 284.612 133.733 285.108 133.938 285.517C134.146 285.926 134.436 286.239 134.807 286.455C135.178 286.667 135.612 286.773 136.108 286.773C136.43 286.773 136.723 286.727 136.989 286.636C137.254 286.542 137.483 286.402 137.676 286.216C137.869 286.03 138.017 285.801 138.119 285.528L139.727 285.818C139.598 286.292 139.367 286.706 139.034 287.062C138.705 287.415 138.29 287.689 137.79 287.886C137.294 288.08 136.727 288.176 136.091 288.176ZM151.483 284.381V279.273H153.188V288H151.517V286.489H151.426C151.225 286.955 150.903 287.343 150.46 287.653C150.021 287.96 149.473 288.114 148.818 288.114C148.258 288.114 147.761 287.991 147.33 287.744C146.902 287.494 146.564 287.125 146.318 286.636C146.076 286.148 145.955 285.544 145.955 284.824V279.273H147.653V284.619C147.653 285.214 147.818 285.687 148.148 286.04C148.477 286.392 148.905 286.568 149.432 286.568C149.75 286.568 150.066 286.489 150.381 286.33C150.699 286.17 150.962 285.93 151.17 285.608C151.383 285.286 151.487 284.877 151.483 284.381ZM147.915 277.903C147.646 277.903 147.411 277.805 147.21 277.608C147.009 277.407 146.909 277.176 146.909 276.915C146.909 276.631 147.009 276.394 147.21 276.205C147.411 276.015 147.646 275.92 147.915 275.92C148.199 275.92 148.436 276.015 148.625 276.205C148.818 276.394 148.915 276.631 148.915 276.915C148.915 277.176 148.818 277.407 148.625 277.608C148.436 277.805 148.199 277.903 147.915 277.903ZM151.256 277.903C150.987 277.903 150.752 277.805 150.551 277.608C150.35 277.407 150.25 277.176 150.25 276.915C150.25 276.631 150.35 276.394 150.551 276.205C150.752 276.015 150.987 275.92 151.256 275.92C151.54 275.92 151.777 276.015 151.966 276.205C152.159 276.394 152.256 276.631 152.256 276.915C152.256 277.176 152.159 277.407 151.966 277.608C151.777 277.805 151.54 277.903 151.256 277.903ZM155.607 288V276.364H157.305V280.688H157.408C157.506 280.506 157.648 280.295 157.834 280.057C158.019 279.818 158.277 279.61 158.607 279.432C158.936 279.25 159.372 279.159 159.913 279.159C160.618 279.159 161.247 279.337 161.8 279.693C162.353 280.049 162.786 280.562 163.101 281.233C163.419 281.903 163.578 282.71 163.578 283.653C163.578 284.597 163.421 285.405 163.107 286.08C162.792 286.75 162.36 287.267 161.811 287.631C161.262 287.991 160.635 288.17 159.93 288.17C159.4 288.17 158.966 288.081 158.629 287.903C158.296 287.725 158.035 287.517 157.845 287.278C157.656 287.04 157.51 286.828 157.408 286.642H157.266V288H155.607ZM157.271 283.636C157.271 284.25 157.36 284.788 157.538 285.25C157.716 285.712 157.974 286.074 158.311 286.335C158.648 286.593 159.061 286.722 159.55 286.722C160.057 286.722 160.482 286.587 160.822 286.318C161.163 286.045 161.421 285.676 161.595 285.21C161.773 284.744 161.862 284.22 161.862 283.636C161.862 283.061 161.775 282.544 161.601 282.085C161.43 281.627 161.173 281.265 160.828 281C160.487 280.735 160.061 280.602 159.55 280.602C159.057 280.602 158.641 280.729 158.3 280.983C157.963 281.237 157.707 281.591 157.533 282.045C157.358 282.5 157.271 283.03 157.271 283.636ZM169.247 288.176C168.387 288.176 167.647 287.992 167.026 287.625C166.408 287.254 165.931 286.733 165.594 286.062C165.26 285.388 165.094 284.598 165.094 283.693C165.094 282.799 165.26 282.011 165.594 281.33C165.931 280.648 166.401 280.116 167.003 279.733C167.609 279.35 168.317 279.159 169.128 279.159C169.62 279.159 170.098 279.241 170.56 279.403C171.022 279.566 171.437 279.822 171.804 280.17C172.171 280.519 172.461 280.972 172.673 281.528C172.885 282.081 172.991 282.754 172.991 283.545V284.148H166.054V282.875H171.327C171.327 282.428 171.236 282.032 171.054 281.688C170.872 281.339 170.616 281.064 170.287 280.864C169.961 280.663 169.579 280.562 169.139 280.562C168.662 280.562 168.245 280.68 167.889 280.915C167.537 281.146 167.264 281.449 167.071 281.824C166.882 282.195 166.787 282.598 166.787 283.034V284.028C166.787 284.612 166.889 285.108 167.094 285.517C167.302 285.926 167.592 286.239 167.963 286.455C168.334 286.667 168.768 286.773 169.264 286.773C169.586 286.773 169.88 286.727 170.145 286.636C170.41 286.542 170.639 286.402 170.832 286.216C171.026 286.03 171.173 285.801 171.276 285.528L172.884 285.818C172.755 286.292 172.524 286.706 172.19 287.062C171.861 287.415 171.446 287.689 170.946 287.886C170.45 288.08 169.884 288.176 169.247 288.176ZM174.876 288V279.273H176.518V280.659H176.609C176.768 280.189 177.049 279.82 177.45 279.551C177.856 279.278 178.314 279.142 178.825 279.142C178.931 279.142 179.056 279.146 179.2 279.153C179.348 279.161 179.464 279.17 179.547 279.182V280.807C179.479 280.788 179.357 280.767 179.183 280.744C179.009 280.718 178.835 280.705 178.661 280.705C178.259 280.705 177.901 280.79 177.587 280.96C177.276 281.127 177.03 281.36 176.848 281.659C176.666 281.955 176.575 282.292 176.575 282.67V288H174.876ZM187.557 281.403L186.017 281.676C185.953 281.479 185.85 281.292 185.71 281.114C185.574 280.936 185.388 280.79 185.153 280.676C184.919 280.562 184.625 280.506 184.273 280.506C183.792 280.506 183.39 280.614 183.068 280.83C182.746 281.042 182.585 281.316 182.585 281.653C182.585 281.945 182.693 282.18 182.909 282.358C183.125 282.536 183.473 282.682 183.955 282.795L185.341 283.114C186.144 283.299 186.742 283.585 187.136 283.972C187.53 284.358 187.727 284.86 187.727 285.477C187.727 286 187.576 286.466 187.273 286.875C186.973 287.28 186.555 287.598 186.017 287.83C185.483 288.061 184.864 288.176 184.159 288.176C183.182 288.176 182.384 287.968 181.767 287.551C181.15 287.131 180.771 286.534 180.631 285.761L182.273 285.511C182.375 285.939 182.585 286.263 182.903 286.483C183.222 286.699 183.636 286.807 184.148 286.807C184.705 286.807 185.15 286.691 185.483 286.46C185.816 286.225 185.983 285.939 185.983 285.602C185.983 285.33 185.881 285.1 185.676 284.915C185.475 284.729 185.167 284.589 184.75 284.494L183.273 284.17C182.458 283.985 181.856 283.689 181.466 283.284C181.08 282.879 180.886 282.366 180.886 281.744C180.886 281.229 181.03 280.778 181.318 280.392C181.606 280.006 182.004 279.705 182.511 279.489C183.019 279.269 183.6 279.159 184.256 279.159C185.199 279.159 185.941 279.364 186.483 279.773C187.025 280.178 187.383 280.722 187.557 281.403ZM193.271 288.176C192.427 288.176 191.699 287.985 191.089 287.602C190.483 287.216 190.018 286.684 189.692 286.006C189.366 285.328 189.203 284.551 189.203 283.676C189.203 282.79 189.37 282.008 189.703 281.33C190.036 280.648 190.506 280.116 191.112 279.733C191.718 279.35 192.432 279.159 193.254 279.159C193.917 279.159 194.508 279.282 195.027 279.528C195.546 279.771 195.964 280.112 196.283 280.551C196.605 280.991 196.796 281.504 196.857 282.091H195.203C195.112 281.682 194.904 281.33 194.578 281.034C194.256 280.739 193.824 280.591 193.283 280.591C192.809 280.591 192.394 280.716 192.038 280.966C191.686 281.212 191.411 281.564 191.214 282.023C191.018 282.477 190.919 283.015 190.919 283.636C190.919 284.273 191.016 284.822 191.209 285.284C191.402 285.746 191.675 286.104 192.027 286.358C192.383 286.612 192.802 286.739 193.283 286.739C193.605 286.739 193.896 286.68 194.158 286.562C194.423 286.441 194.644 286.269 194.822 286.045C195.004 285.822 195.131 285.553 195.203 285.239H196.857C196.796 285.803 196.612 286.307 196.305 286.75C195.999 287.193 195.588 287.542 195.072 287.795C194.561 288.049 193.961 288.176 193.271 288.176ZM200.372 282.818V288H198.673V276.364H200.349V280.693H200.457C200.662 280.223 200.974 279.85 201.395 279.574C201.815 279.297 202.365 279.159 203.043 279.159C203.641 279.159 204.164 279.282 204.611 279.528C205.062 279.775 205.41 280.142 205.656 280.631C205.906 281.116 206.031 281.722 206.031 282.449V288H204.332V282.653C204.332 282.013 204.168 281.517 203.838 281.165C203.509 280.809 203.05 280.631 202.463 280.631C202.062 280.631 201.702 280.716 201.384 280.886C201.069 281.057 200.821 281.307 200.639 281.636C200.461 281.962 200.372 282.356 200.372 282.818ZM208.298 288V279.273H209.94V280.659H210.031C210.19 280.189 210.471 279.82 210.872 279.551C211.277 279.278 211.736 279.142 212.247 279.142C212.353 279.142 212.478 279.146 212.622 279.153C212.77 279.161 212.885 279.17 212.969 279.182V280.807C212.901 280.788 212.779 280.767 212.605 280.744C212.431 280.718 212.257 280.705 212.082 280.705C211.681 280.705 211.323 280.79 211.009 280.96C210.698 281.127 210.452 281.36 210.27 281.659C210.088 281.955 209.997 282.292 209.997 282.67V288H208.298ZM214.439 288V279.273H216.138V288H214.439ZM215.297 277.926C215.001 277.926 214.748 277.828 214.536 277.631C214.327 277.43 214.223 277.191 214.223 276.915C214.223 276.634 214.327 276.396 214.536 276.199C214.748 275.998 215.001 275.898 215.297 275.898C215.592 275.898 215.844 275.998 216.053 276.199C216.265 276.396 216.371 276.634 216.371 276.915C216.371 277.191 216.265 277.43 216.053 277.631C215.844 277.828 215.592 277.926 215.297 277.926ZM222.577 279.273V280.636H217.645V279.273H222.577ZM218.997 288V278.261C218.997 277.716 219.116 277.263 219.355 276.903C219.594 276.54 219.91 276.269 220.304 276.091C220.698 275.909 221.126 275.818 221.588 275.818C221.929 275.818 222.221 275.847 222.463 275.903C222.705 275.956 222.885 276.006 223.003 276.051L222.605 277.426C222.526 277.403 222.423 277.377 222.298 277.347C222.173 277.312 222.022 277.295 221.844 277.295C221.431 277.295 221.135 277.398 220.957 277.602C220.783 277.807 220.696 278.102 220.696 278.489V288H218.997ZM228.403 279.273V280.636H223.636V279.273H228.403ZM224.915 277.182H226.614V285.438C226.614 285.767 226.663 286.015 226.761 286.182C226.86 286.345 226.987 286.456 227.142 286.517C227.301 286.574 227.473 286.602 227.659 286.602C227.795 286.602 227.915 286.593 228.017 286.574C228.119 286.555 228.199 286.54 228.256 286.528L228.562 287.932C228.464 287.97 228.324 288.008 228.142 288.045C227.96 288.087 227.733 288.11 227.46 288.114C227.013 288.121 226.597 288.042 226.21 287.875C225.824 287.708 225.511 287.451 225.273 287.102C225.034 286.754 224.915 286.316 224.915 285.79V277.182Z" fill="#A12D35"/>
<path d="M687.5 196.5V367.5H344V196.5H687.5Z" fill="white"/>
<path d="M687.5 196.5V367.5H344V196.5H687.5Z" stroke="#D4D4D4"/>
<rect x="375.5" y="258" width="1" height="48" fill="#A12D35"/>
<path d="M414.118 284.044L396.197 292.734V288.605L409.422 282.587L409.287 282.816V282.236L409.422 282.479L396.197 276.447V272.331L414.118 281.021V284.044ZM440.145 296.378C438.292 296.378 436.637 296.058 435.179 295.42C433.731 294.781 432.584 293.895 431.738 292.761C430.901 291.619 430.452 290.296 430.389 288.794H434.626C434.68 289.613 434.954 290.323 435.449 290.926C435.953 291.52 436.61 291.979 437.419 292.303C438.229 292.626 439.128 292.788 440.118 292.788C441.207 292.788 442.169 292.599 443.006 292.222C443.852 291.844 444.513 291.317 444.99 290.643C445.466 289.959 445.705 289.172 445.705 288.281C445.705 287.355 445.466 286.54 444.99 285.839C444.522 285.128 443.834 284.57 442.925 284.165C442.025 283.761 440.937 283.558 439.659 283.558H437.325V280.158H439.659C440.685 280.158 441.584 279.973 442.358 279.604C443.141 279.236 443.753 278.723 444.193 278.066C444.634 277.4 444.855 276.622 444.855 275.732C444.855 274.877 444.661 274.135 444.274 273.505C443.896 272.866 443.357 272.367 442.655 272.007C441.962 271.647 441.144 271.467 440.199 271.467C439.299 271.467 438.458 271.634 437.676 271.967C436.902 272.29 436.272 272.758 435.786 273.37C435.301 273.973 435.04 274.697 435.004 275.543H430.969C431.014 274.049 431.455 272.736 432.291 271.602C433.137 270.469 434.253 269.583 435.638 268.944C437.023 268.305 438.562 267.986 440.253 267.986C442.025 267.986 443.555 268.332 444.841 269.025C446.137 269.709 447.135 270.622 447.837 271.764C448.548 272.907 448.898 274.157 448.889 275.516C448.898 277.063 448.467 278.376 447.594 279.456C446.73 280.536 445.579 281.26 444.139 281.629V281.844C445.975 282.123 447.396 282.852 448.404 284.031C449.42 285.209 449.924 286.671 449.915 288.416C449.924 289.937 449.501 291.299 448.646 292.505C447.801 293.71 446.645 294.66 445.178 295.352C443.712 296.036 442.034 296.378 440.145 296.378ZM464.637 296.459C462.505 296.45 460.683 295.888 459.172 294.772C457.661 293.656 456.505 292.033 455.704 289.901C454.903 287.768 454.503 285.2 454.503 282.195C454.503 279.2 454.903 276.64 455.704 274.517C456.514 272.394 457.674 270.775 459.186 269.659C460.706 268.544 462.523 267.986 464.637 267.986C466.751 267.986 468.564 268.548 470.075 269.673C471.587 270.788 472.743 272.407 473.544 274.531C474.353 276.645 474.758 279.2 474.758 282.195C474.758 285.209 474.358 287.782 473.557 289.914C472.756 292.037 471.6 293.661 470.089 294.786C468.578 295.901 466.76 296.459 464.637 296.459ZM464.637 292.856C466.508 292.856 467.97 291.943 469.023 290.116C470.084 288.29 470.615 285.65 470.615 282.195C470.615 279.901 470.372 277.963 469.887 276.379C469.41 274.787 468.722 273.581 467.822 272.763C466.931 271.935 465.87 271.521 464.637 271.521C462.775 271.521 461.313 272.439 460.252 274.274C459.19 276.109 458.655 278.75 458.646 282.195C458.646 284.498 458.884 286.446 459.361 288.038C459.847 289.622 460.535 290.823 461.426 291.641C462.316 292.451 463.387 292.856 464.637 292.856ZM483.846 292.222L483.644 293.692C483.509 294.772 483.28 295.897 482.956 297.066C482.641 298.245 482.313 299.338 481.971 300.345C481.638 301.353 481.363 302.153 481.148 302.747H478.287C478.404 302.189 478.566 301.434 478.773 300.48C478.979 299.536 479.182 298.478 479.38 297.309C479.578 296.139 479.726 294.947 479.825 293.733L479.96 292.222H483.846ZM498.11 296.459C495.978 296.45 494.156 295.888 492.645 294.772C491.133 293.656 489.977 292.033 489.177 289.901C488.376 287.768 487.976 285.2 487.976 282.195C487.976 279.2 488.376 276.64 489.177 274.517C489.986 272.394 491.147 270.775 492.658 269.659C494.179 268.544 495.996 267.986 498.11 267.986C500.224 267.986 502.037 268.548 503.548 269.673C505.059 270.788 506.215 272.407 507.016 274.531C507.826 276.645 508.231 279.2 508.231 282.195C508.231 285.209 507.83 287.782 507.03 289.914C506.229 292.037 505.073 293.661 503.562 294.786C502.05 295.901 500.233 296.459 498.11 296.459ZM498.11 292.856C499.981 292.856 501.443 291.943 502.496 290.116C503.557 288.29 504.088 285.65 504.088 282.195C504.088 279.901 503.845 277.963 503.359 276.379C502.882 274.787 502.194 273.581 501.295 272.763C500.404 271.935 499.342 271.521 498.11 271.521C496.248 271.521 494.786 272.439 493.724 274.274C492.663 276.109 492.127 278.75 492.118 282.195C492.118 284.498 492.357 286.446 492.834 288.038C493.319 289.622 494.008 290.823 494.898 291.641C495.789 292.451 496.859 292.856 498.11 292.856ZM522.639 296.459C520.507 296.45 518.685 295.888 517.174 294.772C515.663 293.656 514.507 292.033 513.706 289.901C512.905 287.768 512.505 285.2 512.505 282.195C512.505 279.2 512.905 276.64 513.706 274.517C514.516 272.394 515.676 270.775 517.188 269.659C518.708 268.544 520.525 267.986 522.639 267.986C524.753 267.986 526.566 268.548 528.077 269.673C529.589 270.788 530.745 272.407 531.545 274.531C532.355 276.645 532.76 279.2 532.76 282.195C532.76 285.209 532.36 287.782 531.559 289.914C530.758 292.037 529.602 293.661 528.091 294.786C526.58 295.901 524.762 296.459 522.639 296.459ZM522.639 292.856C524.51 292.856 525.972 291.943 527.025 290.116C528.086 288.29 528.617 285.65 528.617 282.195C528.617 279.901 528.374 277.963 527.888 276.379C527.412 274.787 526.723 273.581 525.824 272.763C524.933 271.935 523.872 271.521 522.639 271.521C520.777 271.521 519.315 272.439 518.254 274.274C517.192 276.109 516.657 278.75 516.648 282.195C516.648 284.498 516.886 286.446 517.363 288.038C517.849 289.622 518.537 290.823 519.428 291.641C520.318 292.451 521.389 292.856 522.639 292.856ZM547.169 296.459C545.036 296.45 543.215 295.888 541.703 294.772C540.192 293.656 539.036 292.033 538.235 289.901C537.435 287.768 537.034 285.2 537.034 282.195C537.034 279.2 537.435 276.64 538.235 274.517C539.045 272.394 540.205 270.775 541.717 269.659C543.237 268.544 545.054 267.986 547.169 267.986C549.283 267.986 551.095 268.548 552.607 269.673C554.118 270.788 555.274 272.407 556.075 274.531C556.884 276.645 557.289 279.2 557.289 282.195C557.289 285.209 556.889 287.782 556.088 289.914C555.288 292.037 554.132 293.661 552.62 294.786C551.109 295.901 549.292 296.459 547.169 296.459ZM547.169 292.856C549.04 292.856 550.502 291.943 551.554 290.116C552.616 288.29 553.146 285.65 553.146 282.195C553.146 279.901 552.904 277.963 552.418 276.379C551.941 274.787 551.253 273.581 550.353 272.763C549.463 271.935 548.401 271.521 547.169 271.521C545.306 271.521 543.844 272.439 542.783 274.274C541.721 276.109 541.186 278.75 541.177 282.195C541.177 284.498 541.415 286.446 541.892 288.038C542.378 289.622 543.066 290.823 543.957 291.641C544.847 292.451 545.918 292.856 547.169 292.856Z" fill="#111827"/>
<path d="M576.778 276V264.364H584.074V265.875H578.534V269.42H583.693V270.926H578.534V274.489H584.142V276H576.778ZM586.283 276V267.273H587.982V276H586.283ZM587.141 265.926C586.845 265.926 586.591 265.828 586.379 265.631C586.171 265.43 586.067 265.191 586.067 264.915C586.067 264.634 586.171 264.396 586.379 264.199C586.591 263.998 586.845 263.898 587.141 263.898C587.436 263.898 587.688 263.998 587.896 264.199C588.108 264.396 588.214 264.634 588.214 264.915C588.214 265.191 588.108 265.43 587.896 265.631C587.688 265.828 587.436 265.926 587.141 265.926ZM591.966 270.818V276H590.267V267.273H591.898V268.693H592.006C592.206 268.231 592.521 267.86 592.949 267.58C593.381 267.299 593.924 267.159 594.58 267.159C595.174 267.159 595.695 267.284 596.142 267.534C596.589 267.78 596.936 268.148 597.182 268.636C597.428 269.125 597.551 269.729 597.551 270.449V276H595.852V270.653C595.852 270.021 595.688 269.527 595.358 269.17C595.028 268.811 594.576 268.631 594 268.631C593.606 268.631 593.256 268.716 592.949 268.886C592.646 269.057 592.405 269.307 592.227 269.636C592.053 269.962 591.966 270.356 591.966 270.818ZM603.591 276.176C602.731 276.176 601.991 275.992 601.369 275.625C600.752 275.254 600.275 274.733 599.938 274.062C599.604 273.388 599.438 272.598 599.438 271.693C599.438 270.799 599.604 270.011 599.938 269.33C600.275 268.648 600.744 268.116 601.347 267.733C601.953 267.35 602.661 267.159 603.472 267.159C603.964 267.159 604.441 267.241 604.903 267.403C605.366 267.566 605.78 267.822 606.148 268.17C606.515 268.519 606.805 268.972 607.017 269.528C607.229 270.081 607.335 270.754 607.335 271.545V272.148H600.398V270.875H605.67C605.67 270.428 605.58 270.032 605.398 269.688C605.216 269.339 604.96 269.064 604.631 268.864C604.305 268.663 603.922 268.562 603.483 268.562C603.006 268.562 602.589 268.68 602.233 268.915C601.881 269.146 601.608 269.449 601.415 269.824C601.225 270.195 601.131 270.598 601.131 271.034V272.028C601.131 272.612 601.233 273.108 601.438 273.517C601.646 273.926 601.936 274.239 602.307 274.455C602.678 274.667 603.112 274.773 603.608 274.773C603.93 274.773 604.223 274.727 604.489 274.636C604.754 274.542 604.983 274.402 605.176 274.216C605.369 274.03 605.517 273.801 605.619 273.528L607.227 273.818C607.098 274.292 606.867 274.706 606.534 275.062C606.205 275.415 605.79 275.689 605.29 275.886C604.794 276.08 604.227 276.176 603.591 276.176ZM582.17 296.381V291.273H583.875V300H582.205V298.489H582.114C581.913 298.955 581.591 299.343 581.148 299.653C580.708 299.96 580.161 300.114 579.506 300.114C578.945 300.114 578.449 299.991 578.017 299.744C577.589 299.494 577.252 299.125 577.006 298.636C576.763 298.148 576.642 297.544 576.642 296.824V291.273H578.341V296.619C578.341 297.214 578.506 297.687 578.835 298.04C579.165 298.392 579.593 298.568 580.119 298.568C580.438 298.568 580.754 298.489 581.068 298.33C581.386 298.17 581.65 297.93 581.858 297.608C582.07 297.286 582.174 296.877 582.17 296.381ZM578.602 289.903C578.333 289.903 578.098 289.805 577.898 289.608C577.697 289.407 577.597 289.176 577.597 288.915C577.597 288.631 577.697 288.394 577.898 288.205C578.098 288.015 578.333 287.92 578.602 287.92C578.886 287.92 579.123 288.015 579.312 288.205C579.506 288.394 579.602 288.631 579.602 288.915C579.602 289.176 579.506 289.407 579.312 289.608C579.123 289.805 578.886 289.903 578.602 289.903ZM581.943 289.903C581.674 289.903 581.439 289.805 581.239 289.608C581.038 289.407 580.938 289.176 580.938 288.915C580.938 288.631 581.038 288.394 581.239 288.205C581.439 288.015 581.674 287.92 581.943 287.92C582.227 287.92 582.464 288.015 582.653 288.205C582.847 288.394 582.943 288.631 582.943 288.915C582.943 289.176 582.847 289.407 582.653 289.608C582.464 289.805 582.227 289.903 581.943 289.903ZM586.294 300V288.364H587.993V292.688H588.095C588.194 292.506 588.336 292.295 588.521 292.057C588.707 291.818 588.964 291.61 589.294 291.432C589.624 291.25 590.059 291.159 590.601 291.159C591.305 291.159 591.934 291.337 592.487 291.693C593.04 292.049 593.474 292.562 593.788 293.233C594.107 293.903 594.266 294.71 594.266 295.653C594.266 296.597 594.108 297.405 593.794 298.08C593.48 298.75 593.048 299.267 592.499 299.631C591.949 299.991 591.322 300.17 590.618 300.17C590.088 300.17 589.654 300.081 589.317 299.903C588.983 299.725 588.722 299.517 588.533 299.278C588.343 299.04 588.197 298.828 588.095 298.642H587.953V300H586.294ZM587.959 295.636C587.959 296.25 588.048 296.788 588.226 297.25C588.404 297.712 588.661 298.074 588.999 298.335C589.336 298.593 589.749 298.722 590.237 298.722C590.745 298.722 591.169 298.587 591.51 298.318C591.851 298.045 592.108 297.676 592.283 297.21C592.461 296.744 592.55 296.22 592.55 295.636C592.55 295.061 592.463 294.544 592.288 294.085C592.118 293.627 591.86 293.265 591.516 293C591.175 292.735 590.749 292.602 590.237 292.602C589.745 292.602 589.328 292.729 588.987 292.983C588.65 293.237 588.394 293.591 588.22 294.045C588.046 294.5 587.959 295.03 587.959 295.636ZM599.935 300.176C599.075 300.176 598.334 299.992 597.713 299.625C597.096 299.254 596.618 298.733 596.281 298.062C595.948 297.388 595.781 296.598 595.781 295.693C595.781 294.799 595.948 294.011 596.281 293.33C596.618 292.648 597.088 292.116 597.69 291.733C598.296 291.35 599.005 291.159 599.815 291.159C600.308 291.159 600.785 291.241 601.247 291.403C601.709 291.566 602.124 291.822 602.491 292.17C602.859 292.519 603.149 292.972 603.361 293.528C603.573 294.081 603.679 294.754 603.679 295.545V296.148H596.741V294.875H602.014C602.014 294.428 601.923 294.032 601.741 293.688C601.56 293.339 601.304 293.064 600.974 292.864C600.649 292.663 600.266 292.562 599.827 292.562C599.349 292.562 598.933 292.68 598.577 292.915C598.224 293.146 597.952 293.449 597.759 293.824C597.569 294.195 597.474 294.598 597.474 295.034V296.028C597.474 296.612 597.577 297.108 597.781 297.517C597.99 297.926 598.279 298.239 598.651 298.455C599.022 298.667 599.455 298.773 599.952 298.773C600.274 298.773 600.567 298.727 600.832 298.636C601.098 298.542 601.327 298.402 601.52 298.216C601.713 298.03 601.861 297.801 601.963 297.528L603.571 297.818C603.442 298.292 603.211 298.706 602.878 299.062C602.548 299.415 602.134 299.689 601.634 299.886C601.137 300.08 600.571 300.176 599.935 300.176ZM605.564 300V291.273H607.206V292.659H607.297C607.456 292.189 607.736 291.82 608.138 291.551C608.543 291.278 609.001 291.142 609.513 291.142C609.619 291.142 609.744 291.146 609.888 291.153C610.036 291.161 610.151 291.17 610.234 291.182V292.807C610.166 292.788 610.045 292.767 609.871 292.744C609.696 292.718 609.522 292.705 609.348 292.705C608.946 292.705 608.589 292.79 608.274 292.96C607.964 293.127 607.717 293.36 607.536 293.659C607.354 293.955 607.263 294.292 607.263 294.67V300H605.564ZM618.244 293.403L616.705 293.676C616.64 293.479 616.538 293.292 616.398 293.114C616.261 292.936 616.076 292.79 615.841 292.676C615.606 292.562 615.313 292.506 614.96 292.506C614.479 292.506 614.078 292.614 613.756 292.83C613.434 293.042 613.273 293.316 613.273 293.653C613.273 293.945 613.381 294.18 613.597 294.358C613.813 294.536 614.161 294.682 614.642 294.795L616.028 295.114C616.831 295.299 617.43 295.585 617.824 295.972C618.218 296.358 618.415 296.86 618.415 297.477C618.415 298 618.263 298.466 617.96 298.875C617.661 299.28 617.242 299.598 616.705 299.83C616.17 300.061 615.551 300.176 614.847 300.176C613.869 300.176 613.072 299.968 612.455 299.551C611.837 299.131 611.458 298.534 611.318 297.761L612.96 297.511C613.063 297.939 613.273 298.263 613.591 298.483C613.909 298.699 614.324 298.807 614.835 298.807C615.392 298.807 615.837 298.691 616.17 298.46C616.504 298.225 616.67 297.939 616.67 297.602C616.67 297.33 616.568 297.1 616.364 296.915C616.163 296.729 615.854 296.589 615.438 296.494L613.96 296.17C613.146 295.985 612.544 295.689 612.153 295.284C611.767 294.879 611.574 294.366 611.574 293.744C611.574 293.229 611.718 292.778 612.006 292.392C612.294 292.006 612.691 291.705 613.199 291.489C613.706 291.269 614.288 291.159 614.943 291.159C615.886 291.159 616.629 291.364 617.17 291.773C617.712 292.178 618.07 292.722 618.244 293.403ZM623.959 300.176C623.114 300.176 622.387 299.985 621.777 299.602C621.171 299.216 620.705 298.684 620.379 298.006C620.054 297.328 619.891 296.551 619.891 295.676C619.891 294.79 620.057 294.008 620.391 293.33C620.724 292.648 621.194 292.116 621.8 291.733C622.406 291.35 623.12 291.159 623.942 291.159C624.605 291.159 625.196 291.282 625.714 291.528C626.233 291.771 626.652 292.112 626.97 292.551C627.292 292.991 627.483 293.504 627.544 294.091H625.891C625.8 293.682 625.591 293.33 625.266 293.034C624.944 292.739 624.512 292.591 623.97 292.591C623.497 292.591 623.082 292.716 622.726 292.966C622.374 293.212 622.099 293.564 621.902 294.023C621.705 294.477 621.607 295.015 621.607 295.636C621.607 296.273 621.703 296.822 621.896 297.284C622.089 297.746 622.362 298.104 622.714 298.358C623.071 298.612 623.489 298.739 623.97 298.739C624.292 298.739 624.584 298.68 624.845 298.562C625.11 298.441 625.332 298.269 625.51 298.045C625.692 297.822 625.819 297.553 625.891 297.239H627.544C627.483 297.803 627.3 298.307 626.993 298.75C626.686 299.193 626.275 299.542 625.76 299.795C625.249 300.049 624.648 300.176 623.959 300.176ZM631.06 294.818V300H629.361V288.364H631.037V292.693H631.145C631.349 292.223 631.662 291.85 632.082 291.574C632.503 291.297 633.052 291.159 633.73 291.159C634.329 291.159 634.851 291.282 635.298 291.528C635.749 291.775 636.098 292.142 636.344 292.631C636.594 293.116 636.719 293.722 636.719 294.449V300H635.02V294.653C635.02 294.013 634.855 293.517 634.526 293.165C634.196 292.809 633.738 292.631 633.151 292.631C632.749 292.631 632.389 292.716 632.071 292.886C631.757 293.057 631.509 293.307 631.327 293.636C631.149 293.962 631.06 294.356 631.06 294.818ZM638.986 300V291.273H640.628V292.659H640.719C640.878 292.189 641.158 291.82 641.56 291.551C641.965 291.278 642.423 291.142 642.935 291.142C643.041 291.142 643.166 291.146 643.31 291.153C643.457 291.161 643.573 291.17 643.656 291.182V292.807C643.588 292.788 643.467 292.767 643.293 292.744C643.118 292.718 642.944 292.705 642.77 292.705C642.368 292.705 642.01 292.79 641.696 292.96C641.385 293.127 641.139 293.36 640.957 293.659C640.776 293.955 640.685 294.292 640.685 294.67V300H638.986ZM645.126 300V291.273H646.825V300H645.126ZM645.984 289.926C645.689 289.926 645.435 289.828 645.223 289.631C645.015 289.43 644.911 289.191 644.911 288.915C644.911 288.634 645.015 288.396 645.223 288.199C645.435 287.998 645.689 287.898 645.984 287.898C646.28 287.898 646.532 287.998 646.74 288.199C646.952 288.396 647.058 288.634 647.058 288.915C647.058 289.191 646.952 289.43 646.74 289.631C646.532 289.828 646.28 289.926 645.984 289.926ZM653.264 291.273V292.636H648.332V291.273H653.264ZM649.685 300V290.261C649.685 289.716 649.804 289.263 650.043 288.903C650.281 288.54 650.598 288.269 650.991 288.091C651.385 287.909 651.813 287.818 652.276 287.818C652.616 287.818 652.908 287.847 653.151 287.903C653.393 287.956 653.573 288.006 653.69 288.051L653.293 289.426C653.213 289.403 653.111 289.377 652.986 289.347C652.861 289.312 652.709 289.295 652.531 289.295C652.118 289.295 651.823 289.398 651.645 289.602C651.471 289.807 651.384 290.102 651.384 290.489V300H649.685ZM659.091 291.273V292.636H654.324V291.273H659.091ZM655.602 289.182H657.301V297.438C657.301 297.767 657.35 298.015 657.449 298.182C657.547 298.345 657.674 298.456 657.83 298.517C657.989 298.574 658.161 298.602 658.347 298.602C658.483 298.602 658.602 298.593 658.705 298.574C658.807 298.555 658.886 298.54 658.943 298.528L659.25 299.932C659.152 299.97 659.011 300.008 658.83 300.045C658.648 300.087 658.42 300.11 658.148 300.114C657.701 300.121 657.284 300.042 656.898 299.875C656.511 299.708 656.199 299.451 655.96 299.102C655.722 298.754 655.602 298.316 655.602 297.79V289.182Z" fill="#A12D35"/>
</svg>
