<svg width="898" height="864" viewBox="0 0 898 864" fill="none" xmlns="http://www.w3.org/2000/svg">
<g opacity="0.1">
<mask id="path-1-inside-1_3_716" fill="white">
<path d="M156.856 576.402L898.944 1203.03L156.856 576.402Z"/>
</mask>
<path d="M156.856 576.402L157.501 575.638L899.589 1202.27L898.944 1203.03L898.299 1203.8L156.211 577.166L156.856 576.402Z" fill="white" mask="url(#path-1-inside-1_3_716)"/>
<mask id="path-3-inside-2_3_716" fill="white">
<path d="M1564.03 411.542L821.941 -215.099C813.559 -222.179 802.301 -224.437 791.846 -221.134C786.104 -219.317 781.008 -215.914 777.114 -211.284L152.977 531.463"/>
</mask>
<path d="M821.941 -215.099L821.296 -214.335L821.296 -214.335L821.941 -215.099ZM791.846 -221.134L791.544 -222.088L791.545 -222.088L791.846 -221.134ZM777.114 -211.284L776.348 -211.928L776.349 -211.928L777.114 -211.284ZM1564.03 411.542L1563.39 412.306L821.296 -214.335L821.941 -215.099L822.587 -215.863L1564.68 410.778L1564.03 411.542ZM821.941 -215.099L821.296 -214.335C813.176 -221.194 802.275 -223.38 792.147 -220.181L791.846 -221.134L791.545 -222.088C802.327 -225.494 813.943 -223.164 822.587 -215.863L821.941 -215.099ZM791.846 -221.134L792.147 -220.181C786.587 -218.42 781.651 -215.125 777.879 -210.64L777.114 -211.284L776.349 -211.928C780.364 -216.702 785.621 -220.213 791.544 -222.088L791.846 -221.134ZM777.114 -211.284L777.879 -210.641L153.743 532.106L152.977 531.463L152.212 530.819L776.348 -211.928L777.114 -211.284Z" fill="white" mask="url(#path-3-inside-2_3_716)"/>
<mask id="path-5-inside-3_3_716" fill="white">
<path d="M943.761 1199.22L1567.9 456.474L943.761 1199.22Z"/>
</mask>
<path d="M943.761 1199.22L942.995 1198.58L1567.13 455.83L1567.9 456.474L1568.66 457.117L944.526 1199.86L943.761 1199.22Z" fill="white" mask="url(#path-5-inside-3_3_716)"/>
<mask id="path-7-inside-4_3_716" fill="white">
<path d="M154.93 533.107L779.067 -209.64C782.65 -213.907 787.341 -217.039 792.614 -218.696C802.234 -221.727 812.594 -219.648 820.301 -213.133L1562.39 413.508"/>
</mask>
<path d="M779.067 -209.64L779.832 -208.997L779.832 -208.997L779.067 -209.64ZM792.614 -218.696L792.915 -217.742L792.914 -217.742L792.614 -218.696ZM820.301 -213.133L819.656 -212.369L819.656 -212.369L820.301 -213.133ZM154.93 533.107L154.164 532.463L778.301 -210.284L779.067 -209.64L779.832 -208.997L155.695 533.75L154.93 533.107ZM779.067 -209.64L778.301 -210.283C782.006 -214.695 786.859 -217.935 792.314 -219.65L792.614 -218.696L792.914 -217.742C787.824 -216.142 783.294 -213.119 779.832 -208.997L779.067 -209.64ZM792.614 -218.696L792.314 -219.65C802.26 -222.784 812.978 -220.634 820.947 -213.896L820.301 -213.133L819.656 -212.369C812.211 -218.663 802.207 -220.671 792.915 -217.742L792.614 -218.696ZM820.301 -213.133L820.946 -213.897L1563.04 412.744L1562.39 413.508L1561.75 414.272L819.656 -212.369L820.301 -213.133Z" fill="white" mask="url(#path-7-inside-4_3_716)"/>
<mask id="path-9-inside-5_3_716" fill="white">
<path d="M900.576 1201.08L158.496 574.437L900.576 1201.08Z"/>
</mask>
<path d="M900.576 1201.08L899.93 1201.84L157.851 575.201L158.496 574.437L159.141 573.673L901.221 1200.32L900.576 1201.08Z" fill="white" mask="url(#path-9-inside-5_3_716)"/>
<mask id="path-11-inside-6_3_716" fill="white">
<path d="M1565.95 454.828L941.821 1197.59L1565.95 454.828Z"/>
</mask>
<path d="M1565.95 454.828L1566.72 455.472L942.586 1198.23L941.821 1197.59L941.055 1196.94L1565.19 454.185L1565.95 454.828Z" fill="white" mask="url(#path-11-inside-6_3_716)"/>
<mask id="path-13-inside-7_3_716" fill="white">
<path d="M199.738 598.001L930.781 1199.58L199.738 598.001Z"/>
</mask>
<path d="M199.738 598.001L200.373 597.229L931.417 1198.81L930.781 1199.58L930.146 1200.35L199.102 598.773L199.738 598.001Z" fill="white" mask="url(#path-13-inside-7_3_716)"/>
<mask id="path-15-inside-8_3_716" fill="white">
<path d="M1569.3 419.794L838.258 -181.794C830.117 -188.496 819.249 -190.602 809.197 -187.443C803.466 -185.628 798.398 -182.209 794.565 -177.526L195.406 554.197"/>
</mask>
<path d="M838.258 -181.794L837.623 -181.022L837.623 -181.022L838.258 -181.794ZM809.197 -187.443L808.895 -188.396L808.897 -188.397L809.197 -187.443ZM794.565 -177.526L795.339 -176.893L795.339 -176.893L794.565 -177.526ZM1569.3 419.794L1568.67 420.566L837.623 -181.022L838.258 -181.794L838.894 -182.566L1569.94 419.022L1569.3 419.794ZM838.258 -181.794L837.623 -181.022C829.743 -187.509 819.226 -189.547 809.497 -186.489L809.197 -187.443L808.897 -188.397C819.271 -191.657 830.491 -189.483 838.894 -182.566L838.258 -181.794ZM809.197 -187.443L809.499 -186.49C803.952 -184.733 799.048 -181.425 795.339 -176.893L794.565 -177.526L793.791 -178.159C797.748 -182.993 802.98 -186.523 808.895 -188.396L809.197 -187.443ZM794.565 -177.526L795.339 -176.893L196.18 554.831L195.406 554.197L194.632 553.563L793.791 -178.16L794.565 -177.526Z" fill="white" mask="url(#path-15-inside-8_3_716)"/>
<mask id="path-17-inside-9_3_716" fill="white">
<path d="M974.475 1195.31L1573.63 463.576L974.475 1195.31Z"/>
</mask>
<path d="M974.475 1195.31L973.701 1194.68L1572.86 462.942L1573.63 463.576L1574.41 464.209L975.249 1195.94L974.475 1195.31Z" fill="white" mask="url(#path-17-inside-9_3_716)"/>
<mask id="path-19-inside-10_3_716" fill="white">
<path d="M197.368 555.824L796.527 -175.899C800.045 -180.194 804.684 -183.347 809.945 -185.001C819.177 -187.917 829.151 -185.979 836.633 -179.822L1567.69 421.762"/>
</mask>
<path d="M796.527 -175.899L795.753 -176.532L795.753 -176.532L796.527 -175.899ZM809.945 -185.001L810.247 -184.048L810.245 -184.047L809.945 -185.001ZM836.633 -179.822L837.269 -180.594L837.269 -180.594L836.633 -179.822ZM197.368 555.824L196.594 555.191L795.753 -176.532L796.527 -175.899L797.301 -175.265L198.142 556.458L197.368 555.824ZM796.527 -175.899L795.753 -176.532C799.393 -180.977 804.196 -184.242 809.645 -185.955L809.945 -185.001L810.245 -184.047C805.172 -182.452 800.696 -179.412 797.301 -175.265L796.527 -175.899ZM809.945 -185.001L809.644 -185.955C819.199 -188.973 829.525 -186.966 837.269 -180.594L836.633 -179.822L835.998 -179.05C828.776 -184.992 819.155 -186.862 810.247 -184.048L809.945 -185.001ZM836.633 -179.822L837.269 -180.594L1568.33 420.99L1567.69 421.762L1567.06 422.534L835.998 -179.05L836.633 -179.822Z" fill="white" mask="url(#path-19-inside-10_3_716)"/>
<mask id="path-21-inside-11_3_716" fill="white">
<path d="M932.407 1197.6L201.35 596.02L932.407 1197.6Z"/>
</mask>
<path d="M932.407 1197.6L931.772 1198.38L200.715 596.793L201.35 596.02L201.985 595.248L933.043 1196.83L932.407 1197.6Z" fill="white" mask="url(#path-21-inside-11_3_716)"/>
<mask id="path-23-inside-12_3_716" fill="white">
<path d="M1571.66 461.962L972.502 1193.69L1571.66 461.962Z"/>
</mask>
<path d="M1571.66 461.962L1572.44 462.596L973.276 1194.32L972.502 1193.69L971.729 1193.05L1570.89 461.329L1571.66 461.962Z" fill="white" mask="url(#path-23-inside-12_3_716)"/>
<mask id="path-25-inside-13_3_716" fill="white">
<path d="M242.62 619.6L962.633 1196.13L242.62 619.6Z"/>
</mask>
<path d="M242.62 619.6L243.245 618.819L963.258 1195.35L962.633 1196.13L962.008 1196.91L241.995 620.381L242.62 619.6Z" fill="white" mask="url(#path-25-inside-13_3_716)"/>
<mask id="path-27-inside-14_3_716" fill="white">
<path d="M1574.56 428.036L854.562 -148.498C846.658 -154.833 836.18 -156.787 826.528 -153.747C820.794 -151.943 815.77 -148.489 812.005 -143.766L237.835 576.93"/>
</mask>
<path d="M854.562 -148.498L853.937 -147.717L853.936 -147.718L854.562 -148.498ZM826.528 -153.747L826.828 -152.793L826.828 -152.793L826.528 -153.747ZM812.005 -143.766L811.223 -144.389L811.223 -144.39L812.005 -143.766ZM1574.56 428.036L1573.94 428.817L853.937 -147.717L854.562 -148.498L855.187 -149.278L1575.19 427.256L1574.56 428.036ZM854.562 -148.498L853.936 -147.718C846.294 -153.844 836.163 -155.733 826.828 -152.793L826.528 -153.747L826.227 -154.701C836.197 -157.841 847.023 -155.822 855.187 -149.278L854.562 -148.498ZM826.528 -153.747L826.828 -152.793C821.285 -151.049 816.428 -147.711 812.787 -143.143L812.005 -143.766L811.223 -144.39C815.111 -149.267 820.303 -152.836 826.228 -154.701L826.528 -153.747ZM812.005 -143.766L812.788 -143.143L238.617 577.553L237.835 576.93L237.053 576.307L811.223 -144.389L812.005 -143.766Z" fill="white" mask="url(#path-27-inside-14_3_716)"/>
<mask id="path-29-inside-15_3_716" fill="white">
<path d="M1005.19 1191.39L1579.36 470.693L1005.19 1191.39Z"/>
</mask>
<path d="M1005.19 1191.39L1004.4 1190.77L1578.57 470.069L1579.36 470.693L1580.14 471.316L1005.97 1192.01L1005.19 1191.39Z" fill="white" mask="url(#path-29-inside-15_3_716)"/>
<mask id="path-31-inside-16_3_716" fill="white">
<path d="M239.815 578.543L813.985 -142.153C817.437 -146.478 822.024 -149.651 827.286 -151.306C836.121 -154.092 845.73 -152.301 852.963 -146.508L1572.98 430.023"/>
</mask>
<path d="M813.985 -142.153L813.203 -142.776L813.204 -142.777L813.985 -142.153ZM827.286 -151.306L827.587 -150.352L827.586 -150.352L827.286 -151.306ZM852.963 -146.508L852.338 -145.727L852.963 -146.508ZM239.815 578.543L239.033 577.92L813.203 -142.776L813.985 -142.153L814.767 -141.53L240.597 579.166L239.815 578.543ZM813.985 -142.153L813.204 -142.777C816.778 -147.255 821.531 -150.545 826.986 -152.26L827.286 -151.306L827.586 -150.352C822.517 -148.758 818.097 -145.701 814.767 -141.529L813.985 -142.153ZM827.286 -151.306L826.985 -152.259C836.138 -155.146 846.094 -153.29 853.588 -147.289L852.963 -146.508L852.338 -145.727C845.365 -151.311 836.104 -153.038 827.587 -150.352L827.286 -151.306ZM852.963 -146.508L853.588 -147.289L1573.6 429.242L1572.98 430.023L1572.35 430.804L852.338 -145.727L852.963 -146.508Z" fill="white" mask="url(#path-31-inside-16_3_716)"/>
<mask id="path-33-inside-17_3_716" fill="white">
<path d="M964.217 1194.13L244.207 617.615L964.217 1194.13Z"/>
</mask>
<path d="M964.217 1194.13L963.592 1194.92L243.582 618.395L244.207 617.615L244.832 616.834L964.842 1193.35L964.217 1194.13Z" fill="white" mask="url(#path-33-inside-17_3_716)"/>
<mask id="path-35-inside-18_3_716" fill="white">
<path d="M1577.37 469.095L1003.2 1189.79L1577.37 469.095Z"/>
</mask>
<path d="M1577.37 469.095L1578.15 469.718L1003.98 1190.41L1003.2 1189.79L1002.42 1189.17L1576.59 468.472L1577.37 469.095Z" fill="white" mask="url(#path-35-inside-18_3_716)"/>
<mask id="path-37-inside-19_3_716" fill="white">
<path d="M285.516 641.207L994.481 1192.67L285.516 641.207Z"/>
</mask>
<path d="M285.516 641.207L286.13 640.418L995.095 1191.88L994.481 1192.67L993.867 1193.46L284.902 641.997L285.516 641.207Z" fill="white" mask="url(#path-37-inside-19_3_716)"/>
<mask id="path-39-inside-20_3_716" fill="white">
<path d="M1579.82 436.279L870.854 -115.199C863.192 -121.156 853.101 -122.969 843.858 -120.05C838.127 -118.235 833.142 -114.769 829.441 -109.982L280.248 599.691"/>
</mask>
<path d="M870.854 -115.199L871.468 -115.988L871.468 -115.988L870.854 -115.199ZM843.858 -120.05L843.556 -121.004L843.557 -121.004L843.858 -120.05ZM829.441 -109.982L830.232 -109.37L830.232 -109.37L829.441 -109.982ZM1579.82 436.279L1579.21 437.068L870.24 -114.409L870.854 -115.199L871.468 -115.988L1580.44 435.489L1579.82 436.279ZM870.854 -115.199L870.241 -114.409C862.837 -120.165 853.088 -121.917 844.16 -119.097L843.858 -120.05L843.557 -121.004C853.114 -124.022 863.547 -122.147 871.468 -115.988L870.854 -115.199ZM843.858 -120.05L844.16 -119.097C838.623 -117.343 833.808 -113.995 830.232 -109.37L829.441 -109.982L828.65 -110.593C832.476 -115.542 837.632 -119.127 843.556 -121.004L843.858 -120.05ZM829.441 -109.982L830.232 -109.37L281.039 600.303L280.248 599.691L279.457 599.079L828.65 -110.594L829.441 -109.982Z" fill="white" mask="url(#path-39-inside-20_3_716)"/>
<mask id="path-41-inside-21_3_716" fill="white">
<path d="M1035.89 1187.47L1585.08 477.798L1035.89 1187.47Z"/>
</mask>
<path d="M1035.89 1187.47L1035.1 1186.86L1584.29 477.186L1585.08 477.798L1585.87 478.41L1036.68 1188.08L1035.89 1187.47Z" fill="white" mask="url(#path-41-inside-21_3_716)"/>
<mask id="path-43-inside-22_3_716" fill="white">
<path d="M282.263 601.259L831.456 -108.414C834.839 -112.778 839.39 -115.954 844.627 -117.613C853.078 -120.273 862.302 -118.612 869.3 -113.175L1578.27 438.292"/>
</mask>
<path d="M831.456 -108.414L830.665 -109.026L830.666 -109.026L831.456 -108.414ZM844.627 -117.613L844.325 -118.566L844.327 -118.567L844.627 -117.613ZM869.3 -113.175L869.914 -113.965L869.914 -113.964L869.3 -113.175ZM282.263 601.259L281.472 600.647L830.665 -109.026L831.456 -108.414L832.247 -107.802L283.054 601.871L282.263 601.259ZM831.456 -108.414L830.666 -109.026C834.173 -113.551 838.894 -116.846 844.325 -118.566L844.627 -117.613L844.929 -116.66C839.887 -115.062 835.505 -112.006 832.246 -107.801L831.456 -108.414ZM844.627 -117.613L844.327 -118.567C853.091 -121.326 862.656 -119.602 869.914 -113.965L869.3 -113.175L868.687 -112.385C861.947 -117.621 853.064 -119.221 844.928 -116.659L844.627 -117.613ZM869.3 -113.175L869.914 -113.964L1578.88 437.502L1578.27 438.292L1577.65 439.081L868.686 -112.386L869.3 -113.175Z" fill="white" mask="url(#path-43-inside-22_3_716)"/>
<mask id="path-45-inside-23_3_716" fill="white">
<path d="M996.038 1190.66L287.069 639.184L996.038 1190.66Z"/>
</mask>
<path d="M996.038 1190.66L995.424 1191.45L286.455 639.973L287.069 639.184L287.683 638.395L996.652 1189.87L996.038 1190.66Z" fill="white" mask="url(#path-45-inside-23_3_716)"/>
<mask id="path-47-inside-24_3_716" fill="white">
<path d="M1583.06 476.231L1033.87 1185.9L1583.06 476.231Z"/>
</mask>
<path d="M1583.06 476.231L1583.86 476.843L1034.66 1186.52L1033.87 1185.9L1033.08 1185.29L1582.27 475.619L1583.06 476.231Z" fill="white" mask="url(#path-47-inside-24_3_716)"/>
<mask id="path-49-inside-25_3_716" fill="white">
<path d="M328.397 662.806L1026.32 1189.23L328.397 662.806Z"/>
</mask>
<path d="M328.397 662.806L328.999 662.008L1026.92 1188.43L1026.32 1189.23L1025.72 1190.03L327.795 663.605L328.397 662.806Z" fill="white" mask="url(#path-49-inside-25_3_716)"/>
<mask id="path-51-inside-26_3_716" fill="white">
<path d="M1585.08 444.521L887.161 -81.8917C879.747 -87.4849 870.043 -89.1576 861.197 -86.3681C855.463 -84.5639 850.513 -81.0488 846.882 -76.2219L322.677 622.424"/>
</mask>
<path d="M887.161 -81.8917L886.559 -81.0934L886.558 -81.0934L887.161 -81.8917ZM861.197 -86.3681L861.497 -85.4144L861.497 -85.4142L861.197 -86.3681ZM846.882 -76.2219L846.082 -76.8221L846.083 -76.8231L846.882 -76.2219ZM1585.08 444.521L1584.48 445.32L886.559 -81.0934L887.161 -81.8917L887.763 -82.6901L1585.68 443.723L1585.08 444.521ZM887.161 -81.8917L886.558 -81.0934C879.403 -86.492 870.035 -88.1066 861.497 -85.4144L861.197 -86.3681L860.896 -87.3218C870.051 -90.2087 880.092 -88.4777 887.763 -82.69L887.161 -81.8917ZM861.197 -86.3681L861.497 -85.4142C855.964 -83.6733 851.188 -80.2826 847.681 -75.6207L846.882 -76.2219L846.083 -76.8231C849.838 -81.815 854.962 -85.4545 860.897 -87.322L861.197 -86.3681ZM846.882 -76.2219L847.682 -75.6218L323.477 623.024L322.677 622.424L321.877 621.823L846.082 -76.8221L846.882 -76.2219Z" fill="white" mask="url(#path-51-inside-26_3_716)"/>
<mask id="path-53-inside-27_3_716" fill="white">
<path d="M324.707 623.966L848.912 -74.6791C852.215 -79.0804 856.725 -82.2799 861.954 -83.9255C870.027 -86.4729 878.878 -84.9441 885.633 -79.85L1583.55 446.563"/>
</mask>
<path d="M848.912 -74.6791L848.112 -75.2793L848.112 -75.2794L848.912 -74.6791ZM861.954 -83.9255L862.255 -82.9719L862.254 -82.9717L861.954 -83.9255ZM885.633 -79.85L886.235 -80.6485L886.235 -80.6484L885.633 -79.85ZM324.707 623.966L323.907 623.366L848.112 -75.2793L848.912 -74.6791L849.711 -74.0789L325.507 624.566L324.707 623.966ZM848.912 -74.6791L848.112 -75.2794C851.54 -79.8469 856.224 -83.1707 861.654 -84.8794L861.954 -83.9255L862.254 -82.9717C857.226 -81.3891 852.89 -78.3139 849.711 -74.0789L848.912 -74.6791ZM861.954 -83.9255L861.653 -84.8792C870.035 -87.524 879.222 -85.9369 886.235 -80.6485L885.633 -79.85L885.031 -79.0516C878.533 -83.9513 870.019 -85.4217 862.255 -82.9719L861.954 -83.9255ZM885.633 -79.85L886.235 -80.6484L1584.16 445.765L1583.55 446.563L1582.95 447.361L885.031 -79.0517L885.633 -79.85Z" fill="white" mask="url(#path-53-inside-27_3_716)"/>
<mask id="path-55-inside-28_3_716" fill="white">
<path d="M1027.85 1187.19L329.923 660.768L1027.85 1187.19Z"/>
</mask>
<path d="M1027.85 1187.19L1027.25 1187.99L329.321 661.566L329.923 660.768L330.525 659.97L1028.45 1186.39L1027.85 1187.19Z" fill="white" mask="url(#path-55-inside-28_3_716)"/>
<mask id="path-57-inside-29_3_716" fill="white">
<path d="M371.293 684.413L1058.17 1185.77L371.293 684.413Z"/>
</mask>
<path d="M371.293 684.413L371.882 683.606L1058.76 1184.96L1058.17 1185.77L1057.58 1186.58L370.703 685.221L371.293 684.413Z" fill="white" mask="url(#path-57-inside-29_3_716)"/>
<mask id="path-59-inside-30_3_716" fill="white">
<path d="M1590.34 452.774L903.453 -48.5929C896.3 -53.8248 886.975 -55.343 878.524 -52.6829C872.78 -50.8758 867.871 -47.3369 864.325 -42.4514L365.112 645.178"/>
</mask>
<path d="M903.453 -48.5929L902.864 -47.7851L902.863 -47.7857L903.453 -48.5929ZM878.524 -52.6829L878.825 -51.729L878.824 -51.7289L878.524 -52.6829ZM864.325 -42.4514L865.135 -41.864L865.135 -41.8639L864.325 -42.4514ZM1590.34 452.774L1589.75 453.582L902.864 -47.7851L903.453 -48.5929L904.043 -49.4006L1590.93 451.967L1590.34 452.774ZM903.453 -48.5929L902.863 -47.7857C895.967 -52.8291 886.973 -54.2941 878.825 -51.729L878.524 -52.6829L878.224 -53.6367C886.976 -56.3919 896.632 -54.8206 904.044 -49.4L903.453 -48.5929ZM878.524 -52.6829L878.824 -51.7289C873.285 -49.9865 868.555 -46.5765 865.135 -41.864L864.325 -42.4514L863.516 -43.0388C867.188 -48.0972 872.274 -51.7651 878.224 -53.6368L878.524 -52.6829ZM864.325 -42.4514L865.135 -41.8639L365.921 645.766L365.112 645.178L364.303 644.591L863.516 -43.0389L864.325 -42.4514Z" fill="white" mask="url(#path-59-inside-30_3_716)"/>
<mask id="path-61-inside-31_3_716" fill="white">
<path d="M367.155 646.682L866.379 -40.9503C869.603 -45.3884 874.071 -48.6117 879.29 -50.2544C886.977 -52.6753 895.452 -51.2903 901.964 -46.5385L1588.84 454.832"/>
</mask>
<path d="M866.379 -40.9503L865.57 -41.5378L865.57 -41.538L866.379 -40.9503ZM879.29 -50.2544L879.59 -49.3006L879.59 -49.3006L879.29 -50.2544ZM901.964 -46.5385L902.554 -47.3464L902.554 -47.3463L901.964 -46.5385ZM367.155 646.682L366.346 646.095L865.57 -41.5378L866.379 -40.9503L867.188 -40.3628L367.964 647.27L367.155 646.682ZM866.379 -40.9503L865.57 -41.538C868.919 -46.1487 873.566 -49.5009 878.989 -51.2083L879.29 -50.2544L879.59 -49.3006C874.577 -47.7226 870.286 -44.6282 867.188 -40.3626L866.379 -40.9503ZM879.29 -50.2544L878.989 -51.2083C886.979 -53.7244 895.784 -52.2856 902.554 -47.3464L901.964 -46.5385L901.375 -45.7307C895.119 -50.2949 886.975 -51.6262 879.59 -49.3006L879.29 -50.2544ZM901.964 -46.5385L902.554 -47.3463L1589.43 454.024L1588.84 454.832L1588.26 455.64L901.375 -45.7308L901.964 -46.5385Z" fill="white" mask="url(#path-61-inside-31_3_716)"/>
<mask id="path-63-inside-32_3_716" fill="white">
<path d="M1059.67 1183.72L372.778 682.35L1059.67 1183.72Z"/>
</mask>
<path d="M1059.67 1183.72L1059.08 1184.53L372.188 683.158L372.778 682.35L373.367 681.543L1060.26 1182.91L1059.67 1183.72Z" fill="white" mask="url(#path-63-inside-32_3_716)"/>
<mask id="path-65-inside-33_3_716" fill="white">
<path d="M414.175 706.012L1090.02 1182.33L414.175 706.012Z"/>
</mask>
<path d="M414.175 706.012L414.751 705.194L1090.6 1181.51L1090.02 1182.33L1089.45 1183.14L413.599 706.829L414.175 706.012Z" fill="white" mask="url(#path-65-inside-33_3_716)"/>
<mask id="path-67-inside-34_3_716" fill="white">
<path d="M1595.6 461.017L919.757 -15.297C912.739 -20.2393 904.028 -21.5959 895.846 -19.0194C890.09 -17.2094 885.226 -13.6357 881.758 -8.67788L407.519 667.917"/>
</mask>
<path d="M919.757 -15.297L920.333 -16.1145L920.333 -16.1144L919.757 -15.297ZM895.846 -19.0194L896.146 -18.0655L896.146 -18.0654L895.846 -19.0194ZM881.758 -8.67788L882.577 -8.10466L882.577 -8.1039L881.758 -8.67788ZM1595.6 461.017L1595.03 461.834L919.181 -14.4796L919.757 -15.297L920.333 -16.1144L1596.18 460.199L1595.6 461.017ZM919.757 -15.297L919.181 -14.4793C912.418 -19.2424 904.03 -20.5483 896.146 -18.0655L895.846 -19.0194L895.546 -19.9732C904.025 -22.6434 913.06 -21.2362 920.333 -16.1145L919.757 -15.297ZM895.846 -19.0194L896.146 -18.0654C890.602 -16.3219 885.92 -12.8827 882.577 -8.10466L881.758 -8.67788L880.939 -9.25114C884.533 -14.3887 889.579 -18.0968 895.546 -19.9733L895.846 -19.0194ZM881.758 -8.67788L882.577 -8.1039L408.338 668.491L407.519 667.917L406.7 667.343L880.939 -9.25184L881.758 -8.67788Z" fill="white" mask="url(#path-67-inside-34_3_716)"/>
<mask id="path-69-inside-35_3_716" fill="white">
<path d="M409.603 669.398L883.842 -7.19705C886.983 -11.6829 891.399 -14.9272 896.618 -16.57C904.037 -18.9071 911.933 -17.6814 918.291 -13.2026L1594.13 463.1"/>
</mask>
<path d="M883.842 -7.19705L884.661 -6.62348L884.661 -6.62307L883.842 -7.19705ZM896.618 -16.57L896.918 -15.6162L896.918 -15.6161L896.618 -16.57ZM918.291 -13.2026L918.867 -14.0202L918.867 -14.02L918.291 -13.2026ZM409.603 669.398L408.784 668.824L883.023 -7.77102L883.842 -7.19705L884.661 -6.62307L410.422 669.972L409.603 669.398ZM883.842 -7.19705L883.023 -7.77057C886.289 -12.4362 890.888 -15.8146 896.317 -17.5238L896.618 -16.57L896.918 -15.6161C891.911 -14.0398 887.676 -10.9296 884.661 -6.62348L883.842 -7.19705ZM896.618 -16.57L896.317 -17.5237C904.033 -19.9545 912.254 -18.6787 918.867 -14.0202L918.291 -13.2026L917.715 -12.3852C911.612 -16.6842 904.04 -17.8597 896.918 -15.6162L896.618 -16.57ZM918.291 -13.2026L918.867 -14.02L1594.71 462.283L1594.13 463.1L1593.56 463.918L917.715 -12.3852L918.291 -13.2026Z" fill="white" mask="url(#path-69-inside-35_3_716)"/>
<mask id="path-71-inside-36_3_716" fill="white">
<path d="M1091.49 1180.23L415.629 703.923L1091.49 1180.23Z"/>
</mask>
<path d="M1091.49 1180.23L1090.91 1181.05L415.053 704.74L415.629 703.923L416.205 703.105L1092.06 1179.42L1091.49 1180.23Z" fill="white" mask="url(#path-71-inside-36_3_716)"/>
<mask id="path-73-inside-37_3_716" fill="white">
<path d="M457.071 727.619L1121.87 1178.88L457.071 727.619Z"/>
</mask>
<path d="M457.071 727.619L457.632 726.791L1122.43 1178.05L1121.87 1178.88L1121.31 1179.71L456.509 728.446L457.071 727.619Z" fill="white" mask="url(#path-73-inside-37_3_716)"/>
<mask id="path-75-inside-38_3_716" fill="white">
<path d="M1600.85 469.264L936.052 18.0146C929.291 13.4225 920.956 12.2097 913.17 14.6567C907.417 16.4776 902.584 20.078 899.19 25.0973L449.943 690.676"/>
</mask>
<path d="M936.052 18.0146L935.49 18.842L935.49 18.8418L936.052 18.0146ZM913.17 14.6567L912.868 13.7033L912.87 13.7027L913.17 14.6567ZM899.19 25.0973L898.361 24.5378L898.362 24.5372L899.19 25.0973ZM1600.85 469.264L1600.29 470.091L935.49 18.842L936.052 18.0146L936.613 17.1872L1601.41 468.437L1600.85 469.264ZM936.052 18.0146L935.49 18.8418C928.983 14.422 920.965 13.255 913.47 15.6107L913.17 14.6567L912.87 13.7027C920.946 11.1643 929.599 12.4231 936.614 17.1873L936.052 18.0146ZM913.17 14.6567L913.472 15.6101C907.934 17.363 903.286 20.8251 900.019 25.6574L899.19 25.0973L898.362 24.5372C901.882 19.3309 906.901 15.5921 912.868 13.7033L913.17 14.6567ZM899.19 25.0973L900.019 25.6567L450.772 691.236L449.943 690.676L449.114 690.117L898.361 24.5378L899.19 25.0973Z" fill="white" mask="url(#path-75-inside-38_3_716)"/>
<mask id="path-77-inside-39_3_716" fill="white">
<path d="M452.038 692.106L901.299 26.5349C904.357 22.0014 908.729 18.7224 913.929 17.0963C920.97 14.8719 928.51 15.9835 934.614 20.1229L1599.43 471.38"/>
</mask>
<path d="M901.299 26.5349L902.128 27.0941L902.128 27.0944L901.299 26.5349ZM913.929 17.0963L914.23 18.0499L914.227 18.0507L913.929 17.0963ZM934.614 20.1229L935.175 19.2952L935.176 19.2954L934.614 20.1229ZM452.038 692.106L451.209 691.546L900.47 25.9755L901.299 26.5349L902.128 27.0944L452.866 692.665L452.038 692.106ZM901.299 26.5349L900.47 25.9757C903.653 21.2564 908.212 17.8365 913.63 16.1419L913.929 17.0963L914.227 18.0507C909.247 19.6082 905.061 22.7463 902.128 27.0941L901.299 26.5349ZM913.929 17.0963L913.627 16.1428C920.962 13.8259 928.819 14.9847 935.175 19.2952L934.614 20.1229L934.053 20.9505C928.201 16.9823 920.979 15.9178 914.23 18.0499L913.929 17.0963ZM934.614 20.1229L935.176 19.2954L1599.99 470.553L1599.43 471.38L1598.87 472.208L934.053 20.9502L934.614 20.1229Z" fill="white" mask="url(#path-77-inside-39_3_716)"/>
<mask id="path-79-inside-40_3_716" fill="white">
<path d="M1123.3 1176.76L458.487 725.516L1123.3 1176.76Z"/>
</mask>
<path d="M1123.3 1176.76L1122.74 1177.59L457.925 726.344L458.487 725.516L459.048 724.689L1123.86 1175.94L1123.3 1176.76Z" fill="white" mask="url(#path-79-inside-40_3_716)"/>
<mask id="path-81-inside-41_3_716" fill="white">
<path d="M499.955 749.229L1153.73 1175.42L499.955 749.229Z"/>
</mask>
<path d="M499.955 749.229L500.501 748.391L1154.28 1174.58L1153.73 1175.42L1153.19 1176.26L499.409 750.066L499.955 749.229Z" fill="white" mask="url(#path-81-inside-41_3_716)"/>
<mask id="path-83-inside-42_3_716" fill="white">
<path d="M1606.11 477.506L952.344 51.3135C945.854 47.0797 937.889 45.9889 930.492 48.3203C924.802 50.1128 919.881 53.8648 916.626 58.8817L492.353 713.426"/>
</mask>
<path d="M952.344 51.3135L951.798 52.1512L951.798 52.151L952.344 51.3135ZM930.492 48.3203L930.793 49.274L930.792 49.2741L930.492 48.3203ZM916.626 58.8817L915.787 58.3378L915.787 58.3375L916.626 58.8817ZM1606.11 477.506L1605.56 478.344L951.798 52.1512L952.344 51.3135L952.89 50.4758L1606.66 476.669L1606.11 477.506ZM952.344 51.3135L951.798 52.151C945.559 48.081 937.905 47.0325 930.793 49.274L930.492 48.3203L930.191 47.3665C937.874 44.9453 946.15 46.0785 952.891 50.4759L952.344 51.3135ZM930.492 48.3203L930.792 49.2741C925.325 50.9965 920.594 54.6029 917.465 59.426L916.626 58.8817L915.787 58.3375C919.167 53.1265 924.278 49.2292 930.191 47.3665L930.492 48.3203ZM916.626 58.8817L917.465 59.4256L493.192 713.97L492.353 713.426L491.514 712.882L915.787 58.3378L916.626 58.8817Z" fill="white" mask="url(#path-83-inside-42_3_716)"/>
<mask id="path-85-inside-43_3_716" fill="white">
<path d="M494.482 714.812L918.755 60.2681C921.688 55.7449 926.124 52.3557 931.247 50.7501C937.914 48.6492 945.095 49.6359 950.948 53.4467L1604.73 479.647"/>
</mask>
<path d="M918.755 60.2681L917.916 59.7242L917.916 59.7241L918.755 60.2681ZM931.247 50.7501L931.548 51.7038L931.546 51.7043L931.247 50.7501ZM950.948 53.4467L951.493 52.6086L951.494 52.6089L950.948 53.4467ZM494.482 714.812L493.643 714.268L917.916 59.7242L918.755 60.2681L919.594 60.8121L495.321 715.356L494.482 714.812ZM918.755 60.2681L917.916 59.7241C920.974 55.0076 925.6 51.4719 930.948 49.7958L931.247 50.7501L931.546 51.7043C926.647 53.2395 922.401 56.4822 919.594 60.8122L918.755 60.2681ZM931.247 50.7501L930.947 49.7963C937.899 47.6054 945.39 48.6349 951.493 52.6086L950.948 53.4467L950.402 54.2847C944.799 50.6369 937.929 49.693 931.548 51.7038L931.247 50.7501ZM950.948 53.4467L951.494 52.6089L1605.27 478.81L1604.73 479.647L1604.18 480.485L950.402 54.2844L950.948 53.4467Z" fill="white" mask="url(#path-85-inside-43_3_716)"/>
<mask id="path-87-inside-44_3_716" fill="white">
<path d="M1155.12 1173.29L501.348 747.086L1155.12 1173.29Z"/>
</mask>
<path d="M1155.12 1173.29L1154.57 1174.13L500.802 747.924L501.348 747.086L501.894 746.249L1155.66 1172.45L1155.12 1173.29Z" fill="white" mask="url(#path-87-inside-44_3_716)"/>
<mask id="path-89-inside-45_3_716" fill="white">
<path d="M542.85 770.837L1185.58 1171.97L542.85 770.837Z"/>
</mask>
<path d="M542.85 770.837L543.38 769.988L1186.11 1171.12L1185.58 1171.97L1185.05 1172.82L542.321 771.685L542.85 770.837Z" fill="white" mask="url(#path-89-inside-45_3_716)"/>
<mask id="path-91-inside-46_3_716" fill="white">
<path d="M1611.36 485.753L968.634 84.603C962.397 80.7086 954.817 79.7476 947.804 81.9525C942.103 83.7479 937.219 87.5483 934.055 92.6456L534.771 736.163"/>
</mask>
<path d="M968.634 84.603L968.104 85.4513L968.104 85.4511L968.634 84.603ZM947.804 81.9525L947.504 80.9986L947.505 80.9985L947.804 81.9525ZM934.055 92.6456L933.206 92.1184L933.206 92.1183L934.055 92.6456ZM1611.36 485.753L1610.83 486.601L968.104 85.4513L968.634 84.603L969.163 83.7546L1611.89 484.905L1611.36 485.753ZM968.634 84.603L968.104 85.4511C962.116 81.7119 954.838 80.789 948.104 82.9064L947.804 81.9525L947.505 80.9985C954.795 78.7061 962.679 79.7054 969.163 83.7547L968.634 84.603ZM947.804 81.9525L948.105 82.9063C942.633 84.6295 937.943 88.278 934.905 93.1729L934.055 92.6456L933.206 92.1183C936.494 86.8187 941.573 82.8663 947.504 80.9986L947.804 81.9525ZM934.055 92.6456L934.905 93.1729L535.621 736.69L534.771 736.163L533.921 735.636L933.206 92.1184L934.055 92.6456Z" fill="white" mask="url(#path-91-inside-46_3_716)"/>
<mask id="path-93-inside-47_3_716" fill="white">
<path d="M536.927 737.517L936.223 93.997C939.059 89.4181 943.443 86.008 948.574 84.3885C954.867 82.4113 961.688 83.2732 967.293 86.7661L1610.02 487.916"/>
</mask>
<path d="M936.223 93.997L937.073 94.5236L937.072 94.5242L936.223 93.997ZM948.574 84.3885L948.273 83.4349L948.275 83.4345L948.574 84.3885ZM967.293 86.7661L967.822 85.9175L967.822 85.9178L967.293 86.7661ZM536.927 737.517L536.078 736.99L935.373 93.4698L936.223 93.997L937.072 94.5242L537.777 738.045L536.927 737.517ZM936.223 93.997L935.373 93.4704C938.335 88.6882 942.914 85.1265 948.273 83.4349L948.574 84.3885L948.875 85.3422C943.972 86.8895 939.783 90.148 937.073 94.5236L936.223 93.997ZM948.574 84.3885L948.275 83.4345C954.845 81.3699 961.969 82.2699 967.822 85.9175L967.293 86.7661L966.764 87.6148C961.407 84.2763 954.889 83.4526 948.874 85.3425L948.574 84.3885ZM967.293 86.7661L967.822 85.9178L1610.55 487.068L1610.02 487.916L1609.49 488.765L966.763 87.6145L967.293 86.7661Z" fill="white" mask="url(#path-93-inside-47_3_716)"/>
<mask id="path-95-inside-48_3_716" fill="white">
<path d="M1186.93 1169.82L544.203 768.669L1186.93 1169.82Z"/>
</mask>
<path d="M1186.93 1169.82L1186.4 1170.67L543.673 769.518L544.203 768.669L544.732 767.821L1187.46 1168.97L1186.93 1169.82Z" fill="white" mask="url(#path-95-inside-48_3_716)"/>
<mask id="path-97-inside-49_3_716" fill="white">
<path d="M585.746 792.443L1217.43 1168.53L585.746 792.443Z"/>
</mask>
<path d="M585.746 792.443L586.258 791.584L1217.95 1167.67L1217.43 1168.53L1216.92 1169.39L585.235 793.303L585.746 792.443Z" fill="white" mask="url(#path-97-inside-49_3_716)"/>
<mask id="path-99-inside-50_3_716" fill="white">
<path d="M1616.62 493.996L984.926 117.902C978.958 114.355 971.744 113.506 965.12 115.595C959.397 117.396 954.549 121.245 951.488 126.42L577.181 758.913"/>
</mask>
<path d="M984.926 117.902L985.437 117.043L985.438 117.043L984.926 117.902ZM965.12 115.595L965.421 116.548L965.42 116.549L965.12 115.595ZM951.488 126.42L952.348 126.929L952.348 126.929L951.488 126.42ZM1616.62 493.996L1616.11 494.855L984.414 118.762L984.926 117.902L985.438 117.043L1617.13 493.137L1616.62 493.996ZM984.926 117.902L984.415 118.762C978.69 115.36 971.772 114.545 965.421 116.548L965.12 115.595L964.819 114.641C971.716 112.466 979.225 113.351 985.437 117.043L984.926 117.902ZM965.12 115.595L965.42 116.549C959.933 118.276 955.284 121.966 952.348 126.929L951.488 126.42L950.627 125.911C953.813 120.524 958.861 116.516 964.82 114.641L965.12 115.595ZM951.488 126.42L952.348 126.929L578.041 759.422L577.181 758.913L576.32 758.404L950.627 125.91L951.488 126.42Z" fill="white" mask="url(#path-99-inside-50_3_716)"/>
<mask id="path-101-inside-51_3_716" fill="white">
<path d="M579.386 760.231L953.693 127.738C956.433 123.103 960.772 119.659 965.904 118.039C971.83 116.172 978.294 116.92 983.64 120.098L1615.32 496.183"/>
</mask>
<path d="M953.693 127.738L954.553 128.247L954.553 128.247L953.693 127.738ZM965.904 118.039L965.603 117.086L965.603 117.085L965.904 118.039ZM983.64 120.098L984.151 119.238L984.152 119.238L983.64 120.098ZM579.386 760.231L578.525 759.722L952.832 127.229L953.693 127.738L954.553 128.247L580.246 760.741L579.386 760.231ZM953.693 127.738L952.832 127.229C955.697 122.382 960.236 118.779 965.603 117.086L965.904 118.039L966.205 118.993C961.308 120.538 957.168 123.825 954.553 128.247L953.693 127.738ZM965.904 118.039L965.603 117.085C971.801 115.132 978.56 115.914 984.151 119.238L983.64 120.098L983.129 120.957C978.028 117.925 971.859 117.211 966.204 118.993L965.904 118.039ZM983.64 120.098L984.152 119.238L1615.83 495.324L1615.32 496.183L1614.81 497.043L983.129 120.957L983.64 120.098Z" fill="white" mask="url(#path-101-inside-51_3_716)"/>
<mask id="path-103-inside-52_3_716" fill="white">
<path d="M1218.73 1166.34L587.046 790.256L1218.73 1166.34Z"/>
</mask>
<path d="M1218.73 1166.34L1218.22 1167.2L586.534 791.115L587.046 790.256L587.557 789.397L1219.25 1165.48L1218.73 1166.34Z" fill="white" mask="url(#path-103-inside-52_3_716)"/>
<mask id="path-105-inside-53_3_716" fill="white">
<path d="M628.642 814.05L1249.29 1165.08L628.642 814.05Z"/>
</mask>
<path d="M628.642 814.05L629.134 813.18L1249.78 1164.21L1249.29 1165.08L1248.79 1165.95L628.149 814.921L628.642 814.05Z" fill="white" mask="url(#path-105-inside-53_3_716)"/>
<mask id="path-107-inside-54_3_716" fill="white">
<path d="M1621.87 502.241L1001.21 151.204C995.512 147.98 988.672 147.263 982.433 149.226C976.678 151.036 971.879 154.941 968.923 160.204L619.605 781.671"/>
</mask>
<path d="M1001.21 151.204L1000.72 152.075L1000.72 152.075L1001.21 151.204ZM982.433 149.226L982.733 150.18L982.733 150.18L982.433 149.226ZM968.923 160.204L969.795 160.694L969.795 160.694L968.923 160.204ZM1621.87 502.241L1621.37 503.112L1000.72 152.075L1001.21 151.204L1001.7 150.334L1622.36 501.371L1621.87 502.241ZM1001.21 151.204L1000.72 152.075C995.261 148.987 988.708 148.3 982.733 150.18L982.433 149.226L982.133 148.272C988.636 146.226 995.763 146.973 1001.7 150.334L1001.21 151.204ZM982.433 149.226L982.733 150.18C977.221 151.913 972.627 155.652 969.795 160.694L968.923 160.204L968.051 159.714C971.131 154.231 976.134 150.159 982.133 148.272L982.433 149.226ZM968.923 160.204L969.795 160.694L620.477 782.161L619.605 781.671L618.733 781.181L968.052 159.714L968.923 160.204Z" fill="white" mask="url(#path-107-inside-54_3_716)"/>
<mask id="path-109-inside-55_3_716" fill="white">
<path d="M621.837 782.926L971.156 161.459C973.797 156.758 978.081 153.281 983.213 151.662C988.783 149.901 994.883 150.549 999.973 153.423L1620.62 504.463"/>
</mask>
<path d="M971.156 161.459L972.028 161.949L972.028 161.949L971.156 161.459ZM983.213 151.662L983.514 152.615L983.513 152.615L983.213 151.662ZM999.973 153.423L1000.46 152.552L1000.47 152.553L999.973 153.423ZM621.837 782.926L620.966 782.436L970.284 160.969L971.156 161.459L972.028 161.949L622.709 783.416L621.837 782.926ZM971.156 161.459L970.284 160.969C973.049 156.046 977.538 152.404 982.912 150.708L983.213 151.662L983.513 152.615C978.624 154.158 974.544 157.469 972.028 161.949L971.156 161.459ZM983.213 151.662L982.911 150.708C988.748 148.864 995.135 149.542 1000.46 152.552L999.973 153.423L999.481 154.294C994.632 151.555 988.819 150.939 983.514 152.615L983.213 151.662ZM999.973 153.423L1000.47 152.553L1621.11 503.593L1620.62 504.463L1620.13 505.333L999.481 154.293L999.973 153.423Z" fill="white" mask="url(#path-109-inside-55_3_716)"/>
<mask id="path-111-inside-56_3_716" fill="white">
<path d="M1250.54 1162.86L629.887 811.831L1250.54 1162.86Z"/>
</mask>
<path d="M1250.54 1162.86L1250.05 1163.73L629.394 812.701L629.887 811.831L630.379 810.96L1251.03 1161.99L1250.54 1162.86Z" fill="white" mask="url(#path-111-inside-56_3_716)"/>
<mask id="path-113-inside-57_3_716" fill="white">
<path d="M671.537 835.657L1281.15 1161.63L671.537 835.657Z"/>
</mask>
<path d="M671.537 835.657L672.009 834.775L1281.62 1160.75L1281.15 1161.63L1280.68 1162.51L671.066 836.539L671.537 835.657Z" fill="white" mask="url(#path-113-inside-57_3_716)"/>
<mask id="path-115-inside-58_3_716" fill="white">
<path d="M1627.11 510.476L1017.5 184.504C1011.99 181.555 1005.69 180.973 999.743 182.847C993.958 184.676 989.207 188.627 986.359 193.989L662.029 804.429"/>
</mask>
<path d="M1017.5 184.504L1017.03 185.386L1017.03 185.385L1017.5 184.504ZM999.743 182.847L999.442 181.893L999.443 181.893L999.743 182.847ZM986.359 193.989L987.242 194.458L987.242 194.458L986.359 193.989ZM1627.11 510.476L1626.64 511.358L1017.03 185.386L1017.5 184.504L1017.97 183.622L1627.58 509.595L1627.11 510.476ZM1017.5 184.504L1017.03 185.385C1011.76 182.564 1005.74 182.008 1000.04 183.8L999.743 182.847L999.443 181.893C1005.65 179.939 1012.23 180.546 1017.97 183.622L1017.5 184.504ZM999.743 182.847L1000.04 183.8C994.509 185.551 989.967 189.328 987.242 194.458L986.359 193.989L985.476 193.52C988.447 187.926 993.407 183.802 999.442 181.893L999.743 182.847ZM986.359 193.989L987.242 194.458L662.912 804.898L662.029 804.429L661.146 803.96L985.476 193.52L986.359 193.989Z" fill="white" mask="url(#path-115-inside-58_3_716)"/>
<mask id="path-117-inside-59_3_716" fill="white">
<path d="M664.283 805.629L988.624 195.187C991.155 190.422 995.381 186.902 1000.52 185.28C1005.82 183.617 1011.42 184.131 1016.32 186.752L1625.92 512.739"/>
</mask>
<path d="M988.624 195.187L989.507 195.656L989.507 195.656L988.624 195.187ZM1000.52 185.28L1000.22 184.326L1000.22 184.326L1000.52 185.28ZM1016.32 186.752L1016.79 185.87L1016.79 185.87L1016.32 186.752ZM664.283 805.629L663.4 805.16L987.741 194.717L988.624 195.187L989.507 195.656L665.166 806.099L664.283 805.629ZM988.624 195.187L987.741 194.717C990.394 189.721 994.83 186.028 1000.22 184.326L1000.52 185.28L1000.82 186.234C995.932 187.777 991.915 191.122 989.507 195.656L988.624 195.187ZM1000.52 185.28L1000.22 184.326C1005.77 182.583 1011.65 183.122 1016.79 185.87L1016.32 186.752L1015.85 187.634C1011.18 185.14 1005.86 184.651 1000.82 186.234L1000.52 185.28ZM1016.32 186.752L1016.79 185.87L1626.4 511.857L1625.92 512.739L1625.45 513.62L1015.85 187.634L1016.32 186.752Z" fill="white" mask="url(#path-117-inside-59_3_716)"/>
<mask id="path-119-inside-60_3_716" fill="white">
<path d="M1282.35 1159.39L672.738 833.403L1282.35 1159.39Z"/>
</mask>
<path d="M1282.35 1159.39L1281.88 1160.27L672.266 834.285L672.738 833.403L673.209 832.521L1282.82 1158.5L1282.35 1159.39Z" fill="white" mask="url(#path-119-inside-60_3_716)"/>
<mask id="path-121-inside-61_3_716" fill="white">
<path d="M704.442 827.19C698.934 838.224 703.422 851.715 714.444 857.261L1313.01 1158.18"/>
</mask>
<path d="M714.444 857.261L713.995 858.155L713.994 858.155L714.444 857.261ZM704.442 827.19L705.337 827.636C700.075 838.178 704.363 851.069 714.893 856.368L714.444 857.261L713.994 858.155C702.481 852.361 697.793 838.271 703.547 826.743L704.442 827.19ZM714.444 857.261L714.893 856.368L1313.46 1157.29L1313.01 1158.18L1312.56 1159.07L713.995 858.155L714.444 857.261Z" fill="white" mask="url(#path-121-inside-61_3_716)"/>
<mask id="path-123-inside-62_3_716" fill="white">
<path d="M1632.36 518.722L1033.79 217.792C1028.57 215.174 1022.63 214.682 1017.06 216.442C1011.24 218.281 1006.53 222.302 1003.8 227.76L704.442 827.19"/>
</mask>
<path d="M1033.79 217.792L1034.24 216.898L1034.24 216.899L1033.79 217.792ZM1017.06 216.442L1017.36 217.396L1017.06 216.442ZM1003.8 227.76L1002.91 227.313L1002.91 227.313L1003.8 227.76ZM1632.36 518.722L1631.91 519.616L1033.34 218.686L1033.79 217.792L1034.24 216.899L1632.81 517.829L1632.36 518.722ZM1033.79 217.792L1033.34 218.686C1028.35 216.183 1022.68 215.714 1017.36 217.396L1017.06 216.442L1016.76 215.489C1022.58 213.649 1028.79 214.164 1034.24 216.898L1033.79 217.792ZM1017.06 216.442L1017.36 217.396C1011.8 219.153 1007.3 222.991 1004.7 228.207L1003.8 227.76L1002.91 227.313C1005.76 221.613 1010.68 217.409 1016.76 215.489L1017.06 216.442ZM1003.8 227.76L1004.7 228.207L705.336 827.637L704.442 827.19L703.547 826.743L1002.91 227.313L1003.8 227.76Z" fill="white" mask="url(#path-123-inside-62_3_716)"/>
<mask id="path-125-inside-63_3_716" fill="white">
<path d="M1314.15 1155.91L715.578 854.978C705.809 850.063 701.84 838.121 706.725 828.324L1006.08 228.919C1008.5 224.08 1012.67 220.504 1017.83 218.89C1022.77 217.334 1028.03 217.763 1032.66 220.086L1631.22 521.005"/>
</mask>
<path d="M715.578 854.978L715.129 855.872L715.129 855.871L715.578 854.978ZM706.725 828.324L705.83 827.878L705.83 827.878L706.725 828.324ZM1006.08 228.919L1005.19 228.472L1005.19 228.472L1006.08 228.919ZM1017.83 218.89L1018.13 219.844L1018.13 219.844L1017.83 218.89ZM1032.66 220.086L1033.11 219.193L1033.11 219.193L1032.66 220.086ZM1314.15 1155.91L1313.7 1156.8L715.129 855.872L715.578 854.978L716.028 854.085L1314.6 1155.01L1314.15 1155.91ZM715.578 854.978L715.129 855.871C704.866 850.708 700.7 838.167 705.83 827.878L706.725 828.324L707.62 828.771C702.981 838.075 706.751 849.417 716.028 854.085L715.578 854.978ZM706.725 828.324L705.83 827.878L1005.19 228.472L1006.08 228.919L1006.98 229.366L707.62 828.771L706.725 828.324ZM1006.08 228.919L1005.19 228.472C1007.72 223.392 1012.11 219.632 1017.53 217.936L1017.83 218.89L1018.13 219.844C1013.23 221.377 1009.27 224.768 1006.98 229.366L1006.08 228.919ZM1017.83 218.89L1017.53 217.936C1022.72 216.301 1028.25 216.754 1033.11 219.193L1032.66 220.086L1032.21 220.98C1027.81 218.773 1022.82 218.366 1018.13 219.844L1017.83 218.89ZM1032.66 220.086L1033.11 219.193L1631.67 520.112L1631.22 521.005L1630.78 521.899L1032.21 220.98L1032.66 220.086Z" fill="white" mask="url(#path-125-inside-63_3_716)"/>
<mask id="path-127-inside-64_3_716" fill="white">
<path d="M1637.61 526.968L1050.07 251.105C1045.13 248.785 1039.55 248.407 1034.36 250.041C1028.59 251.857 1023.8 256.062 1021.23 261.559L746.866 849.948C741.8 860.806 746.508 873.772 757.34 878.869L1344.87 1154.73"/>
</mask>
<path d="M1050.07 251.105L1049.65 252.011L1049.65 252.011L1050.07 251.105ZM1034.36 250.041L1034.66 250.995L1034.66 250.995L1034.36 250.041ZM1021.23 261.559L1020.32 261.136L1020.32 261.136L1021.23 261.559ZM746.866 849.948L747.772 850.371L747.772 850.371L746.866 849.948ZM757.34 878.869L756.915 879.774L756.914 879.773L757.34 878.869ZM1637.61 526.968L1637.18 527.873L1049.65 252.011L1050.07 251.105L1050.5 250.2L1638.03 526.063L1637.61 526.968ZM1050.07 251.105L1049.65 252.011C1044.93 249.797 1039.61 249.437 1034.66 250.995L1034.36 250.041L1034.06 249.088C1039.49 247.378 1045.33 247.774 1050.5 250.2L1050.07 251.105ZM1034.36 250.041L1034.66 250.995C1029.15 252.727 1024.59 256.738 1022.14 261.982L1021.23 261.559L1020.32 261.136C1023.01 255.386 1028.02 250.988 1034.06 249.087L1034.36 250.041ZM1021.23 261.559L1022.14 261.981L747.772 850.371L746.866 849.948L745.959 849.525L1020.32 261.136L1021.23 261.559ZM746.866 849.948L747.772 850.371C742.939 860.729 747.432 873.101 757.765 877.964L757.34 878.869L756.914 879.773C745.585 874.443 740.66 860.883 745.96 849.525L746.866 849.948ZM757.34 878.869L757.765 877.963L1345.3 1153.83L1344.87 1154.73L1344.45 1155.64L756.915 879.774L757.34 878.869Z" fill="white" mask="url(#path-127-inside-64_3_716)"/>
<mask id="path-129-inside-65_3_716" fill="white">
<path d="M1345.96 1152.43L758.419 876.553C748.856 872.06 744.705 860.61 749.17 851.03L1023.53 262.641C1025.8 257.785 1030.02 254.081 1035.12 252.481C1039.7 251.032 1044.64 251.363 1048.99 253.41L1636.53 529.272"/>
</mask>
<path d="M758.419 876.553L757.994 877.459L757.994 877.458L758.419 876.553ZM749.17 851.03L748.264 850.608L748.264 850.608L749.17 851.03ZM1023.53 262.641L1024.44 263.063L1024.44 263.064L1023.53 262.641ZM1035.12 252.481L1035.42 253.434L1035.42 253.435L1035.12 252.481ZM1048.99 253.41L1048.57 254.315L1048.57 254.315L1048.99 253.41ZM1345.96 1152.43L1345.53 1153.33L757.994 877.459L758.419 876.553L758.844 875.648L1346.38 1151.52L1345.96 1152.43ZM758.419 876.553L757.994 877.458C747.932 872.731 743.565 860.687 748.264 850.608L749.17 851.03L750.077 851.453C745.844 860.533 749.78 871.39 758.844 875.648L758.419 876.553ZM749.17 851.03L748.264 850.608L1022.63 262.218L1023.53 262.641L1024.44 263.064L750.077 851.453L749.17 851.03ZM1023.53 262.641L1022.63 262.219C1025.01 257.109 1029.45 253.211 1034.82 251.527L1035.12 252.481L1035.42 253.435C1030.59 254.951 1026.58 258.462 1024.44 263.063L1023.53 262.641ZM1035.12 252.481L1034.82 251.527C1039.64 250.002 1044.83 250.352 1049.42 252.505L1048.99 253.41L1048.57 254.315C1044.44 252.375 1039.77 252.061 1035.42 253.434L1035.12 252.481ZM1048.99 253.41L1049.42 252.504L1636.95 528.367L1636.53 529.272L1636.1 530.177L1048.57 254.315L1048.99 253.41Z" fill="white" mask="url(#path-129-inside-65_3_716)"/>
<mask id="path-131-inside-66_3_716" fill="white">
<path d="M1642.84 535.206L1066.35 284.397C1061.7 282.372 1056.48 282.094 1051.66 283.618C1045.83 285.459 1041.1 289.732 1038.68 295.34L789.282 872.72C784.676 883.384 789.597 895.84 800.249 900.483L1376.74 1151.29"/>
</mask>
<path d="M1066.35 284.397L1065.95 285.314L1065.95 285.314L1066.35 284.397ZM1051.66 283.618L1051.96 284.572L1051.96 284.572L1051.66 283.618ZM1038.68 295.34L1039.59 295.737L1039.59 295.737L1038.68 295.34ZM789.282 872.72L788.364 872.323L788.364 872.323L789.282 872.72ZM800.249 900.483L799.85 901.4L799.849 901.4L800.249 900.483ZM1642.84 535.206L1642.44 536.123L1065.95 285.314L1066.35 284.397L1066.75 283.48L1643.24 534.289L1642.84 535.206ZM1066.35 284.397L1065.95 285.314C1061.52 283.384 1056.55 283.121 1051.96 284.572L1051.66 283.618L1051.36 282.665C1056.41 281.067 1061.88 281.359 1066.75 283.48L1066.35 284.397ZM1051.66 283.618L1051.96 284.572C1046.41 286.326 1041.9 290.395 1039.59 295.737L1038.68 295.34L1037.76 294.944C1040.29 289.069 1045.25 284.593 1051.36 282.665L1051.66 283.618ZM1038.68 295.34L1039.59 295.737L790.2 873.116L789.282 872.72L788.364 872.323L1037.76 294.944L1038.68 295.34ZM789.282 872.72L790.2 873.116C785.813 883.275 790.501 895.143 800.648 899.567L800.249 900.483L799.849 901.4C788.693 896.536 783.54 883.494 788.364 872.323L789.282 872.72ZM800.249 900.483L800.648 899.566L1377.14 1150.38L1376.74 1151.29L1376.34 1152.21L799.85 901.4L800.249 900.483Z" fill="white" mask="url(#path-131-inside-66_3_716)"/>
<mask id="path-133-inside-67_3_716" fill="white">
<path d="M1377.75 1148.95L801.262 898.14C791.891 894.061 787.56 883.112 791.623 873.723L1041.01 296.357C1043.14 291.419 1047.31 287.661 1052.43 286.044C1056.67 284.71 1061.26 284.946 1065.35 286.727L1641.84 537.547"/>
</mask>
<path d="M801.262 898.14L800.863 899.057L800.863 899.057L801.262 898.14ZM791.623 873.723L792.541 874.119L792.54 874.12L791.623 873.723ZM1041.01 296.357L1040.09 295.961L1040.09 295.96L1041.01 296.357ZM1052.43 286.044L1052.13 285.091L1052.13 285.09L1052.43 286.044ZM1065.35 286.727L1064.95 287.644L1064.95 287.644L1065.35 286.727ZM1377.75 1148.95L1377.35 1149.87L800.863 899.057L801.262 898.14L801.661 897.223L1378.15 1148.03L1377.75 1148.95ZM801.262 898.14L800.863 899.057C790.987 894.758 786.423 883.222 790.705 873.326L791.623 873.723L792.54 874.12C788.697 883.003 792.795 893.364 801.661 897.223L801.262 898.14ZM791.623 873.723L790.705 873.326L1040.09 295.961L1041.01 296.357L1041.93 296.754L792.541 874.119L791.623 873.723ZM1041.01 296.357L1040.09 295.96C1042.34 290.756 1046.73 286.795 1052.13 285.091L1052.43 286.044L1052.73 286.998C1047.88 288.527 1043.95 292.082 1041.93 296.754L1041.01 296.357ZM1052.43 286.044L1052.13 285.09C1056.6 283.684 1061.44 283.933 1065.75 285.81L1065.35 286.727L1064.95 287.644C1061.08 285.96 1056.74 285.736 1052.73 286.998L1052.43 286.044ZM1065.35 286.727L1065.75 285.81L1642.24 536.63L1641.84 537.547L1641.44 538.464L1064.95 287.644L1065.35 286.727Z" fill="white" mask="url(#path-133-inside-67_3_716)"/>
<mask id="path-135-inside-68_3_716" fill="white">
<path d="M1648.09 543.451L1082.65 317.696C1078.29 315.952 1073.42 315.767 1068.97 317.181C1063.07 319.04 1058.4 323.402 1056.12 329.147L831.703 895.467C827.55 905.952 832.694 917.893 843.152 922.077L1408.61 1147.84"/>
</mask>
<path d="M1082.65 317.696L1082.27 318.625L1082.27 318.624L1082.65 317.696ZM1068.97 317.181L1069.27 318.134L1069.27 318.135L1068.97 317.181ZM1056.12 329.147L1055.19 328.778L1055.19 328.778L1056.12 329.147ZM831.703 895.467L830.773 895.098L830.773 895.098L831.703 895.467ZM843.152 922.077L842.781 923.005L842.781 923.005L843.152 922.077ZM1648.09 543.451L1647.72 544.38L1082.27 318.625L1082.65 317.696L1083.02 316.767L1648.46 542.523L1648.09 543.451ZM1082.65 317.696L1082.27 318.624C1078.13 316.966 1073.5 316.791 1069.27 318.134L1068.97 317.181L1068.66 316.228C1073.34 314.743 1078.45 314.938 1083.02 316.767L1082.65 317.696ZM1068.97 317.181L1069.27 318.135C1063.66 319.903 1059.22 324.049 1057.05 329.516L1056.12 329.147L1055.19 328.778C1057.58 322.754 1062.48 318.177 1068.67 316.228L1068.97 317.181ZM1056.12 329.147L1057.05 329.515L832.632 895.835L831.703 895.467L830.773 895.098L1055.19 328.778L1056.12 329.147ZM831.703 895.467L832.632 895.835C828.682 905.808 833.577 917.169 843.524 921.148L843.152 922.077L842.781 923.005C831.811 918.617 826.417 906.096 830.773 895.098L831.703 895.467ZM843.152 922.077L843.523 921.148L1408.98 1146.91L1408.61 1147.84L1408.24 1148.77L842.781 923.005L843.152 922.077Z" fill="white" mask="url(#path-135-inside-68_3_716)"/>
<mask id="path-137-inside-69_3_716" fill="white">
<path d="M1409.55 1145.47L844.089 919.707C834.924 916.05 830.424 905.601 834.065 896.418L1058.47 330.076C1060.47 325.048 1064.57 321.236 1069.72 319.611C1073.63 318.377 1077.89 318.54 1081.71 320.056L1647.14 545.825"/>
</mask>
<path d="M844.089 919.707L844.46 918.778L844.46 918.778L844.089 919.707ZM834.065 896.418L834.994 896.786L834.994 896.786L834.065 896.418ZM1058.47 330.076L1057.54 329.708L1057.54 329.708L1058.47 330.076ZM1069.72 319.611L1070.02 320.564L1070.02 320.564L1069.72 319.611ZM1081.71 320.056L1082.07 319.126L1082.08 319.127L1081.71 320.056ZM1409.55 1145.47L1409.18 1146.4L843.718 920.636L844.089 919.707L844.46 918.778L1409.92 1144.54L1409.55 1145.47ZM844.089 919.707L843.718 920.636C834.041 916.775 829.292 905.745 833.135 896.049L834.065 896.418L834.994 896.786C831.557 905.458 835.807 915.326 844.46 918.778L844.089 919.707ZM834.065 896.418L833.135 896.049L1057.54 329.708L1058.47 330.076L1059.4 330.445L834.994 896.786L834.065 896.418ZM1058.47 330.076L1057.54 329.708C1059.65 324.399 1063.98 320.373 1069.42 318.657L1069.72 319.611L1070.02 320.564C1065.16 322.099 1061.29 325.696 1059.4 330.445L1058.47 330.076ZM1069.72 319.611L1069.42 318.657C1073.55 317.354 1078.05 317.527 1082.07 319.126L1081.71 320.056L1081.34 320.985C1077.73 319.554 1073.71 319.401 1070.02 320.564L1069.72 319.611ZM1081.71 320.056L1082.08 319.127L1647.51 544.896L1647.14 545.825L1646.77 546.754L1081.33 320.984L1081.71 320.056Z" fill="white" mask="url(#path-137-inside-69_3_716)"/>
<mask id="path-139-inside-70_3_716" fill="white">
<path d="M1653.33 551.7L1098.91 350.99C1094.79 349.499 1090.41 349.404 1086.24 350.718C1080.28 352.594 1075.66 357.048 1073.54 362.924L874.119 918.239C870.418 928.544 875.783 939.961 886.07 943.678L1440.48 1144.39"/>
</mask>
<path d="M1098.91 350.99L1099.25 350.05L1099.25 350.05L1098.91 350.99ZM1086.24 350.718L1086.54 351.672L1086.54 351.672L1086.24 350.718ZM1073.54 362.924L1072.6 362.586L1072.6 362.585L1073.54 362.924ZM874.119 918.239L873.177 917.901L873.178 917.901L874.119 918.239ZM886.07 943.678L886.409 942.737L886.41 942.738L886.07 943.678ZM1653.33 551.7L1652.99 552.64L1098.57 351.931L1098.91 350.99L1099.25 350.05L1653.67 550.76L1653.33 551.7ZM1098.91 350.99L1098.57 351.931C1094.65 350.514 1090.5 350.424 1086.54 351.672L1086.24 350.718L1085.94 349.764C1090.32 348.384 1094.92 348.485 1099.25 350.05L1098.91 350.99ZM1086.24 350.718L1086.54 351.672C1080.88 353.454 1076.49 357.679 1074.48 363.263L1073.54 362.924L1072.6 362.585C1074.82 356.416 1079.68 351.734 1085.94 349.764L1086.24 350.718ZM1073.54 362.924L1074.48 363.262L875.06 918.576L874.119 918.239L873.178 917.901L1072.6 362.586L1073.54 362.924ZM874.119 918.239L875.06 918.576C871.546 928.364 876.642 939.208 886.409 942.737L886.07 943.678L885.73 944.618C874.923 940.714 869.291 928.725 873.177 917.901L874.119 918.239ZM886.07 943.678L886.41 942.738L1440.82 1143.45L1440.48 1144.39L1440.14 1145.33L885.729 944.618L886.07 943.678Z" fill="white" mask="url(#path-139-inside-70_3_716)"/>
<mask id="path-141-inside-71_3_716" fill="white">
<path d="M1441.34 1141.99L886.933 941.293C877.96 938.05 873.292 928.1 876.518 919.109L1075.94 363.794C1077.78 358.668 1081.82 354.791 1087.01 353.154C1090.64 352.008 1094.47 352.088 1098.05 353.386L1652.46 554.099"/>
</mask>
<path d="M886.933 941.293L887.272 940.352L887.273 940.352L886.933 941.293ZM876.518 919.109L875.576 918.771L875.577 918.771L876.518 919.109ZM1075.94 363.794L1076.88 364.132L1076.88 364.132L1075.94 363.794ZM1087.01 353.154L1087.31 354.108L1087.31 354.108L1087.01 353.154ZM1098.05 353.386L1097.71 354.326L1097.71 354.326L1098.05 353.386ZM1441.34 1141.99L1441 1142.93L886.592 942.233L886.933 941.293L887.273 940.352L1441.68 1141.05L1441.34 1141.99ZM886.933 941.293L886.593 942.233C877.1 938.802 872.165 928.28 875.576 918.771L876.518 919.109L877.459 919.447C874.419 927.921 878.82 937.297 887.272 940.352L886.933 941.293ZM876.518 919.109L875.577 918.771L1075 363.456L1075.94 363.794L1076.88 364.132L877.459 919.447L876.518 919.109ZM1075.94 363.794L1075 363.457C1076.94 358.035 1081.22 353.931 1086.71 352.201L1087.01 353.154L1087.31 354.108C1082.41 355.651 1078.61 359.3 1076.88 364.132L1075.94 363.794ZM1087.01 353.154L1086.71 352.201C1090.55 350.988 1094.6 351.073 1098.39 352.446L1098.05 353.386L1097.71 354.326C1094.33 353.103 1090.73 353.028 1087.31 354.108L1087.01 353.154ZM1098.05 353.386L1098.39 352.446L1652.8 553.158L1652.46 554.099L1652.12 555.039L1097.71 354.326L1098.05 353.386Z" fill="white" mask="url(#path-141-inside-71_3_716)"/>
<mask id="path-143-inside-72_3_716" fill="white">
<path d="M1658.56 559.938L1115.2 384.292C1111.37 383.058 1107.34 383.033 1103.53 384.24C1097.58 386.114 1092.89 390.781 1090.99 396.727L916.535 941.01C913.298 951.133 918.872 962.028 928.979 965.293L1472.35 1140.95"/>
</mask>
<path d="M1115.2 384.292L1115.5 383.341L1115.5 383.341L1115.2 384.292ZM1103.53 384.24L1103.83 385.194L1103.83 385.194L1103.53 384.24ZM1090.99 396.727L1091.94 397.032L1091.94 397.032L1090.99 396.727ZM916.535 941.01L915.582 940.705L915.582 940.705L916.535 941.01ZM928.979 965.293L929.286 964.341L929.287 964.341L928.979 965.293ZM1658.56 559.938L1658.25 560.889L1114.89 385.244L1115.2 384.292L1115.5 383.341L1658.87 558.986L1658.56 559.938ZM1115.2 384.292L1114.89 385.244C1111.26 384.073 1107.44 384.05 1103.83 385.194L1103.53 384.24L1103.22 383.287C1107.24 382.016 1111.48 382.044 1115.5 383.341L1115.2 384.292ZM1103.53 384.24L1103.83 385.194C1098.19 386.97 1093.74 391.395 1091.94 397.032L1090.99 396.727L1090.04 396.423C1092.04 390.167 1096.97 385.257 1103.23 383.287L1103.53 384.24ZM1090.99 396.727L1091.94 397.032L917.487 941.315L916.535 941.01L915.582 940.705L1090.04 396.422L1090.99 396.727ZM916.535 941.01L917.487 941.315C914.417 950.915 919.705 961.247 929.286 964.341L928.979 965.293L928.672 966.244C918.038 962.81 912.178 951.352 915.582 940.705L916.535 941.01ZM928.979 965.293L929.287 964.341L1472.66 1140L1472.35 1140.95L1472.04 1141.9L928.672 966.244L928.979 965.293Z" fill="white" mask="url(#path-143-inside-72_3_716)"/>
<mask id="path-145-inside-73_3_716" fill="white">
<path d="M1473.13 1138.52L929.751 962.874C920.993 960.039 916.145 950.592 918.96 941.804L1093.4 397.502C1095.06 392.343 1099.12 388.297 1104.28 386.669C1107.59 385.621 1111.08 385.638 1114.41 386.714L1657.78 562.36"/>
</mask>
<path d="M929.751 962.874L929.444 963.825L929.443 963.825L929.751 962.874ZM918.96 941.804L918.007 941.499L918.007 941.499L918.96 941.804ZM1093.4 397.502L1092.45 397.197L1092.45 397.197L1093.4 397.502ZM1104.28 386.669L1104.58 387.622L1104.58 387.623L1104.28 386.669ZM1114.41 386.714L1114.1 387.666L1114.1 387.666L1114.41 386.714ZM1473.13 1138.52L1472.82 1139.47L929.444 963.825L929.751 962.874L930.059 961.922L1473.44 1137.56L1473.13 1138.52ZM929.751 962.874L929.443 963.825C920.16 960.821 915.024 950.811 918.007 941.499L918.96 941.804L919.912 942.109C917.265 950.373 921.826 959.258 930.059 961.922L929.751 962.874ZM918.96 941.804L918.007 941.499L1092.45 397.197L1093.4 397.502L1094.35 397.808L919.912 942.109L918.96 941.804ZM1093.4 397.502L1092.45 397.197C1094.2 391.729 1098.51 387.441 1103.98 385.716L1104.28 386.669L1104.58 387.623C1099.73 389.153 1095.91 392.957 1094.35 397.808L1093.4 397.502ZM1104.28 386.669L1103.98 385.716C1107.49 384.604 1111.2 384.623 1114.72 385.763L1114.41 386.714L1114.1 387.666C1110.97 386.653 1107.69 386.638 1104.58 387.622L1104.28 386.669ZM1114.41 386.714L1114.72 385.763L1658.09 561.408L1657.78 562.36L1657.47 563.311L1114.1 387.666L1114.41 386.714Z" fill="white" mask="url(#path-145-inside-73_3_716)"/>
<mask id="path-147-inside-74_3_716" fill="white">
<path d="M1663.79 568.178L1131.45 417.59C1127.94 416.598 1124.25 416.644 1120.78 417.736C1114.75 419.644 1110.11 424.425 1108.41 430.518L958.954 963.793C956.166 973.726 961.974 984.104 971.899 986.905L1504.23 1137.49"/>
</mask>
<path d="M1131.45 417.59L1131.72 416.627L1131.72 416.627L1131.45 417.59ZM1120.78 417.736L1120.48 416.783L1120.48 416.783L1120.78 417.736ZM1108.41 430.518L1107.44 430.248L1107.44 430.248L1108.41 430.518ZM958.954 963.793L959.917 964.063L959.917 964.063L958.954 963.793ZM971.899 986.905L972.171 985.942L972.172 985.943L971.899 986.905ZM1663.79 568.178L1663.51 569.141L1131.18 418.552L1131.45 417.59L1131.72 416.627L1664.06 567.216L1663.79 568.178ZM1131.45 417.59L1131.18 418.552C1127.85 417.613 1124.36 417.657 1121.08 418.69L1120.78 417.736L1120.48 416.783C1124.14 415.631 1128.02 415.584 1131.72 416.627L1131.45 417.59ZM1120.78 417.736L1121.08 418.69C1115.37 420.496 1110.99 425.02 1109.37 430.788L1108.41 430.518L1107.44 430.248C1109.24 423.829 1114.13 418.792 1120.48 416.783L1120.78 417.736ZM1108.41 430.518L1109.37 430.788L959.917 964.063L958.954 963.793L957.991 963.523L1107.44 430.248L1108.41 430.518ZM958.954 963.793L959.917 964.063C957.278 973.466 962.778 983.291 972.171 985.942L971.899 986.905L971.628 987.867C961.171 984.916 955.055 973.986 957.991 963.523L958.954 963.793ZM971.899 986.905L972.172 985.943L1504.51 1136.53L1504.23 1137.49L1503.96 1138.46L971.627 987.867L971.899 986.905Z" fill="white" mask="url(#path-147-inside-74_3_716)"/>
<mask id="path-149-inside-75_3_716" fill="white">
<path d="M1504.91 1135.04L972.578 984.441C964.009 982.01 958.992 973.062 961.406 964.475L1110.86 431.211C1112.34 425.937 1116.33 421.816 1121.56 420.17C1124.55 419.231 1127.73 419.18 1130.77 420.043L1663.09 570.634"/>
</mask>
<path d="M972.578 984.441L972.306 985.403L972.305 985.403L972.578 984.441ZM961.406 964.475L962.369 964.744L962.369 964.745L961.406 964.475ZM1110.86 431.211L1111.82 431.48L1111.82 431.48L1110.86 431.211ZM1121.56 420.17L1121.86 421.124L1121.86 421.124L1121.56 420.17ZM1130.77 420.043L1130.5 421.005L1130.5 421.005L1130.77 420.043ZM1504.91 1135.04L1504.64 1136L972.306 985.403L972.578 984.441L972.85 983.479L1505.19 1134.08L1504.91 1135.04ZM972.578 984.441L972.305 985.403C963.206 982.822 957.88 973.323 960.444 964.204L961.406 964.475L962.369 964.745C960.104 972.801 964.812 981.198 972.851 983.479L972.578 984.441ZM961.406 964.475L960.444 964.205L1109.9 430.941L1110.86 431.211L1111.82 431.48L962.369 964.744L961.406 964.475ZM1110.86 431.211L1109.9 430.941C1111.46 425.341 1115.71 420.963 1121.26 419.217L1121.56 420.17L1121.86 421.124C1116.95 422.669 1113.21 426.533 1111.82 431.48L1110.86 431.211ZM1121.56 420.17L1121.26 419.217C1124.43 418.219 1127.82 418.165 1131.04 419.081L1130.77 420.043L1130.5 421.005C1127.65 420.195 1124.66 420.243 1121.86 421.124L1121.56 420.17ZM1130.77 420.043L1131.04 419.081L1663.37 569.672L1663.09 570.634L1662.82 571.597L1130.5 421.005L1130.77 420.043Z" fill="white" mask="url(#path-149-inside-75_3_716)"/>
<mask id="path-151-inside-76_3_716" fill="white">
<path d="M1669.01 576.43L1147.72 450.895C1144.51 450.125 1141.18 450.238 1138.05 451.226C1132 453.14 1127.33 458.164 1125.85 464.335L1001.38 986.572C999.059 996.323 1005.08 1006.17 1014.83 1008.51L1536.11 1134.04"/>
</mask>
<path d="M1147.72 450.895L1147.96 449.922L1147.96 449.923L1147.72 450.895ZM1138.05 451.226L1138.36 452.18L1138.36 452.18L1138.05 451.226ZM1125.85 464.335L1124.88 464.103L1124.88 464.102L1125.85 464.335ZM1001.38 986.572L1000.41 986.341L1001.38 986.572ZM1014.83 1008.51L1014.6 1009.49L1014.6 1009.49L1014.83 1008.51ZM1669.01 576.43L1668.78 577.402L1147.49 451.867L1147.72 450.895L1147.96 449.923L1669.25 575.458L1669.01 576.43ZM1147.72 450.895L1147.49 451.867C1144.45 451.139 1141.3 451.247 1138.36 452.18L1138.05 451.226L1137.75 450.273C1141.05 449.229 1144.57 449.111 1147.96 449.922L1147.72 450.895ZM1138.05 451.226L1138.36 452.18C1132.64 453.987 1128.22 458.738 1126.82 464.568L1125.85 464.335L1124.88 464.102C1126.44 457.59 1131.36 452.292 1137.75 450.273L1138.05 451.226ZM1125.85 464.335L1126.82 464.567L1002.36 986.804L1001.38 986.572L1000.41 986.341L1124.88 464.103L1125.85 464.335ZM1001.38 986.572L1002.36 986.804C1000.16 996.02 1005.86 1005.32 1015.06 1007.54L1014.83 1008.51L1014.6 1009.49C1004.31 1007.01 997.959 996.627 1000.41 986.341L1001.38 986.572ZM1014.83 1008.51L1015.06 1007.54L1536.34 1133.07L1536.11 1134.04L1535.87 1135.01L1014.6 1009.49L1014.83 1008.51Z" fill="white" mask="url(#path-151-inside-76_3_716)"/>
<mask id="path-153-inside-77_3_716" fill="white">
<path d="M1536.7 1131.56L1015.41 1006.02C1007.04 1004 1001.85 995.54 1003.86 987.155L1128.32 464.918C1129.61 459.52 1133.53 455.316 1138.82 453.642C1141.5 452.794 1144.38 452.7 1147.13 453.36L1668.42 578.906"/>
</mask>
<path d="M1015.41 1006.02L1015.17 1006.99L1015.17 1006.99L1015.41 1006.02ZM1003.86 987.155L1004.83 987.387L1004.83 987.388L1003.86 987.155ZM1128.32 464.918L1127.35 464.686L1127.35 464.686L1128.32 464.918ZM1138.82 453.642L1138.52 452.688L1138.52 452.688L1138.82 453.642ZM1147.13 453.36L1147.36 452.388L1147.36 452.388L1147.13 453.36ZM1536.7 1131.56L1536.47 1132.54L1015.17 1006.99L1015.41 1006.02L1015.64 1005.05L1536.93 1130.59L1536.7 1131.56ZM1015.41 1006.02L1015.17 1006.99C1006.27 1004.84 1000.75 995.843 1002.88 986.923L1003.86 987.155L1004.83 987.388C1002.95 995.236 1007.81 1003.16 1015.64 1005.05L1015.41 1006.02ZM1003.86 987.155L1002.88 986.924L1127.35 464.686L1128.32 464.918L1129.3 465.15L1004.83 987.387L1003.86 987.155ZM1128.32 464.918L1127.35 464.686C1128.72 458.946 1132.89 454.468 1138.52 452.688L1138.82 453.642L1139.12 454.595C1134.16 456.163 1130.5 460.094 1129.3 465.151L1128.32 464.918ZM1138.82 453.642L1138.52 452.688C1141.38 451.785 1144.43 451.685 1147.36 452.388L1147.13 453.36L1146.89 454.332C1144.32 453.714 1141.63 453.803 1139.12 454.595L1138.82 453.642ZM1147.13 453.36L1147.36 452.388L1668.65 577.934L1668.42 578.906L1668.18 579.878L1146.89 454.332L1147.13 453.36Z" fill="white" mask="url(#path-153-inside-77_3_716)"/>
</g>
</svg>
