<svg width="182" height="131" viewBox="0 0 182 131" fill="none" xmlns="http://www.w3.org/2000/svg">
<circle opacity="0.1" cx="95.5" cy="65.5" r="65.5" fill="#004184"/>
<g clip-path="url(#clip0_1_88)">
<path fill-rule="evenodd" clip-rule="evenodd" d="M177.178 51.1031C177.178 50.792 179.032 48.1447 179.077 47.2114C179.121 46.2782 178.564 45.6243 177.178 45.7068C175.792 45.7894 171.597 46.5512 170.154 46.8813C168.712 47.2114 140.002 38.9457 129.992 37.6633C119.981 36.3809 103.415 35.1239 95.3345 36.7936C87.2539 38.4632 62.4743 49.3636 61.8352 49.7953C61.6192 49.9687 61.3834 50.1158 61.1328 50.2333C61.1328 50.2333 39.2323 52.0109 31.215 53.3758C23.1977 54.7407 9.13099 60.2131 5.35963 62.0732C1.58826 63.9333 0.76565 65.3618 0.53785 65.8823C0.310049 66.4029 0.885878 69.9961 0.575816 71.596C0.265754 73.1958 0.265754 75.8748 0.721356 77.0557C1.17696 78.2365 1.40476 77.9 1.7338 78.6745C2.06285 79.449 2.53743 81.5504 2.20206 81.652C1.86669 81.7535 -0.329058 82.7249 0.0442817 83.3661C0.417621 84.0073 8.51087 85.3531 10.4472 85.5182C12.3835 85.6833 13.2884 85.7658 13.2884 85.7658C13.2884 85.7658 13.2314 86.9657 13.5984 86.9657C13.9654 86.9657 19.6794 85.9499 19.6794 85.9499L56.2731 85.315C56.2731 85.315 129.827 85.0675 130.308 84.6104C130.609 84.2824 130.827 83.8859 130.941 83.4549L133.744 83.2073L165.307 80.1029C165.307 80.1029 165.39 81.925 165.636 81.7155C165.883 81.506 176.64 78.6555 177.659 77.9064C178.678 77.1572 178.646 77.5318 178.773 76.7065C178.899 75.8812 178.811 75.5892 179.102 75.3416C179.393 75.094 181.962 69.3676 182.025 66.3458C182.089 63.3239 181.393 59.756 181.12 59.2609C180.655 58.6385 180.145 58.0507 179.595 57.5023C179.213 55.8931 178.724 54.311 178.134 52.7664C177.864 52.1853 177.544 51.6288 177.178 51.1031V51.1031Z" fill="#004184"/>
<path fill-rule="evenodd" clip-rule="evenodd" d="M9.18793 64.3269C5.69499 66.314 1.82238 66.9489 1.54396 66.4727C1.01242 65.5078 12.4467 59.4894 14.0413 60.2703C14.9526 60.7147 9.35878 64.2317 9.18793 64.3269Z" fill="#D9ECFF"/>
<path fill-rule="evenodd" clip-rule="evenodd" d="M68.4412 52.614C68.4412 52.614 84.3492 43.6182 92.3412 41.6565C100.333 39.6948 115.995 39.9043 118.178 40.1075C119.468 40.2386 120.749 40.4506 122.012 40.7423L119.171 49.2684C119.171 49.2684 72.9782 52.4426 71.2634 52.5124C69.5485 52.5823 68.4412 52.614 68.4412 52.614Z" fill="#D9ECFF"/>
<path fill-rule="evenodd" clip-rule="evenodd" d="M124.025 41.0407L122.127 48.9953C122.127 48.9953 131.315 48.2716 132.719 47.6748C134.124 47.0781 135.953 44.4689 135.953 44.0753C135.953 43.6816 124.025 41.0407 124.025 41.0407Z" fill="#D9ECFF"/>
<path fill-rule="evenodd" clip-rule="evenodd" d="M178.102 52.7728C177.834 52.1898 177.517 51.6312 177.153 51.1032C177.153 51.1032 177.013 51.3444 174.622 52.3729C172.23 53.4013 170.274 53.6743 170.11 54.5631C169.945 55.4519 171.597 57.2485 172.812 57.7373C174.027 58.2262 179.582 57.5151 179.582 57.5151C179.194 55.9033 178.699 54.3191 178.102 52.7728V52.7728Z" fill="#C1232E"/>
<path fill-rule="evenodd" clip-rule="evenodd" d="M21.1538 87.6513C23.2579 89.741 25.9324 91.1578 28.8391 91.7227C31.7458 92.2876 34.7541 91.9752 37.4838 90.825C40.2136 89.6747 42.5421 87.7383 44.175 85.2605C45.8079 82.7828 46.6719 79.8749 46.6577 76.9045C46.6436 73.9342 45.7519 71.0347 44.0955 68.5727C42.439 66.1107 40.0922 64.1967 37.3516 63.0727C34.6111 61.9487 31.5999 61.6652 28.6987 62.2579C25.7975 62.8507 23.1367 64.2931 21.0525 66.4029C19.668 67.8045 18.5723 69.466 17.828 71.2925C17.0838 73.1191 16.7056 75.0749 16.715 77.0481C16.7244 79.0214 17.1212 80.9735 17.8828 82.7928C18.6445 84.6121 19.756 86.2631 21.1538 87.6513V87.6513ZM39.4411 84.6738C37.923 86.2121 35.9843 87.2641 33.8702 87.6969C31.7562 88.1297 29.5616 87.9239 27.5642 87.1054C25.5667 86.2868 23.856 84.8925 22.6485 83.0985C21.4409 81.3046 20.7907 79.1917 20.7801 77.027C20.7695 74.8623 21.3989 72.7431 22.5888 70.9373C23.7787 69.1316 25.4756 67.7203 27.4649 66.8821C29.4543 66.0439 31.6467 65.8164 33.7649 66.2283C35.8831 66.6402 37.832 67.6731 39.3652 69.1962C40.3846 70.2067 41.1953 71.4089 41.751 72.7342C42.3066 74.0594 42.5963 75.4816 42.6033 76.9192C42.6104 78.3569 42.3347 79.7819 41.7921 81.1125C41.2495 82.4432 40.4506 83.6534 39.4411 84.6738Z" fill="#000811"/>
<path fill-rule="evenodd" clip-rule="evenodd" d="M31.6387 64.1556C34.1652 64.1443 36.6383 64.8848 38.7454 66.2836C40.8524 67.6823 42.4988 69.6764 43.4763 72.0138C44.4538 74.3512 44.7187 76.9269 44.2373 79.4153C43.7559 81.9036 42.5499 84.1929 40.7718 85.9937C38.9936 87.7945 36.7233 89.0259 34.2477 89.5323C31.772 90.0386 29.2024 89.7972 26.8635 88.8385C24.5246 87.8798 22.5216 86.2469 21.1077 84.1462C19.6937 82.0455 18.9324 79.5714 18.9198 77.0366C18.9115 75.3529 19.2339 73.6839 19.8687 72.1252C20.5034 70.5665 21.4381 69.1486 22.6192 67.9523C23.8004 66.7561 25.2049 65.8051 26.7525 65.1537C28.3 64.5022 29.9604 64.163 31.6387 64.1556V64.1556Z" fill="white"/>
<path fill-rule="evenodd" clip-rule="evenodd" d="M31.639 65.6792C29.4123 65.6893 27.2386 66.3616 25.3928 67.6113C23.5471 68.8609 22.1122 70.6316 21.2696 72.6995C20.427 74.7674 20.2147 77.0395 20.6594 79.2285C21.1041 81.4175 22.1858 83.425 23.7679 84.9971C25.3499 86.5692 27.3611 87.6353 29.5471 88.0605C31.7331 88.4857 33.9957 88.251 36.0487 87.3859C38.1017 86.5209 39.8529 85.0644 41.0807 83.2008C42.3086 81.3371 42.958 79.15 42.9467 76.916C42.9317 73.9217 41.732 71.056 39.6116 68.9489C37.4912 66.8418 34.6235 65.6657 31.639 65.6792Z" fill="#004184"/>
<path fill-rule="evenodd" clip-rule="evenodd" d="M33.949 80.0079C34.4939 79.4553 34.8633 78.753 35.0104 77.9897C35.1575 77.2265 35.0756 76.4366 34.7752 75.7201C34.4747 75.0035 33.9692 74.3925 33.3225 73.9642C32.6759 73.536 31.9172 73.3097 31.1423 73.3142C30.3675 73.3186 29.6114 73.5535 28.9697 73.9892C28.3279 74.4248 27.8294 75.0416 27.5371 75.7616C27.2449 76.4815 27.172 77.2723 27.3278 78.0338C27.4835 78.7953 27.8609 79.4933 28.4121 80.0396C29.1508 80.7716 30.1489 81.1794 31.1871 81.1735C32.2253 81.1675 33.2187 80.7483 33.949 80.0079V80.0079Z" fill="#004184"/>
<path fill-rule="evenodd" clip-rule="evenodd" d="M30.4237 89.3651L29.7403 80.8201L23.2416 86.4194L22.0963 85.2894L27.6141 78.7378L19.0906 78.1029V76.4968L27.6078 75.7857L22.0203 69.2912L23.1467 68.1485L29.677 73.6844L30.3098 65.133H31.917L32.6257 73.678L39.0991 68.0723L40.2381 69.2087L34.7139 75.7476L43.2374 76.3825V77.995L34.7266 78.706L40.314 85.1942L39.1813 86.3433L32.6574 80.8074L32.0246 89.3588L30.4237 89.3651ZM30.4237 79.0933H31.9487L33.0181 78.0077V76.4714L31.936 75.3985H30.373L29.3036 76.4841V78.0077L30.4237 79.0933Z" fill="white"/>
<path fill-rule="evenodd" clip-rule="evenodd" d="M138.161 87.6514C140.265 89.7405 142.94 91.1565 145.847 91.7206C148.754 92.2846 151.762 91.9713 154.492 90.8202C157.221 89.6691 159.549 87.732 161.181 85.2538C162.813 82.7755 163.676 79.8674 163.661 76.897C163.646 73.9267 162.754 71.0275 161.097 68.566C159.44 66.1045 157.092 64.1912 154.351 63.068C151.61 61.9448 148.599 61.6622 145.698 62.2558C142.797 62.8494 140.137 64.2927 138.053 66.4031C136.669 67.805 135.574 69.4669 134.83 71.2937C134.086 73.1204 133.709 75.0763 133.719 77.0496C133.729 79.0229 134.126 80.9748 134.888 82.7939C135.65 84.613 136.762 86.2636 138.161 87.6514V87.6514ZM156.448 84.674C154.93 86.2122 152.991 87.2643 150.877 87.6971C148.763 88.1299 146.569 87.924 144.571 87.1055C142.574 86.287 140.863 84.8926 139.655 83.0987C138.448 81.3047 137.798 79.1918 137.787 77.0272C137.776 74.8625 138.406 72.7433 139.596 70.9375C140.786 69.1317 142.483 67.7205 144.472 66.8823C146.461 66.0441 148.654 65.8166 150.772 66.2285C152.89 66.6404 154.839 67.6732 156.372 69.1964C157.391 70.2073 158.201 71.4096 158.756 72.7348C159.311 74.06 159.601 75.482 159.608 76.9194C159.615 78.3569 159.339 79.7816 158.797 81.1122C158.255 82.4428 157.457 83.6531 156.448 84.674V84.674Z" fill="#000811"/>
<path fill-rule="evenodd" clip-rule="evenodd" d="M148.634 64.1555C151.16 64.143 153.634 64.8825 155.742 66.2805C157.85 67.6784 159.497 69.6721 160.476 72.0094C161.454 74.3466 161.72 76.9225 161.239 79.4113C160.758 81.9001 159.553 84.19 157.775 85.9914C155.997 87.7928 153.727 89.0249 151.251 89.5317C148.775 90.0386 146.205 89.7976 143.866 88.8391C141.527 87.8806 139.524 86.2477 138.109 84.1468C136.695 82.046 135.934 79.5717 135.921 77.0366C135.913 75.3534 136.235 73.685 136.869 72.1267C137.504 70.5684 138.438 69.1507 139.618 67.9546C140.799 66.7584 142.202 65.8073 143.749 65.1555C145.296 64.5036 146.956 64.1639 148.634 64.1555V64.1555Z" fill="white"/>
<path fill-rule="evenodd" clip-rule="evenodd" d="M148.64 65.679C146.414 65.6903 144.241 66.3637 142.396 67.6141C140.551 68.8645 139.117 70.6357 138.275 72.7037C137.434 74.7717 137.222 77.0436 137.668 79.2322C138.113 81.4207 139.195 83.4277 140.778 84.9991C142.36 86.5706 144.371 87.636 146.557 88.0607C148.743 88.4854 151.005 88.2503 153.058 87.3851C155.11 86.5199 156.861 85.0634 158.089 83.1999C159.316 81.3364 159.966 79.1495 159.954 76.9158C159.938 73.921 158.737 71.0553 156.615 68.9483C154.494 66.8414 151.625 65.6655 148.64 65.679V65.679Z" fill="#004184"/>
<path fill-rule="evenodd" clip-rule="evenodd" d="M150.956 80.0077C151.5 79.4548 151.868 78.7524 152.015 77.9895C152.161 77.2265 152.079 76.4371 151.778 75.721C151.477 75.005 150.972 74.3945 150.325 73.9666C149.679 73.5388 148.921 73.3128 148.146 73.3172C147.372 73.3216 146.616 73.5563 145.974 73.9915C145.333 74.4268 144.834 75.0431 144.542 75.7625C144.249 76.4819 144.176 77.2722 144.331 78.0335C144.486 78.7947 144.862 79.4928 145.413 80.0395C145.779 80.4029 146.212 80.6903 146.689 80.8854C147.166 81.0805 147.676 81.1795 148.191 81.1765C148.706 81.1736 149.215 81.0688 149.689 80.8683C150.164 80.6677 150.594 80.3753 150.956 80.0077V80.0077Z" fill="#004184"/>
<path fill-rule="evenodd" clip-rule="evenodd" d="M147.438 89.3654L146.716 80.8203L140.243 86.4197L139.104 85.2897L144.622 78.738L136.098 78.1032V76.497L144.615 75.786L139.022 69.2915L140.154 68.1487L146.678 73.6846L147.311 65.1332H148.918L149.633 73.6783L156.1 68.0726L157.246 69.2089L151.728 75.7542L160.251 76.3891V78.0016L151.734 78.719L157.315 85.2071L156.189 86.3562L149.659 80.8203L149.026 89.3717L147.438 89.3654ZM147.438 79.0935H148.963L150.032 78.0079V76.4716L148.95 75.3987H147.425L146.356 76.4843V78.0079L147.438 79.0935Z" fill="white"/>
<path fill-rule="evenodd" clip-rule="evenodd" d="M61.3796 54.0297C61.6264 53.9472 62.9679 53.452 65.48 52.6838C66.6347 52.2829 67.8327 52.0208 69.0489 51.903C69.0489 51.903 69.0489 50.3476 69.8905 49.5858C70.7321 48.8239 73.3518 48.1574 74.649 47.9923C77.4522 47.6368 77.5344 51.6681 77.1421 52.2521C76.9396 52.5632 74.8768 53.3695 73.8453 53.5726C72.8139 53.7758 70.7763 53.3885 70.5485 53.3695C70.3207 53.3504 61.3796 54.0297 61.3796 54.0297Z" fill="#004184"/>
<line x1="60" y1="75.5294" x2="126" y2="75.5294" stroke="white" stroke-width="0.5"/>
<path d="M64.7539 72.0972C62.2319 72.0972 60.9709 71.2613 60.9709 69.5894V63.7165C60.9709 63.3583 61.199 63.1791 61.6552 63.1791C62.1286 63.1791 62.3653 63.3583 62.3653 63.7165V69.551C62.3653 70.549 63.183 71.048 64.8185 71.048H70.1636C70.594 71.048 70.8092 71.2229 70.8092 71.5726C70.8092 71.9223 70.594 72.0972 70.1636 72.0972H64.7539Z" fill="white"/>
<path d="M72.7085 66.3523C72.7085 65.994 72.9366 65.8149 73.3928 65.8149C73.849 65.8149 74.0771 65.994 74.0771 66.3523V71.6238C74.0771 71.9821 73.849 72.1612 73.3928 72.1612C72.9366 72.1612 72.7085 71.9821 72.7085 71.6238V66.3523ZM74.1417 64.2923C74.1417 64.7017 73.8921 64.9064 73.3928 64.9064C72.8936 64.9064 72.644 64.7017 72.644 64.2923C72.644 63.8829 72.8936 63.6781 73.3928 63.6781C73.8921 63.6781 74.1417 63.8829 74.1417 64.2923Z" fill="white"/>
<path d="M77.8969 72.0972V73.7861C77.8969 74.1444 77.6688 74.3235 77.2126 74.3235C76.7564 74.3235 76.5283 74.1444 76.5283 73.7861V67.9133C76.5283 66.557 77.6387 65.8789 79.8594 65.8789H82.4545C84.6752 65.8789 85.7856 66.557 85.7856 67.9133V70.0756C85.7856 71.4233 84.6752 72.0972 82.4545 72.0972H77.8969ZM77.8969 71.0608H82.4932C83.7671 71.0608 84.4041 70.7367 84.4041 70.0884V67.9005C84.4041 67.2522 83.7671 66.928 82.4932 66.928H79.8077C78.5338 66.928 77.8969 67.2522 77.8969 67.9005V71.0608Z" fill="white"/>
<path d="M88.217 66.3523C88.217 65.994 88.4451 65.8149 88.9013 65.8149C89.3574 65.8149 89.5855 65.994 89.5855 66.3523V71.6238C89.5855 71.9821 89.3574 72.1612 88.9013 72.1612C88.4451 72.1612 88.217 71.9821 88.217 71.6238V66.3523ZM89.6501 64.2923C89.6501 64.7017 89.4005 64.9064 88.9013 64.9064C88.402 64.9064 88.1524 64.7017 88.1524 64.2923C88.1524 63.8829 88.402 63.6781 88.9013 63.6781C89.4005 63.6781 89.6501 63.8829 89.6501 64.2923Z" fill="white"/>
<path d="M99.8221 67.9133C99.8221 67.2565 99.1809 66.928 97.8984 66.928H95.3162C94.0423 66.928 93.4053 67.2565 93.4053 67.9133V71.6238C93.4053 71.9821 93.1772 72.1612 92.721 72.1612C92.2648 72.1612 92.0367 71.9821 92.0367 71.6238V67.9133C92.0367 66.557 93.1471 65.8789 95.3678 65.8789H97.8596C100.08 65.8789 101.191 66.557 101.191 67.9133V71.6238C101.191 71.9821 100.963 72.1612 100.506 72.1612C100.05 72.1612 99.8221 71.9821 99.8221 71.6238V67.9133Z" fill="white"/>
<path d="M111.952 70.6642C111.952 71.6195 110.97 72.0972 109.008 72.0972H103.973C103.542 72.0972 103.327 71.9309 103.327 71.5982C103.327 71.2655 103.542 71.0992 103.973 71.0992H109.008C110.067 71.0992 110.596 70.9542 110.596 70.6642V69.9477C110.596 69.6576 110.067 69.5126 109.008 69.5126H106.348C104.386 69.5126 103.404 69.0477 103.404 68.118V67.5166C103.404 66.4248 104.416 65.8789 106.439 65.8789H108.207C108.646 65.8789 108.866 66.0495 108.866 66.3907C108.866 66.5613 108.806 66.6892 108.685 66.7745C108.573 66.8513 108.414 66.8897 108.207 66.8897H106.439C105.311 66.8897 104.747 67.0986 104.747 67.5166V68.0796C104.747 68.4293 105.307 68.6042 106.426 68.6042H109.085C110.996 68.6042 111.952 69.0392 111.952 69.9093V70.6642Z" fill="white"/>
<path d="M115.584 69.6406V71.6238C115.584 71.9821 115.356 72.1612 114.9 72.1612C114.444 72.1612 114.216 71.9821 114.216 71.6238V63.5246C114.216 63.1749 114.444 63 114.9 63C115.356 63 115.584 63.1749 115.584 63.5246V68.182L121.084 65.9812C121.213 65.93 121.321 65.8874 121.407 65.8533C121.493 65.8192 121.588 65.8064 121.691 65.8149C121.906 65.8149 122.074 65.8618 122.195 65.9556C122.315 66.0409 122.375 66.1689 122.375 66.3395C122.375 66.4589 122.341 66.557 122.272 66.6338C122.212 66.7105 122.1 66.783 121.936 66.8513L116.565 68.9113L121.962 71.1376C122.134 71.2144 122.246 71.2954 122.298 71.3807C122.35 71.466 122.375 71.5513 122.375 71.6366C122.375 71.9863 122.134 72.1612 121.652 72.1612C121.541 72.1612 121.446 72.1441 121.368 72.11C121.291 72.0844 121.175 72.0375 121.02 71.9693L115.584 69.6406Z" fill="white"/>
<path d="M124.567 66.3523C124.567 65.994 124.795 65.8149 125.252 65.8149C125.708 65.8149 125.936 65.994 125.936 66.3523V71.6238C125.936 71.9821 125.708 72.1612 125.252 72.1612C124.795 72.1612 124.567 71.9821 124.567 71.6238V66.3523ZM126 64.2923C126 64.7017 125.751 64.9064 125.252 64.9064C124.752 64.9064 124.503 64.7017 124.503 64.2923C124.503 63.8829 124.752 63.6781 125.252 63.6781C125.751 63.6781 126 63.8829 126 64.2923Z" fill="white"/>
</g>
<defs>
<clipPath id="clip0_1_88">
<rect width="182" height="56" fill="white" transform="translate(0 36)"/>
</clipPath>
</defs>
</svg>
