<svg width="182" height="131" viewBox="0 0 182 131" fill="none" xmlns="http://www.w3.org/2000/svg">
<circle opacity="0.1" cx="91.5" cy="65.5" r="65.5" fill="#004184"/>
<g clip-path="url(#clip0_2_254)">
<path fill-rule="evenodd" clip-rule="evenodd" d="M48.6007 50.6798C52.9791 47.7322 57.5551 45.0861 62.2966 42.76C70.4138 38.7491 76.7239 36.3978 77.5821 36.043C77.8666 35.9503 78.1402 35.8273 78.3981 35.6762C78.3981 35.6762 78.4344 35.5379 78.7124 35.3695C83.2255 34.2483 87.8321 33.5397 92.4748 33.2528C98.2409 33.0243 114.518 32.6514 126.509 33.7579C138.501 34.8644 164.164 39.0377 164.315 39.4466C164.466 39.8556 163.529 40.487 163.245 40.6914C162.855 40.9157 162.451 41.1165 162.036 41.2928C162.036 41.2928 171.375 49.874 172.088 50.6316C172.801 51.3893 172.952 51.5457 172.952 51.5457C173.207 51.6548 173.434 51.8191 173.617 52.0268C173.847 52.3335 175.352 54.4923 175.352 54.4923C175.352 54.4923 175.865 54.5644 176.832 55.8333C177.799 57.1021 177.624 60.3313 177.648 61.065C177.672 61.4796 177.672 61.8952 177.648 62.3098C177.648 62.3098 180.066 63.9815 180.35 64.6189C180.634 65.2563 181.208 69.7724 181.323 71.2036C181.398 72.0045 181.384 72.8112 181.281 73.609C181.494 73.7349 181.674 73.9098 181.805 74.1191C181.937 74.3283 182.016 74.5658 182.036 74.8117C182.036 75.6235 178.948 81.7633 177.926 82.8276C177.315 83.5543 176.453 84.0264 175.509 84.1506C175.08 84.1506 172.807 84.1506 172.807 84.1506L138.7 85.3954C138.7 85.3954 139.057 87.476 138.138 87.4219C137.219 87.3678 84.1581 87.9812 71.2963 88.5885C58.4344 89.1959 53.442 89.2741 53.164 89.1478C52.8859 89.0215 52.8618 87.6023 52.8618 87.6023L16.3191 88.0112C16.3191 88.0112 16.4219 89.2801 16.1136 89.2801C15.8054 89.2801 9.85194 88.5705 8.22003 88.1375C6.58812 87.7045 3.92872 86.1831 1.94021 84.788C-0.0483017 83.3929 0.126977 82.6593 0.356653 82.5029C0.586329 82.3466 0.846225 82.2022 0.846225 82.2022C0.846225 82.2022 1.227 74.2044 0.846225 74.03C0.465447 73.8556 0.0302716 73.6211 0.0302716 73.2903C0.0302716 72.9596 -0.126875 69.9949 0.284124 69.4056C0.67477 68.9191 1.11873 68.4773 1.60778 68.0887C1.81161 67.1339 2.16442 66.2168 2.65341 65.3706L3.42101 64.3844C3.42101 64.3844 3.88036 62.887 7.8876 60.8545C11.8948 58.822 26.7633 54.0774 34.3185 52.5018C41.8736 50.9263 44.0978 50.6377 45.1978 50.6016C46.2979 50.5655 48.6007 50.6798 48.6007 50.6798Z" fill="#004184"/>
<path fill-rule="evenodd" clip-rule="evenodd" d="M175.339 54.4981C175.339 54.4981 175.853 54.5702 176.82 55.8391C177.787 57.1079 177.612 60.3371 177.636 61.0708C177.66 61.4854 177.66 61.901 177.636 62.3156H176.923C175.324 62.226 173.748 61.9018 172.245 61.3534C170.123 60.5897 162.907 55.5143 162.852 55.2618C162.798 55.0092 162.804 54.8288 163.312 54.5762C163.819 54.3237 168.927 53.6622 171.556 53.9148C172.81 54.0131 174.057 54.1837 175.291 54.4259L175.339 54.4981Z" fill="#C1232E"/>
<path fill-rule="evenodd" clip-rule="evenodd" d="M172.861 51.4491C172.22 51.5152 171.132 51.6235 170.885 51.6115C170.528 51.6115 160.996 41.563 161.051 41.4367C161.105 41.3104 162.042 41.2984 162.042 41.2984C162.042 41.2984 171.38 49.8796 172.093 50.6373L172.861 51.4491Z" fill="#001B37"/>
<path fill-rule="evenodd" clip-rule="evenodd" d="M117.467 36.8125L117.376 50.8118C95.7084 52.4776 65.3247 54.4981 65.3247 54.4981C65.3247 54.4981 69.1022 54.2395 69.761 53.2954C70.4198 52.3513 71.3446 50 70.9698 49.2363C70.5951 48.4726 68.5522 47.306 68.5522 47.306C67.9819 47.1329 67.3974 47.0102 66.8055 46.9392C65.8868 46.8369 65.1736 46.8249 65.1736 46.8249C65.1736 46.8249 75.1342 40.9738 80.1871 39.5005C85.24 38.0272 94.4451 37.2154 97.6062 36.9388C102.224 36.56 109.676 36.5299 117.467 36.8125Z" fill="#001B37"/>
<path fill-rule="evenodd" clip-rule="evenodd" d="M120.816 50.5472L120.61 36.9448C129.676 37.3658 138.688 38.1956 143.874 39.3502C146.138 39.8103 148.138 41.1194 149.459 43.0064C150.534 44.5278 150.123 46.0131 149.513 46.6144C148.902 47.2158 147.192 47.7329 137.425 49.0499C134.868 49.3866 128.618 49.9339 120.816 50.5472Z" fill="#001B37"/>
<path fill-rule="evenodd" clip-rule="evenodd" d="M80.3138 36.1088C80.3138 36.1088 68.5761 41.3585 61.8188 44.8644C55.0615 48.3702 50.885 50.8418 50.2988 50.8778C49.7284 50.8625 49.1604 50.8001 48.6004 50.6914C52.9788 47.7439 57.5548 45.0978 62.2963 42.7717C70.4135 38.7487 76.7236 36.3975 77.5818 36.0427C77.8663 35.95 78.1399 35.827 78.3978 35.6758L80.3138 36.1088Z" fill="#001B37"/>
<path fill-rule="evenodd" clip-rule="evenodd" d="M2.65381 65.3704L3.42142 64.3842C3.42142 64.3842 9.532 62.2975 12.3909 61.9788C15.2497 61.6601 15.9871 61.9788 16.1684 62.7365C16.3498 63.4942 11.7804 68.2689 9.91883 69.2371C8.05724 70.2052 2.87745 69.7542 2.41809 69.4836C1.95874 69.213 1.60818 68.0885 1.60818 68.0885C1.81201 67.1337 2.16482 66.2166 2.65381 65.3704V65.3704Z" fill="#F5F5F5"/>
<path d="M156.764 97.3143C165.55 96.0594 171.649 87.9558 170.388 79.2145C169.127 70.4733 160.982 64.4044 152.196 65.6594C143.41 66.9144 137.31 75.0179 138.572 83.7592C139.833 92.5004 147.978 98.5693 156.764 97.3143Z" fill="#000811"/>
<path fill-rule="evenodd" clip-rule="evenodd" d="M154.475 93.0382C156.769 93.0382 159.012 92.3614 160.919 91.0934C162.826 89.8254 164.313 88.0232 165.191 85.9145C166.069 83.8059 166.298 81.4856 165.851 79.2471C165.403 77.0086 164.299 74.9524 162.677 73.3386C161.055 71.7247 158.988 70.6256 156.738 70.1804C154.488 69.7351 152.156 69.9636 150.037 70.8371C147.917 71.7105 146.106 73.1896 144.831 75.0873C143.557 76.985 142.877 79.2161 142.877 81.4984C142.881 84.5575 144.105 87.4899 146.279 89.653C148.453 91.8161 151.4 93.0335 154.475 93.0382V93.0382Z" fill="white"/>
<path fill-rule="evenodd" clip-rule="evenodd" d="M154.475 92.0039C156.563 92.0027 158.604 91.3856 160.34 90.2305C162.075 89.0754 163.428 87.4343 164.226 85.5146C165.024 83.5948 165.233 81.4827 164.825 79.4452C164.416 77.4078 163.41 75.5364 161.933 74.0678C160.456 72.5992 158.575 71.5992 156.527 71.1944C154.479 70.7895 152.356 70.9979 150.427 71.7932C148.498 72.5885 146.849 73.935 145.689 75.6625C144.529 77.39 143.91 79.4209 143.91 81.4984C143.916 84.2838 145.032 86.9531 147.012 88.922C148.992 90.891 151.676 91.9992 154.475 92.0039V92.0039Z" fill="#004184"/>
<path fill-rule="evenodd" clip-rule="evenodd" d="M156.271 70.5601C155.213 74.1381 155.273 77.8484 155.249 81.4986H153.702C153.702 77.8484 153.702 74.1381 152.68 70.5601H156.271V70.5601Z" fill="white"/>
<path fill-rule="evenodd" clip-rule="evenodd" d="M163.518 75.0281C160.23 76.8322 157.631 79.4781 155.02 82.0458L154.476 81.4986L153.926 80.9574C156.5 78.3596 159.184 75.7738 160.979 72.5025L162.248 73.7653L163.518 75.0281Z" fill="white"/>
<path fill-rule="evenodd" clip-rule="evenodd" d="M165.469 83.2844C161.873 82.2321 158.138 82.2922 154.475 82.2682V81.4984V80.7287C158.138 80.7287 161.873 80.7648 165.469 79.7124V81.5165V83.2844Z" fill="white"/>
<path fill-rule="evenodd" clip-rule="evenodd" d="M160.979 90.4946C159.166 87.2233 156.5 84.6375 153.926 82.0758L154.476 81.5286L155.02 80.9874C157.631 83.5491 160.23 86.213 163.518 88.0051L162.248 89.2619L160.979 90.4946Z" fill="white"/>
<path fill-rule="evenodd" clip-rule="evenodd" d="M152.68 92.4371C153.732 88.829 153.678 85.1488 153.702 81.4986H155.249C155.249 85.1488 155.213 88.8591 156.271 92.4371H152.68Z" fill="white"/>
<path fill-rule="evenodd" clip-rule="evenodd" d="M145.428 87.9688C148.722 86.1647 151.314 83.5188 153.926 80.9571L154.476 81.4983L155.02 82.0455C152.445 84.6373 149.761 87.2231 147.966 90.4643L146.697 89.2015L145.428 87.9688Z" fill="white"/>
<path fill-rule="evenodd" clip-rule="evenodd" d="M143.475 79.7125C147.102 80.7648 150.807 80.7047 154.476 80.7287V81.4985V82.2682C150.807 82.2682 147.078 82.2321 143.475 83.2845V81.4804V79.7125Z" fill="white"/>
<path fill-rule="evenodd" clip-rule="evenodd" d="M147.966 72.5025C149.779 75.7738 152.445 78.3596 155.02 80.9574L154.476 81.4986L153.926 82.0458C151.314 79.4781 148.722 76.8141 145.428 75.0281L146.697 73.7653L147.966 72.5025Z" fill="white"/>
<path fill-rule="evenodd" clip-rule="evenodd" d="M154.475 78.3113L153.085 79.1111L151.701 79.9049V81.4985V83.092L153.085 83.8858L154.475 84.6856L155.859 83.8858L157.243 83.092V81.4985V79.9049L155.859 79.1111L154.475 78.3113Z" fill="white"/>
<path fill-rule="evenodd" clip-rule="evenodd" d="M154.476 82.6711C154.716 82.671 154.951 82.5996 155.15 82.4661C155.35 82.3326 155.504 82.1429 155.595 81.9214C155.686 81.6999 155.708 81.4565 155.658 81.2225C155.609 80.9884 155.491 80.7742 155.319 80.6072C155.147 80.4403 154.929 80.3282 154.692 80.2852C154.456 80.2423 154.212 80.2704 153.992 80.3661C153.771 80.4618 153.585 80.6206 153.456 80.8223C153.327 81.024 153.261 81.2594 153.267 81.4984C153.275 81.8122 153.405 82.1104 153.631 82.3295C153.857 82.5486 154.16 82.6712 154.476 82.6711V82.6711Z" fill="#004184"/>
<path d="M51.138 81.7612C51.2836 72.9315 44.2073 65.6562 35.3325 65.5113C26.4578 65.3664 19.1454 72.4069 18.9998 81.2366C18.8542 90.0663 25.9305 97.3416 34.8052 97.4865C43.6799 97.6314 50.9924 90.5909 51.138 81.7612Z" fill="#000811"/>
<path fill-rule="evenodd" clip-rule="evenodd" d="M35.0561 93.0382C37.3506 93.0405 39.5942 92.3658 41.5032 91.0992C43.4122 89.8326 44.9007 88.0312 45.7804 85.9228C46.6601 83.8144 46.8916 81.4937 46.4454 79.2544C45.9992 77.0151 44.8955 74.9578 43.2739 73.3427C41.6523 71.7277 39.5856 70.6274 37.3354 70.1812C35.0851 69.7349 32.7524 69.9628 30.6323 70.8358C28.5123 71.7089 26.7001 73.188 25.4251 75.0859C24.1501 76.9839 23.4695 79.2155 23.4695 81.4984C23.4759 84.5549 24.6983 87.4846 26.8694 89.647C29.0406 91.8094 31.984 93.0286 35.0561 93.0382V93.0382Z" fill="white"/>
<path fill-rule="evenodd" clip-rule="evenodd" d="M35.0555 92.0037C37.1444 92.0061 39.1871 91.392 40.9251 90.2391C42.6631 89.0862 44.0184 87.4463 44.8194 85.5268C45.6205 83.6074 45.8313 81.4947 45.4252 79.4561C45.0192 77.4174 44.0145 75.5444 42.5383 74.074C41.062 72.6036 39.1806 71.6018 37.132 71.1955C35.0835 70.7892 32.9598 70.9965 31.0296 71.7913C29.0995 72.5861 27.4497 73.9326 26.2889 75.6604C25.1282 77.3883 24.5086 79.4199 24.5086 81.4982C24.5149 84.2804 25.6278 86.947 27.604 88.9155C29.5802 90.8839 32.2592 91.9942 35.0555 92.0037Z" fill="#004184"/>
<path fill-rule="evenodd" clip-rule="evenodd" d="M36.8695 70.5601C35.8117 74.1381 35.8722 77.8484 35.848 81.4986H34.2947C34.2947 77.8484 34.3309 74.1381 33.2732 70.5601H36.8695V70.5601Z" fill="white"/>
<path fill-rule="evenodd" clip-rule="evenodd" d="M44.1219 75.028C40.834 76.832 38.235 79.4779 35.63 82.0457L35.0558 81.4984L34.5058 80.9572C37.0866 78.3594 39.7642 75.7736 41.5593 72.5023L42.8285 73.7652L44.1219 75.028Z" fill="white"/>
<path fill-rule="evenodd" clip-rule="evenodd" d="M46.0618 83.2845C42.4655 82.2321 38.7363 82.3103 35.0555 82.2682V81.4985V80.7287C38.7242 80.7287 42.4534 80.7648 46.0497 79.7125V81.5165L46.0618 83.2845Z" fill="white"/>
<path fill-rule="evenodd" clip-rule="evenodd" d="M41.5718 90.4946C39.7586 87.2233 37.0992 84.6375 34.5183 82.0758L35.0684 81.5286L35.6184 80.9874C38.2234 83.513 40.8223 86.183 44.1224 87.975L42.8532 89.2318L41.5718 90.4946Z" fill="white"/>
<path fill-rule="evenodd" clip-rule="evenodd" d="M33.2732 92.4371C34.3309 88.829 34.2705 85.1488 34.2947 81.4986H35.842C35.842 85.1488 35.8057 88.8591 36.8634 92.4371H33.2732Z" fill="white"/>
<path fill-rule="evenodd" clip-rule="evenodd" d="M26.0262 87.9688C29.3141 86.1647 31.9131 83.5188 34.4879 80.9571L35.0379 81.4983L35.5879 82.0455C33.0071 84.6373 30.3296 87.2231 28.5345 90.4643L27.2652 89.2015L26.0262 87.9688Z" fill="white"/>
<path fill-rule="evenodd" clip-rule="evenodd" d="M24.074 79.7125C27.7005 80.7648 31.3995 80.7047 35.0682 80.7287V81.4985V82.2682C31.3995 82.2682 27.6702 82.2321 24.074 83.2845V81.4804V79.7125Z" fill="white"/>
<path fill-rule="evenodd" clip-rule="evenodd" d="M28.5647 72.5025C30.378 75.7738 33.0374 78.3596 35.6182 80.9574L35.0682 81.4986L34.5182 82.0458C31.9132 79.4781 29.3142 76.8141 26.0564 75.0281L27.3257 73.7653L28.5647 72.5025Z" fill="white"/>
<path fill-rule="evenodd" clip-rule="evenodd" d="M35.0679 78.3113L33.6838 79.1111L32.2936 79.9049V81.4985V83.092L33.6838 83.8858L35.0679 84.6856L36.452 83.8858L37.8421 83.092V81.4985V79.9049L36.452 79.1111L35.0679 78.3113Z" fill="white"/>
<path fill-rule="evenodd" clip-rule="evenodd" d="M35.0563 82.6711C35.288 82.6652 35.5128 82.5914 35.7026 82.459C35.8924 82.3266 36.0388 82.1415 36.1234 81.9268C36.208 81.712 36.227 81.4773 36.1782 81.2518C36.1294 81.0264 36.0148 80.8203 35.8488 80.6593C35.6829 80.4983 35.4729 80.3895 35.2451 80.3467C35.0173 80.3038 34.7819 80.3287 34.5683 80.4183C34.3547 80.5079 34.1724 80.6581 34.0442 80.8502C33.9159 81.0424 33.8475 81.2678 33.8474 81.4985C33.8474 81.655 33.8788 81.81 33.94 81.9543C34.0011 82.0985 34.0906 82.2292 34.2033 82.3385C34.3159 82.4477 34.4494 82.5335 34.5959 82.5906C34.7424 82.6477 34.899 82.6751 35.0563 82.6711V82.6711Z" fill="#004184"/>
</g>
<defs>
<clipPath id="clip0_2_254">
<rect width="182" height="64.4882" fill="white" transform="translate(0 33)"/>
</clipPath>
</defs>
</svg>
