<svg width="182" height="131" viewBox="0 0 182 131" fill="none" xmlns="http://www.w3.org/2000/svg">
<circle opacity="0.1" cx="91.5" cy="65.5" r="65.5" fill="#004184"/>
<g clip-path="url(#clip0_1_62)">
<path fill-rule="evenodd" clip-rule="evenodd" d="M176.552 50.8123C176.329 50.8123 165.984 48.6517 165.984 48.6517C156.203 44.2845 145.268 39.4328 134.38 37.0299C131.663 36.3926 128.907 35.9333 126.13 35.6549C122.758 35.3734 103.45 34.5812 93.6677 35.2817C83.8857 35.9823 77.3383 37.0626 73.986 38.3067C70.6337 39.5507 43.7236 53.2349 43.4355 53.4248C43.1354 53.5972 42.8223 53.7461 42.4992 53.87C42.4992 53.87 21.711 56.083 16.6236 57.9163C11.5362 59.7496 5.62384 63.0365 4.58279 63.9597C3.54174 64.8828 2.04237 67.8423 1.74119 69.047C1.58212 69.5936 1.48117 70.1554 1.44 70.7232C1.44 70.7232 0.209079 71.6267 0.130509 72.1702C-0.0713273 74.4844 -0.0537893 76.8126 0.182889 79.1236C0.299446 80.5869 0.553741 82.0359 0.942395 83.4515C0.725415 83.5815 0.563622 83.7866 0.487614 84.0279C0.411605 84.2692 0.426651 84.53 0.529905 84.761C0.850731 85.7496 4.89052 87.177 8.71424 87.596C12.538 88.0151 15.7135 88.421 15.7135 88.421H16.3682C16.3682 88.421 16.545 89.6126 16.7349 89.5668C16.9248 89.521 18.9872 89.2001 18.9872 89.2001L44.6729 88.9906L46.4866 88.1656L128.985 87.8186L131.656 88.1329L157.316 84.63L159.797 85.3306C159.797 85.3306 173.9 82.8818 176.637 82.1485C178.48 81.5832 180.087 80.4313 181.214 78.8682C181.553 78.5123 181.811 78.0882 181.973 77.6242C182.137 77.0218 181.476 76.2427 181.476 76.2427C181.476 76.2427 181.77 69.2762 181.436 68.7655C181.103 68.2548 179.603 67.1483 179.099 65.2691C178.595 63.39 178.968 59.6972 178.176 56.8033C177.384 53.9093 177.757 52.4099 177.331 51.6766C176.906 50.9433 176.552 50.8123 176.552 50.8123Z" fill="#004184"/>
<path fill-rule="evenodd" clip-rule="evenodd" d="M92.7706 55.3694C71.1967 56.358 50.6508 57.2616 50.677 57.0783C50.7424 56.7247 51.921 54.4986 55.7709 51.5391C59.6208 48.5796 69.6777 42.7524 76.3038 40.5917C81.9935 38.7257 89.3987 37.9727 96.4045 37.7043L92.7706 55.3694Z" fill="#D9ECFF"/>
<path fill-rule="evenodd" clip-rule="evenodd" d="M141.89 48.7499C142.266 49.071 142.501 49.5272 142.545 50.0201C142.481 51.0707 142.193 52.0955 141.7 53.0254C141.621 53.0647 121.455 54.0402 100.13 55.0224C100.484 51.3689 101.485 41.8816 101.885 37.6192C109.513 37.6192 119.098 37.9989 122.26 38.4965C125.731 39.0334 131.846 41.7703 134.583 43.3024C137.32 44.8345 141.89 48.7499 141.89 48.7499Z" fill="#D9ECFF"/>
<path fill-rule="evenodd" clip-rule="evenodd" d="M173.56 60.5355C173.671 60.6599 176.795 60.1885 178.661 59.8807C178.599 58.8202 178.436 57.7679 178.176 56.7379C177.824 55.4135 177.62 54.0543 177.567 52.6851L177.155 52.7702C176.899 52.8356 176.775 53.0452 175.655 54.0011C174.536 54.957 171.602 56.404 171.406 56.6856C171.21 56.9671 173.396 60.3718 173.56 60.5355Z" fill="#C1232E"/>
<path fill-rule="evenodd" clip-rule="evenodd" d="M3.48313 65.3479C2.74829 66.5023 2.16307 67.7454 1.7415 69.0473C1.61469 69.516 1.52062 69.9929 1.45996 70.4746C2.31113 70.3764 3.4242 70.2389 4.3343 70.1734C6.14795 70.0425 7.67351 70.8282 8.02707 70.874C8.38064 70.9198 15.0918 64.5688 14.8037 64.1236C14.5156 63.6783 12.2305 63.8682 8.66218 64.189C6.89425 64.3578 5.15439 64.7472 3.48313 65.3479V65.3479Z" fill="white"/>
<path fill-rule="evenodd" clip-rule="evenodd" d="M4.34708 79.7587C3.82328 79.4248 1.83285 79.3266 1.83285 79.3266C1.75914 79.4794 1.74287 79.6537 1.78702 79.8176C1.86559 80.073 3.39115 84.4009 4.1572 84.8657C4.92326 85.3306 8.91721 85.5205 9.09399 85.4681C9.27078 85.4157 4.87742 80.0926 4.34708 79.7587Z" fill="white"/>
<path fill-rule="evenodd" clip-rule="evenodd" d="M50.4541 54.5773C51.9811 53.1857 53.7965 52.1483 55.7707 51.5392C56.9492 51.2053 58.0295 58.0147 57.5188 58.5254C57.0081 59.0361 49.819 61.0069 48.8631 59.7367C47.9071 58.4664 50.4541 54.5773 50.4541 54.5773Z" fill="#004184"/>
<path d="M38.3274 93.9062C44.4424 90.0925 46.3081 82.0437 42.4944 75.9286C38.6807 69.8136 30.6318 67.9479 24.5167 71.7616C18.4017 75.5753 16.5361 83.6242 20.3498 89.7393C24.1635 95.8543 32.2123 97.7199 38.3274 93.9062Z" fill="#000811"/>
<path d="M41.3221 84.7367C42.3722 79.2679 38.7902 73.9832 33.3214 72.933C27.8525 71.8829 22.5679 75.4649 21.5177 80.9337C20.4675 86.4026 24.0496 91.6873 29.5184 92.7374C34.9872 93.7876 40.2719 90.2055 41.3221 84.7367Z" fill="white"/>
<path fill-rule="evenodd" clip-rule="evenodd" d="M31.4274 91.6816C33.1785 91.6816 34.8902 91.1623 36.3461 90.1893C37.802 89.2163 38.9366 87.8334 39.6064 86.2155C40.2762 84.5976 40.4511 82.8174 40.109 81.1001C39.7669 79.3827 38.9232 77.8054 37.6845 76.5677C36.4459 75.33 34.868 74.4874 33.1504 74.1466C31.4328 73.8058 29.6527 73.982 28.0353 74.653C26.4179 75.324 25.0358 76.4596 24.0639 77.9162C23.092 79.3728 22.5739 81.0849 22.5752 82.836C22.5804 85.1816 23.5149 87.4294 25.1741 89.0874C26.8333 90.7453 29.0819 91.6782 31.4274 91.6816Z" fill="#004184"/>
<path fill-rule="evenodd" clip-rule="evenodd" d="M38.9832 78.2135C38.6976 78.9948 38.2188 79.691 37.5914 80.2371C36.9639 80.7833 36.2084 81.1615 35.3952 81.3366C36.088 80.5471 36.6045 79.6191 36.9105 78.6143C37.2165 77.6095 37.3048 76.551 37.1695 75.5094C36.2791 74.9267 34.7404 74.01 33.5161 74.1999C33.8661 74.9537 34.0191 75.7841 33.9607 76.6132C33.9023 77.4422 33.6344 78.2429 33.1821 78.9403C33.1061 77.9036 32.8119 76.8946 32.3189 75.9796C31.8258 75.0645 31.1449 74.2639 30.3209 73.6303C29.2733 73.8463 27.5448 74.285 26.8245 75.2999C27.6016 75.5856 28.2943 76.0622 28.8389 76.6858C29.3835 77.3093 29.7625 78.0598 29.9411 78.8682C29.1529 78.1756 28.2259 77.6591 27.2222 77.3531C26.2185 77.0471 25.161 76.9588 24.1204 77.0939C23.5312 77.9843 22.6211 79.523 22.8109 80.7474C23.5648 80.3973 24.3951 80.2443 25.2242 80.3027C26.0533 80.3611 26.854 80.629 27.5513 81.0813C26.5042 81.1483 25.4836 81.4383 24.5576 81.9317C23.6317 82.4252 22.8219 83.1107 22.1824 83.9425C22.3919 84.9901 22.8371 86.7187 23.8454 87.4389C24.1336 86.6587 24.6141 85.9639 25.2425 85.419C25.8709 84.8742 26.6268 84.4969 27.44 84.3223C26.7455 85.1096 26.2273 86.0362 25.9202 87.0401C25.613 88.0439 25.524 89.1019 25.6591 90.143C26.5495 90.7323 28.0882 91.6424 29.3126 91.4525C28.9686 90.6988 28.8201 89.8706 28.8807 89.0444C28.9414 88.2182 29.2092 87.4206 29.6596 86.7252C29.7265 87.7732 30.0164 88.7949 30.5098 89.7219C31.0033 90.6489 31.6889 91.4599 32.5208 92.1007C33.5684 91.8846 35.297 91.4459 36.0237 90.4311C35.2434 90.1439 34.5481 89.6646 34.0022 89.0374C33.4563 88.4103 33.0774 87.6555 32.9006 86.8431C33.6901 87.5358 34.6181 88.0524 35.623 88.3584C36.6278 88.6643 37.6862 88.7526 38.7278 88.6174C39.3171 87.727 40.2272 86.1883 40.0373 84.9639C39.2835 85.314 38.4532 85.467 37.6241 85.4086C36.795 85.3502 35.9943 85.0823 35.297 84.63C36.345 84.5631 37.3666 84.2732 38.2936 83.7798C39.2206 83.2863 40.0316 82.6007 40.6724 81.7688C40.4367 80.6884 39.9915 78.9599 38.9832 78.2135Z" fill="white"/>
<path fill-rule="evenodd" clip-rule="evenodd" d="M31.4278 84.7607C31.8062 84.762 32.1765 84.651 32.4917 84.4417C32.807 84.2324 33.0531 83.9343 33.1988 83.5851C33.3445 83.2358 33.3833 82.8512 33.3102 82.4799C33.2372 82.1086 33.0556 81.7673 32.7885 81.4993C32.5214 81.2313 32.1808 81.0485 31.8097 80.9742C31.4387 80.8999 31.0539 80.9374 30.7042 81.0819C30.3545 81.2264 30.0555 81.4715 29.8451 81.786C29.6348 82.1006 29.5225 82.4705 29.5225 82.8489C29.5225 83.3548 29.723 83.8401 30.0801 84.1984C30.4372 84.5568 30.9219 84.759 31.4278 84.7607V84.7607Z" fill="#004184"/>
<path d="M150.53 94.3929C156.917 91.0529 159.386 83.1683 156.046 76.7821C152.706 70.396 144.821 67.9266 138.435 71.2666C132.049 74.6067 129.58 82.4912 132.92 88.8774C136.26 95.2635 144.144 97.7329 150.53 94.3929Z" fill="#000811"/>
<path d="M146.783 92.6661C152.205 91.3955 155.57 85.9701 154.299 80.5483C153.029 75.1264 147.603 71.7613 142.181 73.0319C136.76 74.3026 133.394 79.728 134.665 85.1498C135.936 90.5716 141.361 93.9368 146.783 92.6661Z" fill="white"/>
<path fill-rule="evenodd" clip-rule="evenodd" d="M144.483 91.6814C146.234 91.6814 147.946 91.1621 149.402 90.1891C150.858 89.2161 151.992 87.8332 152.662 86.2153C153.332 84.5974 153.507 82.8172 153.165 81.0998C152.823 79.3825 151.979 77.8052 150.74 76.5675C149.502 75.3297 147.924 74.4872 146.206 74.1463C144.488 73.8055 142.708 73.9818 141.091 74.6528C139.474 75.3238 138.091 76.4594 137.12 77.916C136.148 79.3726 135.63 81.0847 135.631 82.8358C135.636 85.1813 136.571 87.4292 138.23 89.0872C139.889 90.7451 142.137 91.678 144.483 91.6814V91.6814Z" fill="#004184"/>
<path fill-rule="evenodd" clip-rule="evenodd" d="M152.045 78.2136C151.759 78.9946 151.28 79.6905 150.653 80.2365C150.026 80.7826 149.27 81.1611 148.457 81.3367C149.15 80.5472 149.667 79.6192 149.973 78.6144C150.279 77.6096 150.367 76.5511 150.232 75.5095C149.341 74.9268 147.803 74.0101 146.578 74.2C146.926 74.9543 147.078 75.7843 147.02 76.6131C146.962 77.4418 146.695 78.2424 146.244 78.9404C146.169 77.9042 145.876 76.8956 145.384 75.9805C144.892 75.0655 144.212 74.2646 143.39 73.6304C142.342 73.8464 140.613 74.2851 139.887 75.3C140.664 75.5852 141.357 76.0616 141.902 76.6853C142.446 77.3089 142.825 78.0597 143.003 78.8683C142.214 78.1756 141.286 77.659 140.281 77.353C139.276 77.0471 138.218 76.9588 137.176 77.094C136.587 77.9844 135.677 79.5231 135.867 80.7475C136.62 80.3974 137.451 80.2444 138.28 80.3028C139.109 80.3612 139.91 80.6291 140.607 81.0814C139.559 81.1483 138.537 81.4382 137.61 81.9316C136.683 82.4251 135.872 83.1107 135.231 83.9426C135.448 84.9902 135.886 86.7188 136.901 87.439C137.189 86.6596 137.668 85.9653 138.295 85.4205C138.923 84.8757 139.677 84.498 140.489 84.3224C139.797 85.1109 139.281 86.0378 138.975 87.0415C138.669 88.0452 138.58 89.1025 138.715 90.1431C139.605 90.7324 141.144 91.6425 142.368 91.4526C142.025 90.6977 141.879 89.8684 141.943 89.0418C142.007 88.2152 142.28 87.4182 142.735 86.7253C142.802 87.7733 143.092 88.795 143.585 89.722C144.079 90.649 144.764 91.46 145.596 92.1008C146.644 91.8847 148.372 91.446 149.092 90.4312C148.313 90.1437 147.619 89.6641 147.074 89.0369C146.529 88.4097 146.151 87.6552 145.976 86.8432C146.764 87.5354 147.691 88.0517 148.695 88.3577C149.699 88.6636 150.756 88.7522 151.797 88.6175C152.386 87.7271 153.296 86.1884 153.106 84.964C152.352 85.3141 151.522 85.4671 150.693 85.4087C149.864 85.3503 149.063 85.0824 148.366 84.6301C149.413 84.5631 150.433 84.2731 151.359 83.7797C152.285 83.2862 153.095 82.6007 153.735 81.7689C153.499 80.6885 153.054 78.96 152.045 78.2136Z" fill="white"/>
<path fill-rule="evenodd" clip-rule="evenodd" d="M144.482 84.7607C144.86 84.7607 145.23 84.6486 145.544 84.4385C145.859 84.2284 146.104 83.9299 146.248 83.5805C146.393 83.2312 146.431 82.8468 146.357 82.4759C146.284 82.105 146.101 81.7644 145.834 81.497C145.567 81.2296 145.226 81.0475 144.855 80.9737C144.484 80.9 144.1 80.9378 143.751 81.0825C143.401 81.2272 143.103 81.4723 142.893 81.7867C142.682 82.1011 142.57 82.4707 142.57 82.8489C142.57 83.3559 142.772 83.8422 143.13 84.2008C143.489 84.5593 143.975 84.7607 144.482 84.7607V84.7607Z" fill="#004184"/>
<path fill-rule="evenodd" clip-rule="evenodd" d="M134.379 37.0298C134.34 37.0298 133.613 37.2917 134.707 37.7566C137.228 38.8303 165.48 50.9039 165.984 48.6515C155.757 44.088 145.353 39.3214 134.379 37.0298Z" fill="#D9ECFF"/>
</g>
<g clip-path="url(#clip1_1_62)">
<path d="M144.306 14.9722C149.552 13.6266 152.823 10.3185 154.158 5C155.485 10.3185 158.763 13.6146 163.997 14.9722C158.758 16.3244 155.494 19.6259 154.157 24.9444C152.821 19.6352 149.561 16.3218 144.306 14.9722Z" fill="#E8BB1D"/>
<path d="M142.454 24.2583C139.777 25.084 138.061 26.8059 137.218 29.5369C136.376 26.8178 134.68 25.092 132 24.265C134.661 23.4339 136.373 21.7254 137.218 18.9691C137.612 20.3213 138.228 21.4275 139.144 22.3476C140.059 23.2677 141.148 23.8807 142.454 24.2583Z" fill="#E8BB1D"/>
<path d="M149.479 35.3155C148.193 35.8473 147.338 36.6837 146.837 37.9973C146.322 36.6983 145.491 35.8234 144.187 35.3261C145.469 34.8062 146.328 33.9606 146.827 32.6469C147.337 33.93 148.172 34.8049 149.479 35.3155Z" fill="#E8BB1D"/>
</g>
<defs>
<clipPath id="clip0_1_62">
<rect width="182" height="60.8849" fill="white" transform="translate(0 35)"/>
</clipPath>
<clipPath id="clip1_1_62">
<rect width="32" height="33" fill="white" transform="translate(132 5)"/>
</clipPath>
</defs>
</svg>
