<svg width="131" height="131" viewBox="0 0 131 131" fill="none" xmlns="http://www.w3.org/2000/svg">
<circle opacity="0.1" cx="65.5" cy="65.5" r="65.5" fill="#004184"/>
<g clip-path="url(#clip0_4_143)">
<path d="M104.638 96.9629C105.432 99.2058 106.607 101.271 107.639 103.403C108.228 104.618 108.811 105.836 109.36 107.067C110.022 108.578 109.182 109.888 107.51 109.951C107.262 109.951 107.014 109.951 106.766 109.951C79.5985 109.951 52.4281 109.966 25.2544 109.997C22.7921 109.997 21.7826 108.42 22.9774 106.283C24.6752 103.248 26.0884 100.063 27.6108 96.9399C27.3857 96.4539 27.6968 96.073 27.8888 95.6855C29.6594 92.1487 31.4499 88.6218 33.2238 85.0884C33.5018 84.5399 33.7831 83.985 34.4814 83.8438C35.0944 83.7499 35.7154 83.718 36.3348 83.7485H96.0062C96.5828 83.7288 97.16 83.7485 97.7338 83.8076C97.958 83.8368 98.1709 83.9224 98.3522 84.0564C98.5335 84.1903 98.6773 84.3681 98.7697 84.5728C100.755 88.4281 102.556 92.3687 104.492 96.247C104.61 96.4664 104.66 96.7153 104.638 96.9629V96.9629Z" fill="white"/>
<path d="M120.772 65.408C121.103 65.7364 120.977 66.183 120.977 66.5738C120.977 75.7358 120.962 84.8968 120.931 94.0567C120.931 96.3554 120.345 96.9333 117.985 96.9268C115.626 96.9202 113.206 96.9038 110.817 96.8907C110.347 96.3817 110.443 95.7446 110.44 95.1436C110.44 91.5149 110.44 87.8829 110.44 84.251C110.44 82.054 109.973 81.6041 107.759 81.591C104.141 81.5713 100.524 81.6238 96.9035 81.568C96.2428 81.6171 95.5797 81.6281 94.9177 81.6009C75.9914 81.6009 57.0651 81.6009 38.1388 81.6009C37.2287 81.6009 36.3252 81.6304 35.4184 81.6632C31.4668 81.5023 27.5118 81.5877 23.5569 81.6173C22.1106 81.6173 21.601 82.2445 21.5712 83.8536C21.5348 87.5743 21.5712 91.2949 21.5513 95.0188C21.5513 95.6756 21.6738 96.3324 21.1773 96.8939C18.7878 96.8939 16.3983 96.9235 14.0088 96.9301C11.6193 96.9366 11.0633 96.3652 11.0633 94.0632C11.0633 87.9333 11.0633 81.8034 11.0633 75.6734C11.0633 72.6884 11.0269 69.7033 11.0236 66.7183C11.0236 66.2848 10.868 65.8119 11.2288 65.431C11.6789 66.9974 12.8405 67.0729 14.2603 67.0729C48.7504 67.0401 83.2416 67.0401 117.734 67.0729C119.164 67.0696 120.319 66.9744 120.772 65.408Z" fill="#0F5DAE"/>
<path d="M105.654 35.6855C105.985 37.0582 105.766 38.4473 105.79 39.8298C105.829 42.3255 105.829 44.8213 105.79 47.3171C105.79 48.0494 105.958 48.4106 106.743 48.276C106.784 48.2727 106.825 48.2727 106.865 48.276C111.293 48.3186 110.526 47.7243 112.862 51.7437L119.72 63.5165C119.17 64.0189 118.482 63.904 117.836 63.9073C112.968 63.9073 108.103 63.9073 103.238 63.9073C73.7564 63.9073 44.2759 63.9073 14.7965 63.9073C13.9525 63.9073 13.0523 64.1273 12.2911 63.5231C15.0116 58.8567 17.742 54.2001 20.4426 49.5238C21.0416 48.4861 21.922 48.2562 23.0406 48.2562C25.7313 48.2891 25.7313 48.2563 25.7313 45.6094C25.7313 42.7459 25.7313 39.8856 25.7313 37.0221C25.7313 36.5787 25.6254 36.119 25.8604 35.7085C26.37 36.1945 26.2641 36.8349 26.2674 37.4325C26.2873 40.388 26.2674 43.3764 26.2674 46.3483C26.2674 47.7735 26.38 47.8688 27.813 47.8852C29.9874 47.9114 32.1618 47.8523 34.3361 47.9147C35.0345 47.8458 35.7361 47.8786 36.4377 47.8786C56.2951 47.8786 76.1525 47.8786 96.0099 47.8786C96.5451 47.86 97.081 47.8709 97.615 47.9114C99.6703 47.8556 101.726 47.9114 103.781 47.8819C105.068 47.8622 105.197 47.7472 105.207 46.4698C105.23 43.4519 105.207 40.4307 105.224 37.4128C105.24 36.8119 105.131 36.165 105.654 35.6855Z" fill="#0F5DAE"/>
<path d="M34.2997 34.0468C34.2997 30.5692 34.2997 27.0916 34.2997 23.6139C34.2997 21.775 35.0808 20.9868 36.8944 20.9868H95.1428C97.0491 21 97.711 21.6567 97.711 23.4924C97.711 27.0128 97.711 30.532 97.711 34.0501C98.0916 34.4409 98.0916 34.9401 98.0949 35.4261C98.1125 38.5261 98.1125 41.6261 98.0949 44.7261C98.1492 45.2162 98.0324 45.71 97.7639 46.125C97.2245 46.5223 96.589 46.4534 95.9768 46.4534C76.0157 46.4534 56.0557 46.4534 36.0968 46.4534C35.4845 46.4534 34.8524 46.5125 34.2964 46.1447C33.9125 45.7014 33.9257 45.1595 33.9224 44.6308C33.9048 41.6009 33.9048 38.5721 33.9224 35.5443C33.9158 35.0254 33.8893 34.4639 34.2997 34.0468Z" fill="white"/>
<path d="M12.2907 63.5195H119.719C120.205 64.0665 120.564 64.7121 120.772 65.4111C120.669 67.4438 120.669 67.4471 118.591 67.4471H13.4193C11.3343 67.4471 11.3343 67.4471 11.2383 65.4143C11.447 64.7147 11.8061 64.0683 12.2907 63.5195V63.5195Z" fill="#004184"/>
<path d="M21.1906 96.8907C21.1906 92.4311 21.1906 87.9727 21.1906 83.5154C21.1906 81.8734 21.8789 81.2167 23.5072 81.2167C27.0507 81.2167 30.5952 81.2167 34.1409 81.2167C34.5347 81.2167 34.9782 81.0754 35.2959 81.4629C35.2884 81.9716 35.1769 82.4734 34.9681 82.9379C34.7593 83.4025 34.4576 83.8202 34.0813 84.1656L27.6243 96.9432L21.1906 96.8907Z" fill="#004184"/>
<path d="M96.937 81.207C100.763 81.207 104.588 81.207 108.411 81.207C110.139 81.207 110.821 81.8638 110.821 83.5484C110.821 87.9948 110.821 92.4434 110.821 96.8942L104.642 96.9664C103.619 95.5379 103.04 93.8828 102.252 92.3361C100.869 89.6236 99.5549 86.8783 98.2145 84.1461C97.5261 83.2759 96.7517 82.4451 96.937 81.207Z" fill="#004184"/>
<path d="M34.2997 34.0468L34.3527 46.0495C34.5771 46.3802 34.6928 46.7719 34.6839 47.1705C34.675 47.5692 34.542 47.9553 34.303 48.2759C31.9201 48.2759 29.5373 48.2365 27.1544 48.2956C26.2045 48.3186 25.8835 48.0723 25.8934 47.0773C25.9364 43.2877 25.8934 39.4948 25.8669 35.7052C26.0159 34.5099 26.8036 34.0436 27.9056 34.0337C30.037 34.0107 32.1816 34.0403 34.2997 34.0468Z" fill="#004184"/>
<path d="M97.6543 46.0497C97.6742 42.0499 97.6918 38.0501 97.7073 34.0504C99.6732 34.0504 101.639 34.0142 103.605 34.0306C104.704 34.0306 105.495 34.497 105.657 35.6726C105.637 39.4261 105.574 43.1796 105.624 46.9298C105.624 48.02 105.336 48.3287 104.247 48.2893C102.073 48.2039 99.8883 48.263 97.7106 48.263C97.4704 47.9457 97.3359 47.562 97.3258 47.1653C97.3157 46.7686 97.4306 46.3786 97.6543 46.0497V46.0497Z" fill="#004184"/>
<path d="M96.9365 81.2068C97.2675 82.2314 98.0055 83.0721 98.2107 84.1426L34.0879 84.159C34.4917 83.2592 34.8954 82.3562 35.3025 81.4564C35.6831 81.128 36.1531 81.2068 36.5998 81.2068H96.9365Z" fill="#EEEEEE"/>
<path d="M65.8898 97.9119H94.4745C94.8055 97.9119 95.1364 97.8955 95.4674 97.9119C96.0896 97.9579 96.4603 98.2863 96.4603 98.9267C96.463 99.0507 96.4403 99.174 96.3934 99.2891C96.3465 99.4041 96.2765 99.5085 96.1876 99.5958C96.0987 99.683 95.9928 99.7514 95.8764 99.7967C95.7599 99.842 95.6354 99.8633 95.5104 99.8593C95.2258 99.8856 94.9345 99.8593 94.6466 99.8593H36.9841C36.6961 99.8593 36.4049 99.8593 36.1203 99.8593C35.4915 99.8133 35.0943 99.4619 35.1108 98.8446C35.1117 98.7205 35.1373 98.5979 35.186 98.4836C35.2347 98.3694 35.3057 98.2658 35.3949 98.1789C35.4841 98.0919 35.5897 98.0233 35.7056 97.9769C35.8216 97.9305 35.9456 97.9073 36.0706 97.9086C36.4016 97.8824 36.7325 97.9086 37.0635 97.9086L65.8898 97.9119Z" fill="#374354"/>
<path d="M65.8794 88.7202H87.0606C87.4318 88.708 87.8034 88.7223 88.1726 88.7629C88.4029 88.7846 88.6157 88.8944 88.7658 89.0691C88.9159 89.2438 88.9916 89.4697 88.9768 89.6988C88.9863 89.908 88.9187 90.1135 88.7865 90.2767C88.6542 90.4399 88.4666 90.5497 88.2586 90.5854C87.8547 90.6587 87.4446 90.6928 87.0341 90.6872H44.5558C44.2244 90.6985 43.8926 90.6865 43.563 90.6511C43.0103 90.569 42.6429 90.2636 42.6528 89.666C42.6457 89.5419 42.665 89.4177 42.7094 89.3016C42.7539 89.1854 42.8226 89.0799 42.911 88.9919C42.9994 88.9039 43.1055 88.8353 43.2224 88.7908C43.3393 88.7462 43.4644 88.7267 43.5894 88.7333C43.9568 88.7071 44.3308 88.7136 44.7014 88.7136L65.8794 88.7202Z" fill="#394556"/>
<path d="M107.639 75.3057C106.316 75.3057 105.008 75.3287 103.691 75.3057C102.433 75.2762 101.642 74.4683 101.669 73.3124C101.661 73.0552 101.706 72.799 101.803 72.5602C101.9 72.3213 102.045 72.1048 102.23 71.9244C102.415 71.7439 102.635 71.6034 102.878 71.5117C103.12 71.4199 103.379 71.379 103.638 71.3913C106.266 71.3585 108.896 71.3585 111.528 71.3913C112.782 71.3913 113.557 72.2189 113.54 73.3814C113.524 74.5439 112.739 75.2795 111.462 75.3057C110.184 75.332 108.92 75.3057 107.639 75.3057Z" fill="white"/>
<path d="M100.918 73.4404C100.888 74.9214 99.9247 75.8179 98.3692 75.7982C96.8137 75.7785 95.9102 74.7802 95.9631 73.1711C96.0128 71.7196 97.0189 70.8329 98.5744 70.8724C100.054 70.915 100.951 71.9002 100.918 73.4404Z" fill="#A12D35"/>
<path d="M97.6544 46.0493C97.6743 46.7915 97.6908 47.5336 97.7107 48.2758C97.1745 48.2758 96.6417 48.3119 96.1055 48.3119H35.9079C35.3717 48.3119 34.8389 48.2889 34.3027 48.2758L34.3524 46.0493H97.6544Z" fill="#EEEEEE"/>
<path d="M65.8896 33.042H44.4932C44.1228 33.0625 43.7513 33.0449 43.3845 32.9894C43.1777 32.954 42.9907 32.8459 42.8576 32.6849C42.7245 32.5239 42.6543 32.3208 42.6597 32.1126C42.6352 31.8854 42.6984 31.6574 42.8366 31.4746C42.9748 31.2918 43.1777 31.1677 43.4044 31.1275C43.6881 31.0764 43.9771 31.0598 44.2649 31.0782H87.3057C87.594 31.0594 87.8835 31.0704 88.1695 31.1111C88.3971 31.147 88.6036 31.2644 88.7499 31.4411C88.8963 31.6177 88.9724 31.8414 88.9638 32.07C88.9705 32.299 88.8907 32.5223 88.7401 32.696C88.5895 32.8697 88.3789 32.9814 88.1497 33.0091C87.7817 33.0514 87.4108 33.0624 87.041 33.042H65.8896Z" fill="#374354"/>
<path d="M65.7274 42.2336H44.5462C44.175 42.2424 43.8036 42.2281 43.4342 42.1909C43.224 42.1736 43.0281 42.0786 42.8853 41.9247C42.7425 41.7708 42.6631 41.5693 42.663 41.3601C42.628 41.1385 42.6808 40.9122 42.8104 40.7285C42.94 40.5448 43.1363 40.4181 43.358 40.3749C43.7627 40.2998 44.1745 40.2689 44.5859 40.283H87.0509C87.3825 40.2756 87.7141 40.2899 88.0438 40.3256C88.17 40.3294 88.2942 40.358 88.4092 40.4097C88.5242 40.4614 88.6278 40.5351 88.7139 40.6267C88.8001 40.7183 88.8671 40.8259 88.9111 40.9433C88.9552 41.0607 88.9753 41.1856 88.9705 41.3108C88.9728 41.435 88.9496 41.5584 88.9023 41.6735C88.8551 41.7885 88.7847 41.8928 88.6956 41.9801C88.6064 42.0673 88.5003 42.1356 88.3837 42.1809C88.2671 42.2262 88.1425 42.2475 88.0173 42.2434C87.6466 42.2697 87.2727 42.2631 86.902 42.2631L65.7274 42.2336Z" fill="#394556"/>
</g>
<defs>
<clipPath id="clip0_4_143">
<rect width="110" height="89" fill="white" transform="translate(11 21)"/>
</clipPath>
</defs>
</svg>
