<svg width="131" height="131" viewBox="0 0 131 131" fill="none" xmlns="http://www.w3.org/2000/svg">
<circle opacity="0.1" cx="65.5" cy="65.5" r="65.5" fill="#004184"/>
<g clip-path="url(#clip0_2_464)">
<path d="M20 43.9497V43.5908C20.2945 43.4094 20.5777 43.2102 20.848 42.9944C26.9174 37.5665 32.9851 32.1376 39.0509 26.7079C39.338 26.4083 39.6913 26.1801 40.0825 26.0413C44.2669 25.0248 48.4566 24.0362 52.6517 23.0755C52.8066 23.0634 52.9623 23.0862 53.1072 23.1422C53.2521 23.1983 53.3826 23.2861 53.4889 23.3993C59.8788 31.6465 72.1941 31.66 78.4517 23.3993C78.5424 23.2338 78.6899 23.1065 78.8671 23.0411C79.0443 22.9756 79.2391 22.9763 79.4158 23.0431C83.4237 24.0227 87.4424 24.9511 91.4475 25.9415C92.0181 26.0865 92.5464 26.3639 92.9896 26.7511C97.7123 30.943 102.421 35.1521 107.117 39.3782C108.738 40.8301 110.358 42.2873 111.978 43.7635L102.169 58.9381L92.2794 54.3045V108.008H39.6585V54.3558L29.8306 58.9435C29.5605 58.5495 29.3688 58.2554 29.177 57.9558C26.3179 53.5426 23.4587 49.1222 20.5996 44.6946C20.4267 44.4301 20.1999 44.198 20 43.9497Z" fill="#0F5DAE"/>
<line x1="44.8359" y1="54.9464" x2="87.1648" y2="54.9464" stroke="white" stroke-width="0.5"/>
<path d="M47.8852 52.8345C46.2677 52.8345 45.459 52.2983 45.459 51.2261V47.4595C45.459 47.2298 45.6053 47.1149 45.8979 47.1149C46.2015 47.1149 46.3533 47.2298 46.3533 47.4595V51.2015C46.3533 51.8415 46.8777 52.1616 47.9266 52.1616H51.3547C51.6307 52.1616 51.7687 52.2737 51.7687 52.498C51.7687 52.7223 51.6307 52.8345 51.3547 52.8345H47.8852Z" fill="white"/>
<path d="M52.9869 49.15C52.9869 48.9202 53.1331 48.8053 53.4257 48.8053C53.7183 48.8053 53.8646 48.9202 53.8646 49.15V52.5308C53.8646 52.7606 53.7183 52.8755 53.4257 52.8755C53.1331 52.8755 52.9869 52.7606 52.9869 52.5308V49.15ZM53.906 47.8288C53.906 48.0914 53.7459 48.2227 53.4257 48.2227C53.1055 48.2227 52.9455 48.0914 52.9455 47.8288C52.9455 47.5662 53.1055 47.4349 53.4257 47.4349C53.7459 47.4349 53.906 47.5662 53.906 47.8288Z" fill="white"/>
<path d="M56.3144 52.8345V53.9177C56.3144 54.1474 56.1681 54.2623 55.8755 54.2623C55.5829 54.2623 55.4366 54.1474 55.4366 53.9177V50.1511C55.4366 49.2813 56.1488 48.8464 57.573 48.8464H59.2374C60.6616 48.8464 61.3738 49.2813 61.3738 50.1511V51.5379C61.3738 52.4023 60.6616 52.8345 59.2374 52.8345H56.3144ZM56.3144 52.1698H59.2622C60.0792 52.1698 60.4877 51.9619 60.4877 51.5461V50.1429C60.4877 49.7271 60.0792 49.5192 59.2622 49.5192H57.5399C56.7229 49.5192 56.3144 49.7271 56.3144 50.1429V52.1698Z" fill="white"/>
<path d="M62.9331 49.15C62.9331 48.9202 63.0794 48.8053 63.372 48.8053C63.6646 48.8053 63.8109 48.9202 63.8109 49.15V52.5308C63.8109 52.7606 63.6646 52.8755 63.372 52.8755C63.0794 52.8755 62.9331 52.7606 62.9331 52.5308V49.15ZM63.8523 47.8288C63.8523 48.0914 63.6922 48.2227 63.372 48.2227C63.0518 48.2227 62.8917 48.0914 62.8917 47.8288C62.8917 47.5662 63.0518 47.4349 63.372 47.4349C63.6922 47.4349 63.8523 47.5662 63.8523 47.8288Z" fill="white"/>
<path d="M70.3761 50.1511C70.3761 49.7299 69.9648 49.5192 69.1423 49.5192H67.4862C66.6692 49.5192 66.2607 49.7299 66.2607 50.1511V52.5308C66.2607 52.7606 66.1144 52.8755 65.8218 52.8755C65.5292 52.8755 65.3829 52.7606 65.3829 52.5308V50.1511C65.3829 49.2813 66.0951 48.8464 67.5193 48.8464H69.1174C70.5417 48.8464 71.2538 49.2813 71.2538 50.1511V52.5308C71.2538 52.7606 71.1075 52.8755 70.8149 52.8755C70.5224 52.8755 70.3761 52.7606 70.3761 52.5308V50.1511Z" fill="white"/>
<path d="M78.1553 51.9154C78.1553 52.5281 77.526 52.8345 76.2673 52.8345H73.0379C72.7619 52.8345 72.6239 52.7278 72.6239 52.5144C72.6239 52.3011 72.7619 52.1944 73.0379 52.1944H76.2673C76.9463 52.1944 77.2858 52.1014 77.2858 51.9154V51.4559C77.2858 51.2699 76.9463 51.1769 76.2673 51.1769H74.5615C73.3029 51.1769 72.6736 50.8787 72.6736 50.2824V49.8967C72.6736 49.1965 73.3222 48.8464 74.6195 48.8464H75.7539C76.0355 48.8464 76.1762 48.9558 76.1762 49.1746C76.1762 49.284 76.1376 49.3661 76.0603 49.4208C75.9885 49.47 75.8864 49.4946 75.7539 49.4946H74.6195C73.8963 49.4946 73.5348 49.6287 73.5348 49.8967V50.2578C73.5348 50.4821 73.8936 50.5942 74.6112 50.5942H76.317C77.5425 50.5942 78.1553 50.8732 78.1553 51.4312V51.9154Z" fill="white"/>
<path d="M80.4851 51.2589V52.5308C80.4851 52.7606 80.3388 52.8755 80.0462 52.8755C79.7536 52.8755 79.6073 52.7606 79.6073 52.5308V47.3364C79.6073 47.1121 79.7536 47 80.0462 47C80.3388 47 80.4851 47.1121 80.4851 47.3364V50.3234L84.0125 48.912C84.0954 48.8792 84.1644 48.8518 84.2196 48.8299C84.2748 48.8081 84.3355 48.7998 84.4017 48.8053C84.5397 48.8053 84.6474 48.8354 84.7247 48.8956C84.802 48.9503 84.8406 49.0324 84.8406 49.1418C84.8406 49.2184 84.8185 49.2813 84.7744 49.3305C84.7357 49.3797 84.6639 49.4262 84.5591 49.47L81.1144 50.7912L84.5756 52.219C84.686 52.2683 84.7578 52.3202 84.7909 52.3749C84.824 52.4296 84.8406 52.4843 84.8406 52.5391C84.8406 52.7633 84.686 52.8755 84.3769 52.8755C84.3051 52.8755 84.2444 52.8646 84.1947 52.8427C84.145 52.8263 84.0705 52.7962 83.9711 52.7524L80.4851 51.2589Z" fill="white"/>
<path d="M86.2463 49.15C86.2463 48.9202 86.3926 48.8053 86.6851 48.8053C86.9777 48.8053 87.124 48.9202 87.124 49.15V52.5308C87.124 52.7606 86.9777 52.8755 86.6851 52.8755C86.3926 52.8755 86.2463 52.7606 86.2463 52.5308V49.15ZM87.1654 47.8288C87.1654 48.0914 87.0053 48.2227 86.6851 48.2227C86.365 48.2227 86.2049 48.0914 86.2049 47.8288C86.2049 47.5662 86.365 47.4349 86.6851 47.4349C87.0053 47.4349 87.1654 47.5662 87.1654 47.8288Z" fill="white"/>
</g>
<defs>
<clipPath id="clip0_2_464">
<rect width="92" height="85" fill="white" transform="translate(20 23)"/>
</clipPath>
</defs>
</svg>
