<svg width="131" height="131" viewBox="0 0 131 131" fill="none" xmlns="http://www.w3.org/2000/svg">
<circle opacity="0.1" cx="65.5" cy="65.5" r="65.5" fill="#004184"/>
<g clip-path="url(#clip0_2_531)">
<path d="M39.9382 118C39.2868 117.714 38.5915 117.498 37.9896 117.129C36.3047 116.097 35.3359 114.569 35.2218 112.565C35.1627 111.536 35.2108 110.5 35.2108 109.315H36.526C54.5075 109.315 72.489 109.315 90.4704 109.315C94.4104 109.315 97.376 107.66 99.201 104.085C99.9733 102.574 100.111 100.933 100.111 99.2596C100.104 74.6683 100.104 50.0729 100.111 25.4733V23.8896C101.789 24.0283 103.409 23.959 104.93 24.3376C107.503 24.981 108.968 27.2927 108.988 30.3379C109.014 34.1667 108.995 37.9968 108.995 41.8256C108.995 64.9728 108.998 88.1196 109.005 111.266C109.005 113.485 108.511 115.466 106.629 116.8C105.892 117.323 104.989 117.607 104.155 118H39.9382Z" fill="#064688"/>
<path d="M22.9997 38.8597H25.8856C30.8438 38.8597 35.8007 38.8708 40.759 38.8597C46.1653 38.8444 49.5899 35.3762 49.5912 29.925C49.5926 24.4738 49.5816 19.0225 49.5761 13.5713C49.5761 13.0943 49.5761 12.6159 49.5761 12.0029H50.7291C63.9218 12.0029 77.1191 12.0029 90.321 12.0029C94.4602 12.0002 96.7964 14.3493 96.8033 18.5275C96.8033 45.5076 96.8033 72.4873 96.8033 99.4666C96.8033 103.656 94.4767 105.994 90.3224 105.994C70.0129 105.994 49.7039 105.994 29.3954 105.994C26.1934 105.994 23.941 104.416 23.2278 101.613C23.063 100.875 22.9896 100.12 23.0093 99.3639C22.9974 79.5929 22.9942 59.8223 22.9997 40.0523V38.8597ZM61.0936 71.9913C67.5883 71.9913 74.0834 71.9913 80.579 71.9913C81.0563 72.005 81.5335 71.9631 82.0013 71.8665C82.4364 71.7684 82.8402 71.5619 83.1758 71.2659C83.5115 70.9699 83.7684 70.5938 83.9231 70.1719C84.0778 69.75 84.1253 69.2957 84.0613 68.8505C83.9974 68.4053 83.824 67.9834 83.557 67.6231C82.9221 66.7356 82.0384 66.4375 80.9748 66.4389C67.7124 66.4509 54.4487 66.4541 41.1836 66.4486C40.9447 66.4409 40.7055 66.4492 40.4677 66.4736C39.9997 66.5324 39.5551 66.7135 39.1777 66.9988C38.8003 67.2842 38.5033 67.664 38.3159 68.1006C38.1286 68.5373 38.0574 69.0158 38.1094 69.4887C38.1614 69.9617 38.3348 70.4128 38.6124 70.7974C39.2995 71.7681 40.2863 72.0024 41.4021 72.001C47.9673 71.9872 54.5312 71.9839 61.0936 71.9913ZM61.0661 56.9606H78.9134C79.8012 56.9606 80.6917 56.9828 81.5781 56.9356C82.6775 56.876 83.425 56.2423 83.8648 55.2716C84.2771 54.3633 84.1644 53.4688 83.5776 52.6368C82.8314 51.5773 81.7567 51.4359 80.5831 51.4373C67.5956 51.4484 54.6072 51.4516 41.6179 51.447C41.2078 51.4381 40.7976 51.4599 40.3907 51.5122C39.9411 51.5755 39.515 51.7532 39.1523 52.0286C38.7896 52.304 38.5024 52.668 38.3176 53.0864C38.1329 53.5048 38.0567 53.9637 38.0962 54.42C38.1358 54.8763 38.2898 55.3149 38.5437 55.6945C39.1979 56.686 40.142 56.9759 41.2798 56.9731C47.8734 56.9495 54.4698 56.9592 61.0661 56.9606ZM50.8445 86.1054C54.1922 86.1054 57.5385 86.1221 60.8861 86.1054C62.6122 86.093 63.8201 84.9032 63.8078 83.3126C63.7968 81.7872 62.5888 80.5738 60.937 80.5696C54.276 80.5474 47.6151 80.5266 40.9569 80.6057C40.2052 80.6154 39.3353 81.1174 38.7444 81.6457C37.9445 82.3585 37.8401 83.4124 38.3087 84.4109C38.8378 85.5355 39.7572 86.1124 41.0077 86.1124L50.8445 86.1054Z" fill="#0F5DAE"/>
<path d="M46.2962 22.7667C46.2962 25.2503 46.3072 27.7326 46.2962 30.2148C46.2797 33.4237 44.3297 35.4927 41.1456 35.5246C36.0609 35.5773 30.9625 35.544 25.8709 35.5357C24.6904 35.5357 23.7243 35.1197 23.2681 33.9188C22.8297 32.7622 23.2681 31.8456 24.0748 31.0316C29.995 25.0604 35.9125 19.0863 41.8272 13.1095C42.671 12.2567 43.6508 11.8379 44.7887 12.326C45.9266 12.8142 46.3182 13.7835 46.3004 15.0094C46.2729 17.5942 46.2962 20.1818 46.2962 22.7667Z" fill="#0F5DAE"/>
<path d="M61.0937 71.9913C54.5303 71.9913 47.9665 71.9936 41.4022 71.9982C40.2863 71.9982 39.3024 71.7597 38.6125 70.7946C38.3345 70.4099 38.1608 69.9587 38.1086 69.4856C38.0564 69.0124 38.1276 68.5338 38.3149 68.0969C38.5023 67.66 38.7995 67.28 39.1771 66.9946C39.5547 66.7091 39.9995 66.5281 40.4677 66.4694C40.7056 66.4451 40.9448 66.4367 41.1837 66.4444C54.4479 66.4444 67.7116 66.4412 80.9748 66.4347C82.0385 66.4347 82.9221 66.7314 83.557 67.619C83.8241 67.9792 83.9975 68.4011 84.0614 68.8463C84.1254 69.2915 84.0778 69.7458 83.9232 70.1677C83.7685 70.5896 83.5116 70.9657 83.1759 71.2617C82.8402 71.5577 82.4365 71.7642 82.0014 71.8623C81.5336 71.9589 81.0564 72.0008 80.5791 71.9871C74.0835 71.9945 67.5884 71.9959 61.0937 71.9913Z" fill="white"/>
<path d="M61.0658 56.9607C54.4695 56.9607 47.8731 56.9496 41.2768 56.9704C40.1389 56.9704 39.1948 56.6833 38.5407 55.6918C38.2867 55.3122 38.1327 54.8736 38.0932 54.4173C38.0536 53.961 38.1298 53.5021 38.3146 53.0837C38.4993 52.6653 38.7866 52.3013 39.1492 52.0259C39.5119 51.7505 39.9381 51.5728 40.3876 51.5095C40.7946 51.4572 41.2047 51.4354 41.6148 51.4443C54.6033 51.4443 67.5917 51.441 80.5801 51.4346C81.7537 51.4346 82.8283 51.5732 83.5745 52.6341C84.1613 53.4661 84.274 54.3633 83.8618 55.2689C83.422 56.2396 82.6703 56.8719 81.575 56.9329C80.6886 56.9801 79.7981 56.9579 78.9104 56.9579L61.0658 56.9607Z" fill="white"/>
<path d="M50.8443 86.1054H41.002C39.7514 86.1054 38.8321 85.5285 38.303 84.4039C37.8344 83.4054 37.9388 82.3515 38.7386 81.6387C39.3295 81.1104 40.1994 80.6084 40.9512 80.5987C47.6093 80.5196 54.2703 80.5404 60.9312 80.5626C62.5803 80.5626 63.791 81.7746 63.802 83.3056C63.8144 84.8962 62.6064 86.079 60.8804 86.0985C57.5382 86.122 54.1947 86.1054 50.8443 86.1054Z" fill="white"/>
</g>
<defs>
<clipPath id="clip0_2_531">
<rect width="86" height="106" fill="white" transform="translate(23 12)"/>
</clipPath>
</defs>
</svg>
