<svg width="41" height="40" viewBox="0 0 41 40" fill="none" xmlns="http://www.w3.org/2000/svg">
<g clip-path="url(#clip0_3_831)">
<path d="M19.317 2.26675L7.65033 7.45008C6.45033 7.98341 5.66699 9.18342 5.66699 10.5001V18.3334C5.66699 27.5834 12.067 36.2334 20.667 38.3334C29.267 36.2334 35.667 27.5834 35.667 18.3334V10.5001C35.667 9.18342 34.8837 7.98341 33.6837 7.45008L22.017 2.26675C21.167 1.88341 20.167 1.88341 19.317 2.26675ZM16.1503 27.1501L11.8337 22.8334C11.1837 22.1834 11.1837 21.1334 11.8337 20.4834C12.4837 19.8334 13.5337 19.8334 14.1837 20.4834L17.3337 23.6167L27.1337 13.8167C27.7837 13.1667 28.8337 13.1667 29.4837 13.8167C30.1337 14.4667 30.1337 15.5167 29.4837 16.1667L18.5003 27.1501C17.867 27.8001 16.8003 27.8001 16.1503 27.1501Z" fill="white"/>
</g>
<defs>
<clipPath id="clip0_3_831">
<rect width="40" height="40" fill="white" transform="translate(0.666992)"/>
</clipPath>
</defs>
</svg>
