<svg width="40" height="40" viewBox="0 0 40 40" fill="none" xmlns="http://www.w3.org/2000/svg">
<g clip-path="url(#clip0_3_820)">
<path d="M8.33338 21.9666V26.6499C8.33338 27.8666 9.00005 28.9999 10.0667 29.5832L18.4001 34.1332C19.4001 34.6832 20.6 34.6832 21.6 34.1332L29.9334 29.5832C31 28.9999 31.6667 27.8666 31.6667 26.6499V21.9666L21.6 27.4666C20.6 28.0166 19.4001 28.0166 18.4001 27.4666L8.33338 21.9666ZM18.4001 5.86655L4.35005 13.5332C3.20005 14.1666 3.20005 15.8332 4.35005 16.4666L18.4001 24.1332C19.4001 24.6832 20.6 24.6832 21.6 24.1332L35 16.8166V26.6666C35 27.5832 35.75 28.3332 36.6667 28.3332C37.5834 28.3332 38.3334 27.5832 38.3334 26.6666V15.9832C38.3334 15.3666 38 14.8166 37.4667 14.5166L21.6 5.86655C20.6 5.33322 19.4001 5.33322 18.4001 5.86655Z" fill="white"/>
</g>
<defs>
<clipPath id="clip0_3_820">
<rect width="40" height="40" fill="white"/>
</clipPath>
</defs>
</svg>
