<svg width="41" height="40" viewBox="0 0 41 40" fill="none" xmlns="http://www.w3.org/2000/svg">
<g clip-path="url(#clip0_3_842)">
<path d="M22.2 3.43344L12.9667 12.6668C12.35 13.2834 12 14.1334 12 15.0168V31.6668C12 33.5001 13.5 35.0001 15.3333 35.0001H30.3333C31.6667 35.0001 32.8667 34.2001 33.4 32.9834L38.8333 20.3001C40.2333 17.0001 37.8167 13.3334 34.2333 13.3334H24.8167L26.4 5.70011C26.5667 4.86678 26.3167 4.01678 25.7167 3.41678C24.7333 2.45011 23.1667 2.45011 22.2 3.43344ZM5.33333 35.0001C7.16667 35.0001 8.66667 33.5001 8.66667 31.6668V18.3334C8.66667 16.5001 7.16667 15.0001 5.33333 15.0001C3.5 15.0001 2 16.5001 2 18.3334V31.6668C2 33.5001 3.5 35.0001 5.33333 35.0001Z" fill="white"/>
</g>
<defs>
<clipPath id="clip0_3_842">
<rect width="40" height="40" fill="white" transform="translate(0.333008)"/>
</clipPath>
</defs>
</svg>
