<svg width="209" height="1187" viewBox="0 0 209 1187" fill="none" xmlns="http://www.w3.org/2000/svg">
<mask id="path-1-outside-1_3_513" maskUnits="userSpaceOnUse" x="-1" y="0" width="210" height="1187" fill="black">
<rect fill="white" x="-1" width="210" height="1187"/>
<path d="M167.105 1117.07C167.105 1163.02 151.75 1186 121.04 1186H13.1616C6.58079 1186 3.2904 1181.84 3.2904 1173.53C3.2904 1164.9 6.58079 1160.59 13.1616 1160.59H120.334C138.667 1160.59 147.833 1145.69 147.833 1115.89V1018.49C147.833 1010.64 151.045 1006.72 157.469 1006.72C163.893 1006.72 167.105 1010.64 167.105 1018.49V1117.07Z"/>
<path d="M61.5774 972.111C54.9966 972.111 51.7062 967.955 51.7062 959.642C51.7062 951.329 54.9966 947.173 61.5774 947.173H158.409C164.99 947.173 168.28 951.329 168.28 959.642C168.28 967.955 164.99 972.111 158.409 972.111H61.5774ZM23.7379 945.996C31.2588 945.996 35.0192 950.545 35.0192 959.642C35.0192 968.739 31.2588 973.288 23.7379 973.288C16.2169 973.288 12.4565 968.739 12.4565 959.642C12.4565 950.545 16.2169 945.996 23.7379 945.996Z"/>
<path d="M167.105 877.567H198.129C204.71 877.567 208 881.723 208 890.036C208 898.349 204.71 902.506 198.129 902.506H90.2508C65.3378 902.506 52.8813 882.272 52.8813 841.805V794.516C52.8813 754.049 65.3378 733.815 90.2508 733.815H129.971C154.727 733.815 167.105 754.049 167.105 794.516V877.567ZM148.068 877.567V793.81C148.068 770.596 142.114 758.989 130.206 758.989H90.0158C78.1077 758.989 72.1537 770.596 72.1537 793.81L72.1537 842.746C72.1537 865.96 78.1077 877.567 90.0158 877.567H148.068Z"/>
<path d="M61.5774 689.509C54.9966 689.509 51.7062 685.352 51.7062 677.039C51.7062 668.726 54.9966 664.57 61.5774 664.57H158.409C164.99 664.57 168.28 668.726 168.28 677.039C168.28 685.352 164.99 689.509 158.409 689.509H61.5774ZM23.7379 663.393C31.2588 663.393 35.0192 667.942 35.0192 677.039C35.0192 686.136 31.2588 690.685 23.7379 690.685C16.2169 690.685 12.4565 686.136 12.4565 677.039C12.4565 667.942 16.2169 663.393 23.7379 663.393Z"/>
<path d="M90.2508 478.034C78.1861 478.034 72.1537 489.719 72.1537 513.089V560.144C72.1537 583.357 78.1861 594.964 90.2508 594.964H158.409C164.99 594.964 168.28 599.12 168.28 607.433C168.28 615.746 164.99 619.903 158.409 619.903H90.2508C65.3378 619.903 52.8813 599.67 52.8813 559.203L52.8813 513.795C52.8813 473.328 65.3378 453.095 90.2508 453.095H158.409C164.99 453.095 168.28 457.251 168.28 465.564C168.28 473.877 164.99 478.034 158.409 478.034H90.2508Z"/>
<path d="M140.782 257.004C158.331 257.004 167.105 274.885 167.105 310.646V402.403C167.105 410.245 164.05 414.166 157.939 414.166C151.828 414.166 148.773 410.245 148.773 402.403V310.646C148.773 291.354 146.109 281.708 140.782 281.708H127.62C122.293 281.708 119.629 291.354 119.629 310.646V359.112C119.629 394.874 111.09 412.755 94.0113 412.755H82.965C62.9092 412.755 52.8813 394.325 52.8813 357.466V325.233C52.8813 317.234 56.0151 313.234 62.2825 313.234C65.4162 313.234 67.7665 314.332 69.3333 316.528C70.7435 318.567 71.4486 321.469 71.4486 325.233V357.466C71.4486 378.013 75.2874 388.286 82.965 388.286H93.3062C99.7303 388.286 102.942 378.091 102.942 357.701V309.235C102.942 274.414 110.933 257.004 126.915 257.004H140.782Z"/>
<path d="M121.98 190.808H158.409C164.99 190.808 168.28 194.965 168.28 203.277C168.28 211.59 164.99 215.747 158.409 215.747H9.63616C3.21205 215.747 0 211.59 0 203.277C0 194.965 3.21205 190.808 9.63616 190.808H95.1864L54.7616 90.5819C53.8215 88.2292 53.038 86.2687 52.4113 84.7002C51.7845 83.1317 51.5495 81.4062 51.7062 79.5242C51.7062 75.6029 52.568 72.5444 54.2915 70.3485C55.8584 68.1526 58.2087 67.0547 61.3424 67.0547C63.536 67.0547 65.3378 67.682 66.748 68.9368C68.1582 70.0348 69.49 72.0737 70.7435 75.0538L108.583 172.927L149.478 74.5834C150.888 71.4464 152.377 69.4073 153.943 68.4663C155.51 67.5251 157.077 67.0547 158.644 67.0547C165.068 67.0547 168.28 71.4464 168.28 80.2299C168.28 82.2689 167.967 83.9943 167.34 85.4059C166.87 86.8176 166.008 88.9351 164.755 91.7583L121.98 190.808Z"/>
<path d="M61.5774 27.1152C54.9966 27.1152 51.7062 22.9589 51.7062 14.6459C51.7062 6.33289 54.9966 2.17639 61.5774 2.17639H158.409C164.99 2.17639 168.28 6.33289 168.28 14.6459C168.28 22.9589 164.99 27.1152 158.409 27.1152H61.5774ZM23.7379 1C31.2588 1 35.0192 5.54871 35.0192 14.6459C35.0192 23.743 31.2588 28.2917 23.7379 28.2917C16.2169 28.2917 12.4565 23.743 12.4565 14.6459C12.4565 5.54871 16.2169 1 23.7379 1Z"/>
</mask>
<path d="M167.105 1117.07C167.105 1163.02 151.75 1186 121.04 1186H13.1616C6.58079 1186 3.2904 1181.84 3.2904 1173.53C3.2904 1164.9 6.58079 1160.59 13.1616 1160.59H120.334C138.667 1160.59 147.833 1145.69 147.833 1115.89V1018.49C147.833 1010.64 151.045 1006.72 157.469 1006.72C163.893 1006.72 167.105 1010.64 167.105 1018.49V1117.07Z" stroke="#E5E5E5" stroke-width="2" mask="url(#path-1-outside-1_3_513)"/>
<path d="M61.5774 972.111C54.9966 972.111 51.7062 967.955 51.7062 959.642C51.7062 951.329 54.9966 947.173 61.5774 947.173H158.409C164.99 947.173 168.28 951.329 168.28 959.642C168.28 967.955 164.99 972.111 158.409 972.111H61.5774ZM23.7379 945.996C31.2588 945.996 35.0192 950.545 35.0192 959.642C35.0192 968.739 31.2588 973.288 23.7379 973.288C16.2169 973.288 12.4565 968.739 12.4565 959.642C12.4565 950.545 16.2169 945.996 23.7379 945.996Z" stroke="#E5E5E5" stroke-width="2" mask="url(#path-1-outside-1_3_513)"/>
<path d="M167.105 877.567H198.129C204.71 877.567 208 881.723 208 890.036C208 898.349 204.71 902.506 198.129 902.506H90.2508C65.3378 902.506 52.8813 882.272 52.8813 841.805V794.516C52.8813 754.049 65.3378 733.815 90.2508 733.815H129.971C154.727 733.815 167.105 754.049 167.105 794.516V877.567ZM148.068 877.567V793.81C148.068 770.596 142.114 758.989 130.206 758.989H90.0158C78.1077 758.989 72.1537 770.596 72.1537 793.81L72.1537 842.746C72.1537 865.96 78.1077 877.567 90.0158 877.567H148.068Z" stroke="#E5E5E5" stroke-width="2" mask="url(#path-1-outside-1_3_513)"/>
<path d="M61.5774 689.509C54.9966 689.509 51.7062 685.352 51.7062 677.039C51.7062 668.726 54.9966 664.57 61.5774 664.57H158.409C164.99 664.57 168.28 668.726 168.28 677.039C168.28 685.352 164.99 689.509 158.409 689.509H61.5774ZM23.7379 663.393C31.2588 663.393 35.0192 667.942 35.0192 677.039C35.0192 686.136 31.2588 690.685 23.7379 690.685C16.2169 690.685 12.4565 686.136 12.4565 677.039C12.4565 667.942 16.2169 663.393 23.7379 663.393Z" stroke="#E5E5E5" stroke-width="2" mask="url(#path-1-outside-1_3_513)"/>
<path d="M90.2508 478.034C78.1861 478.034 72.1537 489.719 72.1537 513.089V560.144C72.1537 583.357 78.1861 594.964 90.2508 594.964H158.409C164.99 594.964 168.28 599.12 168.28 607.433C168.28 615.746 164.99 619.903 158.409 619.903H90.2508C65.3378 619.903 52.8813 599.67 52.8813 559.203L52.8813 513.795C52.8813 473.328 65.3378 453.095 90.2508 453.095H158.409C164.99 453.095 168.28 457.251 168.28 465.564C168.28 473.877 164.99 478.034 158.409 478.034H90.2508Z" stroke="#E5E5E5" stroke-width="2" mask="url(#path-1-outside-1_3_513)"/>
<path d="M140.782 257.004C158.331 257.004 167.105 274.885 167.105 310.646V402.403C167.105 410.245 164.05 414.166 157.939 414.166C151.828 414.166 148.773 410.245 148.773 402.403V310.646C148.773 291.354 146.109 281.708 140.782 281.708H127.62C122.293 281.708 119.629 291.354 119.629 310.646V359.112C119.629 394.874 111.09 412.755 94.0113 412.755H82.965C62.9092 412.755 52.8813 394.325 52.8813 357.466V325.233C52.8813 317.234 56.0151 313.234 62.2825 313.234C65.4162 313.234 67.7665 314.332 69.3333 316.528C70.7435 318.567 71.4486 321.469 71.4486 325.233V357.466C71.4486 378.013 75.2874 388.286 82.965 388.286H93.3062C99.7303 388.286 102.942 378.091 102.942 357.701V309.235C102.942 274.414 110.933 257.004 126.915 257.004H140.782Z" stroke="#E5E5E5" stroke-width="2" mask="url(#path-1-outside-1_3_513)"/>
<path d="M121.98 190.808H158.409C164.99 190.808 168.28 194.965 168.28 203.277C168.28 211.59 164.99 215.747 158.409 215.747H9.63616C3.21205 215.747 0 211.59 0 203.277C0 194.965 3.21205 190.808 9.63616 190.808H95.1864L54.7616 90.5819C53.8215 88.2292 53.038 86.2687 52.4113 84.7002C51.7845 83.1317 51.5495 81.4062 51.7062 79.5242C51.7062 75.6029 52.568 72.5444 54.2915 70.3485C55.8584 68.1526 58.2087 67.0547 61.3424 67.0547C63.536 67.0547 65.3378 67.682 66.748 68.9368C68.1582 70.0348 69.49 72.0737 70.7435 75.0538L108.583 172.927L149.478 74.5834C150.888 71.4464 152.377 69.4073 153.943 68.4663C155.51 67.5251 157.077 67.0547 158.644 67.0547C165.068 67.0547 168.28 71.4464 168.28 80.2299C168.28 82.2689 167.967 83.9943 167.34 85.4059C166.87 86.8176 166.008 88.9351 164.755 91.7583L121.98 190.808Z" stroke="#E5E5E5" stroke-width="2" mask="url(#path-1-outside-1_3_513)"/>
<path d="M61.5774 27.1152C54.9966 27.1152 51.7062 22.9589 51.7062 14.6459C51.7062 6.33289 54.9966 2.17639 61.5774 2.17639H158.409C164.99 2.17639 168.28 6.33289 168.28 14.6459C168.28 22.9589 164.99 27.1152 158.409 27.1152H61.5774ZM23.7379 1C31.2588 1 35.0192 5.54871 35.0192 14.6459C35.0192 23.743 31.2588 28.2917 23.7379 28.2917C16.2169 28.2917 12.4565 23.743 12.4565 14.6459C12.4565 5.54871 16.2169 1 23.7379 1Z" stroke="#E5E5E5" stroke-width="2" mask="url(#path-1-outside-1_3_513)"/>
</svg>
