<svg width="348" height="1022" viewBox="0 0 348 1022" fill="none" xmlns="http://www.w3.org/2000/svg">
<g opacity="0.1">
<mask id="path-1-inside-1_3_514" fill="white">
<path d="M20.061 238.605L151.758 695.674C153.246 700.837 152.004 706.321 148.436 710.334C146.475 712.538 143.935 714.135 141.086 714.95L-315.775 845.396"/>
</mask>
<path d="M151.758 695.674L150.797 695.951L150.797 695.951L151.758 695.674ZM148.436 710.334L149.183 710.999L149.184 710.999L148.436 710.334ZM141.086 714.95L141.361 715.911L141.361 715.911L141.086 714.95ZM20.061 238.605L19.1001 238.882L150.797 695.951L151.758 695.674L152.719 695.397L21.0219 238.328L20.061 238.605ZM151.758 695.674L150.797 695.951C152.19 700.784 151.028 705.913 147.689 709.67L148.436 710.334L149.184 710.999C152.979 706.729 154.302 700.889 152.719 695.397L151.758 695.674ZM148.436 710.334L147.689 709.669C145.854 711.731 143.478 713.226 140.811 713.988L141.086 714.95L141.361 715.911C144.392 715.044 147.096 713.344 149.183 710.999L148.436 710.334ZM141.086 714.95L140.812 713.988L-316.049 844.434L-315.775 845.396L-315.5 846.357L141.361 715.911L141.086 714.95Z" fill="#004184" mask="url(#path-1-inside-1_3_514)"/>
<mask id="path-3-inside-2_3_514" fill="white">
<path d="M-456.112 358.336L0.748642 227.89L-456.112 358.336Z"/>
</mask>
<path d="M-456.112 358.336L-455.838 359.298L1.02319 228.852L0.748642 227.89L0.474071 226.929L-456.387 357.375L-456.112 358.336Z" fill="#004184" mask="url(#path-3-inside-2_3_514)"/>
<mask id="path-5-inside-3_3_514" fill="white">
<path d="M-316.119 844.194L140.742 713.748C143.366 712.999 145.704 711.529 147.5 709.503C150.779 705.809 151.922 700.762 150.551 696.014L18.854 238.945"/>
</mask>
<path d="M140.742 713.748L140.468 712.786L140.467 712.786L140.742 713.748ZM147.5 709.503L146.752 708.839L146.751 708.84L147.5 709.503ZM150.551 696.014L149.59 696.29L149.59 696.291L150.551 696.014ZM-316.119 844.194L-315.845 845.155L141.017 714.71L140.742 713.748L140.467 712.786L-316.394 843.232L-316.119 844.194ZM140.742 713.748L141.016 714.71C143.823 713.909 146.326 712.335 148.248 710.166L147.5 709.503L146.751 708.84C145.083 710.722 142.91 712.09 140.468 712.786L140.742 713.748ZM147.5 709.503L148.248 710.167C151.755 706.217 152.978 700.814 151.511 695.736L150.551 696.014L149.59 696.291C150.866 700.71 149.804 705.402 146.752 708.839L147.5 709.503ZM150.551 696.014L151.512 695.737L19.8149 238.668L18.854 238.945L17.8931 239.222L149.59 696.29L150.551 696.014Z" fill="#004184" mask="url(#path-5-inside-3_3_514)"/>
<mask id="path-7-inside-4_3_514" fill="white">
<path d="M1.09543 229.088L-455.77 359.531L1.09543 229.088Z"/>
</mask>
<path d="M1.09543 229.088L0.820892 228.127L-456.044 358.569L-455.77 359.531L-455.495 360.492L1.36998 230.05L1.09543 229.088Z" fill="#004184" mask="url(#path-7-inside-4_3_514)"/>
<mask id="path-9-inside-5_3_514" fill="white">
<path d="M17.427 234.598L140.133 681.718C141.501 686.698 140.268 691.978 136.846 695.839C134.888 698.038 132.346 699.62 129.486 700.397L-317.451 821.882"/>
</mask>
<path d="M140.133 681.718L139.169 681.983L139.169 681.983L140.133 681.718ZM136.846 695.839L137.593 696.504L137.594 696.502L136.846 695.839ZM129.486 700.397L129.224 699.432L129.224 699.432L129.486 700.397ZM17.427 234.598L16.4627 234.862L139.169 681.983L140.133 681.718L141.097 681.454L18.3913 234.333L17.427 234.598ZM140.133 681.718L139.169 681.983C140.447 686.637 139.296 691.567 136.098 695.176L136.846 695.839L137.594 696.502C141.241 692.388 142.555 686.76 141.097 681.453L140.133 681.718ZM136.846 695.839L136.099 695.174C134.27 697.229 131.896 698.706 129.224 699.432L129.486 700.397L129.748 701.362C132.797 700.534 135.507 698.847 137.593 696.504L136.846 695.839ZM129.486 700.397L129.224 699.432L-317.714 820.917L-317.451 821.882L-317.189 822.847L129.748 701.362L129.486 700.397Z" fill="#004184" mask="url(#path-9-inside-5_3_514)"/>
<mask id="path-11-inside-6_3_514" fill="white">
<path d="M-317.786 820.68L129.151 699.194C131.775 698.481 134.112 697.038 135.904 695.017C139.054 691.473 140.182 686.627 138.927 682.051L16.2241 234.926"/>
</mask>
<path d="M129.151 699.194L129.413 700.159L129.413 700.159L129.151 699.194ZM135.904 695.017L135.157 694.352L135.156 694.353L135.904 695.017ZM138.927 682.051L139.891 681.786L139.891 681.786L138.927 682.051ZM-317.786 820.68L-317.524 821.645L129.413 700.159L129.151 699.194L128.889 698.229L-318.049 819.715L-317.786 820.68ZM129.151 699.194L129.413 700.159C132.223 699.396 134.73 697.849 136.652 695.68L135.904 695.017L135.156 694.353C133.494 696.227 131.327 697.567 128.889 698.229L129.151 699.194ZM135.904 695.017L136.651 695.681C140.027 691.884 141.236 686.688 139.891 681.786L138.927 682.051L137.962 682.315C139.129 686.566 138.081 691.062 135.157 694.352L135.904 695.017ZM138.927 682.051L139.891 681.786L17.1885 234.661L16.2241 234.926L15.2598 235.19L137.962 682.315L138.927 682.051Z" fill="#004184" mask="url(#path-11-inside-6_3_514)"/>
<mask id="path-13-inside-7_3_514" fill="white">
<path d="M14.7942 230.598L128.51 667.771C129.761 672.571 128.539 677.646 125.249 681.352C123.296 683.555 120.747 685.11 117.883 685.848L-319.127 798.368"/>
</mask>
<path d="M128.51 667.771L127.542 668.022L127.542 668.023L128.51 667.771ZM125.249 681.352L124.501 680.689L124.501 680.689L125.249 681.352ZM117.883 685.848L118.132 686.816L118.132 686.816L117.883 685.848ZM14.7942 230.598L13.8264 230.85L127.542 668.022L128.51 667.771L129.478 667.519L15.762 230.346L14.7942 230.598ZM128.51 667.771L127.542 668.023C128.709 672.5 127.57 677.231 124.501 680.689L125.249 681.352L125.997 682.016C129.508 678.06 130.813 672.642 129.477 667.518L128.51 667.771ZM125.249 681.352L124.501 680.689C122.68 682.741 120.306 684.191 117.633 684.88L117.883 685.848L118.132 686.816C121.188 686.029 123.911 684.368 125.997 682.016L125.249 681.352ZM117.883 685.848L117.634 684.88L-319.377 797.4L-319.127 798.368L-318.878 799.337L118.132 686.816L117.883 685.848Z" fill="#004184" mask="url(#path-13-inside-7_3_514)"/>
<mask id="path-15-inside-8_3_514" fill="white">
<path d="M-319.452 797.161L117.558 684.641C120.182 683.962 122.518 682.547 124.31 680.525C127.322 677.133 128.443 672.48 127.301 668.087L13.5886 230.911"/>
</mask>
<path d="M117.558 684.641L117.807 685.609L117.808 685.609L117.558 684.641ZM124.31 680.525L123.562 679.861L123.561 679.862L124.31 680.525ZM127.301 668.087L126.333 668.339L126.333 668.339L127.301 668.087ZM-319.452 797.161L-319.203 798.129L117.807 685.609L117.558 684.641L117.309 683.672L-319.702 796.192L-319.452 797.161ZM117.558 684.641L117.808 685.609C120.621 684.882 123.132 683.362 125.058 681.189L124.31 680.525L123.561 679.862C121.904 681.732 119.742 683.043 117.308 683.672L117.558 684.641ZM124.31 680.525L125.057 681.19C128.291 677.548 129.495 672.551 128.268 667.836L127.301 668.087L126.333 668.339C127.391 672.408 126.353 676.718 123.562 679.861L124.31 680.525ZM127.301 668.087L128.268 667.836L14.5564 230.659L13.5886 230.911L12.6208 231.162L126.333 668.339L127.301 668.087Z" fill="#004184" mask="url(#path-15-inside-8_3_514)"/>
<mask id="path-17-inside-9_3_514" fill="white">
<path d="M12.1616 226.599L116.883 653.827C118.014 658.444 116.806 663.318 113.652 666.866C111.695 669.065 109.148 670.6 106.268 671.297L-320.819 774.856"/>
</mask>
<path d="M116.883 653.827L117.854 653.59L117.854 653.589L116.883 653.827ZM113.652 666.866L114.399 667.531L114.4 667.53L113.652 666.866ZM106.268 671.297L106.033 670.325L106.032 670.325L106.268 671.297ZM12.1616 226.599L11.1904 226.837L115.912 654.065L116.883 653.827L117.854 653.589L13.1329 226.361L12.1616 226.599ZM116.883 653.827L115.912 654.065C116.964 658.363 115.84 662.9 112.905 666.201L113.652 666.866L114.4 667.53C117.772 663.736 119.063 658.525 117.854 653.59L116.883 653.827ZM113.652 666.866L112.906 666.201C111.083 668.248 108.714 669.676 106.033 670.325L106.268 671.297L106.503 672.269C109.582 671.524 112.307 669.881 114.399 667.531L113.652 666.866ZM106.268 671.297L106.032 670.325L-321.054 773.884L-320.819 774.856L-320.583 775.828L106.504 672.268L106.268 671.297Z" fill="#004184" mask="url(#path-17-inside-9_3_514)"/>
<mask id="path-19-inside-10_3_514" fill="white">
<path d="M-321.117 773.642L105.97 670.082C108.598 669.443 110.927 668.044 112.717 666.034C115.596 662.789 116.698 658.333 115.668 654.117L10.9504 226.892"/>
</mask>
<path d="M105.97 670.082L106.206 671.054L106.206 671.054L105.97 670.082ZM112.717 666.034L113.464 666.699L113.465 666.698L112.717 666.034ZM115.668 654.117L116.639 653.88L116.639 653.879L115.668 654.117ZM-321.117 773.642L-320.881 774.614L106.206 671.054L105.97 670.082L105.734 669.111L-321.352 772.67L-321.117 773.642ZM105.97 670.082L106.206 671.054C109.031 670.367 111.539 668.861 113.464 666.699L112.717 666.034L111.97 665.369C110.316 667.227 108.164 668.519 105.733 669.111L105.97 670.082ZM112.717 666.034L113.465 666.698C116.562 663.207 117.747 658.414 116.639 653.88L115.668 654.117L114.696 654.355C115.649 658.252 114.63 662.371 111.969 665.371L112.717 666.034ZM115.668 654.117L116.639 653.879L11.9217 226.654L10.9504 226.892L9.97919 227.13L114.696 654.355L115.668 654.117Z" fill="#004184" mask="url(#path-19-inside-10_3_514)"/>
<mask id="path-21-inside-11_3_514" fill="white">
<path d="M9.52881 222.599L105.255 639.876C106.273 644.309 105.08 648.982 102.063 652.378C100.11 654.58 97.5487 656.09 94.6646 656.748L-322.495 751.343"/>
</mask>
<path d="M105.255 639.876L104.281 640.1L104.281 640.1L105.255 639.876ZM102.063 652.378L101.316 651.714L101.315 651.715L102.063 652.378ZM94.6646 656.748L94.8858 657.723L94.8871 657.723L94.6646 656.748ZM9.52881 222.599L8.55413 222.823L104.281 640.1L105.255 639.876L106.23 639.653L10.5035 222.376L9.52881 222.599ZM105.255 639.876L104.281 640.1C105.226 644.218 104.117 648.56 101.316 651.714L102.063 652.378L102.811 653.042C106.042 649.403 107.32 644.4 106.23 639.653L105.255 639.876ZM102.063 652.378L101.315 651.715C99.5018 653.759 97.125 655.161 94.4422 655.773L94.6646 656.748L94.8871 657.723C97.9725 657.019 100.718 655.402 102.812 653.042L102.063 652.378ZM94.6646 656.748L94.4435 655.773L-322.716 750.367L-322.495 751.343L-322.273 752.318L94.8858 657.723L94.6646 656.748Z" fill="#004184" mask="url(#path-21-inside-11_3_514)"/>
<mask id="path-23-inside-12_3_514" fill="white">
<path d="M-322.778 750.127L94.3809 655.532C97.0091 654.936 99.3414 653.559 101.123 651.551C103.876 648.452 104.963 644.189 104.037 640.151L8.31055 222.874"/>
</mask>
<path d="M94.3809 655.532L94.602 656.507L94.6022 656.507L94.3809 655.532ZM101.123 651.551L100.375 650.887L100.375 650.887L101.123 651.551ZM104.037 640.151L105.012 639.927L105.012 639.927L104.037 640.151ZM-322.778 750.127L-322.557 751.102L94.602 656.507L94.3809 655.532L94.1597 654.557L-322.999 749.151L-322.778 750.127ZM94.3809 655.532L94.6022 656.507C97.433 655.865 99.9499 654.38 101.871 652.215L101.123 651.551L100.375 650.887C98.7328 652.739 96.5851 654.006 94.1596 654.557L94.3809 655.532ZM101.123 651.551L101.87 652.215C104.839 648.874 106.01 644.281 105.012 639.927L104.037 640.151L103.062 640.374C103.916 644.098 102.914 648.03 100.375 650.887L101.123 651.551ZM104.037 640.151L105.012 639.927L9.28523 222.65L8.31055 222.874L7.33587 223.097L103.063 640.374L104.037 640.151Z" fill="#004184" mask="url(#path-23-inside-12_3_514)"/>
<mask id="path-25-inside-13_3_514" fill="white">
<path d="M6.89185 218.596L93.6287 625.933C94.5367 630.177 93.3502 634.649 90.4709 637.894C88.5141 640.101 85.9504 641.587 83.0572 642.195L-324.179 727.822"/>
</mask>
<path d="M93.6287 625.933L92.6506 626.141L92.6508 626.142L93.6287 625.933ZM90.4709 637.894L89.7229 637.231L89.7227 637.231L90.4709 637.894ZM83.0572 642.195L82.8515 641.217L82.8514 641.217L83.0572 642.195ZM6.89185 218.596L5.91377 218.804L92.6506 626.141L93.6287 625.933L94.6067 625.724L7.86992 218.387L6.89185 218.596ZM93.6287 625.933L92.6508 626.142C93.492 630.074 92.392 634.222 89.7229 637.231L90.4709 637.894L91.2189 638.558C94.3083 635.076 95.5814 630.28 94.6065 625.723L93.6287 625.933ZM90.4709 637.894L89.7227 637.231C87.9088 639.276 85.5356 640.653 82.8515 641.217L83.0572 642.195L83.2629 643.174C86.3651 642.522 89.1193 640.926 91.2191 638.558L90.4709 637.894ZM83.0572 642.195L82.8514 641.217L-324.385 726.843L-324.179 727.822L-323.973 728.8L83.263 643.174L83.0572 642.195Z" fill="#004184" mask="url(#path-25-inside-13_3_514)"/>
<mask id="path-27-inside-14_3_514" fill="white">
<path d="M-324.442 726.608L82.7972 640.977C85.4258 640.424 87.7605 639.071 89.5386 637.067C92.1584 634.115 93.2343 630.049 92.4127 626.188L5.67236 218.855"/>
</mask>
<path d="M82.7972 640.977L83.0029 641.956L83.0031 641.956L82.7972 640.977ZM89.5386 637.067L88.7906 636.403L88.7906 636.403L89.5386 637.067ZM92.4127 626.188L93.3908 625.98L93.3908 625.979L92.4127 626.188ZM-324.442 726.608L-324.237 727.587L83.0029 641.956L82.7972 640.977L82.5914 639.999L-324.648 725.629L-324.442 726.608ZM82.7972 640.977L83.0031 641.956C85.8405 641.359 88.3656 639.896 90.2866 637.731L89.5386 637.067L88.7906 636.403C87.1555 638.246 85.0111 639.489 82.5912 639.999L82.7972 640.977ZM89.5386 637.067L90.2866 637.731C93.1169 634.541 94.2786 630.152 93.3908 625.98L92.4127 626.188L91.4346 626.396C92.19 629.946 91.1999 633.688 88.7906 636.403L89.5386 637.067ZM92.4127 626.188L93.3908 625.979L6.65043 218.647L5.67236 218.855L4.69429 219.063L91.4347 626.396L92.4127 626.188Z" fill="#004184" mask="url(#path-27-inside-14_3_514)"/>
<mask id="path-29-inside-15_3_514" fill="white">
<path d="M4.25928 214.596L82.0056 611.985C82.8113 616.111 81.6753 620.276 78.8871 623.418C76.9268 625.629 74.3565 627.089 71.4465 627.647L-325.862 704.317"/>
</mask>
<path d="M82.0056 611.985L82.987 611.793L82.9869 611.793L82.0056 611.985ZM78.8871 623.418L78.1392 622.754L78.1389 622.755L78.8871 623.418ZM71.4465 627.647L71.2579 626.665L71.257 626.666L71.4465 627.647ZM4.25928 214.596L3.27788 214.788L81.0242 612.177L82.0056 611.985L82.9869 611.793L5.24067 214.404L4.25928 214.596ZM82.0056 611.985L81.0241 612.177C81.7701 615.997 80.7202 619.846 78.1392 622.754L78.8871 623.418L79.6351 624.082C82.6304 620.706 83.8525 616.225 82.987 611.793L82.0056 611.985ZM78.8871 623.418L78.1389 622.755C76.3257 624.8 73.9524 626.148 71.2579 626.665L71.4465 627.647L71.6351 628.629C74.7605 628.029 77.528 626.458 79.6354 624.082L78.8871 623.418ZM71.4465 627.647L71.257 626.666L-326.051 703.335L-325.862 704.317L-325.672 705.298L71.636 628.629L71.4465 627.647Z" fill="#004184" mask="url(#path-29-inside-15_3_514)"/>
<mask id="path-31-inside-16_3_514" fill="white">
<path d="M-326.107 703.089L71.2013 626.42C73.8348 625.913 76.1685 624.588 77.9465 622.584C80.4752 619.735 81.5067 615.96 80.7762 612.222L3.03418 214.836"/>
</mask>
<path d="M71.2013 626.42L71.0124 625.438L71.0119 625.438L71.2013 626.42ZM77.9465 622.584L77.1986 621.92L77.1985 621.92L77.9465 622.584ZM80.7762 612.222L81.7576 612.03L81.7576 612.03L80.7762 612.222ZM-326.107 703.089L-325.917 704.071L71.3908 627.402L71.2013 626.42L71.0119 625.438L-326.296 702.107L-326.107 703.089ZM71.2013 626.42L71.3903 627.402C74.2392 626.854 76.7697 625.417 78.6946 623.247L77.9465 622.584L77.1985 621.92C75.5673 623.759 73.4304 624.973 71.0124 625.438L71.2013 626.42ZM77.9465 622.584L78.6945 623.248C81.43 620.166 82.548 616.074 81.7576 612.03L80.7762 612.222L79.7948 612.414C80.4654 615.845 79.5205 619.304 77.1986 621.92L77.9465 622.584ZM80.7762 612.222L81.7576 612.03L4.01558 214.644L3.03418 214.836L2.05278 215.028L79.7948 612.414L80.7762 612.222Z" fill="#004184" mask="url(#path-31-inside-16_3_514)"/>
<mask id="path-33-inside-17_3_514" fill="white">
<path d="M1.62231 210.601L70.3738 598.038C71.0743 601.979 69.9493 605.948 67.2982 608.939C65.3336 611.146 62.7574 612.587 59.8349 613.1L-327.55 680.8"/>
</mask>
<path d="M70.3738 598.038L69.3892 598.213L69.3892 598.213L70.3738 598.038ZM67.2982 608.939L68.0452 609.603L68.0466 609.602L67.2982 608.939ZM59.8349 613.1L60.007 614.085L60.0078 614.085L59.8349 613.1ZM1.62231 210.601L0.637697 210.776L69.3892 598.213L70.3738 598.038L71.3584 597.864L2.60693 210.426L1.62231 210.601ZM70.3738 598.038L69.3892 598.213C70.036 601.852 68.9989 605.512 66.5499 608.275L67.2982 608.939L68.0466 609.602C70.8997 606.383 72.1125 602.106 71.3583 597.863L70.3738 598.038ZM67.2982 608.939L66.5512 608.274C64.7362 610.313 62.3622 611.641 59.6619 612.115L59.8349 613.1L60.0078 614.085C63.1527 613.532 65.9311 611.979 68.0452 609.603L67.2982 608.939ZM59.8349 613.1L59.6627 612.115L-327.723 679.815L-327.55 680.8L-327.378 681.785L60.007 614.085L59.8349 613.1Z" fill="#004184" mask="url(#path-33-inside-17_3_514)"/>
<mask id="path-35-inside-18_3_514" fill="white">
<path d="M-327.77 679.578L59.614 611.869C62.2523 611.409 64.5926 610.11 66.3594 608.111C68.7622 605.408 69.7734 601.815 69.1438 598.259L0.391602 210.814"/>
</mask>
<path d="M59.614 611.869L59.4421 610.884L59.4418 610.884L59.614 611.869ZM66.3594 608.111L65.612 607.447L65.6101 607.449L66.3594 608.111ZM69.1438 598.259L70.1285 598.085L70.1284 598.084L69.1438 598.259ZM-327.77 679.578L-327.598 680.563L59.7861 612.854L59.614 611.869L59.4418 610.884L-327.943 678.593L-327.77 679.578ZM59.614 611.869L59.7858 612.854C62.6449 612.356 65.1897 610.945 67.1087 608.773L66.3594 608.111L65.6101 607.449C63.9954 609.276 61.8596 610.462 59.4421 610.884L59.614 611.869ZM66.3594 608.111L67.1068 608.776C69.7134 605.843 70.8112 601.941 70.1285 598.085L69.1438 598.259L68.1591 598.433C68.7355 601.69 67.8111 604.973 65.612 607.447L66.3594 608.111ZM69.1438 598.259L70.1284 598.084L1.37622 210.639L0.391602 210.814L-0.593016 210.989L68.1592 598.434L69.1438 598.259Z" fill="#004184" mask="url(#path-35-inside-18_3_514)"/>
<mask id="path-37-inside-19_3_514" fill="white">
<path d="M-1.01025 206.601L58.7471 584.094C59.3416 587.843 58.2362 591.621 55.7144 594.462C53.775 596.647 51.1135 598.096 48.2198 598.548L-329.237 657.291"/>
</mask>
<path d="M58.7471 584.094L57.7594 584.251L57.7595 584.251L58.7471 584.094ZM55.7144 594.462L54.9666 593.798L54.9665 593.798L55.7144 594.462ZM48.2198 598.548L48.3736 599.536L48.374 599.536L48.2198 598.548ZM-1.01025 206.601L-1.99796 206.757L57.7594 584.251L58.7471 584.094L59.7348 583.938L-0.0225527 206.445L-1.01025 206.601ZM58.7471 584.094L57.7595 584.251C58.307 587.703 57.2899 591.181 54.9666 593.798L55.7144 594.462L56.4623 595.126C59.1825 592.062 60.3762 587.982 59.7348 583.938L58.7471 584.094ZM55.7144 594.462L54.9665 593.798C53.1821 595.809 50.7309 597.144 48.0657 597.56L48.2198 598.548L48.374 599.536C51.4961 599.049 54.3679 597.485 56.4624 595.126L55.7144 594.462ZM48.2198 598.548L48.0661 597.56L-329.391 656.303L-329.237 657.291L-329.084 658.279L48.3736 599.536L48.2198 598.548Z" fill="#004184" mask="url(#path-37-inside-19_3_514)"/>
<mask id="path-39-inside-20_3_514" fill="white">
<path d="M-329.431 656.063L48.0257 597.319C50.6343 596.913 53.0366 595.608 54.7792 593.639C57.0519 591.078 58.0469 587.671 57.514 584.293L-2.24414 206.792"/>
</mask>
<path d="M48.0257 597.319L48.1795 598.307L48.1796 598.307L48.0257 597.319ZM54.7792 593.639L54.0313 592.975L54.0303 592.976L54.7792 593.639ZM57.514 584.293L58.5018 584.137L58.5018 584.136L57.514 584.293ZM-329.431 656.063L-329.278 657.051L48.1795 598.307L48.0257 597.319L47.8719 596.331L-329.585 655.075L-329.431 656.063ZM48.0257 597.319L48.1796 598.307C51.0159 597.866 53.6295 596.447 55.528 594.301L54.7792 593.639L54.0303 592.976C52.4438 594.769 50.2528 595.96 47.8718 596.331L48.0257 597.319ZM54.7792 593.639L55.527 594.303C57.9984 591.518 59.0812 587.81 58.5018 584.137L57.514 584.293L56.5263 584.448C57.0126 587.532 56.1053 590.638 54.0313 592.975L54.7792 593.639ZM57.514 584.293L58.5018 584.136L-1.25644 206.635L-2.24414 206.792L-3.23184 206.948L56.5263 584.449L57.514 584.293Z" fill="#004184" mask="url(#path-39-inside-20_3_514)"/>
<mask id="path-41-inside-21_3_514" fill="white">
<path d="M-3.64722 202.606L47.1238 570.155C47.6174 573.721 46.5307 577.302 44.1425 579.996C42.1996 582.186 39.5237 583.609 36.6124 584.003L-330.917 633.782"/>
</mask>
<path d="M47.1238 570.155L46.1332 570.292L46.1333 570.292L47.1238 570.155ZM44.1425 579.996L44.8905 580.66L44.8908 580.659L44.1425 579.996ZM36.6124 584.003L36.7466 584.994L36.7467 584.994L36.6124 584.003ZM-3.64722 202.606L-4.63781 202.743L46.1332 570.292L47.1238 570.155L48.1144 570.018L-2.65662 202.469L-3.64722 202.606ZM47.1238 570.155L46.1333 570.292C46.5867 573.569 45.5889 576.857 43.3943 579.333L44.1425 579.996L44.8908 580.659C47.4724 577.748 48.648 573.874 48.1144 570.018L47.1238 570.155ZM44.1425 579.996L43.3946 579.332C41.6113 581.342 39.1535 582.65 36.4781 583.013L36.6124 584.003L36.7467 584.994C39.894 584.568 42.788 583.029 44.8905 580.66L44.1425 579.996ZM36.6124 584.003L36.4782 583.013L-331.052 632.791L-330.917 633.782L-330.783 634.773L36.7466 584.994L36.6124 584.003Z" fill="#004184" mask="url(#path-41-inside-21_3_514)"/>
<mask id="path-43-inside-22_3_514" fill="white">
<path d="M-331.091 632.547L36.4419 582.764C39.0561 582.412 41.4574 581.134 43.2076 579.164C45.3502 576.747 46.3292 573.525 45.8887 570.321L-4.88232 202.772"/>
</mask>
<path d="M36.4419 582.764L36.3084 581.773L36.3077 581.773L36.4419 582.764ZM43.2076 579.164L43.9552 579.829L43.956 579.828L43.2076 579.164ZM45.8887 570.321L46.8794 570.185L46.8793 570.184L45.8887 570.321ZM-331.091 632.547L-330.957 633.538L36.5761 583.755L36.4419 582.764L36.3077 581.773L-331.226 631.556L-331.091 632.547ZM36.4419 582.764L36.5754 583.755C39.4266 583.371 42.0458 581.978 43.9552 579.829L43.2076 579.164L42.4601 578.5C40.8689 580.291 38.6857 581.453 36.3084 581.773L36.4419 582.764ZM43.2076 579.164L43.956 579.828C46.2918 577.192 47.3596 573.679 46.8794 570.185L45.8887 570.321L44.898 570.457C45.2987 573.372 44.4085 576.302 42.4592 578.501L43.2076 579.164ZM45.8887 570.321L46.8793 570.184L-3.89173 202.636L-4.88232 202.772L-5.87292 202.909L44.8981 570.458L45.8887 570.321Z" fill="#004184" mask="url(#path-43-inside-22_3_514)"/>
<mask id="path-45-inside-23_3_514" fill="white">
<path d="M-6.28003 198.606L35.497 556.211C35.8888 559.589 34.8259 562.984 32.5671 565.527C30.6172 567.725 27.9269 569.122 25.0015 569.456L-332.605 610.273"/>
</mask>
<path d="M35.497 556.211L36.4903 556.096L36.4902 556.095L35.497 556.211ZM32.5671 565.527L31.8194 564.863L31.819 564.863L32.5671 565.527ZM25.0015 569.456L24.8882 568.462L24.888 568.462L25.0015 569.456ZM-6.28003 198.606L-7.27327 198.722L34.5037 556.327L35.497 556.211L36.4902 556.095L-5.28678 198.49L-6.28003 198.606ZM35.497 556.211L34.5036 556.327C34.8628 559.423 33.8881 562.533 31.8194 564.863L32.5671 565.527L33.3148 566.191C35.7636 563.434 36.9148 559.755 36.4903 556.096L35.497 556.211ZM32.5671 565.527L31.819 564.863C30.0331 566.876 27.569 568.157 24.8882 568.462L25.0015 569.456L25.1147 570.449C28.2847 570.088 31.2013 568.573 33.3152 566.19L32.5671 565.527ZM25.0015 569.456L24.888 568.462L-332.718 609.28L-332.605 610.273L-332.491 611.267L25.1149 570.449L25.0015 569.456Z" fill="#004184" mask="url(#path-45-inside-23_3_514)"/>
<mask id="path-47-inside-24_3_514" fill="white">
<path d="M-332.753 609.024L24.8531 568.206C27.4729 567.908 29.8808 566.658 31.6311 564.688C33.6513 562.412 34.6099 559.373 34.2584 556.347L-7.51782 198.75"/>
</mask>
<path d="M24.8531 568.206L24.7401 567.213L24.7397 567.213L24.8531 568.206ZM31.6311 564.688L32.3786 565.352L32.379 565.352L31.6311 564.688ZM34.2584 556.347L35.2517 556.232L35.2516 556.231L34.2584 556.347ZM-332.753 609.024L-332.64 610.018L24.9665 569.2L24.8531 568.206L24.7397 567.213L-332.866 608.031L-332.753 609.024ZM24.8531 568.206L24.9661 569.2C27.831 568.874 30.4648 567.506 32.3786 565.352L31.6311 564.688L30.8835 564.023C29.2968 565.809 27.1149 566.943 24.7401 567.213L24.8531 568.206ZM31.6311 564.688L32.379 565.352C34.588 562.863 35.6361 559.54 35.2517 556.232L34.2584 556.347L33.2651 556.463C33.5837 559.205 32.7145 561.961 30.8832 564.024L31.6311 564.688ZM34.2584 556.347L35.2516 556.231L-6.52458 198.634L-7.51782 198.75L-8.51107 198.866L33.2651 556.463L34.2584 556.347Z" fill="#004184" mask="url(#path-47-inside-24_3_514)"/>
<mask id="path-49-inside-25_3_514" fill="white">
<path d="M-8.91645 194.611L23.8665 542.272C24.1686 545.463 23.121 548.664 20.9958 551.06C19.0355 553.271 16.3299 554.635 13.3861 554.904L-334.293 586.757"/>
</mask>
<path d="M23.8665 542.272L22.8709 542.366L22.871 542.366L23.8665 542.272ZM20.9958 551.06L20.2476 550.397L20.2475 550.397L20.9958 551.06ZM13.3861 554.904L13.2952 553.908L13.2948 553.908L13.3861 554.904ZM-8.91645 194.611L-9.91203 194.705L22.8709 542.366L23.8665 542.272L24.8621 542.178L-7.92086 194.517L-8.91645 194.611ZM23.8665 542.272L22.871 542.366C23.1469 545.281 22.1892 548.208 20.2476 550.397L20.9958 551.06L21.7439 551.724C24.0527 549.121 25.1903 545.645 24.8621 542.178L23.8665 542.272ZM20.9958 551.06L20.2475 550.397C18.4567 552.417 15.9866 553.662 13.2952 553.908L13.3861 554.904L13.477 555.9C16.6732 555.608 19.6142 554.126 21.744 551.724L20.9958 551.06ZM13.3861 554.904L13.2948 553.908L-334.384 585.761L-334.293 586.757L-334.202 587.753L13.4773 555.9L13.3861 554.904Z" fill="#004184" mask="url(#path-49-inside-25_3_514)"/>
<mask id="path-51-inside-26_3_514" fill="white">
<path d="M-334.407 585.508L13.272 553.655C15.9016 553.415 18.3127 552.195 20.063 550.225C21.9642 548.087 22.8948 545.23 22.6279 542.38L-10.1585 194.723"/>
</mask>
<path d="M13.272 553.655L13.181 552.659L13.1807 552.659L13.272 553.655ZM20.063 550.225L19.3157 549.56L19.3154 549.561L20.063 550.225ZM22.6279 542.38L23.6236 542.287L23.6235 542.286L22.6279 542.38ZM-334.407 585.508L-334.316 586.504L13.3632 554.651L13.272 553.655L13.1807 552.659L-334.498 584.512L-334.407 585.508ZM13.272 553.655L13.3629 554.651C16.2459 554.388 18.8916 553.049 20.8106 550.889L20.063 550.225L19.3154 549.561C17.7338 551.341 15.5574 552.442 13.181 552.659L13.272 553.655ZM20.063 550.225L20.8103 550.889C22.8968 548.543 23.9161 545.412 23.6236 542.287L22.6279 542.38L21.6323 542.474C21.8734 545.049 21.0317 547.631 19.3157 549.56L20.063 550.225ZM22.6279 542.38L23.6235 542.286L-9.16292 194.63L-10.1585 194.723L-11.1541 194.817L21.6324 542.474L22.6279 542.38Z" fill="#004184" mask="url(#path-51-inside-26_3_514)"/>
<mask id="path-53-inside-27_3_514" fill="white">
<path d="M-11.5484 190.619L12.2397 528.329C12.4568 531.38 11.456 534.314 9.42888 536.598C7.45387 538.818 4.73741 540.152 1.77085 540.353L-335.981 563.241"/>
</mask>
<path d="M12.2397 528.329L11.2422 528.399L11.2422 528.4L12.2397 528.329ZM9.42888 536.598L10.176 537.263L10.1769 537.262L9.42888 536.598ZM1.77085 540.353L1.70338 539.355L1.70324 539.355L1.77085 540.353ZM-11.5484 190.619L-12.5459 190.689L11.2422 528.399L12.2397 528.329L13.2372 528.258L-10.5509 190.549L-11.5484 190.619ZM12.2397 528.329L11.2422 528.4C11.4402 531.181 10.5299 533.851 8.68092 535.934L9.42888 536.598L10.1769 537.262C12.3821 534.777 13.4735 531.578 13.2372 528.258L12.2397 528.329ZM9.42888 536.598L8.68171 535.933C6.88057 537.958 4.40804 539.172 1.70338 539.355L1.77085 540.353L1.83832 541.35C5.06682 541.132 8.02719 539.678 10.176 537.263L9.42888 536.598ZM1.77085 540.353L1.70324 539.355L-336.048 562.243L-335.981 563.241L-335.913 564.238L1.83847 541.35L1.77085 540.353Z" fill="#004184" mask="url(#path-53-inside-27_3_514)"/>
<mask id="path-55-inside-28_3_514" fill="white">
<path d="M-336.066 561.992L1.68874 539.1C4.32484 538.922 6.74339 537.737 8.49713 535.762C10.2995 533.728 11.1894 531.123 10.9989 528.406L-12.7969 190.697"/>
</mask>
<path d="M1.68874 539.1L1.62128 538.103L1.62112 538.103L1.68874 539.1ZM8.49713 535.762L9.24474 536.426L9.24558 536.426L8.49713 535.762ZM10.9989 528.406L11.9965 528.336L11.9964 528.336L10.9989 528.406ZM-336.066 561.992L-335.999 562.99L1.75636 540.098L1.68874 539.1L1.62112 538.103L-336.134 560.995L-336.066 561.992ZM1.68874 539.1L1.75619 540.098C4.65371 539.902 7.31663 538.597 9.24474 536.426L8.49713 535.762L7.74951 535.098C6.17014 536.876 3.99593 537.942 1.62128 538.103L1.68874 539.1ZM8.49713 535.762L9.24558 536.426C11.2255 534.191 12.2058 531.322 11.9965 528.336L10.9989 528.406L10.0014 528.476C10.173 530.924 9.37354 533.265 7.7487 535.099L8.49713 535.762ZM10.9989 528.406L11.9964 528.336L-11.7994 190.627L-12.7969 190.697L-13.7945 190.767L10.0014 528.476L10.9989 528.406Z" fill="#004184" mask="url(#path-55-inside-28_3_514)"/>
<mask id="path-57-inside-29_3_514" fill="white">
<path d="M-14.1846 186.624L0.617132 514.389C0.743733 517.246 -0.224728 520 -2.12597 522.138C-4.1114 524.371 -6.85083 525.672 -9.83661 525.8L-337.672 539.729"/>
</mask>
<path d="M0.617132 514.389L1.61614 514.345L1.61611 514.344L0.617132 514.389ZM-2.12597 522.138L-2.87328 521.474L-2.8733 521.474L-2.12597 522.138ZM-9.83661 525.8L-9.79417 526.799L-9.79373 526.799L-9.83661 525.8ZM-14.1846 186.624L-15.1836 186.669L-0.381857 514.434L0.617132 514.389L1.61611 514.344L-13.1857 186.579L-14.1846 186.624ZM0.617132 514.389L-0.381889 514.433C-0.266711 517.032 -1.14649 519.532 -2.87328 521.474L-2.12597 522.138L-1.37868 522.803C0.697049 520.468 1.75417 517.459 1.61614 514.345L0.617132 514.389ZM-2.12597 522.138L-2.8733 521.474C-4.67879 523.505 -7.16399 524.685 -9.87949 524.801L-9.83661 525.8L-9.79373 526.799C-6.53764 526.66 -3.544 525.238 -1.37865 522.803L-2.12597 522.138ZM-9.83661 525.8L-9.87906 524.801L-337.715 538.729L-337.672 539.729L-337.63 540.728L-9.79417 526.799L-9.83661 525.8Z" fill="#004184" mask="url(#path-57-inside-29_3_514)"/>
<mask id="path-59-inside-30_3_514" fill="white">
<path d="M-362.669 201.427L-347.867 529.192C-347.624 534.542 -343.079 538.705 -337.723 538.481L-9.8992 524.55C-7.25243 524.437 -4.81868 523.285 -3.06572 521.303C-1.38226 519.407 -0.52207 516.969 -0.634845 514.436L-15.4323 186.674"/>
</mask>
<path d="M-347.867 529.192L-348.866 529.237L-348.866 529.237L-347.867 529.192ZM-337.723 538.481L-337.681 539.48L-337.68 539.48L-337.723 538.481ZM-9.8992 524.55L-9.85673 525.549L-9.85664 525.549L-9.8992 524.55ZM-3.06572 521.303L-3.8136 520.64L-3.81479 520.641L-3.06572 521.303ZM-0.634845 514.436L0.364179 514.391L0.364146 514.391L-0.634845 514.436ZM-362.669 201.427L-363.668 201.472L-348.866 529.237L-347.867 529.192L-346.868 529.147L-361.67 201.382L-362.669 201.427ZM-347.867 529.192L-348.866 529.237C-348.598 535.139 -343.587 539.727 -337.681 539.48L-337.723 538.481L-337.765 537.482C-342.571 537.683 -346.65 533.946 -346.868 529.147L-347.867 529.192ZM-337.723 538.481L-337.68 539.48L-9.85673 525.549L-9.8992 524.55L-9.94166 523.551L-337.765 537.482L-337.723 538.481ZM-9.8992 524.55L-9.85664 525.549C-6.94057 525.425 -4.25104 524.153 -2.31668 521.966L-3.06572 521.303L-3.81479 520.641C-5.38632 522.418 -7.56431 523.45 -9.94174 523.551L-9.8992 524.55ZM-3.06572 521.303L-2.31786 521.967C-0.461007 519.875 0.488461 517.183 0.364179 514.391L-0.634845 514.436L-1.63386 514.48C-1.53258 516.755 -2.30351 518.938 -3.81358 520.64L-3.06572 521.303ZM-0.634845 514.436L0.364146 514.391L-14.4334 186.629L-15.4323 186.674L-16.4313 186.719L-1.63381 514.481L-0.634845 514.436Z" fill="#004184" mask="url(#path-59-inside-30_3_514)"/>
<mask id="path-61-inside-31_3_514" fill="white">
<path d="M-16.821 182.628L-11.0176 500.446C-10.9687 503.119 -11.9168 505.691 -13.6844 507.683C-15.6517 509.902 -18.4892 511.201 -21.4597 511.249L-339.36 516.212C-345.227 516.305 -350.082 511.607 -350.194 505.745L-355.997 187.928"/>
</mask>
<path d="M-11.0176 500.446L-12.0174 500.464L-12.0174 500.464L-11.0176 500.446ZM-13.6844 507.683L-14.4323 507.019L-14.4328 507.019L-13.6844 507.683ZM-21.4597 511.249L-21.4441 512.249L-21.4435 512.249L-21.4597 511.249ZM-339.36 516.212L-339.376 515.212L-339.376 515.212L-339.36 516.212ZM-350.194 505.745L-351.194 505.764L-351.194 505.764L-350.194 505.745ZM-16.821 182.628L-17.8208 182.647L-12.0174 500.464L-11.0176 500.446L-10.0177 500.428L-15.8212 182.61L-16.821 182.628ZM-11.0176 500.446L-12.0174 500.464C-11.9731 502.887 -12.832 505.216 -14.4323 507.019L-13.6844 507.683L-12.9366 508.346C-11.0016 506.167 -9.96426 503.351 -10.0177 500.428L-11.0176 500.446ZM-13.6844 507.683L-14.4328 507.019C-16.213 509.028 -18.7844 510.206 -21.476 510.25L-21.4597 511.249L-21.4435 512.249C-18.194 512.196 -15.0904 510.776 -12.9361 508.346L-13.6844 507.683ZM-21.4597 511.249L-21.4753 510.25L-339.376 515.212L-339.36 516.212L-339.345 517.212L-21.4441 512.249L-21.4597 511.249ZM-339.36 516.212L-339.376 515.212C-344.691 515.296 -349.093 511.038 -349.194 505.726L-350.194 505.745L-351.194 505.764C-351.071 512.176 -345.764 517.313 -339.345 517.212L-339.36 516.212ZM-350.194 505.745L-349.194 505.727L-354.997 187.909L-355.997 187.928L-356.997 187.946L-351.194 505.764L-350.194 505.745Z" fill="#004184" mask="url(#path-61-inside-31_3_514)"/>
<mask id="path-63-inside-32_3_514" fill="white">
<path d="M-354.751 187.905L-348.943 505.726C-348.847 510.9 -344.559 515.046 -339.383 514.965L-21.4827 510.003C-18.8598 509.963 -16.3589 508.816 -14.6234 506.856C-13.0588 505.097 -12.2206 502.825 -12.2642 500.469L-18.0676 182.651"/>
</mask>
<path d="M-348.943 505.726L-349.943 505.744L-349.943 505.744L-348.943 505.726ZM-339.383 514.965L-339.368 515.965L-339.368 515.965L-339.383 514.965ZM-21.4827 510.003L-21.4979 509.003L-21.4983 509.003L-21.4827 510.003ZM-14.6234 506.856L-15.3705 506.191L-15.3721 506.193L-14.6234 506.856ZM-12.2642 500.469L-13.264 500.487L-13.264 500.488L-12.2642 500.469ZM-354.751 187.905L-355.75 187.923L-349.943 505.744L-348.943 505.726L-347.943 505.708L-353.751 187.886L-354.751 187.905ZM-348.943 505.726L-349.943 505.744C-349.837 511.469 -345.094 516.054 -339.368 515.965L-339.383 514.965L-339.399 513.966C-344.023 514.037 -347.858 510.33 -347.943 505.707L-348.943 505.726ZM-339.383 514.965L-339.368 515.965L-21.4671 511.003L-21.4827 510.003L-21.4983 509.003L-339.399 513.965L-339.383 514.965ZM-21.4827 510.003L-21.4675 511.003C-18.5643 510.959 -15.797 509.69 -13.8746 507.518L-14.6234 506.856L-15.3721 506.193C-16.9209 507.942 -19.1551 508.968 -21.4979 509.003L-21.4827 510.003ZM-14.6234 506.856L-13.8762 507.52C-12.1441 505.573 -11.2161 503.058 -11.2643 500.451L-12.2642 500.469L-13.264 500.488C-13.225 502.593 -13.9735 504.62 -15.3705 506.191L-14.6234 506.856ZM-12.2642 500.469L-11.2643 500.451L-17.0678 182.633L-18.0676 182.651L-19.0674 182.67L-13.264 500.487L-12.2642 500.469Z" fill="#004184" mask="url(#path-63-inside-32_3_514)"/>
<mask id="path-65-inside-33_3_514" fill="white">
<path d="M-19.4565 178.641L-22.6437 486.511C-22.669 488.996 -23.5891 491.385 -25.2343 493.234C-27.2232 495.472 -30.0802 496.734 -33.0715 496.694L-341.056 492.697C-346.745 492.622 -351.328 487.931 -351.274 482.241L-348.087 174.371"/>
</mask>
<path d="M-22.6437 486.511L-23.6436 486.5L-23.6436 486.501L-22.6437 486.511ZM-25.2343 493.234L-25.9815 492.57L-25.9817 492.57L-25.2343 493.234ZM-33.0715 496.694L-33.0583 495.694L-33.0585 495.694L-33.0715 496.694ZM-341.056 492.697L-341.069 493.697L-341.069 493.697L-341.056 492.697ZM-351.274 482.241L-352.274 482.231L-352.274 482.231L-351.274 482.241ZM-19.4565 178.641L-20.4565 178.631L-23.6436 486.5L-22.6437 486.511L-21.6437 486.521L-18.4566 178.651L-19.4565 178.641ZM-22.6437 486.511L-23.6436 486.501C-23.6665 488.745 -24.4976 490.902 -25.9815 492.57L-25.2343 493.234L-24.4871 493.899C-22.6805 491.868 -21.6715 489.246 -21.6437 486.521L-22.6437 486.511ZM-25.2343 493.234L-25.9817 492.57C-27.7781 494.591 -30.3577 495.73 -33.0583 495.694L-33.0715 496.694L-33.0848 497.694C-29.8027 497.737 -26.6683 496.353 -24.4869 493.899L-25.2343 493.234ZM-33.0715 496.694L-33.0585 495.694L-341.043 491.697L-341.056 492.697L-341.069 493.697L-33.0845 497.694L-33.0715 496.694ZM-341.056 492.697L-341.043 491.697C-346.18 491.63 -350.323 487.391 -350.274 482.251L-351.274 482.241L-352.274 482.231C-352.333 488.472 -347.309 493.615 -341.069 493.697L-341.056 492.697ZM-351.274 482.241L-350.274 482.251L-347.087 174.382L-348.087 174.371L-349.087 174.361L-352.274 482.231L-351.274 482.241Z" fill="#004184" mask="url(#path-65-inside-33_3_514)"/>
<mask id="path-67-inside-34_3_514" fill="white">
<path d="M-346.836 174.387L-350.023 482.256C-350.074 487.261 -346.046 491.387 -341.036 491.449L-33.0595 495.447C-30.4251 495.481 -27.9125 494.372 -26.1657 492.406C-24.7208 490.777 -23.908 488.677 -23.8867 486.494L-20.7039 178.621"/>
</mask>
<path d="M-350.023 482.256L-351.023 482.246L-351.023 482.246L-350.023 482.256ZM-341.036 491.449L-341.023 490.449L-341.024 490.449L-341.036 491.449ZM-33.0595 495.447L-33.0725 496.447L-33.0722 496.447L-33.0595 495.447ZM-26.1657 492.406L-25.4182 493.07L-25.4175 493.07L-26.1657 492.406ZM-23.8867 486.494L-24.8867 486.483L-24.8867 486.484L-23.8867 486.494ZM-346.836 174.387L-347.836 174.376L-351.023 482.246L-350.023 482.256L-349.023 482.267L-345.836 174.397L-346.836 174.387ZM-350.023 482.256L-351.023 482.246C-351.08 487.802 -346.611 492.38 -341.049 492.449L-341.036 491.449L-341.024 490.449C-345.482 490.394 -349.069 486.721 -349.023 482.267L-350.023 482.256ZM-341.036 491.449L-341.049 492.449L-33.0725 496.447L-33.0595 495.447L-33.0465 494.448L-341.023 490.449L-341.036 491.449ZM-33.0595 495.447L-33.0722 496.447C-30.1481 496.484 -27.358 495.253 -25.4182 493.07L-26.1657 492.406L-26.9132 491.742C-28.467 493.49 -30.7021 494.477 -33.0468 494.448L-33.0595 495.447ZM-26.1657 492.406L-25.4175 493.07C-23.8133 491.261 -22.9104 488.929 -22.8868 486.504L-23.8867 486.494L-24.8867 486.484C-24.9056 488.425 -25.6284 490.293 -26.9138 491.743L-26.1657 492.406ZM-23.8867 486.494L-22.8868 486.504L-19.7039 178.631L-20.7039 178.621L-21.7038 178.61L-24.8867 486.483L-23.8867 486.494Z" fill="#004184" mask="url(#path-67-inside-34_3_514)"/>
<mask id="path-69-inside-35_3_514" fill="white">
<path d="M-22.0928 174.646L-34.2706 472.567C-34.3624 474.863 -35.2535 477.077 -36.7764 478.785C-38.7861 481.048 -41.6712 482.266 -44.6954 482.135L-342.74 469.184C-348.258 468.943 -352.567 464.255 -352.345 458.743L-340.168 160.814"/>
</mask>
<path d="M-34.2706 472.567L-35.2697 472.526L-35.2697 472.527L-34.2706 472.567ZM-36.7764 478.785L-37.5227 478.119L-37.5241 478.121L-36.7764 478.785ZM-44.6954 482.135L-44.7388 483.135L-44.7384 483.135L-44.6954 482.135ZM-342.74 469.184L-342.784 470.183L-342.783 470.183L-342.74 469.184ZM-352.345 458.743L-353.344 458.702L-353.344 458.703L-352.345 458.743ZM-22.0928 174.646L-23.092 174.605L-35.2697 472.526L-34.2706 472.567L-33.2714 472.608L-21.0937 174.686L-22.0928 174.646ZM-34.2706 472.567L-35.2697 472.527C-35.3524 474.593 -36.1551 476.586 -37.5227 478.119L-36.7764 478.785L-36.03 479.45C-34.3519 477.569 -33.3724 475.133 -33.2713 472.607L-34.2706 472.567ZM-36.7764 478.785L-37.5241 478.121C-39.3334 480.158 -41.9276 481.254 -44.6524 481.136L-44.6954 482.135L-44.7384 483.135C-41.4147 483.278 -38.2389 481.937 -36.0287 479.449L-36.7764 478.785ZM-44.6954 482.135L-44.652 481.136L-342.697 468.184L-342.74 469.184L-342.783 470.183L-44.7388 483.135L-44.6954 482.135ZM-342.74 469.184L-342.696 468.184C-347.664 467.968 -351.546 463.744 -351.346 458.783L-352.345 458.743L-353.344 458.703C-353.588 464.765 -348.852 469.918 -342.784 470.183L-342.74 469.184ZM-352.345 458.743L-351.346 458.784L-339.169 160.854L-340.168 160.814L-341.167 160.773L-353.344 458.702L-352.345 458.743Z" fill="#004184" mask="url(#path-69-inside-35_3_514)"/>
<mask id="path-71-inside-36_3_514" fill="white">
<path d="M-338.922 160.869L-351.099 458.798C-351.297 463.626 -347.526 467.728 -342.693 467.937L-44.6397 480.896C-41.993 481.011 -39.4687 479.94 -37.7115 477.961C-36.3786 476.461 -35.5997 474.525 -35.5135 472.515L-23.3436 174.594"/>
</mask>
<path d="M-351.099 458.798L-350.1 458.839L-350.1 458.839L-351.099 458.798ZM-342.693 467.937L-342.649 466.938L-342.65 466.938L-342.693 467.937ZM-44.6397 480.896L-44.6832 481.895L-44.6829 481.895L-44.6397 480.896ZM-37.7115 477.961L-38.459 477.297L-38.4592 477.297L-37.7115 477.961ZM-35.5135 472.515L-34.5145 472.558L-34.5144 472.556L-35.5135 472.515ZM-338.922 160.869L-339.921 160.828L-352.098 458.757L-351.099 458.798L-350.1 458.839L-337.923 160.91L-338.922 160.869ZM-351.099 458.798L-352.098 458.757C-352.319 464.137 -348.12 468.703 -342.736 468.936L-342.693 467.937L-342.65 466.938C-346.933 466.753 -350.275 463.116 -350.1 458.839L-351.099 458.798ZM-342.693 467.937L-342.736 468.936L-44.6832 481.895L-44.6397 480.896L-44.5963 479.897L-342.649 466.938L-342.693 467.937ZM-44.6397 480.896L-44.6829 481.895C-41.7353 482.023 -38.9206 480.828 -36.9638 478.625L-37.7115 477.961L-38.4592 477.297C-40.0168 479.051 -42.2507 479.999 -44.5966 479.897L-44.6397 480.896ZM-37.7115 477.961L-36.9639 478.625C-35.477 476.952 -34.6104 474.796 -34.5145 472.558L-35.5135 472.515L-36.5126 472.472C-36.589 474.254 -37.2802 475.97 -38.459 477.297L-37.7115 477.961ZM-35.5135 472.515L-34.5144 472.556L-22.3444 174.635L-23.3436 174.594L-24.3427 174.554L-36.5127 472.474L-35.5135 472.515Z" fill="#004184" mask="url(#path-71-inside-36_3_514)"/>
<mask id="path-73-inside-37_3_514" fill="white">
<path d="M-24.7328 170.654L-45.9003 458.636C-46.0588 460.778 -46.8922 462.755 -48.3127 464.354C-50.3433 466.643 -53.2599 467.821 -56.31 467.592L-344.436 445.668C-349.783 445.261 -353.813 440.579 -353.418 435.237L-332.25 147.256"/>
</mask>
<path d="M-45.9003 458.636L-44.903 458.709L-44.9029 458.709L-45.9003 458.636ZM-48.3127 464.354L-49.0604 463.69L-49.0607 463.691L-48.3127 464.354ZM-56.31 467.592L-56.3858 468.589L-56.3849 468.589L-56.31 467.592ZM-344.436 445.668L-344.512 446.665L-344.512 446.665L-344.436 445.668ZM-353.418 435.237L-352.42 435.311L-352.42 435.311L-353.418 435.237ZM-24.7328 170.654L-25.7301 170.581L-46.8976 458.562L-45.9003 458.636L-44.9029 458.709L-23.7354 170.728L-24.7328 170.654ZM-45.9003 458.636L-46.8975 458.562C-47.04 460.487 -47.7865 462.256 -49.0604 463.69L-48.3127 464.354L-47.5651 465.018C-45.998 463.254 -45.0776 461.069 -44.903 458.709L-45.9003 458.636ZM-48.3127 464.354L-49.0607 463.691C-50.8836 465.745 -53.4954 466.8 -56.235 466.595L-56.31 467.592L-56.3849 468.589C-53.0243 468.842 -49.8031 467.541 -47.5647 465.018L-48.3127 464.354ZM-56.31 467.592L-56.2341 466.595L-344.36 444.671L-344.436 445.668L-344.512 446.665L-56.3858 468.589L-56.31 467.592ZM-344.436 445.668L-344.36 444.671C-349.158 444.305 -352.775 440.102 -352.42 435.311L-353.418 435.237L-354.415 435.163C-354.852 441.056 -350.408 446.216 -344.512 446.665L-344.436 445.668ZM-353.418 435.237L-352.42 435.311L-331.253 147.329L-332.25 147.256L-333.247 147.183L-354.415 435.164L-353.418 435.237Z" fill="#004184" mask="url(#path-73-inside-37_3_514)"/>
<mask id="path-75-inside-38_3_514" fill="white">
<path d="M-331.007 147.351L-352.179 435.329C-352.524 439.988 -349.01 444.065 -344.345 444.421L-56.2192 466.345C-53.5594 466.548 -51.0191 465.518 -49.248 463.523C-48.0097 462.13 -47.2797 460.403 -47.1431 458.541L-25.9791 170.564"/>
</mask>
<path d="M-352.179 435.329L-351.181 435.402L-351.181 435.402L-352.179 435.329ZM-344.345 444.421L-344.421 445.418L-344.421 445.418L-344.345 444.421ZM-56.2192 466.345L-56.1431 465.348L-56.1433 465.348L-56.2192 466.345ZM-49.248 463.523L-49.9952 462.858L-49.9959 462.859L-49.248 463.523ZM-47.1431 458.541L-48.1404 458.467L-48.1404 458.468L-47.1431 458.541ZM-331.007 147.351L-332.004 147.277L-353.176 435.255L-352.179 435.329L-351.181 435.402L-330.01 147.424L-331.007 147.351ZM-352.179 435.329L-353.176 435.255C-353.562 440.466 -349.634 445.02 -344.421 445.418L-344.345 444.421L-344.269 443.424C-348.385 443.11 -351.486 439.51 -351.181 435.402L-352.179 435.329ZM-344.345 444.421L-344.421 445.418L-56.2951 467.342L-56.2192 466.345L-56.1433 465.348L-344.269 443.424L-344.345 444.421ZM-56.2192 466.345L-56.2953 467.342C-53.3233 467.569 -50.4782 466.416 -48.5001 464.187L-49.248 463.523L-49.9959 462.859C-51.5599 464.621 -53.7956 465.527 -56.1431 465.348L-56.2192 466.345ZM-49.248 463.523L-48.5007 464.187C-47.1161 462.63 -46.2985 460.695 -46.1458 458.614L-47.1431 458.541L-48.1404 458.468C-48.261 460.111 -48.9033 461.63 -49.9952 462.858L-49.248 463.523ZM-47.1431 458.541L-46.1458 458.614L-24.9818 170.637L-25.9791 170.564L-26.9764 170.49L-48.1404 458.467L-47.1431 458.541Z" fill="#004184" mask="url(#path-75-inside-38_3_514)"/>
<mask id="path-77-inside-39_3_514" fill="white">
<path d="M-27.3683 166.667L-57.5307 444.696C-57.7437 446.653 -58.5397 448.461 -59.8413 449.923C-61.8684 452.207 -64.8923 453.369 -67.9304 453.029L-346.132 422.152C-351.305 421.574 -355.06 416.904 -354.498 411.732L-324.34 133.699"/>
</mask>
<path d="M-57.5307 444.696L-56.5366 444.805L-56.5365 444.804L-57.5307 444.696ZM-59.8413 449.923L-60.5881 449.258L-60.5893 449.259L-59.8413 449.923ZM-67.9304 453.029L-67.8191 452.035L-67.8201 452.035L-67.9304 453.029ZM-346.132 422.152L-346.243 423.146L-346.242 423.146L-346.132 422.152ZM-354.498 411.732L-353.503 411.841L-353.503 411.84L-354.498 411.732ZM-27.3683 166.667L-28.3625 166.559L-58.5249 444.589L-57.5307 444.696L-56.5365 444.804L-26.3742 166.775L-27.3683 166.667ZM-57.5307 444.696L-58.5248 444.588C-58.7157 446.341 -59.4269 447.954 -60.5881 449.258L-59.8413 449.923L-59.0945 450.588C-57.6525 448.969 -56.7718 446.965 -56.5366 444.805L-57.5307 444.696ZM-59.8413 449.923L-60.5893 449.259C-62.4006 451.3 -65.104 452.339 -67.8191 452.035L-67.9304 453.029L-68.0416 454.023C-64.6807 454.399 -61.3363 453.114 -59.0933 450.587L-59.8413 449.923ZM-67.9304 453.029L-67.8201 452.035L-346.021 421.158L-346.132 422.152L-346.242 423.146L-68.0407 454.023L-67.9304 453.029ZM-346.132 422.152L-346.021 421.158C-350.648 420.641 -354.006 416.462 -353.503 411.841L-354.498 411.732L-355.492 411.624C-356.114 417.346 -351.961 422.507 -346.243 423.146L-346.132 422.152ZM-354.498 411.732L-353.503 411.84L-323.345 133.807L-324.34 133.699L-325.334 133.591L-355.492 411.625L-354.498 411.732Z" fill="#004184" mask="url(#path-77-inside-39_3_514)"/>
<mask id="path-79-inside-40_3_514" fill="white">
<path d="M-323.096 133.837L-353.262 411.871C-353.746 416.353 -350.493 420.41 -346.001 420.91L-67.7951 451.798C-65.1575 452.089 -62.5365 451.082 -60.7758 449.1C-59.646 447.832 -58.9543 446.265 -58.7699 444.562L-28.6075 166.533"/>
</mask>
<path d="M-353.262 411.871L-354.256 411.763L-354.256 411.764L-353.262 411.871ZM-346.001 420.91L-346.112 421.903L-346.112 421.904L-346.001 420.91ZM-67.7951 451.798L-67.9054 452.791L-67.9049 452.792L-67.7951 451.798ZM-60.7758 449.1L-61.5223 448.434L-61.5235 448.436L-60.7758 449.1ZM-58.7699 444.562L-59.764 444.454L-59.7641 444.455L-58.7699 444.562ZM-323.096 133.837L-324.09 133.729L-354.256 411.763L-353.262 411.871L-352.267 411.979L-322.102 133.945L-323.096 133.837ZM-353.262 411.871L-354.256 411.764C-354.8 416.794 -351.151 421.343 -346.112 421.903L-346.001 420.91L-345.891 419.916C-349.835 419.477 -352.693 415.912 -352.267 411.979L-353.262 411.871ZM-346.001 420.91L-346.112 421.904L-67.9054 452.791L-67.7951 451.798L-67.6848 450.804L-345.891 419.916L-346.001 420.91ZM-67.7951 451.798L-67.9049 452.792C-64.9455 453.119 -62.0046 451.989 -60.0281 449.764L-60.7758 449.1L-61.5235 448.436C-63.0684 450.175 -65.3695 451.06 -67.6853 450.804L-67.7951 451.798ZM-60.7758 449.1L-60.0293 449.765C-58.7592 448.34 -57.9823 446.577 -57.7757 444.67L-58.7699 444.562L-59.7641 444.455C-59.9263 445.953 -60.5328 447.324 -61.5223 448.434L-60.7758 449.1ZM-58.7699 444.562L-57.7757 444.67L-27.6133 166.641L-28.6075 166.533L-29.6017 166.425L-59.764 444.454L-58.7699 444.562Z" fill="#004184" mask="url(#path-79-inside-40_3_514)"/>
<mask id="path-81-inside-41_3_514" fill="white">
<path d="M-30.0072 162.683L-69.1636 430.769C-69.4233 432.538 -70.1819 434.179 -71.3638 435.511C-73.4229 437.826 -76.4869 438.941 -79.5525 438.486L-347.832 398.633C-352.829 397.892 -356.307 393.22 -355.574 388.223L-316.418 120.137"/>
</mask>
<path d="M-69.1636 430.769L-68.1742 430.915L-68.1741 430.914L-69.1636 430.769ZM-71.3638 435.511L-70.6166 436.175L-70.6158 436.174L-71.3638 435.511ZM-79.5525 438.486L-79.6994 439.475L-79.6992 439.475L-79.5525 438.486ZM-347.832 398.633L-347.685 397.644L-347.685 397.644L-347.832 398.633ZM-355.574 388.223L-354.585 388.368L-354.584 388.368L-355.574 388.223ZM-30.0072 162.683L-30.9967 162.539L-70.1531 430.625L-69.1636 430.769L-68.1741 430.914L-29.0177 162.828L-30.0072 162.683ZM-69.1636 430.769L-70.153 430.624C-70.3848 432.203 -71.0606 433.663 -72.1117 434.847L-71.3638 435.511L-70.6158 436.174C-69.3031 434.695 -68.4619 432.874 -68.1742 430.915L-69.1636 430.769ZM-71.3638 435.511L-72.111 434.846C-73.9463 436.91 -76.6744 437.902 -79.4057 437.497L-79.5525 438.486L-79.6992 439.475C-76.2995 439.98 -72.8995 438.742 -70.6166 436.175L-71.3638 435.511ZM-79.5525 438.486L-79.4055 437.497L-347.685 397.644L-347.832 398.633L-347.979 399.622L-79.6994 439.475L-79.5525 438.486ZM-347.832 398.633L-347.685 397.644C-352.138 396.984 -355.237 392.819 -354.585 388.368L-355.574 388.223L-356.563 388.078C-357.377 393.622 -353.521 398.801 -347.978 399.622L-347.832 398.633ZM-355.574 388.223L-354.584 388.368L-315.428 120.282L-316.418 120.137L-317.407 119.993L-356.563 388.079L-355.574 388.223Z" fill="#004184" mask="url(#path-81-inside-41_3_514)"/>
<mask id="path-83-inside-42_3_514" fill="white">
<path d="M-315.185 120.324L-354.337 388.413C-354.964 392.73 -351.967 396.762 -347.646 397.4L-79.3708 437.25C-76.7186 437.645 -74.0773 436.684 -72.2957 434.675C-71.2787 433.529 -70.6183 432.114 -70.3965 430.584L-31.2436 162.502"/>
</mask>
<path d="M-354.337 388.413L-355.326 388.268L-355.326 388.269L-354.337 388.413ZM-347.646 397.4L-347.499 396.411L-347.5 396.411L-347.646 397.4ZM-79.3708 437.25L-79.2233 436.261L-79.2239 436.261L-79.3708 437.25ZM-72.2957 434.675L-73.0438 434.012L-73.0438 434.012L-72.2957 434.675ZM-70.3965 430.584L-71.386 430.439L-71.3862 430.44L-70.3965 430.584ZM-315.185 120.324L-316.174 120.179L-355.326 388.268L-354.337 388.413L-353.347 388.557L-314.195 120.468L-315.185 120.324ZM-354.337 388.413L-355.326 388.269C-356.033 393.131 -352.66 397.671 -347.792 398.39L-347.646 397.4L-347.5 396.411C-351.275 395.853 -353.895 392.328 -353.347 388.557L-354.337 388.413ZM-347.646 397.4L-347.793 398.389L-79.5178 438.239L-79.3708 437.25L-79.2239 436.261L-347.499 396.411L-347.646 397.4ZM-79.3708 437.25L-79.5184 438.239C-76.531 438.685 -73.553 437.6 -71.5476 435.339L-72.2957 434.675L-73.0438 434.012C-74.6015 435.768 -76.9062 436.606 -79.2233 436.261L-79.3708 437.25ZM-72.2957 434.675L-71.5477 435.339C-70.4013 434.047 -69.6567 432.451 -69.4069 430.727L-70.3965 430.584L-71.3862 430.44C-71.5799 431.777 -72.1561 433.011 -73.0438 434.012L-72.2957 434.675ZM-70.3965 430.584L-69.407 430.728L-30.2541 162.646L-31.2436 162.502L-32.2331 162.357L-71.386 430.439L-70.3965 430.584Z" fill="#004184" mask="url(#path-83-inside-42_3_514)"/>
<mask id="path-85-inside-43_3_514" fill="white">
<path d="M-32.6505 158.697L-80.7975 416.834C-81.0954 418.424 -81.813 419.891 -82.8795 421.09C-84.9456 423.414 -88.1264 424.498 -91.1807 423.924L-349.528 375.11C-354.352 374.198 -357.547 369.536 -356.647 364.71L-308.499 106.58"/>
</mask>
<path d="M-80.7975 416.834L-79.8146 417.019L-79.8145 417.018L-80.7975 416.834ZM-82.8795 421.09L-83.6266 420.425L-83.6268 420.425L-82.8795 421.09ZM-91.1807 423.924L-91.3663 424.907L-91.3652 424.907L-91.1807 423.924ZM-349.528 375.11L-349.714 376.092L-349.528 375.11ZM-356.647 364.71L-357.63 364.527L-357.63 364.527L-356.647 364.71ZM-32.6505 158.697L-33.6336 158.513L-81.7805 416.651L-80.7975 416.834L-79.8145 417.018L-31.6675 158.88L-32.6505 158.697ZM-80.7975 416.834L-81.7804 416.65C-82.0451 418.062 -82.6821 419.364 -83.6266 420.425L-82.8795 421.09L-82.1324 421.755C-80.944 420.419 -80.1457 418.785 -79.8146 417.019L-80.7975 416.834ZM-82.8795 421.09L-83.6268 420.425C-85.4593 422.486 -88.2863 423.45 -90.9962 422.941L-91.1807 423.924L-91.3652 424.907C-87.9664 425.545 -84.4319 424.341 -82.1322 421.754L-82.8795 421.09ZM-91.1807 423.924L-90.995 422.942L-349.343 374.127L-349.528 375.11L-349.714 376.092L-91.3663 424.907L-91.1807 423.924ZM-349.528 375.11L-349.343 374.127C-353.626 373.318 -356.462 369.177 -355.664 364.893L-356.647 364.71L-357.63 364.527C-358.631 369.896 -355.078 375.079 -349.714 376.092L-349.528 375.11ZM-356.647 364.71L-355.664 364.893L-307.516 106.763L-308.499 106.58L-309.482 106.397L-357.63 364.527L-356.647 364.71Z" fill="#004184" mask="url(#path-85-inside-43_3_514)"/>
<mask id="path-87-inside-44_3_514" fill="white">
<path d="M-307.274 106.81L-355.416 364.951C-356.187 369.094 -353.443 373.106 -349.294 373.888L-90.9467 422.702C-88.2755 423.205 -85.613 422.296 -83.8064 420.265C-82.8909 419.235 -82.2738 417.97 -82.0189 416.608L-33.8762 158.467"/>
</mask>
<path d="M-355.416 364.951L-356.399 364.768L-356.4 364.768L-355.416 364.951ZM-349.294 373.888L-349.109 372.905L-349.109 372.905L-349.294 373.888ZM-90.9467 422.702L-91.1323 423.685L-91.1318 423.685L-90.9467 422.702ZM-83.8064 420.265L-83.0593 420.93L-83.0588 420.93L-83.8064 420.265ZM-82.0189 416.608L-81.036 416.792L-81.0358 416.792L-82.0189 416.608ZM-307.274 106.81L-308.257 106.626L-356.399 364.768L-355.416 364.951L-354.433 365.134L-306.291 106.993L-307.274 106.81ZM-355.416 364.951L-356.4 364.768C-357.271 369.454 -354.17 373.987 -349.479 374.87L-349.294 373.888L-349.109 372.905C-352.716 372.225 -355.103 368.735 -354.433 365.134L-355.416 364.951ZM-349.294 373.888L-349.48 374.87L-91.1323 423.685L-90.9467 422.702L-90.761 421.719L-349.109 372.905L-349.294 373.888ZM-90.9467 422.702L-91.1318 423.685C-88.1153 424.253 -85.0991 423.223 -83.0593 420.93L-83.8064 420.265L-84.5535 419.601C-86.1269 421.369 -88.4356 422.157 -90.7615 421.719L-90.9467 422.702ZM-83.8064 420.265L-83.0588 420.93C-82.0215 419.762 -81.3239 418.33 -81.036 416.792L-82.0189 416.608L-83.0018 416.424C-83.2236 417.609 -83.7603 418.708 -84.5539 419.601L-83.8064 420.265ZM-82.0189 416.608L-81.0358 416.792L-32.8931 158.65L-33.8762 158.467L-34.8592 158.284L-83.0019 416.425L-82.0189 416.608Z" fill="#004184" mask="url(#path-87-inside-44_3_514)"/>
<mask id="path-89-inside-45_3_514" fill="white">
<path d="M-35.2895 154.713L-92.4263 402.911C-92.7511 404.315 -93.4262 405.626 -94.373 406.694C-96.4773 409.065 -99.7066 410.095 -102.8 409.369L-351.224 351.594C-355.874 350.512 -358.789 345.857 -357.715 341.208L-300.578 93.0105"/>
</mask>
<path d="M-92.4263 402.911L-91.452 403.136L-91.4518 403.135L-92.4263 402.911ZM-94.373 406.694L-93.6251 407.358L-93.6245 407.357L-94.373 406.694ZM-102.8 409.369L-102.572 408.396L-102.574 408.395L-102.8 409.369ZM-351.224 351.594L-351.451 352.568L-351.451 352.568L-351.224 351.594ZM-357.715 341.208L-356.741 341.433L-356.741 341.432L-357.715 341.208ZM-35.2895 154.713L-36.264 154.489L-93.4008 402.687L-92.4263 402.911L-91.4518 403.135L-34.315 154.938L-35.2895 154.713ZM-92.4263 402.911L-93.4005 402.685C-93.6881 403.928 -94.2861 405.088 -95.1215 406.031L-94.373 406.694L-93.6245 407.357C-92.5664 406.163 -91.8142 404.702 -91.452 403.136L-92.4263 402.911ZM-94.373 406.694L-95.1208 406.03C-96.9819 408.127 -99.8367 409.038 -102.572 408.396L-102.8 409.369L-103.029 410.343C-99.5766 411.153 -95.9727 410.003 -93.6251 407.358L-94.373 406.694ZM-102.8 409.369L-102.574 408.395L-350.998 350.62L-351.224 351.594L-351.451 352.568L-103.027 410.343L-102.8 409.369ZM-351.224 351.594L-350.997 350.62C-355.112 349.663 -357.69 345.542 -356.741 341.433L-357.715 341.208L-358.689 340.983C-359.889 346.171 -356.635 351.362 -351.451 352.568L-351.224 351.594ZM-357.715 341.208L-356.741 341.432L-299.604 93.2349L-300.578 93.0105L-301.553 92.7862L-358.69 340.984L-357.715 341.208Z" fill="#004184" mask="url(#path-89-inside-45_3_514)"/>
<mask id="path-91-inside-46_3_514" fill="white">
<path d="M-299.362 93.2961L-356.504 341.49C-357.42 345.465 -354.926 349.451 -350.946 350.379L-102.526 408.159C-99.8786 408.77 -97.115 407.894 -95.3118 405.867C-94.4979 404.953 -93.9248 403.829 -93.6497 402.626L-36.5052 154.428"/>
</mask>
<path d="M-356.504 341.49L-355.529 341.715L-355.529 341.715L-356.504 341.49ZM-350.946 350.379L-351.173 351.353L-351.173 351.353L-350.946 350.379ZM-102.526 408.159L-102.752 409.133L-102.751 409.133L-102.526 408.159ZM-95.3118 405.867L-96.0586 405.202L-96.0588 405.203L-95.3118 405.867ZM-93.6497 402.626L-94.6242 402.402L-94.6245 402.403L-93.6497 402.626ZM-299.362 93.2961L-300.337 93.0718L-357.478 341.266L-356.504 341.49L-355.529 341.715L-298.388 93.5205L-299.362 93.2961ZM-356.504 341.49L-357.478 341.265C-358.519 345.78 -355.687 350.3 -351.173 351.353L-350.946 350.379L-350.719 349.405C-354.164 348.602 -356.321 345.15 -355.529 341.715L-356.504 341.49ZM-350.946 350.379L-351.173 351.353L-102.752 409.133L-102.526 408.159L-102.299 407.185L-350.72 349.405L-350.946 350.379ZM-102.526 408.159L-102.751 409.133C-99.7487 409.827 -96.6119 408.833 -94.5648 406.532L-95.3118 405.867L-96.0588 405.203C-97.6181 406.955 -100.009 407.714 -102.301 407.184L-102.526 408.159ZM-95.3118 405.867L-94.565 406.532C-93.6363 405.489 -92.9867 404.212 -92.6749 402.849L-93.6497 402.626L-94.6245 402.403C-94.863 403.446 -95.3594 404.417 -96.0586 405.202L-95.3118 405.867ZM-93.6497 402.626L-92.6752 402.851L-35.5307 154.652L-36.5052 154.428L-37.4797 154.204L-94.6242 402.402L-93.6497 402.626Z" fill="#004184" mask="url(#path-91-inside-46_3_514)"/>
</g>
</svg>
