<svg width="380" height="1010" viewBox="0 0 380 1010" fill="none" xmlns="http://www.w3.org/2000/svg">
<g opacity="0.1">
<mask id="path-1-inside-1_3_225" fill="white">
<path d="M-136.578 78.1748L335.745 473.459C341.081 477.923 343.719 484.71 342.795 491.601C342.285 495.386 340.715 498.94 338.247 501.877L-57.7193 972.707"/>
</mask>
<path d="M335.745 473.459L335.103 474.225L335.104 474.225L335.745 473.459ZM342.795 491.601L343.786 491.735L343.786 491.734L342.795 491.601ZM338.247 501.877L339.013 502.521L339.013 502.521L338.247 501.877ZM-136.578 78.1748L-137.22 78.9417L335.103 474.225L335.745 473.459L336.387 472.692L-135.936 77.4079L-136.578 78.1748ZM335.745 473.459L335.104 474.225C340.177 478.47 342.682 484.917 341.804 491.468L342.795 491.601L343.786 491.734C344.755 484.503 341.986 477.376 336.387 472.692L335.745 473.459ZM342.795 491.601L341.804 491.468C341.32 495.065 339.827 498.442 337.482 501.234L338.247 501.877L339.013 502.521C341.602 499.439 343.251 495.708 343.786 491.735L342.795 491.601ZM338.247 501.877L337.482 501.234L-58.4847 972.064L-57.7193 972.707L-56.954 973.351L339.013 502.521L338.247 501.877Z" fill="#0C253F" mask="url(#path-1-inside-1_3_225)"/>
<mask id="path-3-inside-2_3_225" fill="white">
<path d="M-58.9591 971.667L337.008 500.837C339.282 498.133 340.727 494.861 341.188 491.387C342.034 485.047 339.606 478.802 334.696 474.697L-137.627 79.4136"/>
</mask>
<path d="M337.008 500.837L336.242 500.193L336.242 500.193L337.008 500.837ZM341.188 491.387L340.197 491.255L340.197 491.255L341.188 491.387ZM334.696 474.697L334.054 475.464L334.054 475.465L334.696 474.697ZM-58.9591 971.667L-58.1938 972.311L337.773 501.48L337.008 500.837L336.242 500.193L-59.7244 971.023L-58.9591 971.667ZM337.008 500.837L337.773 501.481C340.17 498.632 341.694 495.182 342.179 491.518L341.188 491.387L340.197 491.255C339.761 494.54 338.395 497.634 336.242 500.193L337.008 500.837ZM341.188 491.387L342.179 491.519C343.07 484.839 340.51 478.255 335.337 473.93L334.696 474.697L334.054 475.465C338.701 479.349 340.997 485.255 340.197 491.255L341.188 491.387ZM334.696 474.697L335.337 473.93L-136.986 78.6467L-137.627 79.4136L-138.269 80.1805L334.054 475.464L334.696 474.697Z" fill="#0C253F" mask="url(#path-3-inside-2_3_225)"/>
<mask id="path-5-inside-3_3_225" fill="white">
<path d="M-142.307 75.7803L313.162 466.895C318.236 471.25 320.736 477.81 319.858 484.433C319.348 488.211 317.765 491.75 315.257 494.655L-76.5447 948.68"/>
</mask>
<path d="M313.162 466.895L312.51 467.654L312.511 467.654L313.162 466.895ZM319.858 484.433L320.849 484.567L320.849 484.565L319.858 484.433ZM315.257 494.655L314.5 494.001L314.5 494.001L315.257 494.655ZM-142.307 75.7803L-142.959 76.5389L312.51 467.654L313.162 466.895L313.813 466.136L-141.656 75.0216L-142.307 75.7803ZM313.162 466.895L312.511 467.654C317.328 471.789 319.7 478.013 318.866 484.302L319.858 484.433L320.849 484.565C321.771 477.607 319.144 470.712 313.813 466.136L313.162 466.895ZM319.858 484.433L318.867 484.3C318.383 487.886 316.881 491.244 314.5 494.001L315.257 494.655L316.014 495.308C318.649 492.256 320.314 488.536 320.849 484.567L319.858 484.433ZM315.257 494.655L314.5 494.001L-77.3018 948.027L-76.5447 948.68L-75.7876 949.334L316.014 495.308L315.257 494.655Z" fill="#0C253F" mask="url(#path-5-inside-3_3_225)"/>
<mask id="path-7-inside-4_3_225" fill="white">
<path d="M-77.7753 947.632L314.027 493.607C316.327 490.941 317.791 487.699 318.251 484.232C319.066 478.148 316.769 472.129 312.107 468.125L-143.361 77.0032"/>
</mask>
<path d="M314.027 493.607L314.784 494.26L314.784 494.26L314.027 493.607ZM318.251 484.232L317.26 484.099L317.259 484.101L318.251 484.232ZM312.107 468.125L312.759 467.366L312.759 467.366L312.107 468.125ZM-77.7753 947.632L-77.0183 948.286L314.784 494.26L314.027 493.607L313.27 492.953L-78.5324 946.979L-77.7753 947.632ZM314.027 493.607L314.784 494.26C317.21 491.448 318.756 488.026 319.242 484.364L318.251 484.232L317.259 484.101C316.825 487.373 315.444 490.433 313.27 492.953L314.027 493.607ZM318.251 484.232L319.242 484.365C320.103 477.944 317.676 471.59 312.759 467.366L312.107 468.125L311.456 468.884C315.861 472.667 318.03 478.351 317.26 484.099L318.251 484.232ZM312.107 468.125L312.759 467.366L-142.71 76.2445L-143.361 77.0032L-144.013 77.7618L311.456 468.884L312.107 468.125Z" fill="#0C253F" mask="url(#path-7-inside-4_3_225)"/>
<mask id="path-9-inside-5_3_225" fill="white">
<path d="M-148.029 73.3933L290.586 460.339C295.404 464.586 297.767 470.918 296.92 477.279C296.417 481.058 294.807 484.573 292.267 487.439L-95.3695 924.653"/>
</mask>
<path d="M290.586 460.339L289.924 461.089L289.924 461.089L290.586 460.339ZM296.92 477.279L295.928 477.147L295.928 477.148L296.92 477.279ZM292.267 487.439L293.016 488.102L293.016 488.102L292.267 487.439ZM-148.029 73.3933L-148.691 74.1432L289.924 461.089L290.586 460.339L291.247 459.589L-147.368 72.6434L-148.029 73.3933ZM290.586 460.339L289.924 461.089C294.492 465.115 296.732 471.117 295.928 477.147L296.92 477.279L297.911 477.412C298.802 470.72 296.316 464.057 291.247 459.589L290.586 460.339ZM296.92 477.279L295.928 477.148C295.452 480.728 293.928 484.058 291.519 486.776L292.267 487.439L293.016 488.102C295.687 485.088 297.382 481.388 297.911 477.411L296.92 477.279ZM292.267 487.439L291.519 486.776L-96.1178 923.99L-95.3695 924.653L-94.6213 925.317L293.016 488.102L292.267 487.439Z" fill="#0C253F" mask="url(#path-9-inside-5_3_225)"/>
<mask id="path-11-inside-6_3_225" fill="white">
<path d="M-96.593 923.592L291.044 486.378C293.369 483.75 294.852 480.539 295.312 477.072C296.09 471.249 293.924 465.442 289.517 461.554L-149.097 74.6013"/>
</mask>
<path d="M291.044 486.378L291.792 487.041L291.793 487.041L291.044 486.378ZM295.312 477.072L294.321 476.939L294.321 476.94L295.312 477.072ZM289.517 461.554L288.855 462.304L289.517 461.554ZM-96.593 923.592L-95.8447 924.255L291.792 487.041L291.044 486.378L290.296 485.714L-97.3412 922.929L-96.593 923.592ZM291.044 486.378L291.793 487.041C294.248 484.267 295.817 480.871 296.303 477.203L295.312 477.072L294.321 476.94C293.887 480.207 292.491 483.234 290.295 485.715L291.044 486.378ZM295.312 477.072L296.303 477.204C297.125 471.051 294.836 464.913 290.178 460.804L289.517 461.554L288.855 462.304C293.012 465.971 295.055 471.447 294.321 476.939L295.312 477.072ZM289.517 461.554L290.178 460.804L-148.436 73.8514L-149.097 74.6013L-149.759 75.3512L288.855 462.304L289.517 461.554Z" fill="#0C253F" mask="url(#path-11-inside-6_3_225)"/>
<mask id="path-13-inside-7_3_225" fill="white">
<path d="M-153.751 71.0061L268.009 453.79C272.565 457.927 274.798 464.034 273.981 470.125C273.472 473.903 271.85 477.396 269.263 480.229L-114.21 900.639"/>
</mask>
<path d="M268.009 453.79L268.681 453.05L268.681 453.05L268.009 453.79ZM273.981 470.125L274.972 470.259L274.972 470.258L273.981 470.125ZM269.263 480.229L268.524 479.555L268.524 479.555L269.263 480.229ZM-153.751 71.0061L-154.424 71.7466L267.336 454.531L268.009 453.79L268.681 453.05L-153.079 70.2656L-153.751 71.0061ZM268.009 453.79L267.336 454.531C271.65 458.447 273.763 464.227 272.99 469.993L273.981 470.125L274.972 470.258C275.832 463.84 273.48 457.408 268.681 453.05L268.009 453.79ZM273.981 470.125L272.99 469.992C272.508 473.569 270.974 476.872 268.524 479.555L269.263 480.229L270.001 480.903C272.726 477.919 274.436 474.238 274.972 470.259L273.981 470.125ZM269.263 480.229L268.524 479.555L-114.949 899.965L-114.21 900.639L-113.471 901.313L270.002 480.903L269.263 480.229Z" fill="#0C253F" mask="url(#path-13-inside-7_3_225)"/>
<mask id="path-15-inside-8_3_225" fill="white">
<path d="M-115.409 899.551L268.064 479.141C270.421 476.552 271.909 473.363 272.375 469.911C273.116 464.342 271.073 458.761 266.914 454.981L-154.839 72.198"/>
</mask>
<path d="M268.064 479.141L268.802 479.815L268.803 479.814L268.064 479.141ZM272.375 469.911L273.366 470.044L273.366 470.042L272.375 469.911ZM266.914 454.981L267.586 454.241L267.586 454.241L266.914 454.981ZM-115.409 899.551L-114.67 900.225L268.802 479.815L268.064 479.141L267.325 478.467L-116.148 898.877L-115.409 899.551ZM268.064 479.141L268.803 479.814C271.297 477.076 272.873 473.699 273.366 470.044L272.375 469.911L271.384 469.777C270.945 473.027 269.546 476.029 267.324 478.468L268.064 479.141ZM272.375 469.911L273.366 470.042C274.15 464.148 271.988 458.241 267.586 454.241L266.914 454.981L266.241 455.721C270.158 459.281 272.081 464.536 271.384 469.779L272.375 469.911ZM266.914 454.981L267.586 454.241L-154.167 71.4575L-154.839 72.198L-155.511 72.9385L266.242 455.722L266.914 454.981Z" fill="#0C253F" mask="url(#path-15-inside-8_3_225)"/>
<mask id="path-17-inside-9_3_225" fill="white">
<path d="M-159.473 68.6189L245.425 447.233C249.727 451.255 251.83 457.135 251.051 462.965C250.549 466.743 248.893 470.218 246.273 473.013L-133.034 876.611"/>
</mask>
<path d="M245.425 447.233L244.742 447.964L244.742 447.964L245.425 447.233ZM251.051 462.965L250.06 462.832L250.06 462.833L251.051 462.965ZM246.273 473.013L247.002 473.698L247.003 473.697L246.273 473.013ZM-159.473 68.6189L-160.156 69.3493L244.742 447.964L245.425 447.233L246.108 446.503L-158.79 67.8885L-159.473 68.6189ZM245.425 447.233L244.742 447.964C248.808 451.765 250.796 457.323 250.06 462.832L251.051 462.965L252.042 463.097C252.864 456.946 250.646 450.745 246.108 446.503L245.425 447.233ZM251.051 462.965L250.06 462.833C249.585 466.403 248.022 469.685 245.543 472.329L246.273 473.013L247.003 473.697C249.763 470.751 251.513 467.084 252.042 463.097L251.051 462.965ZM246.273 473.013L245.544 472.328L-133.763 875.926L-133.034 876.611L-132.306 877.296L247.002 473.698L246.273 473.013Z" fill="#0C253F" mask="url(#path-17-inside-9_3_225)"/>
<mask id="path-19-inside-10_3_225" fill="white">
<path d="M-134.219 875.511L245.088 471.913C247.477 469.37 248.984 466.204 249.443 462.758C250.154 457.437 248.235 452.075 244.316 448.41L-160.583 69.7957"/>
</mask>
<path d="M245.088 471.913L245.817 472.598L245.817 472.598L245.088 471.913ZM249.443 462.758L248.451 462.625L248.451 462.626L249.443 462.758ZM244.316 448.41L244.999 447.68L244.999 447.68L244.316 448.41ZM-134.219 875.511L-133.491 876.196L245.817 472.598L245.088 471.913L244.359 471.228L-134.948 874.826L-134.219 875.511ZM245.088 471.913L245.817 472.598C248.348 469.903 249.948 466.544 250.434 462.89L249.443 462.758L248.451 462.626C248.021 465.864 246.606 468.837 244.359 471.228L245.088 471.913ZM249.443 462.758L250.434 462.891C251.188 457.249 249.154 451.565 244.999 447.68L244.316 448.41L243.633 449.14C247.316 452.585 249.12 457.626 248.451 462.625L249.443 462.758ZM244.316 448.41L244.999 447.68L-159.9 69.0652L-160.583 69.7957L-161.266 70.5261L243.633 449.14L244.316 448.41Z" fill="#0C253F" mask="url(#path-19-inside-10_3_225)"/>
<mask id="path-21-inside-11_3_225" fill="white">
<path d="M-165.203 66.2312L222.848 440.685C226.896 444.583 228.861 450.243 228.12 455.812C227.617 459.597 225.941 463.049 223.276 465.796L-151.873 852.583"/>
</mask>
<path d="M222.848 440.685L222.154 441.404L222.155 441.405L222.848 440.685ZM228.12 455.812L227.129 455.68L227.129 455.68L228.12 455.812ZM223.276 465.796L222.558 465.1L222.558 465.1L223.276 465.796ZM-165.203 66.2312L-165.897 66.9508L222.154 441.404L222.848 440.685L223.543 439.965L-164.508 65.5116L-165.203 66.2312ZM222.848 440.685L222.155 441.405C225.973 445.082 227.828 450.425 227.129 455.68L228.12 455.812L229.111 455.943C229.894 450.061 227.82 444.084 223.542 439.964L222.848 440.685ZM228.12 455.812L227.129 455.68C226.654 459.252 225.075 462.506 222.558 465.1L223.276 465.796L223.994 466.493C226.808 463.592 228.58 459.942 229.111 455.943L228.12 455.812ZM223.276 465.796L222.558 465.1L-152.591 851.886L-151.873 852.583L-151.156 853.279L223.994 466.493L223.276 465.796Z" fill="#0C253F" mask="url(#path-21-inside-11_3_225)"/>
<mask id="path-23-inside-12_3_225" fill="white">
<path d="M-153.036 851.47L222.114 464.677C224.536 462.18 226.062 459.037 226.52 455.598C227.194 450.532 225.405 445.389 221.727 441.838L-166.324 67.3921"/>
</mask>
<path d="M222.114 464.677L222.832 465.373L222.832 465.373L222.114 464.677ZM226.52 455.598L225.528 455.466L225.528 455.466L226.52 455.598ZM221.727 441.838L222.422 441.119L222.422 441.119L221.727 441.838ZM-153.036 851.47L-152.318 852.166L222.832 465.373L222.114 464.677L221.397 463.981L-153.753 850.774L-153.036 851.47ZM222.114 464.677L222.832 465.373C225.402 462.722 227.025 459.382 227.511 455.73L226.52 455.598L225.528 455.466C225.099 458.691 223.669 461.637 221.396 463.981L222.114 464.677ZM226.52 455.598L227.511 455.73C228.227 450.349 226.329 444.89 222.422 441.119L221.727 441.838L221.033 442.558C224.482 445.887 226.161 450.714 225.528 455.466L226.52 455.598ZM221.727 441.838L222.422 441.119L-165.63 66.6725L-166.324 67.3921L-167.019 68.1117L221.033 442.558L221.727 441.838Z" fill="#0C253F" mask="url(#path-23-inside-12_3_225)"/>
<mask id="path-25-inside-13_3_225" fill="white">
<path d="M-170.925 63.8442L200.272 434.129C204.124 437.974 205.921 443.268 205.203 448.66C204.7 452.452 202.997 455.88 200.278 458.587L-170.699 828.569"/>
</mask>
<path d="M200.272 434.129L200.979 433.421L200.978 433.421L200.272 434.129ZM205.203 448.66L204.212 448.528L204.212 448.528L205.203 448.66ZM200.278 458.587L199.573 457.878L199.572 457.879L200.278 458.587ZM-170.925 63.8442L-171.631 64.5522L199.566 434.837L200.272 434.129L200.978 433.421L-170.219 63.1363L-170.925 63.8442ZM200.272 434.129L199.566 434.836C203.197 438.462 204.889 443.445 204.212 448.528L205.203 448.66L206.194 448.792C206.954 443.091 205.051 437.486 200.979 433.421L200.272 434.129ZM205.203 448.66L204.212 448.528C203.738 452.101 202.136 455.326 199.573 457.878L200.278 458.587L200.984 459.296C203.858 456.434 205.662 452.804 206.195 448.791L205.203 448.66ZM200.278 458.587L199.572 457.879L-171.406 827.861L-170.699 828.569L-169.993 829.277L200.984 459.295L200.278 458.587Z" fill="#0C253F" mask="url(#path-25-inside-13_3_225)"/>
<mask id="path-27-inside-14_3_225" fill="white">
<path d="M-171.851 827.429L199.126 457.447C201.586 454.996 203.132 451.883 203.589 448.444C204.241 443.555 202.614 438.756 199.124 435.272L-172.066 64.9888"/>
</mask>
<path d="M199.126 457.447L198.42 456.738L198.42 456.739L199.126 457.447ZM203.589 448.444L202.598 448.312L202.598 448.313L203.589 448.444ZM199.124 435.272L199.83 434.565L199.83 434.564L199.124 435.272ZM-171.851 827.429L-171.145 828.137L199.832 458.155L199.126 457.447L198.42 456.739L-172.558 826.721L-171.851 827.429ZM199.126 457.447L199.832 458.155C202.447 455.549 204.094 452.234 204.58 448.576L203.589 448.444L202.598 448.313C202.169 451.532 200.725 454.442 198.42 456.738L199.126 457.447ZM203.589 448.444L204.58 448.577C205.273 443.378 203.542 438.269 199.83 434.565L199.124 435.272L198.417 435.98C201.687 439.243 203.208 443.732 202.598 448.312L203.589 448.444ZM199.124 435.272L199.83 434.564L-171.36 64.2808L-172.066 64.9888L-172.772 65.6967L198.417 435.98L199.124 435.272Z" fill="#0C253F" mask="url(#path-27-inside-14_3_225)"/>
<mask id="path-29-inside-15_3_225" fill="white">
<path d="M-176.648 61.4646L177.687 427.579C181.293 431.302 182.959 436.377 182.278 441.507C181.768 445.299 180.046 448.711 177.28 451.378L-189.54 804.548"/>
</mask>
<path d="M177.687 427.579L176.969 428.275L176.969 428.275L177.687 427.579ZM182.278 441.507L183.27 441.641L183.27 441.639L182.278 441.507ZM177.28 451.378L177.973 452.098L177.974 452.098L177.28 451.378ZM-176.648 61.4646L-177.367 62.1601L176.969 428.275L177.687 427.579L178.406 426.884L-175.93 60.7691L-176.648 61.4646ZM177.687 427.579L176.969 428.275C180.361 431.778 181.927 436.548 181.287 441.376L182.278 441.507L183.27 441.639C183.99 436.207 182.224 430.827 178.406 426.884L177.687 427.579ZM182.278 441.507L181.287 441.374C180.807 444.943 179.189 448.148 176.586 450.658L177.28 451.378L177.974 452.098C180.902 449.274 182.729 445.656 183.27 441.641L182.278 441.507ZM177.28 451.378L176.586 450.658L-190.233 803.828L-189.54 804.548L-188.846 805.269L177.973 452.098L177.28 451.378Z" fill="#0C253F" mask="url(#path-29-inside-15_3_225)"/>
<mask id="path-31-inside-16_3_225" fill="white">
<path d="M-190.661 803.395L176.152 450.218C178.651 447.813 180.223 444.725 180.672 441.299C181.294 436.658 179.778 432.069 176.527 428.707L-177.815 62.5847"/>
</mask>
<path d="M176.152 450.218L175.459 449.497L175.458 449.497L176.152 450.218ZM180.672 441.299L179.681 441.166L179.68 441.169L180.672 441.299ZM176.527 428.707L177.246 428.012L177.246 428.012L176.527 428.707ZM-190.661 803.395L-189.968 804.116L176.846 450.938L176.152 450.218L175.458 449.497L-191.355 802.675L-190.661 803.395ZM176.152 450.218L176.845 450.938C179.506 448.378 181.184 445.082 181.663 441.429L180.672 441.299L179.68 441.169C179.261 444.367 177.796 447.248 175.459 449.497L176.152 450.218ZM180.672 441.299L181.663 441.432C182.326 436.487 180.709 431.593 177.246 428.012L176.527 428.707L175.808 429.402C178.847 432.545 180.262 436.829 179.681 441.166L180.672 441.299ZM176.527 428.707L177.246 428.012L-177.097 61.8893L-177.815 62.5847L-178.534 63.2802L175.808 429.403L176.527 428.707Z" fill="#0C253F" mask="url(#path-31-inside-16_3_225)"/>
<mask id="path-33-inside-17_3_225" fill="white">
<path d="M-182.37 59.0774L155.111 421.03C158.463 424.623 160.012 429.48 159.362 434.355C158.862 438.105 157.055 441.588 154.275 444.168L-208.373 780.534"/>
</mask>
<path d="M155.111 421.03L154.379 421.712L154.379 421.712L155.111 421.03ZM159.362 434.355L158.371 434.223L158.371 434.223L159.362 434.355ZM154.275 444.168L154.955 444.901L154.956 444.901L154.275 444.168ZM-182.37 59.0774L-183.102 59.7593L154.379 421.712L155.111 421.03L155.842 420.348L-181.639 58.3954L-182.37 59.0774ZM155.111 421.03L154.379 421.712C157.527 425.086 158.981 429.644 158.371 434.223L159.362 434.355L160.353 434.487C161.043 429.316 159.398 424.16 155.842 420.348L155.111 421.03ZM159.362 434.355L158.371 434.223C157.902 437.742 156.205 441.012 153.595 443.435L154.275 444.168L154.956 444.901C157.904 442.164 159.823 438.469 160.353 434.487L159.362 434.355ZM154.275 444.168L153.595 443.435L-209.053 779.801L-208.373 780.534L-207.693 781.267L154.955 444.901L154.275 444.168Z" fill="#0C253F" mask="url(#path-33-inside-17_3_225)"/>
<mask id="path-35-inside-18_3_225" fill="white">
<path d="M-209.471 779.355L153.177 442.989C155.683 440.664 157.317 437.523 157.762 434.148C158.348 429.754 156.949 425.376 153.93 422.135L-183.557 60.1746"/>
</mask>
<path d="M153.177 442.989L153.857 443.722L153.857 443.722L153.177 442.989ZM157.762 434.148L156.77 434.016L156.77 434.017L157.762 434.148ZM153.93 422.135L154.662 421.454L154.662 421.453L153.93 422.135ZM-209.471 779.355L-208.791 780.088L153.857 443.722L153.177 442.989L152.497 442.256L-210.151 778.622L-209.471 779.355ZM153.177 442.989L153.857 443.722C156.532 441.24 158.278 437.888 158.753 434.279L157.762 434.148L156.77 434.017C156.356 437.159 154.834 440.088 152.497 442.256L153.177 442.989ZM157.762 434.148L158.753 434.28C159.378 429.589 157.884 424.913 154.662 421.454L153.93 422.135L153.199 422.817C156.013 425.839 157.317 429.919 156.77 434.016L157.762 434.148ZM153.93 422.135L154.662 421.453L-182.826 59.4926L-183.557 60.1746L-184.289 60.8565L153.199 422.817L153.93 422.135Z" fill="#0C253F" mask="url(#path-35-inside-18_3_225)"/>
<mask id="path-37-inside-19_3_225" fill="white">
<path d="M-188.094 56.6978L132.54 414.482C135.652 417.954 137.079 422.585 136.466 427.205C135.965 430.962 134.124 434.428 131.284 436.959L-227.199 756.514"/>
</mask>
<path d="M132.54 414.482L131.795 415.15L131.796 415.15L132.54 414.482ZM136.466 427.205L137.457 427.337L137.457 427.337L136.466 427.205ZM131.284 436.959L131.95 437.706L131.95 437.706L131.284 436.959ZM-188.094 56.6978L-188.838 57.3651L131.795 415.15L132.54 414.482L133.285 413.815L-187.349 56.0304L-188.094 56.6978ZM132.54 414.482L131.796 415.15C134.712 418.403 136.049 422.742 135.474 427.074L136.466 427.205L137.457 427.337C138.109 422.427 136.592 417.504 133.285 413.815L132.54 414.482ZM136.466 427.205L135.474 427.073C135.006 430.592 133.28 433.84 130.619 436.213L131.284 436.959L131.95 437.706C134.967 435.016 136.925 431.333 137.457 427.337L136.466 427.205ZM131.284 436.959L130.619 436.213L-227.864 755.768L-227.199 756.514L-226.533 757.261L131.95 437.706L131.284 436.959Z" fill="#0C253F" mask="url(#path-37-inside-19_3_225)"/>
<mask id="path-39-inside-20_3_225" fill="white">
<path d="M-228.28 755.315L130.204 435.753C132.755 433.482 134.407 430.372 134.86 426.99C135.409 422.843 134.128 418.676 131.335 415.556L-189.299 57.7712"/>
</mask>
<path d="M130.204 435.753L129.539 435.006L129.538 435.006L130.204 435.753ZM134.86 426.99L135.851 427.123L135.851 427.121L134.86 426.99ZM131.335 415.556L132.08 414.889L132.08 414.888L131.335 415.556ZM-228.28 755.315L-227.614 756.061L130.869 436.499L130.204 435.753L129.538 435.006L-228.945 754.568L-228.28 755.315ZM130.204 435.753L130.869 436.5C133.598 434.07 135.367 430.742 135.851 427.123L134.86 426.99L133.869 426.857C133.448 430.002 131.912 432.894 129.539 435.006L130.204 435.753ZM134.86 426.99L135.851 427.121C136.439 422.686 135.068 418.227 132.08 414.889L131.335 415.556L130.59 416.223C133.188 419.126 134.38 423.001 133.869 426.859L134.86 426.99ZM131.335 415.556L132.08 414.888L-188.554 57.1039L-189.299 57.7712L-190.044 58.4386L130.59 416.223L131.335 415.556Z" fill="#0C253F" mask="url(#path-39-inside-20_3_225)"/>
<mask id="path-41-inside-21_3_225" fill="white">
<path d="M-193.816 54.311L109.963 407.934C112.829 411.276 114.146 415.689 113.563 420.055C113.061 423.826 111.185 427.274 108.286 429.75L-246.032 732.501"/>
</mask>
<path d="M109.963 407.934L110.722 407.283L110.721 407.282L109.963 407.934ZM113.563 420.055L112.572 419.922L112.571 419.923L113.563 420.055ZM108.286 429.75L107.637 428.99L107.637 428.99L108.286 429.75ZM-193.816 54.311L-194.575 54.9627L109.204 408.585L109.963 407.934L110.721 407.282L-193.058 53.6594L-193.816 54.311ZM109.963 407.934L109.204 408.585C111.886 411.712 113.117 415.841 112.572 419.922L113.563 420.055L114.554 420.187C115.175 415.538 113.773 410.84 110.722 407.283L109.963 407.934ZM113.563 420.055L112.571 419.923C112.103 423.449 110.348 426.674 107.637 428.99L108.286 429.75L108.936 430.511C112.022 427.875 114.02 424.203 114.554 420.187L113.563 420.055ZM108.286 429.75L107.637 428.99L-246.682 731.74L-246.032 732.501L-245.383 733.261L108.936 430.511L108.286 429.75Z" fill="#0C253F" mask="url(#path-41-inside-21_3_225)"/>
<mask id="path-43-inside-22_3_225" fill="white">
<path d="M-247.096 731.267L107.222 428.517C109.819 426.3 111.498 423.214 111.95 419.832C112.471 415.926 111.3 411.969 108.732 408.976L-195.041 55.3613"/>
</mask>
<path d="M107.222 428.517L106.573 427.756L106.573 427.756L107.222 428.517ZM111.95 419.832L112.942 419.964L112.942 419.964L111.95 419.832ZM108.732 408.976L109.491 408.325L109.49 408.325L108.732 408.976ZM-247.096 731.267L-246.446 732.027L107.872 429.277L107.222 428.517L106.573 427.756L-247.746 730.507L-247.096 731.267ZM107.222 428.517L107.872 429.277C110.656 426.9 112.457 423.59 112.942 419.964L111.95 419.832L110.959 419.699C110.539 422.837 108.982 425.7 106.573 427.756L107.222 428.517ZM111.95 419.832L112.942 419.964C113.5 415.776 112.244 411.535 109.491 408.325L108.732 408.976L107.973 409.628C110.355 412.404 111.442 416.076 110.959 419.7L111.95 419.832ZM108.732 408.976L109.49 408.325L-194.282 54.7097L-195.041 55.3613L-195.8 56.013L107.973 409.628L108.732 408.976Z" fill="#0C253F" mask="url(#path-43-inside-22_3_225)"/>
<mask id="path-45-inside-23_3_225" fill="white">
<path d="M-199.539 51.931L87.3853 401.392C90.0201 404.599 91.2134 408.793 90.6672 412.905C90.1637 416.697 88.247 420.12 85.2815 422.54L-264.872 708.479"/>
</mask>
<path d="M87.3853 401.392L86.6124 402.026L86.6127 402.027L87.3853 401.392ZM90.6672 412.905L89.6759 412.773L89.6759 412.773L90.6672 412.905ZM85.2815 422.54L84.6492 421.765L84.649 421.766L85.2815 422.54ZM-199.539 51.931L-200.312 52.5655L86.6124 402.026L87.3853 401.392L88.1582 400.757L-198.766 51.2964L-199.539 51.931ZM87.3853 401.392L86.6127 402.027C89.0712 405.019 90.1857 408.936 89.6759 412.773L90.6672 412.905L91.6585 413.036C92.2411 408.651 90.969 404.178 88.158 400.757L87.3853 401.392ZM90.6672 412.905L89.6759 412.773C89.2061 416.312 87.4184 419.506 84.6492 421.765L85.2815 422.54L85.9137 423.315C89.0756 420.735 91.1214 417.082 91.6585 413.036L90.6672 412.905ZM85.2815 422.54L84.649 421.766L-265.504 707.705L-264.872 708.479L-264.239 709.254L85.914 423.315L85.2815 422.54Z" fill="#0C253F" mask="url(#path-45-inside-23_3_225)"/>
<mask id="path-47-inside-24_3_225" fill="white">
<path d="M-265.899 707.221L84.2544 421.282C86.9033 419.12 88.6082 416.065 89.0607 412.683C89.5533 409.011 88.4841 405.271 86.1339 402.405L-200.791 52.9511"/>
</mask>
<path d="M84.2544 421.282L83.6221 420.507L83.6219 420.508L84.2544 421.282ZM89.0607 412.683L88.0696 412.55L88.0695 412.55L89.0607 412.683ZM86.1339 402.405L86.9072 401.771L86.9068 401.77L86.1339 402.405ZM-265.899 707.221L-265.266 707.996L84.8869 422.057L84.2544 421.282L83.6219 420.508L-266.531 706.446L-265.899 707.221ZM84.2544 421.282L84.8867 422.057C87.7327 419.734 89.5657 416.449 90.0518 412.816L89.0607 412.683L88.0695 412.55C87.6507 415.681 86.074 418.506 83.6221 420.507L84.2544 421.282ZM89.0607 412.683L90.0518 412.816C90.5815 408.868 89.4323 404.85 86.9072 401.771L86.1339 402.405L85.3606 403.039C87.5359 405.692 88.5252 409.154 88.0696 412.55L89.0607 412.683ZM86.1339 402.405L86.9068 401.77L-200.018 52.3165L-200.791 52.9511L-201.564 53.5856L85.3611 403.039L86.1339 402.405Z" fill="#0C253F" mask="url(#path-47-inside-24_3_225)"/>
<mask id="path-49-inside-25_3_225" fill="white">
<path d="M-205.255 49.5517L64.8082 394.843C67.2505 397.961 68.3005 401.835 67.7785 405.755C67.2661 409.568 65.3158 412.967 62.2765 415.33L-283.712 684.458"/>
</mask>
<path d="M64.8082 394.843L64.0205 395.459L64.021 395.46L64.8082 394.843ZM67.7785 405.755L68.7696 405.888L68.7698 405.887L67.7785 405.755ZM62.2765 415.33L61.6627 414.541L61.6625 414.541L62.2765 415.33ZM-205.255 49.5517L-206.043 50.1678L64.0205 395.459L64.8082 394.843L65.5959 394.227L-204.467 48.9356L-205.255 49.5517ZM64.8082 394.843L64.021 395.46C66.2967 398.365 67.2739 401.969 66.7873 405.623L67.7785 405.755L68.7698 405.887C69.3272 401.701 68.2042 397.557 65.5955 394.226L64.8082 394.843ZM67.7785 405.755L66.7875 405.622C66.3098 409.176 64.4947 412.339 61.6627 414.541L62.2765 415.33L62.8904 416.12C66.1369 413.595 68.2223 409.961 68.7696 405.888L67.7785 405.755ZM62.2765 415.33L61.6625 414.541L-284.326 683.668L-283.712 684.458L-283.098 685.247L62.8905 416.12L62.2765 415.33Z" fill="#0C253F" mask="url(#path-49-inside-25_3_225)"/>
<mask id="path-51-inside-26_3_225" fill="white">
<path d="M-284.707 683.18L61.2815 414.046C63.9822 411.946 65.72 408.922 66.1731 405.533C66.6351 402.044 65.7038 398.603 63.5319 395.825L-206.539 50.5397"/>
</mask>
<path d="M61.2815 414.046L60.6676 413.256L60.6675 413.256L61.2815 414.046ZM66.1731 405.533L67.1643 405.665L67.1644 405.664L66.1731 405.533ZM63.5319 395.825L64.3198 395.209L64.3196 395.208L63.5319 395.825ZM-284.707 683.18L-284.093 683.969L61.8954 414.835L61.2815 414.046L60.6675 413.256L-285.321 682.391L-284.707 683.18ZM61.2815 414.046L61.8953 414.835C64.8028 412.574 66.6764 409.315 67.1643 405.665L66.1731 405.533L65.1819 405.4C64.7636 408.529 63.1614 411.317 60.6676 413.256L61.2815 414.046ZM66.1731 405.533L67.1644 405.664C67.6615 401.91 66.6576 398.2 64.3198 395.209L63.5319 395.825L62.7441 396.44C64.75 399.007 65.6086 402.178 65.1817 405.402L66.1731 405.533ZM63.5319 395.825L64.3196 395.208L-205.751 49.9236L-206.539 50.5397L-207.327 51.1558L62.7443 396.441L63.5319 395.825Z" fill="#0C253F" mask="url(#path-51-inside-26_3_225)"/>
<mask id="path-53-inside-27_3_225" fill="white">
<path d="M-210.978 47.1717L42.2384 388.295C44.4428 391.27 45.3977 394.928 44.905 398.6C44.3906 402.434 42.3919 405.814 39.2796 408.114L-302.552 660.443"/>
</mask>
<path d="M42.2384 388.295L43.0419 387.699L43.0414 387.699L42.2384 388.295ZM44.905 398.6L43.9139 398.467L43.9139 398.467L44.905 398.6ZM39.2796 408.114L39.8735 408.918L39.8738 408.918L39.2796 408.114ZM-210.978 47.1717L-211.781 47.7678L41.4354 388.891L42.2384 388.295L43.0414 387.699L-210.175 46.5757L-210.978 47.1717ZM42.2384 388.295L41.435 388.89C43.4858 391.658 44.3717 395.055 43.9139 398.467L44.905 398.6L45.8961 398.733C46.4237 394.801 45.3998 390.882 43.0419 387.699L42.2384 388.295ZM44.905 398.6L43.9139 398.467C43.4355 402.033 41.58 405.171 38.6853 407.31L39.2796 408.114L39.8738 408.918C43.2037 406.458 45.3458 402.836 45.8961 398.733L44.905 398.6ZM39.2796 408.114L38.6857 407.309L-303.146 659.639L-302.552 660.443L-301.958 661.248L39.8735 408.918L39.2796 408.114Z" fill="#0C253F" mask="url(#path-53-inside-27_3_225)"/>
<mask id="path-55-inside-28_3_225" fill="white">
<path d="M-574.34 315.391L-321.124 656.515C-316.989 662.082 -309.097 663.259 -303.51 659.14L38.3071 406.817C41.0666 404.779 42.8452 401.781 43.2918 398.384C43.7257 395.129 42.8839 391.889 40.9286 389.252L-212.28 48.1293"/>
</mask>
<path d="M-321.124 656.515L-321.927 657.111L-321.927 657.111L-321.124 656.515ZM-303.51 659.14L-302.916 659.945L-302.916 659.945L-303.51 659.14ZM38.3071 406.817L38.901 407.621L38.9011 407.621L38.3071 406.817ZM43.2918 398.384L42.3006 398.252L42.3004 398.254L43.2918 398.384ZM40.9286 389.252L41.7319 388.656L41.7316 388.656L40.9286 389.252ZM-574.34 315.391L-575.143 315.987L-321.927 657.111L-321.124 656.515L-320.321 655.918L-573.538 314.795L-574.34 315.391ZM-321.124 656.515L-321.927 657.111C-317.463 663.121 -308.947 664.391 -302.916 659.945L-303.51 659.14L-304.103 658.336C-309.247 662.128 -316.515 661.043 -320.322 655.918L-321.124 656.515ZM-303.51 659.14L-302.916 659.945L38.901 407.621L38.3071 406.817L37.7132 406.012L-304.103 658.336L-303.51 659.14ZM38.3071 406.817L38.9011 407.621C41.8775 405.424 43.801 402.183 44.2833 398.514L43.2918 398.384L42.3004 398.254C41.8895 401.379 40.2558 404.135 37.7132 406.012L38.3071 406.817ZM43.2918 398.384L44.2831 398.516C44.7515 395.002 43.8414 391.502 41.7319 388.656L40.9286 389.252L40.1252 389.847C41.9264 392.277 42.7 395.256 42.3006 398.252L43.2918 398.384ZM40.9286 389.252L41.7316 388.656L-211.477 47.5333L-212.28 48.1293L-213.083 48.7254L40.1256 389.848L40.9286 389.252Z" fill="#0C253F" mask="url(#path-55-inside-28_3_225)"/>
<mask id="path-57-inside-29_3_225" fill="white">
<path d="M-216.701 44.7917L19.6535 381.752C21.6414 384.586 22.4861 388.034 22.0306 391.451C21.5258 395.258 19.4206 398.707 16.2669 400.91L-321.392 636.422C-327.622 640.77 -336.235 639.241 -340.599 633.031L-576.953 296.07"/>
</mask>
<path d="M19.6535 381.752L18.8348 382.327L18.8348 382.327L19.6535 381.752ZM22.0306 391.451L21.0393 391.319L21.0392 391.32L22.0306 391.451ZM16.2669 400.91L16.8389 401.73L16.8394 401.73L16.2669 400.91ZM-321.392 636.422L-321.964 635.601L-321.964 635.602L-321.392 636.422ZM-340.599 633.031L-341.418 633.605L-341.418 633.605L-340.599 633.031ZM-216.701 44.7917L-217.519 45.366L18.8348 382.327L19.6535 381.752L20.4722 381.178L-215.882 44.2175L-216.701 44.7917ZM19.6535 381.752L18.8348 382.327C20.6792 384.956 21.4616 388.152 21.0393 391.319L22.0306 391.451L23.0218 391.584C23.5107 387.916 22.6036 384.217 20.4721 381.178L19.6535 381.752ZM22.0306 391.451L21.0392 391.32C20.5715 394.847 18.6193 398.047 15.6942 400.09L16.2669 400.91L16.8394 401.73C20.2219 399.368 22.4801 395.669 23.0219 391.583L22.0306 391.451ZM16.2669 400.91L15.6947 400.09L-321.964 635.601L-321.392 636.422L-320.82 637.242L16.8389 401.73L16.2669 400.91ZM-321.392 636.422L-321.964 635.602C-327.742 639.634 -335.733 638.216 -339.781 632.456L-340.599 633.031L-341.418 633.605C-336.737 640.266 -327.503 641.905 -320.819 637.242L-321.392 636.422ZM-340.599 633.031L-339.781 632.456L-576.135 295.496L-576.953 296.07L-577.772 296.644L-341.418 633.605L-340.599 633.031Z" fill="#0C253F" mask="url(#path-57-inside-29_3_225)"/>
<mask id="path-59-inside-30_3_225" fill="white">
<path d="M-575.632 295.143L-339.271 632.104C-335.422 637.589 -327.816 638.934 -322.319 635.1L15.3397 399.589C18.1265 397.647 19.9805 394.605 20.424 391.244C20.8299 388.223 20.0851 385.178 18.3321 382.68L-218.022 45.7192"/>
</mask>
<path d="M-339.271 632.104L-340.089 632.678L-340.089 632.678L-339.271 632.104ZM-322.319 635.1L-321.747 635.921L-321.747 635.92L-322.319 635.1ZM15.3397 399.589L14.7679 398.768L14.7676 398.769L15.3397 399.589ZM20.424 391.244L19.4329 391.11L19.4325 391.113L20.424 391.244ZM18.3321 382.68L17.5134 383.254L17.5136 383.254L18.3321 382.68ZM-575.632 295.143L-576.451 295.717L-340.089 632.678L-339.271 632.104L-338.452 631.53L-574.813 294.568L-575.632 295.143ZM-339.271 632.104L-340.089 632.678C-335.924 638.614 -327.697 640.069 -321.747 635.921L-322.319 635.1L-322.891 634.28C-327.936 637.798 -334.92 636.563 -338.452 631.53L-339.271 632.104ZM-322.319 635.1L-321.747 635.92L15.9117 400.409L15.3397 399.589L14.7676 398.769L-322.891 634.28L-322.319 635.1ZM15.3397 399.589L15.9114 400.409C18.9281 398.307 20.935 395.015 21.4153 391.374L20.424 391.244L19.4325 391.113C19.026 394.195 17.3248 396.987 14.7679 398.768L15.3397 399.589ZM20.424 391.244L21.415 391.377C21.8545 388.106 21.0477 384.808 19.1507 382.105L18.3321 382.68L17.5136 383.254C19.1225 385.547 19.8052 388.339 19.4329 391.11L20.424 391.244ZM18.3321 382.68L19.1508 382.106L-217.203 45.1449L-218.022 45.7192L-218.841 46.2934L17.5134 383.254L18.3321 382.68Z" fill="#0C253F" mask="url(#path-59-inside-30_3_225)"/>
<mask id="path-61-inside-31_3_225" fill="white">
<path d="M-222.417 42.4198L-2.91705 375.211C-1.14506 377.897 -0.402659 381.128 -0.829614 384.305C-1.3446 388.146 -3.49756 391.57 -6.73736 393.693L-340.239 612.407C-346.399 616.446 -354.716 614.729 -358.778 608.581L-578.278 275.79"/>
</mask>
<path d="M-2.91705 375.211L-3.75182 375.762L-3.75177 375.762L-2.91705 375.211ZM-0.829614 384.305L-1.82066 384.172L-1.82075 384.172L-0.829614 384.305ZM-6.73736 393.693L-7.28555 392.857L-7.28574 392.857L-6.73736 393.693ZM-340.239 612.407L-339.691 613.243L-339.691 613.243L-340.239 612.407ZM-358.778 608.581L-359.613 609.132L-359.612 609.133L-358.778 608.581ZM-222.417 42.4198L-223.252 42.9704L-3.75182 375.762L-2.91705 375.211L-2.08228 374.661L-221.582 41.8692L-222.417 42.4198ZM-2.91705 375.211L-3.75177 375.762C-2.11206 378.247 -1.4261 381.236 -1.82066 384.172L-0.829614 384.305L0.161489 384.438C0.620785 381.021 -0.178065 377.547 -2.08239 374.661L-2.91705 375.211ZM-0.829614 384.305L-1.82075 384.172C-2.29722 387.726 -4.28892 390.893 -7.28555 392.857L-6.73736 393.693L-6.18918 394.53C-2.70621 392.247 -0.391926 388.567 0.161519 384.438L-0.829614 384.305ZM-6.73736 393.693L-7.28574 392.857L-340.788 611.57L-340.239 612.407L-339.691 613.243L-6.18898 394.53L-6.73736 393.693ZM-340.239 612.407L-340.788 611.57C-346.487 615.307 -354.185 613.719 -357.944 608.03L-358.778 608.581L-359.612 609.133C-355.247 615.74 -346.312 617.584 -339.691 613.243L-340.239 612.407ZM-358.778 608.581L-357.943 608.031L-577.443 275.239L-578.278 275.79L-579.113 276.34L-359.613 609.132L-358.778 608.581Z" fill="#0C253F" mask="url(#path-61-inside-31_3_225)"/>
<mask id="path-63-inside-32_3_225" fill="white">
<path d="M-576.924 274.901L-357.424 607.693C-353.855 613.102 -346.544 614.615 -341.121 611.054L-7.62688 392.347C-4.77473 390.475 -2.8806 387.465 -2.42877 384.09C-2.05741 381.295 -2.70565 378.452 -4.26339 376.094L-223.77 43.3013"/>
</mask>
<path d="M-357.424 607.693L-358.259 608.243L-358.259 608.244L-357.424 607.693ZM-341.121 611.054L-341.669 610.217L-341.67 610.218L-341.121 611.054ZM-7.62688 392.347L-7.0785 393.183L-7.07824 393.183L-7.62688 392.347ZM-2.42877 384.09L-1.43762 384.223L-1.43747 384.222L-2.42877 384.09ZM-4.26339 376.094L-5.09816 376.644L-5.09784 376.645L-4.26339 376.094ZM-576.924 274.901L-577.759 275.452L-358.259 608.243L-357.424 607.693L-356.59 607.142L-576.09 274.351L-576.924 274.901ZM-357.424 607.693L-358.259 608.244C-354.386 614.113 -346.456 615.753 -340.572 611.89L-341.121 611.054L-341.67 610.218C-346.632 613.476 -353.324 612.092 -356.59 607.142L-357.424 607.693ZM-341.121 611.054L-340.573 611.89L-7.0785 393.183L-7.62688 392.347L-8.17526 391.51L-341.669 610.217L-341.121 611.054ZM-7.62688 392.347L-7.07824 393.183C-3.98387 391.152 -1.92798 387.886 -1.43762 384.223L-2.42877 384.09L-3.41992 383.958C-3.83322 387.045 -5.56558 389.798 -8.17552 391.511L-7.62688 392.347ZM-2.42877 384.09L-1.43747 384.222C-1.03448 381.189 -1.73777 378.103 -3.42901 375.542L-4.26339 376.094L-5.09784 376.645C-3.67348 378.801 -3.08034 381.402 -3.42006 383.959L-2.42877 384.09ZM-4.26339 376.094L-3.42869 375.543L-222.936 42.7507L-223.77 43.3013L-224.605 43.8519L-5.09816 376.644L-4.26339 376.094Z" fill="#0C253F" mask="url(#path-63-inside-32_3_225)"/>
<mask id="path-65-inside-33_3_225" fill="white">
<path d="M-228.14 40.0397L-25.4942 368.662C-23.9303 371.194 -23.2838 374.215 -23.682 377.151C-24.2008 381.036 -26.4159 384.432 -29.7565 386.482L-359.072 588.386C-365.169 592.123 -373.189 590.211 -376.942 584.133L-579.595 255.503"/>
</mask>
<path d="M-25.4942 368.662L-26.3453 369.187L-26.3449 369.188L-25.4942 368.662ZM-23.682 377.151L-24.673 377.017L-24.6733 377.019L-23.682 377.151ZM-29.7565 386.482L-29.2338 387.335L-29.2335 387.334L-29.7565 386.482ZM-359.072 588.386L-358.549 589.238L-358.549 589.238L-359.072 588.386ZM-376.942 584.133L-377.794 584.658L-377.793 584.659L-376.942 584.133ZM-228.14 40.0397L-228.991 40.5646L-26.3453 369.187L-25.4942 368.662L-24.643 368.138L-227.289 39.5148L-228.14 40.0397ZM-25.4942 368.662L-26.3449 369.188C-24.902 371.523 -24.3061 374.312 -24.673 377.017L-23.682 377.151L-22.6911 377.286C-22.2615 374.119 -22.9586 370.864 -24.6434 368.137L-25.4942 368.662ZM-23.682 377.151L-24.6733 377.019C-25.1521 380.604 -27.1945 383.736 -30.2796 385.63L-29.7565 386.482L-29.2335 387.334C-25.6374 385.127 -23.2496 381.467 -22.6909 377.284L-23.682 377.151ZM-29.7565 386.482L-30.2792 385.629L-359.595 587.533L-359.072 588.386L-358.549 589.238L-29.2338 387.335L-29.7565 386.482ZM-359.072 588.386L-359.594 587.533C-365.222 590.982 -372.628 589.216 -376.092 583.608L-376.942 584.133L-377.793 584.659C-373.751 591.205 -365.116 593.263 -358.549 589.238L-359.072 588.386ZM-376.942 584.133L-376.091 583.608L-578.744 254.978L-579.595 255.503L-580.446 256.028L-377.794 584.658L-376.942 584.133Z" fill="#0C253F" mask="url(#path-65-inside-33_3_225)"/>
<mask id="path-67-inside-34_3_225" fill="white">
<path d="M-578.217 254.66L-375.564 583.29C-372.281 588.617 -365.264 590.289 -359.923 587.014L-30.5939 385.112C-27.6699 383.318 -25.7358 380.34 -25.2821 376.944C-24.9374 374.369 -25.5033 371.726 -26.8659 369.507L-229.519 40.8906"/>
</mask>
<path d="M-375.564 583.29L-374.713 582.765L-374.713 582.765L-375.564 583.29ZM-359.923 587.014L-360.446 586.161L-360.446 586.162L-359.923 587.014ZM-30.5939 385.112L-30.0712 385.964L-30.0709 385.964L-30.5939 385.112ZM-25.2821 376.944L-26.2732 376.812L-26.2732 376.812L-25.2821 376.944ZM-26.8659 369.507L-26.0137 368.984L-26.0147 368.982L-26.8659 369.507ZM-578.217 254.66L-579.068 255.184L-376.416 583.815L-375.564 583.29L-374.713 582.765L-577.366 254.135L-578.217 254.66ZM-375.564 583.29L-376.416 583.815C-372.843 589.611 -365.21 591.429 -359.401 587.867L-359.923 587.014L-360.446 586.162C-365.317 589.148 -371.72 587.622 -374.713 582.765L-375.564 583.29ZM-359.923 587.014L-359.401 587.867L-30.0712 385.964L-30.5939 385.112L-31.1165 384.259L-360.446 586.161L-359.923 587.014ZM-30.5939 385.112L-30.0709 385.964C-26.8904 384.013 -24.7844 380.771 -24.2909 377.077L-25.2821 376.944L-26.2732 376.812C-26.6872 379.91 -28.4496 382.623 -31.1168 384.259L-30.5939 385.112ZM-25.2821 376.944L-24.2909 377.077C-23.9155 374.271 -24.5316 371.398 -26.0137 368.984L-26.8659 369.507L-27.7181 370.03C-26.4749 372.055 -25.9594 374.466 -26.2732 376.812L-25.2821 376.944ZM-26.8659 369.507L-26.0147 368.982L-228.668 40.3656L-229.519 40.8906L-230.371 41.4155L-27.7171 370.032L-26.8659 369.507Z" fill="#0C253F" mask="url(#path-67-inside-34_3_225)"/>
</g>
</svg>
