<svg width="184" height="72" viewBox="0 0 184 72" fill="none" xmlns="http://www.w3.org/2000/svg">
<g clip-path="url(#clip0_2_44)">
<path d="M16.0004 23.026L22.8937 27.186C23.4004 27.4927 24.0271 27.0394 23.8937 26.466L22.0671 18.626L28.1471 13.3594C28.5871 12.9727 28.3604 12.2394 27.7604 12.186L19.7471 11.506L16.6137 4.11935C16.3871 3.57268 15.6137 3.57268 15.3871 4.11935L12.2537 11.506L4.2404 12.186C3.65373 12.2394 3.41373 12.9727 3.86707 13.3594L9.94707 18.626L8.1204 26.466C7.98707 27.0394 8.61373 27.4927 9.1204 27.186L16.0004 23.026Z" fill="#F59E0B"/>
</g>
<g clip-path="url(#clip1_2_44)">
<path d="M54.0004 23.026L60.8937 27.186C61.4004 27.4927 62.0271 27.0394 61.8937 26.466L60.0671 18.626L66.1471 13.3594C66.5871 12.9727 66.3604 12.2394 65.7604 12.186L57.7471 11.506L54.6137 4.11935C54.3871 3.57268 53.6137 3.57268 53.3871 4.11935L50.2537 11.506L42.2404 12.186C41.6537 12.2394 41.4137 12.9727 41.8671 13.3594L47.9471 18.626L46.1204 26.466C45.9871 27.0394 46.6137 27.4927 47.1204 27.186L54.0004 23.026Z" fill="#F59E0B"/>
</g>
<g clip-path="url(#clip2_2_44)">
<path d="M92.0004 23.026L98.8937 27.186C99.4004 27.4927 100.027 27.0394 99.8937 26.466L98.0671 18.626L104.147 13.3594C104.587 12.9727 104.36 12.2394 103.76 12.186L95.7471 11.506L92.6137 4.11935C92.3871 3.57268 91.6137 3.57268 91.3871 4.11935L88.2537 11.506L80.2404 12.186C79.6537 12.2394 79.4137 12.9727 79.8671 13.3594L85.9471 18.626L84.1204 26.466C83.9871 27.0394 84.6137 27.4927 85.1204 27.186L92.0004 23.026Z" fill="#F59E0B"/>
</g>
<g clip-path="url(#clip3_2_44)">
<path d="M130 23.026L136.894 27.186C137.4 27.4927 138.027 27.0394 137.894 26.466L136.067 18.626L142.147 13.3594C142.587 12.9727 142.36 12.2394 141.76 12.186L133.747 11.506L130.614 4.11935C130.387 3.57268 129.614 3.57268 129.387 4.11935L126.254 11.506L118.24 12.186C117.654 12.2394 117.414 12.9727 117.867 13.3594L123.947 18.626L122.12 26.466C121.987 27.0394 122.614 27.4927 123.12 27.186L130 23.026Z" fill="#F59E0B"/>
</g>
<g clip-path="url(#clip4_2_44)">
<path d="M168 23.026L174.894 27.186C175.4 27.4927 176.027 27.0394 175.894 26.466L174.067 18.626L180.147 13.3594C180.587 12.9727 180.36 12.2394 179.76 12.186L171.747 11.506L168.614 4.11935C168.387 3.57268 167.614 3.57268 167.387 4.11935L164.254 11.506L156.24 12.186C155.654 12.2394 155.414 12.9727 155.867 13.3594L161.947 18.626L160.12 26.466C159.987 27.0394 160.614 27.4927 161.12 27.186L168 23.026Z" fill="#F59E0B"/>
</g>
<path d="M1.14773 66V54.3636H5.60227C6.44318 54.3636 7.14205 54.4962 7.69886 54.7614C8.25947 55.0227 8.67803 55.3807 8.95455 55.8352C9.23485 56.2898 9.375 56.8049 9.375 57.3807C9.375 57.8542 9.28409 58.2595 9.10227 58.5966C8.92045 58.9299 8.67614 59.2008 8.36932 59.4091C8.0625 59.6174 7.7197 59.767 7.34091 59.858V59.9716C7.75379 59.9943 8.14962 60.1212 8.52841 60.3523C8.91098 60.5795 9.22348 60.9015 9.46591 61.3182C9.70833 61.7348 9.82955 62.2386 9.82955 62.8295C9.82955 63.4318 9.68371 63.9735 9.39205 64.4545C9.10038 64.9318 8.66099 65.3087 8.07386 65.5852C7.48674 65.8617 6.74811 66 5.85795 66H1.14773ZM3.25568 64.2386H5.52273C6.28788 64.2386 6.83902 64.0928 7.17614 63.8011C7.51705 63.5057 7.6875 63.1269 7.6875 62.6648C7.6875 62.3201 7.60227 62.0095 7.43182 61.733C7.26136 61.4527 7.01894 61.233 6.70455 61.0739C6.39015 60.911 6.01515 60.8295 5.57955 60.8295H3.25568V64.2386ZM3.25568 59.3125H5.34091C5.70455 59.3125 6.0322 59.2462 6.32386 59.1136C6.61553 58.9773 6.8447 58.786 7.01136 58.5398C7.18182 58.2898 7.26705 57.9943 7.26705 57.6534C7.26705 57.2027 7.10795 56.8314 6.78977 56.5398C6.47538 56.2481 6.00758 56.1023 5.38636 56.1023H3.25568V59.3125ZM11.6634 54.3636H14.2429L17.6974 62.7955H17.8338L21.2884 54.3636H23.8679V66H21.8452V58.0057H21.7372L18.5213 65.9659H17.0099L13.794 57.9886H13.6861V66H11.6634V54.3636ZM28.6122 66L25.3281 54.3636H27.5952L29.6918 62.9148H29.7997L32.0384 54.3636H34.1009L36.3452 62.9205H36.4474L38.544 54.3636H40.8111L37.527 66H35.4474L33.1179 57.8352H33.027L30.6918 66H28.6122ZM50.9006 53.8182L47.1506 67.75H45.3494L49.0994 53.8182H50.9006ZM66.233 58.2898H64.108C64.0473 57.9413 63.9356 57.6326 63.7727 57.3636C63.6098 57.0909 63.4072 56.8598 63.1648 56.6705C62.9223 56.4811 62.6458 56.339 62.3352 56.2443C62.0284 56.1458 61.697 56.0966 61.3409 56.0966C60.7083 56.0966 60.1477 56.2557 59.6591 56.5739C59.1705 56.8883 58.7879 57.3504 58.5114 57.9602C58.2348 58.5663 58.0966 59.3068 58.0966 60.1818C58.0966 61.072 58.2348 61.822 58.5114 62.4318C58.7917 63.0379 59.1742 63.4962 59.6591 63.8068C60.1477 64.1136 60.7064 64.267 61.3352 64.267C61.6837 64.267 62.0095 64.2216 62.3125 64.1307C62.6193 64.036 62.8939 63.8977 63.1364 63.7159C63.3826 63.5341 63.589 63.3106 63.7557 63.0455C63.9261 62.7803 64.0436 62.4773 64.108 62.1364L66.233 62.1477C66.1534 62.7008 65.9811 63.2197 65.7159 63.7045C65.4545 64.1894 65.1117 64.6174 64.6875 64.9886C64.2633 65.3561 63.767 65.6439 63.1989 65.8523C62.6307 66.0568 62 66.1591 61.3068 66.1591C60.2841 66.1591 59.3712 65.9223 58.5682 65.4489C57.7652 64.9754 57.1326 64.2917 56.6705 63.3977C56.2083 62.5038 55.9773 61.4318 55.9773 60.1818C55.9773 58.928 56.2102 57.8561 56.6761 56.9659C57.142 56.072 57.7765 55.3883 58.5795 54.9148C59.3826 54.4413 60.2917 54.2045 61.3068 54.2045C61.9545 54.2045 62.5568 54.2955 63.1136 54.4773C63.6705 54.6591 64.1667 54.9261 64.6023 55.2784C65.0379 55.6269 65.3958 56.0549 65.6761 56.5625C65.9602 57.0663 66.1458 57.642 66.233 58.2898ZM70.5838 66.1761C70.0308 66.1761 69.5327 66.0777 69.0895 65.8807C68.6501 65.6799 68.3016 65.3845 68.044 64.9943C67.7902 64.6042 67.6634 64.1231 67.6634 63.5511C67.6634 63.0587 67.7543 62.6515 67.9361 62.3295C68.1179 62.0076 68.366 61.75 68.6804 61.5568C68.9948 61.3636 69.349 61.2178 69.7429 61.1193C70.1406 61.017 70.5516 60.9432 70.9759 60.8977C71.4872 60.8447 71.902 60.7973 72.2202 60.7557C72.5384 60.7102 72.7694 60.642 72.9134 60.5511C73.0611 60.4564 73.1349 60.3106 73.1349 60.1136V60.0795C73.1349 59.6515 73.008 59.3201 72.7543 59.0852C72.5005 58.8504 72.1349 58.733 71.6577 58.733C71.1539 58.733 70.7543 58.8428 70.4588 59.0625C70.1671 59.2822 69.9702 59.5417 69.8679 59.8409L67.9474 59.5682C68.099 59.0379 68.349 58.5947 68.6974 58.2386C69.0459 57.8788 69.4721 57.6098 69.9759 57.4318C70.4796 57.25 71.0365 57.1591 71.6463 57.1591C72.0668 57.1591 72.4853 57.2083 72.902 57.3068C73.3187 57.4053 73.6993 57.5682 74.044 57.7955C74.3887 58.0189 74.6652 58.3239 74.8736 58.7102C75.0857 59.0966 75.1918 59.5795 75.1918 60.1591V66H73.2145V64.8011H73.1463C73.0213 65.0436 72.8452 65.2708 72.6179 65.483C72.3944 65.6913 72.1122 65.8598 71.7713 65.9886C71.4342 66.1136 71.0384 66.1761 70.5838 66.1761ZM71.1179 64.6648C71.5308 64.6648 71.8887 64.5833 72.1918 64.4205C72.4948 64.2538 72.7277 64.0341 72.8906 63.7614C73.0573 63.4886 73.1406 63.1913 73.1406 62.8693V61.8409C73.0762 61.8939 72.9664 61.9432 72.8111 61.9886C72.6596 62.0341 72.4891 62.0739 72.2997 62.108C72.1103 62.142 71.9228 62.1723 71.7372 62.1989C71.5516 62.2254 71.3906 62.2481 71.2543 62.267C70.9474 62.3087 70.6728 62.3769 70.4304 62.4716C70.188 62.5663 69.9967 62.6989 69.8565 62.8693C69.7164 63.036 69.6463 63.2519 69.6463 63.517C69.6463 63.8958 69.7846 64.1818 70.0611 64.375C70.3376 64.5682 70.6899 64.6648 71.1179 64.6648ZM77.2599 66V57.2727H79.2543V58.7273H79.3452C79.5043 58.2235 79.777 57.8352 80.1634 57.5625C80.5535 57.286 80.9986 57.1477 81.4986 57.1477C81.6122 57.1477 81.7391 57.1534 81.8793 57.1648C82.0232 57.1723 82.1425 57.1856 82.2372 57.2045V59.0966C82.1501 59.0663 82.0118 59.0398 81.8224 59.017C81.6368 58.9905 81.4569 58.9773 81.2827 58.9773C80.9077 58.9773 80.5705 59.0587 80.2713 59.2216C79.9759 59.3807 79.7429 59.6023 79.5724 59.8864C79.402 60.1705 79.3168 60.4981 79.3168 60.8693V66H77.2599ZM90.1122 66L86.8281 54.3636H89.0952L91.1918 62.9148H91.2997L93.5384 54.3636H95.6009L97.8452 62.9205H97.9474L100.044 54.3636H102.311L99.027 66H96.9474L94.6179 57.8352H94.527L92.1918 66H90.1122ZM103.135 66V57.2727H105.129V58.7273H105.22C105.379 58.2235 105.652 57.8352 106.038 57.5625C106.429 57.286 106.874 57.1477 107.374 57.1477C107.487 57.1477 107.614 57.1534 107.754 57.1648C107.898 57.1723 108.018 57.1856 108.112 57.2045V59.0966C108.025 59.0663 107.887 59.0398 107.697 59.017C107.512 58.9905 107.332 58.9773 107.158 58.9773C106.783 58.9773 106.446 59.0587 106.146 59.2216C105.851 59.3807 105.618 59.6023 105.447 59.8864C105.277 60.1705 105.192 60.4981 105.192 60.8693V66H103.135ZM111.834 66.1761C111.281 66.1761 110.783 66.0777 110.339 65.8807C109.9 65.6799 109.552 65.3845 109.294 64.9943C109.04 64.6042 108.913 64.1231 108.913 63.5511C108.913 63.0587 109.004 62.6515 109.186 62.3295C109.368 62.0076 109.616 61.75 109.93 61.5568C110.245 61.3636 110.599 61.2178 110.993 61.1193C111.391 61.017 111.802 60.9432 112.226 60.8977C112.737 60.8447 113.152 60.7973 113.47 60.7557C113.788 60.7102 114.019 60.642 114.163 60.5511C114.311 60.4564 114.385 60.3106 114.385 60.1136V60.0795C114.385 59.6515 114.258 59.3201 114.004 59.0852C113.75 58.8504 113.385 58.733 112.908 58.733C112.404 58.733 112.004 58.8428 111.709 59.0625C111.417 59.2822 111.22 59.5417 111.118 59.8409L109.197 59.5682C109.349 59.0379 109.599 58.5947 109.947 58.2386C110.296 57.8788 110.722 57.6098 111.226 57.4318C111.73 57.25 112.286 57.1591 112.896 57.1591C113.317 57.1591 113.735 57.2083 114.152 57.3068C114.569 57.4053 114.949 57.5682 115.294 57.7955C115.639 58.0189 115.915 58.3239 116.124 58.7102C116.336 59.0966 116.442 59.5795 116.442 60.1591V66H114.464V64.8011H114.396C114.271 65.0436 114.095 65.2708 113.868 65.483C113.644 65.6913 113.362 65.8598 113.021 65.9886C112.684 66.1136 112.288 66.1761 111.834 66.1761ZM112.368 64.6648C112.781 64.6648 113.139 64.5833 113.442 64.4205C113.745 64.2538 113.978 64.0341 114.141 63.7614C114.307 63.4886 114.391 63.1913 114.391 62.8693V61.8409C114.326 61.8939 114.216 61.9432 114.061 61.9886C113.91 62.0341 113.739 62.0739 113.55 62.108C113.36 62.142 113.173 62.1723 112.987 62.1989C112.802 62.2254 112.641 62.2481 112.504 62.267C112.197 62.3087 111.923 62.3769 111.68 62.4716C111.438 62.5663 111.247 62.6989 111.107 62.8693C110.966 63.036 110.896 63.2519 110.896 63.517C110.896 63.8958 111.035 64.1818 111.311 64.375C111.588 64.5682 111.94 64.6648 112.368 64.6648ZM118.51 69.2727V57.2727H120.533V58.7159H120.652C120.758 58.5038 120.908 58.2784 121.101 58.0398C121.294 57.7973 121.555 57.5909 121.885 57.4205C122.214 57.2462 122.635 57.1591 123.146 57.1591C123.821 57.1591 124.429 57.3314 124.97 57.6761C125.516 58.017 125.947 58.5227 126.266 59.1932C126.588 59.8598 126.749 60.678 126.749 61.6477C126.749 62.6061 126.591 63.4205 126.277 64.0909C125.963 64.7614 125.535 65.2727 124.993 65.625C124.451 65.9773 123.838 66.1534 123.152 66.1534C122.652 66.1534 122.237 66.0701 121.908 65.9034C121.578 65.7367 121.313 65.536 121.112 65.3011C120.915 65.0625 120.762 64.8371 120.652 64.625H120.567V69.2727H118.51ZM120.527 61.6364C120.527 62.2008 120.607 62.6951 120.766 63.1193C120.929 63.5436 121.161 63.875 121.464 64.1136C121.771 64.3485 122.143 64.4659 122.578 64.4659C123.033 64.4659 123.413 64.3447 123.72 64.1023C124.027 63.8561 124.258 63.5208 124.413 63.0966C124.572 62.6686 124.652 62.1818 124.652 61.6364C124.652 61.0947 124.574 60.6136 124.419 60.1932C124.264 59.7727 124.033 59.4432 123.726 59.2045C123.419 58.9659 123.036 58.8466 122.578 58.8466C122.139 58.8466 121.766 58.9621 121.459 59.1932C121.152 59.4242 120.919 59.7481 120.76 60.1648C120.605 60.5814 120.527 61.072 120.527 61.6364Z" fill="#111827"/>
<defs>
<clipPath id="clip0_2_44">
<rect width="32" height="32" fill="white"/>
</clipPath>
<clipPath id="clip1_2_44">
<rect width="32" height="32" fill="white" transform="translate(38)"/>
</clipPath>
<clipPath id="clip2_2_44">
<rect width="32" height="32" fill="white" transform="translate(76)"/>
</clipPath>
<clipPath id="clip3_2_44">
<rect width="32" height="32" fill="white" transform="translate(114)"/>
</clipPath>
<clipPath id="clip4_2_44">
<rect width="32" height="32" fill="white" transform="translate(152)"/>
</clipPath>
</defs>
</svg>
