<svg width="41" height="40" viewBox="0 0 41 40" fill="none" xmlns="http://www.w3.org/2000/svg">
<g clip-path="url(#clip0_3_1270)">
<path d="M19.3167 2.26663L7.65008 7.44996C6.45008 7.98329 5.66675 9.18329 5.66675 10.5V18.3333C5.66675 27.5833 12.0667 36.2333 20.6667 38.3333C29.2667 36.2333 35.6667 27.5833 35.6667 18.3333V10.5C35.6667 9.18329 34.8834 7.98329 33.6834 7.44996L22.0167 2.26663C21.1667 1.88329 20.1667 1.88329 19.3167 2.26663ZM16.1501 27.15L11.8334 22.8333C11.1834 22.1833 11.1834 21.1333 11.8334 20.4833C12.4834 19.8333 13.5334 19.8333 14.1834 20.4833L17.3334 23.6166L27.1334 13.8166C27.7834 13.1666 28.8334 13.1666 29.4834 13.8166C30.1334 14.4666 30.1334 15.5166 29.4834 16.1666L18.5001 27.15C17.8667 27.8 16.8001 27.8 16.1501 27.15Z" fill="#0C253F"/>
</g>
<defs>
<clipPath id="clip0_3_1270">
<rect width="40" height="40" fill="white" transform="translate(0.666748)"/>
</clipPath>
</defs>
</svg>
