<svg width="40" height="40" viewBox="0 0 40 40" fill="none" xmlns="http://www.w3.org/2000/svg">
<path d="M4.25004 29.0833C4.00004 28.8333 3.88198 28.5417 3.89587 28.2083C3.90976 27.875 4.02782 27.5833 4.25004 27.3333L14.625 16.9583C14.7639 16.8194 14.9028 16.7222 15.0417 16.6667C15.1806 16.6111 15.3334 16.5833 15.5 16.5833C15.6667 16.5833 15.8195 16.6111 15.9584 16.6667C16.0973 16.7222 16.2361 16.8194 16.375 16.9583L22.4584 23.0417L32.5 13H28.4584C28.0973 13 27.7986 12.8819 27.5625 12.6458C27.3264 12.4097 27.2084 12.1111 27.2084 11.75C27.2084 11.3889 27.3264 11.0903 27.5625 10.8542C27.7986 10.6181 28.0973 10.5 28.4584 10.5H35.4167C35.7778 10.5 36.0764 10.6181 36.3125 10.8542C36.5486 11.0903 36.6667 11.3889 36.6667 11.75V18.7083C36.6667 19.0417 36.5486 19.3333 36.3125 19.5833C36.0764 19.8333 35.7917 19.9583 35.4584 19.9583C35.125 19.9583 34.8334 19.8333 34.5834 19.5833C34.3334 19.3333 34.2084 19.0417 34.2084 18.7083V14.8333L23.2917 25.75C23.1528 25.8889 23.0139 25.9861 22.875 26.0417C22.7361 26.0972 22.5834 26.125 22.4167 26.125C22.25 26.125 22.0973 26.0972 21.9584 26.0417C21.8195 25.9861 21.6806 25.8889 21.5417 25.75L15.4584 19.6667L6.00004 29.125C5.77782 29.3472 5.49309 29.4583 5.14587 29.4583C4.79865 29.4583 4.50004 29.3333 4.25004 29.0833Z" fill="#0C253F"/>
</svg>
