<svg width="41" height="40" viewBox="0 0 41 40" fill="none" xmlns="http://www.w3.org/2000/svg">
<g clip-path="url(#clip0_3_1251)">
<path d="M30.8665 9.46663C30.2665 10.0666 30.2165 11 30.7499 11.6666C33.1665 14.7 34.4332 18.85 33.2999 23.2C31.9832 28.2833 27.9999 32.0833 22.9499 33.1C14.4499 34.7833 6.99987 28.2166 6.99987 20C6.99987 13.2 12.0832 7.59996 18.6665 6.7833V10.15C13.4499 11.0333 9.61654 15.9166 10.4499 21.5333C11.0999 25.8833 14.7165 29.3833 19.0832 29.9166C25.1499 30.6666 30.3332 25.9333 30.3332 20C30.3332 17.9166 29.6999 16 28.6165 14.4C28.0499 13.5666 26.8332 13.5166 26.1165 14.2166L26.0999 14.2333C25.5332 14.8 25.4832 15.6833 25.9165 16.35C26.9165 17.8833 27.3165 19.85 26.7332 21.8833C26.0832 24.1666 24.1665 25.9833 21.8332 26.5C17.4999 27.45 13.6665 24.1833 13.6665 20C13.6665 16.9 15.7999 14.3166 18.6665 13.5666V17.1333C17.6665 17.7166 16.9999 18.7666 16.9999 20C16.9999 21.8333 18.4999 23.3333 20.3332 23.3333C22.1665 23.3333 23.6665 21.8333 23.6665 20C23.6665 18.7666 22.9999 17.7 21.9999 17.1333V4.51663C21.9999 3.86663 21.4665 3.3333 20.8165 3.3333C11.8832 2.99996 4.18321 10.1 3.69987 19C3.09987 29.9166 12.7165 38.7 23.7165 36.3333C30.1832 34.95 35.1832 30 36.6332 23.55C37.8165 18.2833 36.2999 13.2833 33.3499 9.59996C32.7332 8.81663 31.5665 8.76663 30.8665 9.46663Z" fill="#0C253F"/>
</g>
<defs>
<clipPath id="clip0_3_1251">
<rect width="40" height="40" fill="white" transform="translate(0.333252)"/>
</clipPath>
</defs>
</svg>
