<svg width="41" height="40" viewBox="0 0 41 40" fill="none" xmlns="http://www.w3.org/2000/svg">
<g clip-path="url(#clip0_3_1279)">
<path d="M22.2002 3.43344L12.9669 12.6668C12.3502 13.2834 12.0002 14.1334 12.0002 15.0168V31.6668C12.0002 33.5001 13.5002 35.0001 15.3336 35.0001H30.3336C31.6669 35.0001 32.8669 34.2001 33.4002 32.9834L38.8336 20.3001C40.2336 17.0001 37.8169 13.3334 34.2336 13.3334H24.8169L26.4002 5.70011C26.5669 4.86678 26.3169 4.01678 25.7169 3.41678C24.7336 2.45011 23.1669 2.45011 22.2002 3.43344ZM5.33358 35.0001C7.16691 35.0001 8.66691 33.5001 8.66691 31.6668V18.3334C8.66691 16.5001 7.16691 15.0001 5.33358 15.0001C3.50024 15.0001 2.00024 16.5001 2.00024 18.3334V31.6668C2.00024 33.5001 3.50024 35.0001 5.33358 35.0001Z" fill="#0C253F"/>
</g>
<defs>
<clipPath id="clip0_3_1279">
<rect width="40" height="40" fill="white" transform="translate(0.333252)"/>
</clipPath>
</defs>
</svg>
