<svg width="41" height="40" viewBox="0 0 41 40" fill="none" xmlns="http://www.w3.org/2000/svg">
<g clip-path="url(#clip0_3_1242)">
<path d="M9.00013 21.9667V26.65C9.00013 27.8667 9.6668 29 10.7335 29.5833L19.0668 34.1333C20.0668 34.6833 21.2668 34.6833 22.2668 34.1333L30.6001 29.5833C31.6668 29 32.3335 27.8667 32.3335 26.65V21.9667L22.2668 27.4667C21.2668 28.0167 20.0668 28.0167 19.0668 27.4667L9.00013 21.9667ZM19.0668 5.86667L5.0168 13.5333C3.8668 14.1667 3.8668 15.8333 5.0168 16.4667L19.0668 24.1333C20.0668 24.6833 21.2668 24.6833 22.2668 24.1333L35.6668 16.8167V26.6667C35.6668 27.5833 36.4168 28.3333 37.3335 28.3333C38.2501 28.3333 39.0001 27.5833 39.0001 26.6667V15.9833C39.0001 15.3667 38.6668 14.8167 38.1335 14.5167L22.2668 5.86667C21.2668 5.33334 20.0668 5.33334 19.0668 5.86667Z" fill="#0C253F"/>
</g>
<defs>
<clipPath id="clip0_3_1242">
<rect width="40" height="40" fill="white" transform="translate(0.666748)"/>
</clipPath>
</defs>
</svg>
