<svg width="40" height="40" viewBox="0 0 40 40" fill="none" xmlns="http://www.w3.org/2000/svg">
<g clip-path="url(#clip0_3_1261)">
<path d="M30.5334 9.46663C29.9334 10.0666 29.8834 11 30.4167 11.6666C32.8334 14.7 34.1001 18.85 32.9667 23.2C31.6501 28.2833 27.6667 32.0833 22.6167 33.1C14.1167 34.7833 6.66674 28.2166 6.66674 20C6.66674 13.2 11.7501 7.59996 18.3334 6.7833V10.15C13.1167 11.0333 9.28341 15.9166 10.1167 21.5333C10.7667 25.8833 14.3834 29.3833 18.7501 29.9166C24.8167 30.6666 30.0001 25.9333 30.0001 20C30.0001 17.9166 29.3667 16 28.2834 14.4C27.7167 13.5666 26.5001 13.5166 25.7834 14.2166L25.7667 14.2333C25.2001 14.8 25.1501 15.6833 25.5834 16.35C26.5834 17.8833 26.9834 19.85 26.4001 21.8833C25.7501 24.1666 23.8334 25.9833 21.5001 26.5C17.1667 27.45 13.3334 24.1833 13.3334 20C13.3334 16.9 15.4667 14.3166 18.3334 13.5666V17.1333C17.3334 17.7166 16.6667 18.7666 16.6667 20C16.6667 21.8333 18.1667 23.3333 20.0001 23.3333C21.8334 23.3333 23.3334 21.8333 23.3334 20C23.3334 18.7666 22.6667 17.7 21.6667 17.1333V4.51663C21.6667 3.86663 21.1334 3.3333 20.4834 3.3333C11.5501 2.99996 3.85008 10.1 3.36674 19C2.76674 29.9166 12.3834 38.7 23.3834 36.3333C29.8501 34.95 34.8501 30 36.3001 23.55C37.4834 18.2833 35.9667 13.2833 33.0167 9.59996C32.4001 8.81663 31.2334 8.76663 30.5334 9.46663Z" fill="#0C253F"/>
</g>
<defs>
<clipPath id="clip0_3_1261">
<rect width="40" height="40" fill="white"/>
</clipPath>
</defs>
</svg>
